<svg viewBox="0 0 24 24" fill="none" xmlns="http://www.w3.org/2000/svg">
<g clip-path="url(#clip0_901_10998)">
<path d="M24 11.9111C24 5.28372 18.6274 -0.0888729 12 -0.0888729C5.37259 -0.0888729 0 5.28372 0 11.9111C0 17.5389 3.87432 22.261 9.10109 23.5578V15.5781H6.62659V11.9111H9.10109V10.331C9.10109 6.2466 10.9495 4.35348 14.9594 4.35348C15.7196 4.35348 17.0314 4.50252 17.568 4.65161V7.9758C17.2848 7.94599 16.7929 7.93106 16.1817 7.93106C14.214 7.93106 13.4538 8.67641 13.4538 10.6143V11.9111H17.3734L16.7001 15.5781H13.4538V23.8232C19.3955 23.1056 24 18.0464 24 11.9111Z" fill="#0866FF"/>
<path d="M16.7001 15.5781L17.3735 11.9111H13.4538V10.6142C13.4538 8.67636 14.214 7.93107 16.1817 7.93107C16.7929 7.93107 17.2848 7.94595 17.568 7.97576V4.65161C17.0314 4.50252 15.7196 4.35343 14.9594 4.35343C10.9495 4.35343 9.10108 6.2466 9.10108 10.331V11.9111H6.62659V15.5781H9.10108V23.5578C10.0295 23.7881 11.0003 23.9111 12 23.9111C12.4922 23.9111 12.9772 23.8808 13.4538 23.8232V15.5781H16.7001Z" fill="white"/>
</g>
<defs>
<clipPath id="clip0_901_10998">
<rect width="24" height="24" fill="white"/>
</clipPath>
</defs>
</svg>
