<svg viewBox="0 0 24 24" fill="none" xmlns="http://www.w3.org/2000/svg">
<g clip-path="url(#clip0_901_10961)">
<mask id="mask0_901_10961" style="mask-type:luminance" maskUnits="userSpaceOnUse" x="0" y="0" width="24" height="24">
<path d="M23.4545 9.81818H12.2727V14.4545H18.7091C18.1091 17.4 15.6 19.0909 12.2727 19.0909C8.34543 19.0909 5.1818 15.9273 5.1818 12C5.1818 8.07273 8.34543 4.90909 12.2727 4.90909C13.9636 4.90909 15.4909 5.50909 16.6909 6.49091L20.1818 3C18.0545 1.14545 15.3273 0 12.2727 0C5.61816 0 0.272705 5.34545 0.272705 12C0.272705 18.6545 5.61816 24 12.2727 24C18.2727 24 23.7273 19.6364 23.7273 12C23.7273 11.2909 23.6182 10.5273 23.4545 9.81818Z" fill="white"/>
</mask>
<g mask="url(#mask0_901_10961)">
<path d="M-0.818237 19.091V4.90918L8.45449 12.0001L-0.818237 19.091Z" fill="#FBBC05"/>
</g>
<mask id="mask1_901_10961" style="mask-type:luminance" maskUnits="userSpaceOnUse" x="0" y="0" width="24" height="24">
<path d="M23.4545 9.81818H12.2727V14.4545H18.7091C18.1091 17.4 15.6 19.0909 12.2727 19.0909C8.34543 19.0909 5.1818 15.9273 5.1818 12C5.1818 8.07273 8.34543 4.90909 12.2727 4.90909C13.9636 4.90909 15.4909 5.50909 16.6909 6.49091L20.1818 3C18.0545 1.14545 15.3273 0 12.2727 0C5.61816 0 0.272705 5.34545 0.272705 12C0.272705 18.6545 5.61816 24 12.2727 24C18.2727 24 23.7273 19.6364 23.7273 12C23.7273 11.2909 23.6182 10.5273 23.4545 9.81818Z" fill="white"/>
</mask>
<g mask="url(#mask1_901_10961)">
<path d="M-0.818237 4.90918L8.45449 12.0001L12.2727 8.67282L25.3636 6.54554V-1.09082H-0.818237V4.90918Z" fill="#EA4335"/>
</g>
<mask id="mask2_901_10961" style="mask-type:luminance" maskUnits="userSpaceOnUse" x="0" y="0" width="24" height="24">
<path d="M23.4545 9.81818H12.2727V14.4545H18.7091C18.1091 17.4 15.6 19.0909 12.2727 19.0909C8.34543 19.0909 5.1818 15.9273 5.1818 12C5.1818 8.07273 8.34543 4.90909 12.2727 4.90909C13.9636 4.90909 15.4909 5.50909 16.6909 6.49091L20.1818 3C18.0545 1.14545 15.3273 0 12.2727 0C5.61816 0 0.272705 5.34545 0.272705 12C0.272705 18.6545 5.61816 24 12.2727 24C18.2727 24 23.7273 19.6364 23.7273 12C23.7273 11.2909 23.6182 10.5273 23.4545 9.81818Z" fill="white"/>
</mask>
<g mask="url(#mask2_901_10961)">
<path d="M-0.818237 19.091L15.5454 6.54554L19.8545 7.091L25.3636 -1.09082V25.091H-0.818237V19.091Z" fill="#34A853"/>
</g>
<mask id="mask3_901_10961" style="mask-type:luminance" maskUnits="userSpaceOnUse" x="0" y="0" width="24" height="24">
<path d="M23.4545 9.81818H12.2727V14.4545H18.7091C18.1091 17.4 15.6 19.0909 12.2727 19.0909C8.34543 19.0909 5.1818 15.9273 5.1818 12C5.1818 8.07273 8.34543 4.90909 12.2727 4.90909C13.9636 4.90909 15.4909 5.50909 16.6909 6.49091L20.1818 3C18.0545 1.14545 15.3273 0 12.2727 0C5.61816 0 0.272705 5.34545 0.272705 12C0.272705 18.6545 5.61816 24 12.2727 24C18.2727 24 23.7273 19.6364 23.7273 12C23.7273 11.2909 23.6182 10.5273 23.4545 9.81818Z" fill="white"/>
</mask>
<g mask="url(#mask3_901_10961)">
<path d="M25.3636 25.091L8.45452 12.0001L6.27271 10.3637L25.3636 4.90918V25.091Z" fill="#4285F4"/>
</g>
</g>
<defs>
<clipPath id="clip0_901_10961">
<rect width="24" height="24" fill="white"/>
</clipPath>
</defs>
</svg>
