<svg viewBox="0 0 24 24" fill="none" xmlns="http://www.w3.org/2000/svg">
<g clip-path="url(#clip0_901_10979)">
<path d="M23.997 12.0041C23.997 18.6292 18.6262 24 12.0011 24C5.37593 24 0.00512695 18.6292 0.00512695 12.0041C0.00512695 5.37895 5.37593 0.00814819 12.0011 0.00814819C18.6262 0.00814819 23.997 5.37895 23.997 12.0041Z" fill="#4CC764"/>
<path d="M20.0012 11.3053C20.0012 7.72185 16.4087 4.80639 11.9929 4.80639C7.57741 4.80639 3.98456 7.72185 3.98456 11.3053C3.98456 14.5179 6.83359 17.2083 10.6821 17.717C10.9429 17.7734 11.2979 17.889 11.3876 18.1119C11.4683 18.3142 11.4404 18.6315 11.4136 18.836C11.4136 18.836 11.3195 19.4011 11.2992 19.5216C11.2643 19.7239 11.1383 20.3134 11.9929 19.9533C12.8477 19.5932 16.6048 17.2376 18.2849 15.3039H18.2846C19.4451 14.031 20.0012 12.7394 20.0012 11.3053Z" fill="white"/>
<path d="M17.337 13.375C17.4214 13.375 17.4899 13.3065 17.4899 13.2221V12.6542C17.4899 12.5701 17.421 12.5013 17.337 12.5013H15.8079V11.9115H17.337C17.4214 11.9115 17.4899 11.843 17.4899 11.7585V11.1906C17.4899 11.1066 17.421 11.0377 17.337 11.0377H15.8079V10.448H17.337C17.4214 10.448 17.4899 10.3795 17.4899 10.295V9.72711C17.4899 9.64307 17.421 9.57424 17.337 9.57424H15.09H15.087C15.0026 9.57424 14.9341 9.64269 14.9341 9.72711V9.73041V9.73064V13.2194V13.2197V13.2221C14.9341 13.3065 15.0026 13.375 15.087 13.375H15.09H17.337Z" fill="#4CC764"/>
<path d="M9.01448 13.375C9.09897 13.375 9.16743 13.3065 9.16743 13.2221V12.6542C9.16743 12.5701 9.0986 12.5013 9.01448 12.5013H7.48537V9.72711C7.48537 9.64307 7.41662 9.57424 7.3325 9.57424H6.76457C6.68007 9.57424 6.61169 9.64269 6.61169 9.72711V13.2194V13.2197V13.2221C6.61169 13.3065 6.68007 13.375 6.76457 13.375H6.76757H9.01448Z" fill="#4CC764"/>
<path d="M10.369 9.57424H9.80107C9.71665 9.57424 9.64819 9.64269 9.64819 9.72711V13.2221C9.64819 13.3065 9.71665 13.375 9.80107 13.375H10.369C10.4535 13.375 10.5219 13.3065 10.5219 13.2221V9.72711C10.5219 9.64269 10.4535 9.57424 10.369 9.57424Z" fill="#4CC764"/>
<path d="M14.2353 9.57424H13.6674C13.583 9.57424 13.5145 9.64269 13.5145 9.72711V11.803L11.9154 9.64352C11.9117 9.63797 11.9075 9.63265 11.9031 9.6277C11.9028 9.62732 11.9025 9.62695 11.9021 9.62657C11.8992 9.62327 11.8961 9.62005 11.893 9.61698C11.892 9.61615 11.8909 9.61533 11.89 9.61443C11.8873 9.61203 11.8846 9.6097 11.8817 9.60738C11.8804 9.60641 11.879 9.60536 11.8776 9.60431C11.875 9.60243 11.8723 9.60056 11.8695 9.59876C11.868 9.59771 11.8664 9.59688 11.8648 9.59591C11.8621 9.59433 11.8593 9.59268 11.8564 9.59134C11.8548 9.59044 11.8532 9.58969 11.8515 9.58886C11.8486 9.58759 11.8456 9.58624 11.8426 9.58511C11.8409 9.58444 11.8393 9.58384 11.8376 9.58324C11.8345 9.58211 11.8315 9.58121 11.8283 9.58024C11.8265 9.57971 11.8247 9.57926 11.8229 9.57889C11.8199 9.57814 11.8169 9.57746 11.8138 9.57686C11.8117 9.57649 11.8095 9.57619 11.8073 9.57589C11.8046 9.57552 11.8019 9.57514 11.7991 9.57492C11.7964 9.57469 11.7937 9.57454 11.7908 9.57447C11.7892 9.57447 11.7875 9.57424 11.7857 9.57424H11.2209C11.1364 9.57424 11.0679 9.64269 11.0679 9.72711V13.2221C11.0679 13.3065 11.1364 13.375 11.2209 13.375H11.7888C11.8732 13.375 11.9417 13.3065 11.9417 13.2221V11.147L13.5428 13.3091C13.5538 13.3247 13.5673 13.3375 13.5822 13.3476C13.5828 13.3481 13.5834 13.3485 13.5839 13.3489C13.5871 13.3509 13.5903 13.3529 13.5935 13.3548C13.595 13.3556 13.5964 13.3563 13.598 13.3572C13.6004 13.3584 13.6029 13.3596 13.6054 13.3608C13.6079 13.3619 13.6104 13.3629 13.6129 13.364C13.6146 13.3647 13.6162 13.3652 13.6178 13.3657C13.6213 13.367 13.6247 13.3682 13.6283 13.3691C13.6291 13.3693 13.6298 13.3695 13.6306 13.3697C13.6433 13.3731 13.6567 13.375 13.6705 13.375H14.2353C14.3197 13.375 14.3882 13.3065 14.3882 13.2221V9.72711C14.3882 9.64269 14.3197 9.57424 14.2353 9.57424Z" fill="#4CC764"/>
</g>
<defs>
<clipPath id="clip0_901_10979">
<rect width="24" height="24" fill="white"/>
</clipPath>
</defs>
</svg>
