<svg viewBox="0 0 24 24" fill="none" xmlns="http://www.w3.org/2000/svg">
<path fill-rule="evenodd" clip-rule="evenodd" d="M12 18C15.3137 18 18 15.3137 18 12C18 8.68629 15.3137 6 12 6C8.68629 6 6 8.68629 6 12C6 15.3137 8.68629 18 12 18ZM12 20C16.4183 20 20 16.4183 20 12C20 7.58172 16.4183 4 12 4C7.58172 4 4 7.58172 4 12C4 16.4183 7.58172 20 12 20Z" fill="#4D6296"/>
<path d="M17.9177 11.0042C18.0087 11.5489 18.4477 12 19 12V12C19.5523 12 20.0066 11.55 19.9384 11.002C19.4878 7.38167 16.6183 4.51217 12.998 4.06165C12.45 3.99344 12 4.44772 12 5V5C12 5.55228 12.4511 5.99127 12.9958 6.08226C15.5117 6.50251 17.4975 8.4883 17.9177 11.0042Z" fill="#EDE1A2"/>
</svg>
