<svg viewBox="0 0 228 54" fill="currentColor" xmlns="http://www.w3.org/2000/svg">
<g clip-path="url(#clip0_629_11229)">
<path d="M0 1.56227C0 0.945255 0.500039 0.445068 1.11687 0.445068H10.4717C11.0886 0.445068 11.5886 0.945254 11.5886 1.56226V50.4671C11.5886 51.0842 11.0886 51.5843 10.4717 51.5843H1.11687C0.500039 51.5843 0 51.0842 0 50.4671V1.56227Z" fill="black"/>
<path d="M30.7215 34.2913C30.4362 35.4919 29.0924 36.0075 27.9611 35.5153C20.0298 32.0647 18.6963 31.4846 6.99707 26.3948C9.76155 20.0367 17.1553 17.1242 23.5115 19.8895C29.172 22.3521 32.1007 28.4873 30.7215 34.2913Z" fill="black"/>
<path d="M148.776 47.2067C149.196 48.2611 147.959 49.1974 147.058 48.5064L141.086 43.9215C141.027 43.8766 141.027 43.7883 141.086 43.7438L145.819 40.1624C145.878 40.1179 145.963 40.1417 145.99 40.2102L148.776 47.2067Z" fill="black"/>
<path d="M134.647 33.3238C124.073 44.5974 111.258 49.949 105.177 45.8726C104.665 45.5291 104.679 44.8266 105.265 44.6343C105.928 44.4167 106.769 44.2435 107.8 43.4091C113.301 37.5442 116.985 32.6543 121.223 28.1358C123.229 25.9969 125.225 23.8697 127.333 21.6225C131.707 16.9592 136.107 13.3156 142.554 6.44237C143.266 5.5428 143.575 4.22294 143.983 3.23884C144.219 2.66894 144.916 2.61668 145.291 3.10634C149.745 8.91725 145.222 22.0502 134.647 33.3238Z" fill="black"/>
<path d="M135.869 39.7633L109.353 18.613C108.592 17.8554 109.036 17.117 109.353 16.8424C110.66 15.4249 113.546 12.2931 114.633 11.1058C115.991 9.62161 116.57 10.4009 117.275 11.1058C119.162 12.9425 139.693 32.1406 141.19 33.3483C142.686 34.5561 145.782 35.5625 146.412 35.7135C147.041 35.8645 151.066 38.3554 148.248 42.5322C145.994 45.8736 142.603 44.9217 141.19 44.028L135.869 39.7633Z" fill="black"/>
<path d="M78.6402 3.40918C76.8567 1.40535 74.664 0.224809 73.4029 0C71.5956 0 71.5688 1.82298 71.5688 1.92413C71.5688 2.02528 71.9734 12.4235 72.0341 13.8396C72.0948 15.2557 72.3578 22.7408 72.3375 26.8475C72.3173 30.9542 71.6959 36.3256 71.1854 38.8894C70.9788 39.9266 70.5523 41.6178 70.0968 43.1004C69.5262 45.1256 68.8187 46.8548 68.7253 47.0332C68.0901 48.2461 68.359 47.7172 67.7658 48.7969C67.154 49.9106 67.0546 51.3058 67.6341 51.6562C67.952 51.8483 68.2448 51.9017 68.7793 51.8207C69.432 51.7219 69.8652 51.6098 70.4584 51.4344C77.5681 49.04 81.5733 39.9741 82.4059 37.8761C83.2385 35.778 84.4041 32.5477 84.8037 27.852C85.2033 23.1563 84.9369 19.593 84.0377 15.0971C83.1386 10.6013 80.9555 6.0106 78.6402 3.40918Z" fill="black"/>
<path d="M56.8615 33.3307C53.5905 33.3307 52.3189 30.5445 52.2528 28.8685C51.9563 21.3568 51.3753 6.07837 51.3558 5.25806C51.337 4.46922 52.0824 4.15161 52.391 4.15161H60.9034C61.598 4.21899 61.9108 4.87888 61.904 5.26352C61.7716 12.6801 61.5033 27.814 61.4519 28.8685C61.4519 30.3319 60.2338 33.3307 56.8615 33.3307Z" fill="black"/>
<path d="M206.691 4.99445C207.308 4.99445 207.808 5.49463 207.808 6.11164V13.3734C207.808 13.9904 207.308 14.4906 206.691 14.4906L180.308 14.4906C179.691 14.4906 179.191 13.9904 179.191 13.3734L179.191 6.11164C179.191 5.49463 179.691 4.99445 180.308 4.99445L206.691 4.99445Z" fill="black"/>
<path d="M214.89 19.8289C215.506 19.8289 216.006 20.3291 216.006 20.9461V28.2079C216.006 28.8249 215.506 29.3251 214.89 29.3251L172.108 29.3251C171.491 29.3251 170.991 28.8249 170.991 28.2079L170.991 20.9461C170.991 20.3291 171.491 19.8289 172.108 19.8289L214.89 19.8289Z" fill="black"/>
<path d="M181.151 49.6052C180.558 49.4353 180.293 48.7702 180.533 48.2018C185.318 36.8658 185.773 35.7885 192.262 20.4153C197.4 22.3956 200.206 24.4075 200.398 28.1713C200.555 31.2532 198.691 35.887 197.179 39.4696C194.011 46.9738 187.03 51.2889 181.151 49.6052Z" fill="black"/>
<path d="M211.361 1.05459C212.146 0.102715 213.56 0.473651 214.187 1.53659C215.72 4.13713 216.364 5.22902 218.436 8.74401C219.063 9.80694 218.704 11.2267 217.492 11.4534C214.913 11.9354 212.194 10.7939 210.784 8.40251C209.374 6.01112 209.691 3.07901 211.361 1.05459Z" fill="black"/>
<path d="M226.31 13.9564C225.525 14.9082 224.111 14.5373 223.484 13.4744C221.951 10.8738 221.307 9.78192 219.234 6.26693C218.608 5.204 218.966 3.78425 220.179 3.55758C222.758 3.07551 225.477 4.21705 226.886 6.60843C228.296 8.99982 227.98 11.9319 226.31 13.9564Z" fill="black"/>
</g>
<defs>
<clipPath id="clip0_629_11229">
<rect width="228" height="54" fill="currentColor"/>
</clipPath>
</defs>
</svg>
