<svg width="156" height="166" viewBox="0 0 156 166" fill="none" xmlns="http://www.w3.org/2000/svg">
<g clip-path="url(#clip0_1770_21061)">
<path fill-rule="evenodd" clip-rule="evenodd" d="M141.785 126.354C139.383 126.488 136.607 127.776 134.545 130.184C133.866 130.977 132.954 131.449 131.999 131.585C132.086 132.57 131.829 133.59 131.197 134.445C130.028 136.027 129.883 137.55 130.126 138.431C130.24 138.845 130.438 139.149 130.708 139.379C130.977 139.61 131.472 139.895 132.362 140.017C137.622 140.737 141.974 138.703 144.615 135.922C147.484 132.9 147.543 130.124 146.878 128.941C145.846 127.103 144.078 126.226 141.785 126.354Z" fill="#F8F5DF"/>
<path fill-rule="evenodd" clip-rule="evenodd" d="M141.785 126.353C139.383 126.487 136.607 127.775 134.545 130.183C133.866 130.977 132.954 131.449 131.999 131.585C132.086 132.57 131.828 133.589 131.197 134.444C130.027 136.027 129.883 137.55 130.125 138.43C130.24 138.845 130.438 139.149 130.707 139.379C130.977 139.609 131.471 139.894 132.361 140.016C137.622 140.737 141.974 138.703 144.615 135.922C147.484 132.9 147.543 130.124 146.878 128.94C145.845 127.103 144.078 126.226 141.785 126.353ZM127.304 127.83C126.252 127.981 125.257 128.538 124.572 129.466C122.158 132.733 121.122 136.874 122.165 140.661C123.276 144.693 126.571 147.632 131.25 148.272C139.312 149.377 146.244 146.253 150.582 141.685C154.69 137.358 157.303 130.593 154.066 124.832C151.239 119.803 146.225 117.761 141.329 118.034C136.542 118.301 131.721 120.733 128.293 124.737C127.532 125.626 127.209 126.746 127.304 127.83Z" fill="#4D6296"/>
<path d="M4.48136 79.0232C3.71653 92.2926 15.7534 98.8762 22.0594 100.52L24.5798 83.9312L27.1002 67.3425C19.8792 65.7071 5.24619 65.7537 4.48136 79.0232Z" fill="#F8F3DA"/>
<path fill-rule="evenodd" clip-rule="evenodd" d="M147.519 76.5583C142.823 59.4808 132.747 47.6482 118.6 38.1466C114.538 35.4186 110.433 33.3832 106.463 31.7953C107.24 30.4778 107.925 28.9829 108.322 27.3613C109.926 20.7988 105.213 13.8479 98.3639 12.902C95.3487 12.4881 92.6629 13.2989 90.5599 14.2702C89.9603 14.5489 89.3691 14.853 88.8032 15.1739C88.7778 15.0979 88.761 15.0134 88.7356 14.9374C87.7728 11.6267 85.5177 8.34122 81.1175 6.65205C72.8321 3.45951 64.8085 7.54731 62.2241 14.3631C61.6075 15.9932 61.4133 17.8259 61.3542 19.3715C61.2951 21.01 61.3711 22.7583 61.5231 24.4475C61.6836 26.1873 61.9285 27.944 62.2072 29.5656C58.812 30.5622 55.687 31.7278 52.9083 32.9355C34.8426 40.824 8.25511 71.0601 20.9408 112.343C26.1012 129.142 37.5707 139.691 49.606 146C61.5484 152.258 74.2003 154.454 82.3674 154.539C110.002 155.485 128.896 144.902 139.563 129.286C150.12 113.821 152.291 93.8892 147.527 76.5499L147.519 76.5583ZM133.549 125.19C124.462 138.5 108.068 148.154 82.5786 147.267H82.5364H82.4941C75.3236 147.191 63.8035 145.232 52.9928 139.556C42.2497 133.923 32.368 124.733 27.9086 110.207C16.5236 73.1716 40.4169 46.3306 55.839 39.5993C58.3137 38.5182 61.0501 37.4878 64.0146 36.6095C65.1801 39.7344 66.8271 42.4287 69.0483 44.4894C72.0382 47.2681 75.7375 48.6026 79.6901 48.611C86.8691 48.6195 94.4872 44.3036 101.506 37.7074C105.796 39.2446 110.213 41.2969 114.538 44.1938C127.561 52.9353 136.353 63.4335 140.492 78.4924C144.765 94.0497 142.73 111.727 133.541 125.19H133.549Z" fill="#4D6296"/>
<path d="M12.4171 62.5691C16.6685 61.506 23.1933 62.5498 27.7095 67.8548L27.9237 68.11L28.0298 68.2475C29.0902 69.6863 28.847 71.7198 27.4481 72.8644C26.0492 74.0089 24.0079 73.8449 22.8075 72.5209L22.6937 72.3888L22.4391 72.0899C19.7745 69.084 16.0735 68.6191 14.0568 69.1234C11.8864 69.6662 10.2755 70.7056 8.87136 72.8735L8.59349 73.3226C5.84827 77.9466 7.36491 84.4865 11.7659 91.1696C13.8747 94.3718 16.4712 97.3118 19.0396 99.6232C21.6591 101.981 24.0356 103.491 25.6563 104.081C27.4096 104.719 28.3138 106.657 27.6762 108.411C27.0385 110.164 25.0998 111.068 23.3464 110.431C20.5665 109.42 17.4407 107.273 14.5202 104.645C11.5486 101.971 8.56652 98.5968 6.12222 94.885C1.41698 87.7397 -2.07215 78.0508 2.78283 69.8731L3.00824 69.5028C5.36084 65.7252 8.4596 63.559 12.4171 62.5691Z" fill="#4D6296"/>
<path fill-rule="evenodd" clip-rule="evenodd" d="M53.1776 148.274C53.9649 147.632 55.3869 147.814 56.3855 147.383L59.7962 149.59L59.7936 149.691C59.6737 154.317 55.7164 158.383 51.9511 156.28C48.7925 154.401 50.3041 150.349 53.1776 148.274Z" fill="#4D6296"/>
<path fill-rule="evenodd" clip-rule="evenodd" d="M61.9079 159.059C57.2106 158.74 56.3668 153.865 58.5328 149.684L62.5703 149.233L62.6323 149.313C63.4571 150.376 65.3502 151.304 65.7505 152.55C66.1947 155.246 66.4846 159.059 61.9079 159.059Z" fill="#4D6296"/>
<path fill-rule="evenodd" clip-rule="evenodd" d="M94.1056 153.776C94.3106 152.872 97.0042 148.433 97.48 147.562L101.173 147.231L101.228 147.305C103.159 149.91 103.065 154.825 101.478 157.411C100.776 158.555 99.8099 159.076 98.7248 159.229C97.0192 159.47 95.4862 158.395 94.7951 157.411C94.1514 156.495 93.7749 155.234 94.1056 153.776Z" fill="#4D6296"/>
<path fill-rule="evenodd" clip-rule="evenodd" d="M109.287 156.345C107.663 157.734 104.738 157.524 103.006 155.656C100.445 152.894 98.8995 150.701 98.4143 148.119L101.529 145.213L101.618 145.236C102.809 145.536 105.327 147.249 107.896 148.641C111.088 150.37 111.556 154.405 109.287 156.345Z" fill="#4D6296"/>
<path d="M68.1297 19.2153C69.5177 15.3048 74.0058 12.5996 79.0983 14.6887C83.8731 16.6475 83.6973 21.8413 83.5058 25.0514C83.4614 25.7962 84.2178 26.2546 84.8407 25.8437C85.4726 25.4268 86.1154 24.9671 86.768 24.5003C89.5104 22.539 92.4267 20.4532 95.4435 20.8975C98.9176 21.4091 101.325 25.2849 100.538 28.7072C99.9462 31.2832 98.206 33.5613 96.9464 34.9399C96.7961 35.1043 96.8691 35.3714 97.0831 35.4335C102.708 37.0671 108.849 39.4481 114.848 43.4754C127.725 52.1196 136.664 62.6989 140.849 77.9246C149.418 109.094 132.882 149.201 82.5145 147.458C67.9853 147.309 36.647 139.59 27.527 109.906C16.1271 72.8001 40.0445 45.7533 55.9149 38.8239C59.2646 37.3614 63.1222 35.9686 67.3972 34.9397C67.4736 34.9213 67.7593 34.8519 68.072 34.7756C68.5957 34.6479 68.9148 34.1251 68.803 33.5978C67.92 29.4326 67.0491 22.2601 68.1297 19.2153Z" fill="#F8F3DA"/>
<path d="M105.543 81.2404C105.515 83.3846 102.194 85.9584 97.4557 85.7458C92.2613 85.5128 88.8556 83.8952 88.8943 81.0168C88.9291 78.4255 93.6674 76.407 97.5804 76.4596C101.493 76.5121 105.582 78.343 105.543 81.2404Z" fill="#F5CCBB"/>
<path d="M47.8263 79.4549C47.7818 82.7612 43.3154 84.6624 39.9809 84.4946C36.3255 84.3107 33.7491 82.708 33.7951 79.2665C33.8291 76.7306 36.7857 74.8138 40.7302 74.8667C43.4841 74.9037 47.8676 76.3757 47.8263 79.4549Z" fill="#F5CCBB"/>
<path d="M71.8177 61.697C70.5007 60.5371 68.8432 59.7951 67.3759 59.7754C66.4897 59.7635 65.7192 59.8644 64.9468 60.1515C64.1791 60.4369 63.4363 60.8963 62.5923 61.5654C61.9347 62.0867 61.2837 62.9094 60.6828 63.8452C60.0772 64.7885 59.5025 65.8781 59.0053 66.962C58.5078 68.0462 58.0839 69.133 57.7817 70.0733C57.4847 70.9976 57.2895 71.8275 57.2821 72.3778C57.2529 74.546 58.7362 75.7298 60.1185 76.1145C61.4178 76.4761 67.1426 77.3411 73.9078 76.7079L73.9605 76.703C74.5698 76.6466 75.6877 76.5431 76.4914 75.7687C77.3591 74.9328 77.7227 73.4782 77.1486 71.041C76.6033 68.7265 75.486 66.5843 74.4091 64.9355C73.3358 63.2924 72.2775 62.102 71.8177 61.697Z" fill="#4D6296"/>
<path d="M99.0795 64.039C99.026 68.0206 95.8138 70.7083 91.1697 70.646C85.8734 70.5748 81.8351 69.1533 81.9069 63.8084C81.9715 58.9965 87.0481 55.1983 91.0297 55.2518C95.0112 55.3053 99.1517 58.6587 99.0795 64.039Z" fill="#4D6296"/>
<path d="M55.1482 62.8258C55.0791 67.9688 50.4535 69.1935 47.12 68.9574C43.4655 68.6985 41.0454 67.9907 41.1171 62.6374C41.1699 58.6928 44.1412 55.6893 48.0856 55.7422C50.8395 55.7792 55.2125 58.0361 55.1482 62.8258Z" fill="#4D6296"/>
<path d="M88.2223 136.022C87.9143 136.08 87.5936 136.113 87.2663 136.12C86.6957 136.133 86.1171 135.998 85.558 135.866C85.3164 135.809 85.0654 135.75 84.9046 135.728C82.6884 135.421 79.5079 135.632 75.7065 136.341C72.6 136.92 68.9985 137.856 65.8259 138.907C65.4902 139.018 65.0292 139.196 64.5414 139.384C63.3453 139.847 61.99 140.372 60.8235 140.589C60.3182 140.683 59.8806 140.714 59.4853 140.683C57.8876 140.556 56.6103 139.805 55.7915 138.511C55.487 138.03 55.2514 137.487 55.0829 136.872C53.2245 136.691 51.6405 135.524 51.0522 133.767L51.0135 133.65L44.4358 98.3962L44.4302 98.2701C44.3632 96.6472 44.949 95.3137 46.1724 94.3064C47.111 93.5341 48.3084 93.06 49.3642 92.6428C52.7045 91.3242 56.1903 90.3205 59.7235 89.6617C66.8408 88.3347 73.4632 88.5553 78.8744 90.2994C79.2117 90.4085 79.5212 90.5317 79.8202 90.6515C79.8676 90.6704 79.915 90.6893 79.9616 90.7084C80.0666 90.619 80.173 90.5266 80.2809 90.433C80.6355 90.126 81.0024 89.8077 81.4066 89.5022C85.8182 86.1594 92.1178 83.5967 99.1452 82.2864C102.471 81.6664 105.832 81.3683 108.864 81.4245C108.98 81.427 109.097 81.4286 109.214 81.4301C111.269 81.4606 114.084 81.5036 115.524 84.0895L115.654 84.3231L115.709 84.5851C117.23 91.8425 118.588 99.2636 119.902 106.44C120.728 110.953 121.583 115.621 122.469 120.196L122.491 120.313L122.498 120.433C122.599 122.261 121.512 123.949 119.829 124.799C119.885 125.197 119.913 125.624 119.873 126.083C119.687 128.167 117.934 129.981 115.702 130.397C115.591 130.418 115.477 130.436 115.364 130.45C114.171 130.593 112.843 130.593 111.559 130.594C110.56 130.594 109.616 130.594 108.758 130.657C107.155 130.774 103.926 131.07 100.315 131.744C96.7039 132.417 93.8928 133.246 91.9925 134.176C91.6338 134.351 91.3074 134.564 90.96 134.79C90.2302 135.266 89.403 135.804 88.2218 136.024L88.2223 136.022Z" fill="#4D6296"/>
<path d="M117.816 123.586C117.933 124.361 118.192 125.131 118.121 125.926C117.997 127.325 116.704 128.513 115.154 128.7C113.197 128.936 110.706 128.748 108.633 128.899C103.608 129.266 95.6866 130.407 91.2213 132.593C89.7764 133.3 88.9929 134.318 87.2278 134.36C86.6608 134.373 85.7708 134.071 85.1485 133.985C79.614 133.216 70.6374 135.459 65.274 137.236C63.8318 137.714 60.9948 139.037 59.6269 138.928C57.3312 138.747 56.6926 136.796 56.5512 135.01C54.8715 135.457 53.2158 134.679 52.7234 133.209L46.1913 98.1994C46.094 95.8576 47.9526 95.0973 50.0132 94.2823C58.5836 90.8941 69.6055 89.1615 78.3356 91.975C79.0015 92.1894 79.6477 92.5194 80.311 92.6859C81.0518 92.1403 81.7221 91.4708 82.4708 90.9049C89.2425 85.7742 100.265 83.0259 108.833 83.1854C110.824 83.2226 112.982 83.1417 113.987 84.9462C116.458 96.7453 118.447 108.681 120.741 120.53C120.826 122.048 119.505 123.4 117.815 123.586L117.816 123.586Z" fill="#4D6296"/>
<path d="M60.0294 133.016L60.2795 134.357C60.3567 134.426 60.3906 134.454 60.4983 134.436C60.7161 134.399 61.4781 133.995 61.7862 133.88C65.2237 132.598 68.7316 131.506 72.3107 130.681C71.7267 130.613 71.1687 130.799 70.599 130.865C69.9872 130.936 69.2667 130.952 68.6651 131.044C65.747 131.486 62.8324 132.115 60.0302 133.016L60.0294 133.016Z" fill="black"/>
<path d="M113.765 122.998C110.968 123.153 108.175 123.589 105.432 124.189C105.249 124.23 105.097 124.338 104.932 124.375C103.829 124.625 102.694 124.811 101.641 125.213C105.744 124.596 109.898 124.551 114.023 124.382L113.765 122.998Z" fill="black"/>
<path d="M113.765 122.998L114.023 124.382C109.898 124.551 105.744 124.596 101.641 125.213C102.694 124.811 103.829 124.625 104.932 124.375C105.097 124.337 105.249 124.229 105.432 124.189C108.175 123.589 110.968 123.153 113.765 122.998Z" fill="#94A1C0"/>
<path d="M60.0263 133.016C62.8285 132.116 65.7431 131.486 68.6612 131.044C69.2628 130.953 69.9833 130.937 70.5951 130.866C71.1648 130.8 71.7228 130.613 72.3068 130.682C68.7278 131.508 65.22 132.6 61.7823 133.881C61.4742 133.996 60.7122 134.399 60.4944 134.436C60.3867 134.455 60.3526 134.425 60.2756 134.358L60.0255 133.016L60.0263 133.016Z" fill="#94A1C0"/>
<path d="M83.9353 127.386C84.046 127.98 83.4948 128.467 82.9166 128.303C82.912 128.302 82.9082 128.301 82.9035 128.299C80.2178 127.565 76.8885 127.329 74.0657 127.38C68.0714 127.487 61.8455 128.47 56.3459 130.894C56.2798 130.924 56.1317 130.854 56.1254 130.82L50.1322 98.6765C50.0603 98.2905 50.2746 97.9102 50.6404 97.7739C52.6032 97.0416 54.5586 96.2937 56.5908 95.7447C63.2912 93.9347 71.8919 93.1416 77.9193 96.6597C78.1225 96.7786 78.265 96.9795 78.3083 97.2114L83.9341 127.385L83.9353 127.386Z" fill="white"/>
<path d="M110.612 86.8795L116.678 119.411C116.7 119.532 116.611 119.645 116.488 119.649C110.73 119.42 104.673 120.645 99.264 122.603C96.0978 123.735 92.8199 125.267 90.2737 127.39C90.2675 127.395 90.0595 127.601 89.9303 127.583C89.8246 127.568 89.7936 127.33 89.7912 127.317C89.7424 127.06 83.7851 95.8937 83.9615 95.7274C88.943 88.8652 102.373 86.2081 110.416 86.7154C110.512 86.7155 110.595 86.7842 110.612 86.8795Z" fill="white"/>
<path d="M93.8783 97.7909C96.7826 96.2652 101.029 95.038 106.429 96.0722L106.557 96.097L106.608 96.1078C107.676 96.3469 108.364 97.3958 108.151 98.4758C107.938 99.5559 106.903 100.265 105.824 100.08L105.773 100.07L105.567 100.031C101.257 99.2304 97.9736 100.214 95.7614 101.376C94.6275 101.972 93.7685 102.619 93.2014 103.108C92.9187 103.352 92.7109 103.554 92.5805 103.688C92.5153 103.755 92.4696 103.804 92.4438 103.833C92.4309 103.847 92.4229 103.856 92.42 103.86C92.4185 103.861 92.4183 103.862 92.4193 103.86C92.4198 103.86 92.4207 103.859 92.4218 103.857C92.4224 103.857 92.4231 103.856 92.4238 103.855L92.425 103.854C91.7034 104.707 90.4271 104.814 89.5732 104.093C88.7189 103.371 88.6111 102.094 89.3324 101.239L90.8469 102.518C89.3324 101.239 89.3332 101.238 89.3339 101.238C89.3341 101.237 89.3349 101.236 89.3354 101.236C89.3364 101.235 89.3376 101.233 89.3388 101.232C89.3413 101.229 89.3441 101.226 89.3473 101.222C89.3536 101.215 89.3613 101.206 89.3704 101.195C89.3885 101.174 89.4122 101.148 89.4413 101.115C89.4996 101.051 89.5799 100.965 89.682 100.86C89.8861 100.651 90.1784 100.367 90.5573 100.041C91.3136 99.3885 92.4249 98.5545 93.8783 97.7909Z" fill="#4D6296"/>
<path d="M96.1151 109.586C98.9956 108.133 103.231 106.917 108.731 107.687C109.839 107.842 110.611 108.865 110.456 109.973C110.301 111.08 109.278 111.853 108.17 111.698C103.588 111.056 100.18 112.071 97.9388 113.202C96.8098 113.772 95.9676 114.376 95.4187 114.825C95.1447 115.05 94.9454 115.234 94.8217 115.355C94.7599 115.415 94.7171 115.459 94.6936 115.484C94.6818 115.496 94.6749 115.504 94.6727 115.506C94.6717 115.508 94.6718 115.507 94.6732 115.506C94.6738 115.505 94.6749 115.504 94.6761 115.503C94.6768 115.502 94.6775 115.501 94.6782 115.5L94.6795 115.499C93.9379 116.334 92.6594 116.411 91.8229 115.67C90.9859 114.928 90.9085 113.649 91.6499 112.812L93.2035 114.188C93.1909 114.177 93.1782 114.166 93.1654 114.154C91.6518 112.813 91.6507 112.811 91.6514 112.81C91.6517 112.81 91.6525 112.809 91.653 112.808C91.6541 112.807 91.6554 112.805 91.6566 112.804C91.6592 112.801 91.662 112.798 91.6653 112.794C91.6717 112.787 91.6795 112.779 91.6885 112.769C91.7067 112.749 91.7302 112.724 91.759 112.693C91.8166 112.633 91.8955 112.552 91.9956 112.454C92.1958 112.259 92.4817 111.996 92.853 111.692C93.5946 111.085 94.6832 110.308 96.1151 109.586Z" fill="#4D6296"/>
<path d="M69.189 122.888C67.5909 123.158 66.527 122.081 66.3025 120.877C66.078 119.674 66.6815 118.286 68.2703 117.961L68.285 117.958C69.8831 117.688 70.9471 118.765 71.1715 119.969C71.396 121.173 70.7925 122.56 69.2037 122.885L69.1968 122.887L69.1899 122.888L69.189 122.888ZM67.9791 116.351C66.9598 116.541 65.7951 116.038 65.5429 114.71C65.2042 113.037 65.7669 111.267 67.0107 110.096C67.0107 110.096 68.0855 109.084 68.6118 108.588L68.6058 108.58L68.9044 108.313C69.6249 107.669 70.2 106.373 69.4482 104.843C68.9952 103.921 67.9453 102.944 66.4734 103.218C66.4448 103.224 66.4154 103.229 66.3863 103.236L66.3586 103.242L66.3306 103.245C66.0532 103.27 65.7824 103.306 65.5262 103.354C63.934 103.651 62.1101 104.506 62.4593 106.893C62.6967 108.219 61.7945 109.104 60.7786 109.294C59.7619 109.483 58.5989 108.98 58.3443 107.653C57.9715 105.812 58.292 104.069 59.2721 102.616C60.4252 100.905 62.4367 99.6731 64.7904 99.2342C67.1441 98.7954 69.4591 99.2199 71.149 100.398C72.5856 101.399 73.5117 102.908 73.8291 104.764C74.5788 108.775 72.506 110.668 70.9926 112.05C70.1142 112.852 69.5784 113.374 69.6591 113.951C69.8965 115.277 68.995 116.162 67.98 116.351L67.9791 116.351Z" fill="#4D6296"/>
<path d="M108.434 96.2586C102.229 104.336 110.453 114.127 118.631 117.594L139.631 94.0226C132.759 89.3245 116.906 85.2281 108.434 96.2586Z" fill="#F8F3DA"/>
<path d="M133.87 84.0969C135.678 84.5586 136.77 86.3984 136.308 88.2061C135.846 90.0138 134.007 91.1052 132.199 90.6437C127.045 89.328 120.355 89.7801 115.198 92.1691C110.182 94.4928 107.057 98.3548 107.434 104.022L107.455 104.271C107.721 106.845 109.475 109.722 112.596 111.179C115.688 112.622 120.702 112.9 127.673 108.828C129.284 107.888 131.353 108.431 132.294 110.043C133.235 111.654 132.692 113.722 131.081 114.663C122.732 119.539 115.344 119.918 109.737 117.301C104.432 114.824 101.233 109.861 100.732 104.947L100.692 104.471C100.079 95.2549 105.574 89.1806 112.358 86.0381C119.001 82.9612 127.291 82.4172 133.87 84.0969Z" fill="#4D6296"/>
</g>
<defs>
<clipPath id="clip0_1770_21061">
<rect width="156" height="166" fill="white"/>
</clipPath>
</defs>
</svg>
