<svg width="156" height="166" viewBox="0 0 156 166" fill="none" xmlns="http://www.w3.org/2000/svg">
<path d="M3.22017 86.0662C2.31594 101.754 16.5467 109.538 24.0021 111.481L26.9819 91.8688L29.9616 72.2566C21.4246 70.3231 4.1244 70.3782 3.22017 86.0662Z" fill="#F8F3DA"/>
<g clip-path="url(#clip0_1754_31372)">
<path fill-rule="evenodd" clip-rule="evenodd" d="M153.346 73.7528C148.47 56.0185 138.006 43.7308 123.316 33.8638C119.097 31.0308 114.834 28.9171 110.712 27.2682C111.519 25.9 112.229 24.3476 112.642 22.6636C114.308 15.8488 109.414 8.6305 102.301 7.64818C99.1699 7.21842 96.3808 8.0604 94.1969 9.06903C93.5742 9.35846 92.9602 9.67421 92.3726 10.0075C92.3463 9.92856 92.3288 9.84085 92.3025 9.76191C91.3026 6.32381 88.9608 2.91201 84.3913 1.15787C75.7873 -2.15744 67.4551 2.08757 64.7713 9.16551C64.131 10.8582 63.9293 12.7615 63.8679 14.3665C63.8065 16.068 63.8854 17.8836 64.0433 19.6377C64.21 21.4445 64.4643 23.2688 64.7537 24.9527C61.2279 25.9877 57.9828 27.198 55.0972 28.4522C36.3367 36.6441 8.72662 68.0431 21.9002 110.914C27.2591 128.359 39.1697 139.314 51.6679 145.865C64.0696 152.364 77.2081 154.645 85.6894 154.733C114.387 155.715 134.007 144.725 145.084 128.508C156.048 112.449 158.302 91.7503 153.355 73.744L153.346 73.7528ZM138.84 124.254C129.402 138.077 112.379 148.102 85.9086 147.181H85.8648H85.8209C78.3746 147.102 66.4114 145.067 55.1849 139.173C44.0286 133.323 33.7669 123.781 29.136 108.695C17.3131 70.2358 42.1254 42.3625 58.1406 35.3723C60.7105 34.2497 63.5522 33.1796 66.6307 32.2675C67.841 35.5126 69.5513 38.3105 71.858 40.4505C74.9628 43.3361 78.8044 44.7219 82.909 44.7306C90.3641 44.7394 98.2753 40.2576 105.564 33.4077C110.019 35.0039 114.606 37.1352 119.097 40.1436C132.621 49.2212 141.752 60.1232 146.049 75.7613C150.487 91.9169 148.373 110.274 138.831 124.254H138.84Z" fill="#4D6296"/>
</g>
<path d="M10.3881 69.0929C15.4754 65.6317 21.9801 64.9873 27.6396 67.4079L27.8043 67.4835C29.4715 68.2989 30.2237 70.2876 29.4855 72.0133C28.7235 73.7945 26.6623 74.6209 24.881 73.8593L24.5558 73.7264C21.1839 72.41 17.356 72.8381 14.3349 74.8935C11.2919 76.9639 8.80236 80.8866 8.8024 87.0044L8.81153 87.6647C8.99799 94.4359 12.0414 99.6665 15.9719 103.665C19.8177 107.577 24.4219 110.202 27.6702 111.696L28.3008 111.98L28.4645 112.057C30.1238 112.888 30.8569 114.885 30.1019 116.603C29.3468 118.322 27.3803 119.132 25.6453 118.472L25.4786 118.403L24.7552 118.079C21.0233 116.364 15.6065 113.303 10.968 108.584C6.13161 103.664 2.04815 96.831 1.79768 87.8773L1.78619 87.005C1.7861 78.8168 5.22521 72.6056 10.3881 69.0929Z" fill="#4D6296"/>
<path fill-rule="evenodd" clip-rule="evenodd" d="M56.4468 147.85C57.2754 147.197 58.7487 147.41 59.7931 146.981L63.2959 149.332L63.2914 149.437C63.0859 154.238 58.9058 158.39 55.0331 156.141C51.7863 154.135 53.4268 149.954 56.4468 147.85Z" fill="#4D6296"/>
<path fill-rule="evenodd" clip-rule="evenodd" d="M65.3227 159.201C60.451 158.787 59.6603 153.711 61.9824 149.408L66.1825 149.01L66.2454 149.094C67.0832 150.212 69.0327 151.209 69.4265 152.509C69.8404 155.317 70.0748 159.281 65.3227 159.201Z" fill="#4D6296"/>
<path fill-rule="evenodd" clip-rule="evenodd" d="M97.8618 154.159C98.0905 153.224 100.965 148.662 101.474 147.766L105.315 147.487L105.37 147.564C107.33 150.303 107.146 155.405 105.453 158.063C104.704 159.238 103.692 159.762 102.562 159.902C100.787 160.122 99.2144 158.979 98.5141 157.946C97.8618 156.983 97.4929 155.667 97.8618 154.159Z" fill="#4D6296"/>
<path fill-rule="evenodd" clip-rule="evenodd" d="M113.58 157.092C111.87 158.506 108.836 158.237 107.071 156.267C104.46 153.355 102.893 151.05 102.435 148.361L105.719 145.398L105.812 145.423C107.043 145.756 109.627 147.579 112.27 149.069C115.554 150.92 115.97 155.117 113.58 157.092Z" fill="#4D6296"/>
<path d="M70.9074 14.2049C72.3487 10.1439 77.0095 7.33471 82.2978 9.50423C87.2562 11.5384 87.0737 16.9319 86.8748 20.2654C86.8287 21.0389 87.6142 21.5149 88.261 21.0882C88.9173 20.6553 89.5848 20.1779 90.2625 19.6932C93.1103 17.6564 96.1388 15.4904 99.2716 15.9518C102.879 16.4831 105.38 20.5079 104.563 24.0618C103.948 26.737 102.14 29.1026 100.832 30.5342C100.676 30.705 100.752 30.9823 100.974 31.0469C106.815 32.7433 113.193 35.2159 119.423 39.398C132.795 48.3748 142.077 59.3609 146.424 75.1721C155.322 107.541 138.15 149.19 85.8453 147.38C70.7574 147.225 38.2138 139.209 28.7431 108.383C16.9047 69.8506 41.742 41.7636 58.2228 34.5677C61.7013 33.0489 65.7072 31.6025 70.1467 30.534C70.2261 30.5149 70.5227 30.4428 70.8475 30.3637C71.3912 30.231 71.7226 29.6881 71.6066 29.1405C70.6896 24.8152 69.7851 17.3668 70.9074 14.2049Z" fill="#F8F3DA"/>
<path d="M109.507 79.5646C109.477 81.7732 106.033 84.4241 101.118 84.2047C95.7293 83.9641 92.1963 82.2976 92.2361 79.3326C92.272 76.6634 97.187 74.5847 101.246 74.6392C105.305 74.6937 109.547 76.58 109.507 79.5646Z" fill="#F5CCBB"/>
<path d="M49.6334 77.7196C49.5876 81.1253 44.9546 83.0832 41.4957 82.91C37.7037 82.7202 35.031 81.0691 35.0785 77.5241C35.1134 74.912 38.1802 72.9378 42.272 72.9928C45.1287 73.0311 49.676 74.5478 49.6334 77.7196Z" fill="#F5CCBB"/>
<path d="M74.5259 59.4296C73.1597 58.2348 71.4402 57.4702 69.9182 57.4498C68.999 57.4374 68.1997 57.5413 67.3985 57.837C66.6021 58.1309 65.8317 58.6041 64.9562 59.2932C64.2741 59.8301 63.5989 60.6774 62.9757 61.6414C62.3475 62.6129 61.7515 63.7353 61.2358 64.8517C60.7199 65.9685 60.2803 67.0879 59.9669 68.0564C59.6588 69.0085 59.4564 69.8634 59.4488 70.4301C59.4188 72.6635 60.9576 73.8831 62.3915 74.2795C63.7394 74.6521 69.6779 75.5437 76.6956 74.892L76.7502 74.887C77.3823 74.829 78.5418 74.7225 79.3756 73.9249C80.2755 73.0639 80.6526 71.5656 80.0567 69.0551C79.4909 66.671 78.3317 64.4642 77.2144 62.7658C76.1009 61.0731 75.003 59.8468 74.5259 59.4296Z" fill="#4D6296"/>
<path d="M102.807 61.8452C102.752 65.9464 99.4199 68.7147 94.6025 68.65C89.1085 68.5762 84.9193 67.1115 84.9932 61.6059C85.0598 56.6493 90.3255 52.7375 94.4557 52.793C98.5859 52.8484 102.881 56.303 102.807 61.8452Z" fill="#4D6296"/>
<path d="M57.2356 60.5922C57.1644 65.8899 52.3663 67.1509 48.9082 66.9074C45.1174 66.6404 42.6068 65.911 42.6807 60.3969C42.7351 56.3336 45.817 53.24 49.9087 53.295C52.7654 53.3334 57.3018 55.6585 57.2356 60.5922Z" fill="#4D6296"/>
<path d="M94.9503 133.295C94.6563 133.374 94.3481 133.43 94.0316 133.462C93.4799 133.517 92.9092 133.429 92.3578 133.344C92.1194 133.307 91.8719 133.269 91.7145 133.26C89.5446 133.128 86.4797 133.572 82.8507 134.545C79.885 135.339 76.4667 136.516 73.4726 137.773C73.1557 137.906 72.7226 138.113 72.2642 138.332C71.1404 138.87 69.867 139.48 68.7534 139.779C68.271 139.908 67.8494 139.97 67.4642 139.97C65.907 139.968 64.6132 139.336 63.7229 138.144C63.3918 137.701 63.1226 137.193 62.9132 136.609C61.0995 136.575 59.4773 135.563 58.7753 133.905L58.7291 133.795L49.7069 100.14L49.6919 100.018C49.5049 98.4514 49.9722 97.1156 51.0815 96.0479C51.9326 95.2292 53.0568 94.68 54.0482 94.1965C57.1846 92.668 60.4858 91.4337 63.8587 90.5299C70.6532 88.7093 77.0847 88.425 82.4575 89.7077C82.7924 89.788 83.1015 89.8841 83.4001 89.9776C83.4475 89.9924 83.4948 90.0071 83.5413 90.0221C83.6364 89.9276 83.7325 89.8301 83.83 89.7314C84.1504 89.4073 84.4819 89.0714 84.8504 88.745C88.8725 85.1753 94.782 82.2192 101.491 80.4217C104.665 79.571 107.899 79.0296 110.841 78.8559C110.953 78.8497 111.066 78.8424 111.179 78.8351C113.173 78.7102 115.903 78.5401 117.491 80.9368L117.635 81.1532L117.708 81.4029C119.727 88.3186 121.601 95.405 123.413 102.257C124.553 106.568 125.731 111.025 126.934 115.389L126.964 115.502L126.98 115.617C127.216 117.38 126.289 119.097 124.722 120.047C124.807 120.428 124.867 120.84 124.862 121.287C124.839 123.32 123.277 125.209 121.146 125.78C121.04 125.808 120.931 125.834 120.822 125.856C119.678 126.085 118.391 126.185 117.148 126.282C116.18 126.357 115.266 126.428 114.439 126.553C112.895 126.787 109.79 127.317 106.342 128.241C102.895 129.165 100.234 130.179 98.4635 131.223C98.1293 131.42 97.829 131.651 97.5096 131.896C96.8384 132.411 96.0776 132.995 94.95 133.297L94.9503 133.295Z" fill="#4D6296"/>
<path d="M122.679 119.023C122.851 119.765 123.159 120.492 123.151 121.267C123.136 122.632 121.973 123.879 120.485 124.177C118.607 124.553 116.18 124.558 114.183 124.86C109.343 125.593 101.756 127.294 97.595 129.747C96.2486 130.541 95.5662 131.586 93.8595 131.759C93.3113 131.815 92.4265 131.589 91.8172 131.552C86.3983 131.224 77.8716 134.071 72.8099 136.196C71.4489 136.767 68.8002 138.262 67.467 138.26C65.2296 138.256 64.4643 136.415 64.193 134.695C62.5997 135.255 60.9373 134.625 60.3498 133.239L51.3901 99.8174C51.1198 97.5563 52.863 96.6801 54.7977 95.7357C62.8448 91.8092 73.391 89.3022 82.0592 91.3711C82.7203 91.5287 83.3711 91.7998 84.026 91.9112C84.7027 91.327 85.3016 90.6281 85.9843 90.0236C92.1581 84.5446 102.628 81.0536 110.94 80.564C112.872 80.4502 114.956 80.2096 116.065 81.8821C119.346 93.1257 122.17 104.538 125.282 115.843C125.479 117.307 124.301 118.716 122.678 119.023L122.679 119.023Z" fill="#4D6296"/>
<path d="M67.4118 132.503L67.7549 133.784C67.8348 133.844 67.8698 133.869 67.9727 133.843C68.1809 133.791 68.8887 133.343 69.1785 133.209C72.4119 131.708 75.7278 130.387 79.1328 129.318C78.5619 129.296 78.0354 129.519 77.4885 129.625C76.9012 129.74 76.2045 129.81 75.6286 129.944C72.8352 130.591 70.0593 131.42 67.4126 132.503L67.4118 132.503Z" fill="black"/>
<path d="M118.714 118.758C116.017 119.118 113.344 119.751 110.732 120.539C110.558 120.592 110.419 120.708 110.262 120.756C109.212 121.082 108.127 121.347 107.137 121.816C111.065 120.909 115.085 120.553 119.068 120.08L118.714 118.758Z" fill="black"/>
<path d="M118.714 118.758L119.068 120.08C115.085 120.553 111.065 120.909 107.137 121.816C108.127 121.347 109.212 121.082 110.262 120.756C110.419 120.707 110.558 120.591 110.732 120.539C113.344 119.751 116.017 119.118 118.714 118.758Z" fill="#94A1C0"/>
<path d="M67.4126 132.503C70.0593 131.42 72.8352 130.591 75.6286 129.944C76.2045 129.81 76.9012 129.74 77.4885 129.625C78.0354 129.519 78.5619 129.296 79.1328 129.318C75.728 130.387 72.4121 131.709 69.1785 133.209C68.8887 133.343 68.1809 133.791 67.9727 133.843C67.8698 133.869 67.8345 133.843 67.7549 133.784L67.4118 132.503L67.4126 132.503Z" fill="#94A1C0"/>
<path d="M90.1492 125.252C90.3011 125.819 89.8037 126.332 89.2313 126.216C89.2267 126.215 89.223 126.215 89.2183 126.213C86.5615 125.704 83.3189 125.726 80.5883 125.988C74.79 126.542 68.833 127.962 63.6881 130.724C63.6263 130.758 63.4775 130.701 63.4688 130.669L55.2467 99.9831C55.1479 99.6146 55.327 99.2301 55.6711 99.0706C57.5173 98.2137 59.3552 97.3422 61.2824 96.6576C67.6368 94.4005 75.9084 92.9856 82.0114 95.9403C82.2172 96.0401 82.3704 96.224 82.4297 96.4455L90.148 125.25L90.1492 125.252Z" fill="white"/>
<path d="M112.943 84.0081L121.264 115.064C121.295 115.179 121.217 115.296 121.098 115.309C115.503 115.52 109.728 117.162 104.636 119.465C101.654 120.8 98.5939 122.53 96.2871 124.779C96.2815 124.784 96.0955 124.999 95.969 124.992C95.8655 124.985 95.8176 124.757 95.8142 124.744C95.7477 124.499 87.6337 94.757 87.792 94.5826C92.1015 87.5609 104.911 83.9773 112.74 83.864C112.833 83.8569 112.918 83.9172 112.943 84.0081Z" fill="white"/>
<path d="M97.5558 95.8364C100.254 94.14 104.275 92.632 109.584 93.2278L109.71 93.2423L109.76 93.2488C110.812 93.4002 111.558 94.3644 111.433 95.4266C111.308 96.4888 110.358 97.2531 109.3 97.1553L109.249 97.15L109.047 97.1272C104.811 96.6759 101.705 97.8758 99.6495 99.1679C98.5959 99.8302 97.8124 100.522 97.2999 101.038C97.0444 101.295 96.8584 101.507 96.7421 101.646C96.684 101.716 96.6434 101.767 96.6205 101.797C96.6091 101.812 96.6021 101.821 96.5995 101.825C96.5982 101.826 96.598 101.827 96.5989 101.825C96.5994 101.825 96.6001 101.824 96.6011 101.822C96.6016 101.822 96.6023 101.821 96.6029 101.82L96.6039 101.818C95.9691 102.699 94.7408 102.899 93.8595 102.265C92.9777 101.63 92.7772 100.4 93.4117 99.5184L94.9748 100.644C93.4117 99.5184 93.4123 99.5175 93.4129 99.5167C93.4132 99.5163 93.4138 99.5155 93.4143 99.5149C93.4152 99.5136 93.4162 99.5122 93.4173 99.5107C93.4195 99.5077 93.422 99.5043 93.4248 99.5005C93.4303 99.4928 93.4371 99.4836 93.4451 99.4729C93.4611 99.4514 93.482 99.4237 93.5078 99.3903C93.5594 99.3236 93.6307 99.2338 93.7218 99.1247C93.9038 98.9066 94.1656 98.6104 94.508 98.2654C95.1916 97.5767 96.2054 96.6852 97.5558 95.8364Z" fill="#4D6296"/>
<path d="M100.61 107.094C103.291 105.47 107.302 103.973 112.688 104.305C113.773 104.372 114.598 105.306 114.531 106.39C114.464 107.475 113.531 108.3 112.447 108.233C107.96 107.956 104.735 109.196 102.649 110.459C101.598 111.096 100.828 111.744 100.33 112.221C100.081 112.459 99.902 112.653 99.7913 112.779C99.7359 112.842 99.6978 112.888 99.6769 112.914C99.6664 112.927 99.6603 112.935 99.6584 112.937C99.6574 112.938 99.6575 112.938 99.6587 112.936C99.6593 112.936 99.6602 112.935 99.6614 112.933C99.6619 112.932 99.6625 112.931 99.6632 112.931L99.6644 112.929C99.0088 113.794 97.7761 113.965 96.9101 113.31C96.0436 112.654 95.8724 111.42 96.5276 110.554L98.1361 111.771C98.123 111.761 98.1099 111.751 98.0966 111.741C96.5295 110.555 96.5283 110.553 96.529 110.552C96.5292 110.552 96.5299 110.551 96.5304 110.55C96.5314 110.549 96.5325 110.547 96.5336 110.546C96.5358 110.543 96.5384 110.54 96.5412 110.536C96.5469 110.529 96.5538 110.52 96.5618 110.509C96.5779 110.489 96.5988 110.463 96.6244 110.431C96.6756 110.368 96.746 110.284 96.8357 110.182C97.0149 109.978 97.2721 109.701 97.6088 109.379C98.2816 108.735 99.2776 107.901 100.61 107.094Z" fill="#4D6296"/>
<path d="M75.5252 122.004C73.9975 122.385 72.8859 121.422 72.5779 120.273C72.27 119.124 72.7502 117.734 74.2648 117.3L74.2788 117.296C75.8065 116.914 76.9181 117.877 77.2261 119.027C77.534 120.176 77.0538 121.566 75.5392 122L75.5326 122.002L75.526 122.003L75.5252 122.004ZM73.8617 115.762C72.8886 116.023 71.7226 115.623 71.3784 114.355C70.9245 112.761 71.3365 111.004 72.4533 109.776C72.4533 109.776 73.4183 108.715 73.8909 108.195L73.8845 108.188L74.1536 107.907C74.8031 107.228 75.2627 105.93 74.4194 104.504C73.9114 103.646 72.8209 102.778 71.4157 103.154C71.3885 103.162 71.3604 103.169 71.3327 103.178L71.3063 103.185L71.2794 103.191C71.0126 103.236 70.7529 103.291 70.5084 103.357C68.9884 103.764 67.2859 104.729 67.8037 107.015C68.1334 108.282 67.326 109.208 66.3562 109.468C65.3855 109.728 64.2212 109.328 63.8747 108.061C63.3752 106.306 63.5546 104.593 64.3947 103.112C65.3831 101.368 67.2389 100.024 69.4859 99.4216C71.7328 98.8195 74.0072 99.0567 75.7327 100.071C77.1996 100.932 78.2102 102.325 78.6571 104.098C79.6849 107.928 77.8194 109.917 76.4573 111.369C75.6668 112.213 75.1871 112.758 75.3086 113.311C75.6383 114.578 74.8315 115.502 73.8625 115.762L73.8617 115.762Z" fill="#4D6296"/>
<path d="M114.059 93.9232C111.326 104.519 121.947 112.431 129.61 116.131L143.497 82.4226C134.672 80.6575 117.791 79.4536 114.059 93.9232Z" fill="#F8F3DA"/>
<path d="M109.528 95.2169C109.827 88.1101 113.555 82.8845 119.243 79.9126C124.753 77.0342 131.908 76.3389 139.401 77.4607C141.317 77.7476 142.638 79.5338 142.351 81.45C142.064 83.366 140.278 84.6864 138.362 84.3996C131.798 83.4168 126.271 84.1572 122.493 86.1313C118.893 88.0121 116.726 91.0567 116.539 95.5111C116.405 98.7089 117.472 101.599 119.978 103.995C122.478 106.386 126.613 108.469 132.911 109.554L133.528 109.656L133.705 109.689C135.521 110.072 136.737 111.817 136.444 113.67C136.15 115.524 134.454 116.807 132.608 116.61L132.429 116.586L131.727 116.47C124.521 115.228 118.937 112.709 115.128 109.066C111.122 105.234 109.312 100.371 109.528 95.2169Z" fill="#4D6296"/>
<defs>
<clipPath id="clip0_1754_31372">
<rect width="137.384" height="154.803" fill="white" transform="translate(18.4609)"/>
</clipPath>
</defs>
</svg>
