<svg width="57" height="22" viewBox="0 0 57 22" fill="none" xmlns="http://www.w3.org/2000/svg">
<g clip-path="url(#clip0_1660_15100)">
<path d="M54.5141 1C55.8045 1 56.4102 2.11071 56.4102 3.11035V20.1673C56.4102 21.167 55.6201 22 54.6721 22C53.7241 22 52.9604 21.167 52.9604 20.1673V6.2481L52.2494 6.94229C51.5647 7.60872 50.485 7.55318 49.853 6.80345C49.221 6.08149 49.2737 4.91525 49.9584 4.24882L51.7227 2.52722C52.9078 1.33321 53.4081 1.02777 54.5141 1Z" fill="#CC7000"/>
<path d="M32.7394 18.3917C35.4334 15.9503 37.2359 13.9607 37.2599 11.1287C37.3079 8.48869 35.3399 6.49669 32.2919 6.54469C28.4519 6.61669 26.4599 9.08869 26.4119 11.8007C26.3879 13.3607 26.8679 14.5127 27.6119 14.5847C28.4279 14.6327 29.4839 12.6887 30.2039 9.20869C30.3719 8.34469 31.0439 7.76869 31.9079 7.86469C32.8199 7.98469 33.5159 8.77669 33.3239 9.64069C32.7719 12.4247 31.1879 17.9687 27.5399 17.9927C25.4519 17.9927 23.3399 15.5447 23.4119 11.7287C23.5079 7.14469 27.3239 3.71269 32.2439 3.61669C37.5719 3.54469 40.3799 7.50469 40.3799 11.1767C40.3799 14.3207 38.4514 17.8877 34.8034 20.8397C34.1314 21.3917 32.9314 21.2957 32.3794 20.6237C31.9234 20.0717 31.9714 19.0877 32.7394 18.3917Z" fill="#CC7000"/>
<path d="M1.6326 12.9581C0.768603 12.9821 0.0246026 12.2861 0.000602583 11.4221C-0.0233975 10.5341 0.672602 9.81414 1.5366 9.79014L5.76258 9.61664L11.1386 2.44064C11.6666 1.76864 12.6746 1.64864 13.3706 2.17664C14.0426 2.72864 14.1626 3.71264 13.6346 4.40864L9.67458 9.44864L14.4026 9.28064C15.2666 9.25664 16.0106 9.88064 16.0346 10.8166C16.0346 11.7046 15.3626 12.4246 14.4986 12.4486L11.0906 12.5686C9.53058 13.9126 8.21058 15.9046 8.06658 17.2246C7.97058 18.3046 8.61858 18.7366 9.60258 18.8566C10.0346 18.9046 11.2558 18.885 11.8798 18.861C12.7438 18.813 13.5358 19.173 13.7038 20.013C13.9438 21.165 13.0558 21.981 12.2398 22.029C11.1358 22.077 9.93858 22.0486 9.21858 22.0006C5.59458 21.7366 4.34658 19.1686 5.11458 16.3126C5.40258 15.1846 6.17058 13.7446 6.93858 12.7366L1.6326 12.9581Z" fill="#CC7000"/>
<path d="M4.80811 3.18759C4.26371 2.4503 3.23082 2.26356 2.51646 2.79104C1.8214 3.30425 1.69586 4.34635 2.25538 5.10412L3.4996 6.74878C4.044 7.48608 5.07689 7.67281 5.77194 7.15959C6.47119 6.61164 6.59255 5.60428 6.03302 4.84651L4.80811 3.18759Z" fill="#CC7000"/>
</g>
<defs>
<clipPath id="clip0_1660_15100">
<rect width="56" height="21" fill="white" transform="translate(0.203125 0.884766)"/>
</clipPath>
</defs>
</svg>
