<svg width="64" height="22" viewBox="0 0 64 22" fill="none" xmlns="http://www.w3.org/2000/svg">
<g clip-path="url(#clip0_1660_15110)">
<path d="M62.9896 9.92706L61.7818 11.0778L62.7649 12.0367C63.4952 12.749 63.9166 13.6805 63.9166 14.6942L63.9447 16.2284C63.9447 17.2147 63.5233 18.1736 62.8211 18.8586L61.4728 20.1736C60.7706 20.8586 59.7875 21.2695 58.7763 21.2695H55.1809C54.1416 21.2695 53.1584 20.8586 52.4562 20.1736L51.1079 18.8586C50.4057 18.1736 49.9844 17.2147 49.9844 16.2284V15.0504C49.9844 14.0641 50.827 13.2695 51.8383 13.2695C52.8495 13.2695 53.664 14.0641 53.664 15.0504C53.664 15.1873 53.664 15.5709 53.664 15.7079C53.664 16.0914 53.8045 16.4476 54.0854 16.6942C54.2258 16.8586 54.3663 16.9956 54.5348 17.1325C54.9 17.4887 55.3775 17.6805 55.8831 17.6805C56.6415 17.6805 57.5403 17.6805 58.2426 17.6805C58.6358 17.6805 59.001 17.5435 59.2538 17.2695C59.4504 17.0777 59.647 16.886 59.8436 16.6942C60.1245 16.4476 60.265 16.0914 60.265 15.7079C60.265 15.5435 60.265 15.4065 60.265 15.2421C60.265 14.8586 60.1245 14.5024 59.8717 14.2284L58.6358 13.023C57.3718 11.7627 57.0628 10.6668 58.6358 9.13254L59.8436 7.95446C60.1245 7.68049 60.265 7.32433 60.265 6.96816C60.265 6.91337 60.265 6.88597 60.265 6.83117C60.265 6.47501 60.1245 6.09145 59.8436 5.84487C59.647 5.65309 59.4504 5.46131 59.2538 5.26953C59.001 4.99556 58.6358 4.85857 58.2426 4.85857C57.4842 4.85857 56.473 4.85857 55.6865 4.85857C55.3213 4.85857 54.9281 4.99556 54.6753 5.26953C54.4786 5.46131 54.282 5.65309 54.0854 5.84487C53.8045 6.09145 53.664 6.47501 53.664 6.83117C53.664 7.15994 53.664 7.10515 53.664 7.29693C53.664 8.28323 52.8495 9.07775 51.8383 9.07775C50.827 9.07775 49.9844 8.28323 49.9844 7.29693V6.33802C49.9844 5.32433 50.4057 4.36542 51.1079 3.68049L52.4562 2.36542C53.1584 1.68049 54.1416 1.26953 55.1809 1.26953H58.7763C59.7875 1.26953 60.7706 1.68049 61.4728 2.36542L62.8211 3.68049C63.5233 4.36542 63.9447 5.32433 63.9447 6.33802C63.9727 6.74898 64.0008 7.10515 63.9727 7.43392C63.9447 8.74898 63.6638 9.13254 62.9896 9.92706Z" fill="#CC7000"/>
<path d="M33.7394 17.3156C36.4334 14.8742 38.2359 12.8845 38.2599 10.0525C38.3079 7.41252 36.3399 5.42052 33.2919 5.46852C29.4519 5.54052 27.4599 8.01252 27.4119 10.7245C27.3879 12.2845 27.8679 13.4365 28.6119 13.5085C29.4279 13.5565 30.4839 11.6125 31.2039 8.13252C31.3719 7.26852 32.0439 6.69252 32.9079 6.78852C33.8199 6.90852 34.5159 7.70052 34.3239 8.56452C33.7719 11.3485 32.1879 16.8925 28.5399 16.9165C26.4519 16.9165 24.3399 14.4685 24.4119 10.6525C24.5079 6.06852 28.3239 2.63652 33.2439 2.54052C38.5719 2.46852 41.3799 6.42852 41.3799 10.1005C41.3799 13.2445 39.4514 16.8115 35.8034 19.7635C35.1314 20.3155 33.9314 20.2195 33.3794 19.5475C32.9234 18.9955 32.9714 18.0116 33.7394 17.3156Z" fill="#CC7000"/>
<path d="M2.6326 11.882C1.7686 11.906 1.0246 11.21 1.0006 10.346C0.976603 9.45796 1.6726 8.73796 2.5366 8.71396L6.76258 8.54047L12.1386 1.36447C12.6666 0.692468 13.6746 0.572468 14.3706 1.10047C15.0426 1.65247 15.1626 2.63647 14.6346 3.33247L10.6746 8.37247L15.4026 8.20447C16.2666 8.18047 17.0106 8.80447 17.0346 9.74047C17.0346 10.6285 16.3626 11.3485 15.4986 11.3725L12.0906 11.4925C10.5306 12.8365 9.21058 14.8285 9.06658 16.1485C8.97058 17.2285 9.61858 17.6605 10.6026 17.7805C11.0346 17.8285 12.2558 17.8089 12.8798 17.7849C13.7438 17.7369 14.5358 18.0969 14.7038 18.9369C14.9438 20.0889 14.0558 20.9049 13.2398 20.9529C12.1358 21.0009 10.9386 20.9725 10.2186 20.9245C6.59458 20.6605 5.34658 18.0925 6.11458 15.2365C6.40258 14.1085 7.17058 12.6685 7.93858 11.6605L2.6326 11.882Z" fill="#CC7000"/>
<path d="M5.80811 2.11142C5.26371 1.37412 4.23082 1.18739 3.51646 1.71487C2.8214 2.22808 2.69586 3.27017 3.25538 4.02795L4.4996 5.67261C5.044 6.4099 6.07689 6.59664 6.77194 6.08342C7.47119 5.53547 7.59255 4.52811 7.03302 3.77033L5.80811 2.11142Z" fill="#CC7000"/>
</g>
<defs>
<clipPath id="clip0_1660_15110">
<rect width="64" height="21" fill="white" transform="translate(0 0.884766)"/>
</clipPath>
</defs>
</svg>
