<svg width="63" height="22" viewBox="0 0 63 22" fill="none" xmlns="http://www.w3.org/2000/svg">
<g clip-path="url(#clip0_1660_15103)">
<path d="M54.1118 1H57.5382C58.5329 1 59.5553 1.41152 60.2737 2.12483L61.5724 3.41427C62.2908 4.12757 62.6776 5.06036 62.6776 6.07545V8.13306C62.6776 9.72428 62.1803 10.5199 60.9921 11.3429L53.0618 16.775C52.8408 16.9396 52.7026 17.1591 52.7026 17.4335H61.2039C62.1987 17.4335 63 18.2291 63 19.2167C63 20.2044 62.1987 21 61.2039 21H51.8737C50.3539 21 49.1105 20.3141 49.1105 18.8052V16.7202C49.1105 15.5679 49.5803 14.8272 50.4092 14.2785L58.0355 9.09328C58.45 8.79149 59.0855 8.29767 59.0855 7.44719C59.0855 7.00823 59.0855 6.92593 59.0855 6.56927C59.0855 6.21262 58.9197 5.85597 58.6711 5.58162C58.4776 5.38957 58.2842 5.19753 58.0908 5.00549C57.8145 4.73114 57.4553 4.59396 57.0684 4.59396C56.3224 4.59396 55.3553 4.59396 54.6092 4.59396C54.2224 4.59396 53.8632 4.73114 53.6145 5.00549C53.4211 5.19753 53.2276 5.38957 53.0342 5.58162C52.7579 5.85597 52.6197 6.21262 52.6197 6.56927C52.6197 6.95336 52.6197 7.55693 52.6197 7.66667C52.6197 8.65432 51.7908 9.44993 50.7961 9.44993C49.8013 9.44993 49 8.65432 49 7.66667V6.07545C49 5.06036 49.4145 4.12757 50.1053 3.41427L51.4316 2.12483C52.1224 1.41152 53.1171 1 54.1118 1Z" fill="#CC7000"/>
<path d="M33.3254 17.9664C36.0193 15.525 37.8219 13.5354 37.8459 10.7034C37.8939 8.0634 35.9259 6.0714 32.8779 6.1194C29.0379 6.1914 27.0459 8.6634 26.9979 11.3754C26.9739 12.9354 27.4539 14.0874 28.1979 14.1594C29.0139 14.2074 30.0699 12.2634 30.7899 8.7834C30.9579 7.9194 31.6299 7.3434 32.4939 7.4394C33.4059 7.5594 34.1019 8.3514 33.9099 9.2154C33.3579 11.9994 31.7739 17.5434 28.1259 17.5674C26.0379 17.5674 23.9259 15.1194 23.9979 11.3034C24.0939 6.7194 27.9099 3.2874 32.8299 3.1914C38.1579 3.1194 40.9659 7.0794 40.9659 10.7514C40.9659 13.8954 39.0374 17.4624 35.3894 20.4144C34.7174 20.9664 33.5174 20.8704 32.9654 20.1984C32.5094 19.6464 32.5574 18.6624 33.3254 17.9664Z" fill="#CC7000"/>
<path d="M2.21854 12.5328C1.35454 12.5568 0.61054 11.8608 0.58654 10.9968C0.56254 10.1088 1.25854 9.38884 2.12254 9.36484L6.34852 9.19135L11.7245 2.01535C12.2525 1.34335 13.2605 1.22335 13.9565 1.75135C14.6285 2.30335 14.7485 3.28735 14.2205 3.98335L10.2605 9.02335L14.9885 8.85535C15.8525 8.83135 16.5965 9.45535 16.6205 10.3913C16.6205 11.2793 15.9485 11.9993 15.0845 12.0233L11.6765 12.1433C10.1165 13.4873 8.79652 15.4793 8.65252 16.7993C8.55652 17.8793 9.20452 18.3113 10.1885 18.4313C10.6205 18.4793 11.8418 18.4597 12.4658 18.4357C13.3298 18.3877 14.1218 18.7477 14.2898 19.5877C14.5298 20.7397 13.6418 21.5557 12.8258 21.6037C11.7218 21.6517 10.5245 21.6233 9.80452 21.5753C6.18052 21.3113 4.93252 18.7433 5.70052 15.8873C5.98852 14.7593 6.75652 13.3193 7.52452 12.3113L2.21854 12.5328Z" fill="#CC7000"/>
<path d="M5.39405 2.7623C4.84965 2.025 3.81676 1.83827 3.1024 2.36574C2.40734 2.87896 2.28179 3.92105 2.84132 4.67883L4.08554 6.32349C4.62994 7.06078 5.66282 7.24751 6.35788 6.7343C7.05712 6.18635 7.17848 5.17899 6.61896 4.42121L5.39405 2.7623Z" fill="#CC7000"/>
</g>
<defs>
<clipPath id="clip0_1660_15103">
<rect width="62" height="21" fill="white" transform="translate(0.695312 0.884766)"/>
</clipPath>
</defs>
</svg>
