<svg width="190" height="201" viewBox="0 0 190 201" fill="none" xmlns="http://www.w3.org/2000/svg">
<path d="M5.14931 108.601C4.87154 98.0443 16.7446 87.6261 27.8653 97.9024C23.8937 121.787 31.8071 130.613 36.6687 144.503C16.4468 135.837 5.49653 121.797 5.14931 108.601Z" fill="#F8F3DA"/>
<path fill-rule="evenodd" clip-rule="evenodd" d="M20.041 89.7377C23.7023 90.1534 27.3036 91.8798 30.6085 94.9337L32.2105 96.414L31.8527 98.5658C28.9702 115.9 32.568 124.217 36.7341 133.848C37.9862 136.743 39.2896 139.756 40.4839 143.168L43.5181 151.837L35.0758 148.219C14.0949 139.227 1.51318 124.116 1.10774 108.708C0.931001 101.99 4.56091 95.3867 10.126 91.9892C12.9726 90.2513 16.3834 89.3224 20.041 89.7377ZM14.3389 98.8899C11.2567 100.772 9.08902 104.655 9.19005 108.495C9.42721 117.508 15.7457 127.859 28.7614 135.892C24.8497 126.815 21.1072 116.78 23.5197 99.5695C21.8925 98.4248 20.4047 97.9161 19.1288 97.7712C17.4412 97.5796 15.8159 97.9882 14.3389 98.8899Z" fill="#4D6296"/>
<path fill-rule="evenodd" clip-rule="evenodd" d="M173.306 155.27C170.849 155.407 168.008 156.725 165.899 159.189C165.204 160.001 164.271 160.484 163.294 160.623C163.383 161.63 163.12 162.673 162.473 163.548C161.277 165.167 161.129 166.725 161.377 167.626C161.494 168.05 161.697 168.361 161.973 168.597C162.249 168.832 162.754 169.124 163.665 169.249C169.047 169.986 173.499 167.905 176.201 165.06C179.137 161.968 179.197 159.128 178.517 157.917C177.46 156.037 175.652 155.14 173.306 155.27Z" fill="#F8F5DF"/>
<path fill-rule="evenodd" clip-rule="evenodd" d="M173.305 155.27C170.847 155.407 168.007 156.724 165.898 159.188C165.202 160 164.269 160.483 163.292 160.622C163.382 161.629 163.118 162.673 162.472 163.547C161.275 165.166 161.127 166.724 161.376 167.625C161.492 168.049 161.696 168.361 161.971 168.596C162.247 168.831 162.753 169.123 163.663 169.248C169.045 169.985 173.498 167.904 176.199 165.059C179.135 161.967 179.195 159.127 178.515 157.916C177.459 156.036 175.65 155.139 173.305 155.27ZM158.49 156.781C157.413 156.934 156.395 157.505 155.694 158.454C153.224 161.796 152.164 166.033 153.232 169.907C154.368 174.033 157.74 177.039 162.526 177.695C170.774 178.824 177.867 175.629 182.304 170.955C186.508 166.528 189.181 159.607 185.869 153.713C182.977 148.568 177.847 146.479 172.838 146.758C167.94 147.031 163.008 149.52 159.501 153.616C158.722 154.525 158.392 155.671 158.49 156.781Z" fill="#4D6296"/>
<path fill-rule="evenodd" clip-rule="evenodd" d="M76.7628 24.5802C79.2984 17.4361 87.5052 12.6531 96.3725 16.2909C100.91 18.1522 103.118 21.6762 104.057 25.1281C104.257 25.8633 104.402 26.6031 104.505 27.3309C105.552 26.6379 106.675 25.9548 107.833 25.3865C110.078 24.2847 112.879 23.3931 115.995 23.8519C119.647 24.3897 122.521 26.6525 124.26 29.3607C125.995 32.0627 126.831 35.5548 126.039 38.9997C125.614 40.847 124.865 42.5497 124.01 44.0439C129.898 46.1014 136.137 48.9242 142.292 53.0562C159.226 64.4238 171.28 78.5828 176.899 99.0208C182.602 119.765 180.006 143.62 167.372 162.121C154.615 180.803 132.007 193.468 98.9348 192.338C89.162 192.229 74.0173 189.609 59.7293 182.116C45.3321 174.566 31.6074 161.945 25.4308 141.841C10.2536 92.4409 42.0651 56.2531 63.7001 46.8069C67.5923 45.1075 72.0206 43.4719 76.9032 42.1711C76.5236 39.9134 76.1952 37.3699 76.0182 34.8991C75.7756 31.5126 75.7435 27.4519 76.7628 24.5802ZM93.0658 24.3513C89.0715 22.7127 85.9431 24.7619 84.9733 27.4943C84.6278 28.4676 84.4633 30.8582 84.7082 34.2766C84.9363 37.4602 85.4592 40.8411 85.9797 43.2961C86.5953 46.2003 84.8399 49.1843 81.8272 49.919C81.4336 50.015 81.0663 50.1042 80.9623 50.1293C75.8519 51.3592 71.2238 53.0284 67.1862 54.7913C48.7386 62.8459 20.1442 94.9677 33.7589 139.282C39.0989 156.663 50.9196 167.659 63.7756 174.401C76.7144 181.186 90.5012 183.539 99.0778 183.627L99.1307 183.627L99.1837 183.629C129.687 184.685 149.305 173.13 160.178 157.208C171.18 141.096 173.616 119.947 168.498 101.33C163.546 83.3141 153.024 70.7541 137.436 60.2898C130.348 55.5318 123.045 52.6844 116.215 50.7009C112.795 49.7076 111.712 45.5064 114.042 42.9559C115.481 41.3811 117.057 39.1863 117.548 37.0476C117.75 36.1708 117.563 35.0549 116.929 34.0678C116.299 33.0869 115.46 32.5795 114.725 32.4712C114.031 32.369 113.086 32.5137 111.671 33.2078C110.223 33.9185 108.734 34.9704 106.939 36.2544L106.905 36.2781C106.104 36.8513 105.236 37.472 104.369 38.0438C100.422 40.6481 95.6786 37.47 95.9366 33.1476C96.0595 31.0877 96.1085 29.0989 95.6505 27.415C95.2535 25.9557 94.5583 24.9636 93.0658 24.3513Z" fill="#4D6296"/>
<path fill-rule="evenodd" clip-rule="evenodd" d="M66.6497 184.899C67.5917 184.131 69.2933 184.349 70.4882 183.833L74.5696 186.475L74.5664 186.596C74.423 192.131 69.6876 196.996 65.182 194.48C61.4024 192.231 63.2112 187.383 66.6497 184.899Z" fill="#4D6296"/>
<path fill-rule="evenodd" clip-rule="evenodd" d="M77.0965 197.805C71.4756 197.423 70.4659 191.59 73.0577 186.587L77.8891 186.047L77.9632 186.143C78.9501 187.415 81.2155 188.525 81.6945 190.016C82.226 193.243 82.573 197.805 77.0965 197.805Z" fill="#4D6296"/>
<path fill-rule="evenodd" clip-rule="evenodd" d="M115.623 191.482C115.869 190.4 119.092 185.088 119.661 184.046L124.08 183.65L124.146 183.739C126.457 186.856 126.344 192.737 124.445 195.832C123.605 197.201 122.449 197.824 121.151 198.007C119.11 198.295 117.275 197.009 116.448 195.832C115.678 194.736 115.228 193.227 115.623 191.482Z" fill="#4D6296"/>
<path fill-rule="evenodd" clip-rule="evenodd" d="M133.79 194.556C131.847 196.219 128.347 195.967 126.274 193.732C123.209 190.427 121.36 187.803 120.779 184.713L124.506 181.236L124.613 181.263C126.038 181.622 129.051 183.673 132.125 185.338C135.944 187.407 136.505 192.234 133.79 194.556Z" fill="#4D6296"/>
<path d="M80.515 26.7245C82.382 21.7887 88.4187 18.3743 95.2685 21.0112C101.691 23.4835 101.454 30.039 101.197 34.0906C101.137 35.0307 102.154 35.6093 102.992 35.0906C103.842 34.5644 104.707 33.9842 105.585 33.395C109.273 30.9195 113.196 28.2869 117.254 28.8477C121.927 29.4935 125.165 34.3853 124.107 38.7048C123.237 42.2561 120.525 45.3587 118.825 47.0234C102.102 63.3991 86.3617 64.2642 81.7071 46.0715C80.4392 41.1156 78.9441 30.8777 80.515 26.7245Z" fill="url(#paint0_linear_1660_15137)"/>
<path fill-rule="evenodd" clip-rule="evenodd" d="M74.8447 24.5789C77.9302 16.4213 87.5371 11.5365 97.4483 15.3519C102.715 17.3794 105.415 21.3118 106.563 25.27C106.59 25.3649 106.617 25.4599 106.643 25.5549C107.324 25.1718 108.028 24.805 108.746 24.4746C111.264 23.315 114.477 22.3421 118.085 22.8407C126.278 23.9729 131.921 32.2954 129.998 40.1475C128.704 45.4291 124.93 49.5324 123.069 51.3555C114.327 59.9156 104.741 65.5889 95.7319 65.5741C90.9994 65.5663 86.5742 63.9668 82.9933 60.6407C79.5086 57.4038 77.192 52.8826 75.8338 47.5742C75.1168 44.7718 74.3729 40.6536 74.0089 36.6452C73.826 34.6323 73.7284 32.5347 73.802 30.5746C73.8718 28.7176 74.107 26.5291 74.8447 24.5789L74.8447 24.5789ZM93.0913 26.6699C89.303 25.2116 86.8363 27.1556 86.188 28.8695C86.1881 28.8692 86.1881 28.8692 86.188 28.8695C86.1868 28.873 86.1697 28.9208 86.1445 29.023C86.1178 29.1314 86.0868 29.2813 86.0562 29.4776C85.9941 29.8765 85.9451 30.3931 85.9211 31.0301C85.8729 32.3126 85.9337 33.863 86.0868 35.5482C86.3945 38.9359 87.0321 42.4147 87.583 44.5681C88.5522 48.3561 89.9487 50.549 91.247 51.7549C92.4491 52.8715 93.877 53.4434 95.7518 53.4465C99.9571 53.4534 106.602 50.5062 114.583 42.6906C115.257 42.031 116.088 41.1255 116.81 40.0941C117.55 39.0374 118.021 38.0656 118.218 37.2615L124.108 38.7045L118.218 37.2615C118.279 37.0152 118.262 36.4598 117.826 35.8225C117.403 35.2043 116.858 34.914 116.425 34.8542C115.975 34.7919 115.198 34.8549 113.818 35.4903C112.389 36.1485 110.894 37.135 108.965 38.4298L106.269 34.4127L105.586 33.3947L106.269 34.4127L108.965 38.4298L108.922 38.459C108.074 39.0281 107.131 39.6609 106.185 40.2462C101.591 43.0902 94.7424 40.0602 95.1465 33.7055L101.198 34.0903L95.1465 33.7055C95.2783 31.6327 95.2969 29.9645 94.9149 28.6467C94.7481 28.0714 94.5408 27.7116 94.3331 27.4687C94.1454 27.2492 93.8075 26.9456 93.0913 26.6699Z" fill="url(#paint1_linear_1660_15137)"/>
<path d="M81.9009 30.109C83.5618 25.4296 88.9323 22.1925 95.026 24.6924C100.739 27.0363 100.529 33.2513 100.3 37.0925C100.247 37.9837 101.152 38.5323 101.897 38.0406C102.654 37.5417 103.423 36.9916 104.204 36.433C107.485 34.0861 110.975 31.5903 114.585 32.1219C118.742 32.7341 121.623 37.3719 120.681 41.467C119.973 44.5496 117.89 47.2755 116.383 48.9251C116.203 49.1219 116.291 49.4414 116.547 49.5158C123.277 51.4706 130.626 54.3198 137.804 59.1388C153.213 69.4826 163.909 82.1418 168.918 100.361C179.171 137.659 159.384 185.651 99.1138 183.566C81.7281 183.387 44.2284 174.151 33.3153 138.63C19.674 94.229 48.2938 61.8646 67.2845 53.5728C71.2928 51.8227 75.9088 50.1561 81.0243 48.9249C81.1158 48.9029 81.4577 48.8198 81.8318 48.7286C82.4584 48.5758 82.8403 47.9501 82.7065 47.3192C81.65 42.3351 80.6077 33.7524 81.9009 30.109Z" fill="url(#paint2_linear_1660_15137)"/>
<path d="M176.565 123.338C169.599 136.782 152.21 140.074 144.386 140.039L150.725 108.185C172.861 94.4172 185.272 106.533 176.565 123.338Z" fill="#F8F3DA"/>
<path fill-rule="evenodd" clip-rule="evenodd" d="M147.927 108.981C146.673 106.994 147.265 104.383 149.25 103.148C161.309 95.648 172.529 94.0544 179.764 99.2125C187.38 104.642 187.494 115.052 182.514 124.664C178.234 132.924 170.849 137.879 163.75 140.743C156.663 143.601 149.472 144.542 144.861 144.521C142.512 144.511 140.602 142.606 140.595 140.267C140.588 137.928 142.487 136.04 144.836 136.05C148.463 136.066 154.546 135.292 160.507 132.888C166.456 130.488 171.894 126.632 174.948 120.736C179.136 112.653 177.3 107.837 174.847 106.088C172.013 104.068 165.045 103.344 153.795 110.342C151.809 111.577 149.182 110.968 147.927 108.981Z" fill="#4D6296"/>
<path d="M128.183 112.581C128.183 115.364 123.919 118.761 117.768 118.567C111.025 118.356 106.578 116.316 106.578 112.581C106.578 109.219 112.69 106.517 117.768 106.517C122.846 106.517 128.183 108.821 128.183 112.581Z" fill="#EFAC8F"/>
<path d="M53.2736 110.883C53.2736 115.173 47.512 117.717 43.1829 117.558C38.4371 117.383 35.0666 115.349 35.0664 110.883C35.0662 107.592 38.8687 105.054 43.9872 105.054C47.5607 105.054 53.2736 106.887 53.2736 110.883Z" fill="#EFAC8F"/>
<path d="M85.0082 88.0036C83.2794 86.5218 81.116 85.5879 79.212 85.5879C78.0621 85.5879 77.0642 85.7322 76.0671 86.1182C75.076 86.5018 74.1204 87.1109 73.037 87.9936C72.1929 88.6815 71.3627 89.7601 70.5994 90.9848C69.83 92.219 69.1035 93.6428 68.4772 95.0577C67.8507 96.473 67.3197 97.8904 66.944 99.1155C66.5747 100.32 66.3359 101.4 66.3359 102.114C66.3359 104.928 68.281 106.438 70.0811 106.913C71.7731 107.359 79.2155 108.382 87.9815 107.442L88.0498 107.435C88.8393 107.351 90.2878 107.197 91.3172 106.179C92.4283 105.079 92.8747 103.186 92.0873 100.034C91.3395 97.0403 89.8527 94.2804 88.4268 92.1601C87.0056 90.047 85.6119 88.521 85.0082 88.0036Z" fill="#4D6296"/>
<path d="M62.9509 94.1832C62.5759 96.3204 60.8997 96.3659 58.6758 94.7595C57.1523 93.6591 55.3702 92.1369 53.4454 91.7066C48.918 90.8281 47.0385 92.0398 45.6884 90.0175C44.1807 85.9883 49.93 83.4012 55.6871 84.3041C59.1122 84.8414 64.0019 88.1934 62.9509 94.1832Z" fill="#4D6296"/>
<path d="M98.1078 94.1735C98.4086 96.3224 100.082 96.4258 102.36 94.8973C103.921 93.8503 107.722 91.5876 109.661 91.2241C114.216 90.5028 116.052 91.7788 117.472 89.8045C119.118 85.8299 113.461 83.0454 107.677 83.7486C104.235 84.1669 97.2647 88.1509 98.1078 94.1735Z" fill="#4D6296"/>
<path d="M56.2309 40.1571C56.8291 40.0191 57.0471 40.0525 57.3657 39.7905C57.6844 39.5285 57.719 39.2966 57.9448 38.748C59.0203 34.9084 61.1126 28.2035 57.7672 24.1346C55.9851 21.9671 52.9033 21.4036 50.4786 22.7995C48.8741 23.7237 48.1372 25.7784 47.9598 27.6184L47.9137 28.0962C47.9031 28.2063 47.8051 28.2869 47.695 28.2761L47.2173 28.2289C45.3776 28.0472 43.2436 28.353 42.0267 29.7485C40.1883 31.8577 40.1455 34.9903 41.9276 37.1577C45.273 41.2267 52.064 40.4108 56.2309 40.1571Z" fill="url(#paint3_linear_1660_15137)"/>
<path d="M136.38 20.5942C136.731 21.2222 136.765 21.4785 137.163 21.7515C137.562 22.0246 137.834 21.9879 138.526 22.0629C143.197 22.0199 151.425 22.186 154.911 17.0935C156.769 14.3808 156.397 10.729 154.035 8.45617C152.471 6.95236 149.919 6.79374 147.79 7.19467L147.204 7.30514C147.095 7.32562 146.99 7.25394 146.97 7.14517L146.861 6.55843C146.465 4.42904 145.424 2.12753 143.457 1.21362C140.484 -0.166627 136.945 0.807606 135.087 3.52033C131.6 8.61281 134.735 15.9881 136.38 20.5942Z" fill="url(#paint4_linear_1660_15137)"/>
<defs>
<linearGradient id="paint0_linear_1660_15137" x1="102.074" y1="20.0957" x2="102.074" y2="59.5106" gradientUnits="userSpaceOnUse">
<stop stop-color="#FABBB6"/>
<stop offset="0.47" stop-color="#FAB9BA"/>
<stop offset="1" stop-color="#FFE4BB"/>
</linearGradient>
<linearGradient id="paint1_linear_1660_15137" x1="104.151" y1="25.0073" x2="94.25" y2="59.7729" gradientUnits="userSpaceOnUse">
<stop stop-color="#F57F7F"/>
<stop offset="1" stop-color="#FFE3B4"/>
</linearGradient>
<linearGradient id="paint2_linear_1660_15137" x1="100.275" y1="24.2564" x2="98.2422" y2="178.042" gradientUnits="userSpaceOnUse">
<stop stop-color="#FFCCCC"/>
<stop offset="0.29" stop-color="#F8F3DA"/>
<stop offset="1" stop-color="#F8F3DA"/>
</linearGradient>
<linearGradient id="paint3_linear_1660_15137" x1="46.0758" y1="26.0337" x2="57.2384" y2="39.6105" gradientUnits="userSpaceOnUse">
<stop stop-color="#F57D7D"/>
<stop offset="1" stop-color="#EBA080"/>
</linearGradient>
<linearGradient id="paint4_linear_1660_15137" x1="148.959" y1="4.55741" x2="137.324" y2="21.5495" gradientUnits="userSpaceOnUse">
<stop stop-color="#F57D7D"/>
<stop offset="1" stop-color="#EBA080"/>
</linearGradient>
</defs>
</svg>
