<svg width="190" height="210" viewBox="0 0 190 210" fill="none" xmlns="http://www.w3.org/2000/svg">
<path d="M5.14931 117.601C4.87154 107.044 16.7446 96.6261 27.8653 106.902C23.8937 130.787 31.8071 139.613 36.6687 153.503C16.4468 144.837 5.49653 130.797 5.14931 117.601Z" fill="#F8F3DA"/>
<path fill-rule="evenodd" clip-rule="evenodd" d="M20.041 98.7377C23.7023 99.1534 27.3036 100.88 30.6085 103.934L32.2105 105.414L31.8527 107.566C28.9702 124.9 32.568 133.217 36.7341 142.848C37.9862 145.743 39.2896 148.756 40.4839 152.168L43.5181 160.837L35.0758 157.219C14.0949 148.227 1.51318 133.116 1.10774 117.708C0.931001 110.99 4.56091 104.387 10.126 100.989C12.9726 99.2513 16.3834 98.3224 20.041 98.7377ZM14.3389 107.89C11.2567 109.772 9.08902 113.655 9.19005 117.495C9.42721 126.508 15.7457 136.859 28.7614 144.892C24.8497 135.815 21.1072 125.78 23.5197 108.569C21.8925 107.425 20.4047 106.916 19.1288 106.771C17.4412 106.58 15.8159 106.988 14.3389 107.89Z" fill="#4D6296"/>
<path fill-rule="evenodd" clip-rule="evenodd" d="M173.306 164.27C170.849 164.407 168.008 165.725 165.899 168.189C165.204 169.001 164.271 169.484 163.294 169.623C163.383 170.63 163.12 171.673 162.473 172.548C161.277 174.167 161.129 175.725 161.377 176.626C161.494 177.05 161.697 177.361 161.973 177.597C162.249 177.832 162.754 178.124 163.665 178.249C169.047 178.986 173.499 176.905 176.201 174.06C179.137 170.968 179.197 168.128 178.517 166.917C177.46 165.037 175.652 164.14 173.306 164.27Z" fill="#F8F5DF"/>
<path fill-rule="evenodd" clip-rule="evenodd" d="M173.305 164.27C170.847 164.407 168.007 165.724 165.898 168.188C165.202 169 164.269 169.483 163.292 169.622C163.382 170.629 163.118 171.673 162.472 172.547C161.275 174.166 161.127 175.724 161.376 176.625C161.492 177.049 161.696 177.361 161.971 177.596C162.247 177.831 162.753 178.123 163.663 178.248C169.045 178.985 173.498 176.904 176.199 174.059C179.135 170.967 179.195 168.127 178.515 166.916C177.459 165.036 175.65 164.139 173.305 164.27ZM158.49 165.781C157.413 165.934 156.395 166.505 155.694 167.454C153.224 170.796 152.164 175.033 153.232 178.907C154.368 183.033 157.74 186.039 162.526 186.695C170.774 187.824 177.867 184.629 182.304 179.955C186.508 175.528 189.181 168.607 185.869 162.713C182.977 157.568 177.847 155.479 172.838 155.758C167.94 156.031 163.008 158.52 159.501 162.616C158.722 163.525 158.392 164.671 158.49 165.781Z" fill="#4D6296"/>
<path fill-rule="evenodd" clip-rule="evenodd" d="M76.7628 33.5802C79.2984 26.4361 87.5052 21.6531 96.3725 25.2909C100.91 27.1522 103.118 30.6762 104.057 34.1281C104.257 34.8633 104.402 35.6031 104.505 36.3309C105.552 35.6379 106.675 34.9548 107.833 34.3865C110.078 33.2847 112.879 32.3931 115.995 32.8519C119.647 33.3897 122.521 35.6525 124.26 38.3607C125.995 41.0627 126.831 44.5548 126.039 47.9997C125.614 49.847 124.865 51.5497 124.01 53.0439C129.898 55.1014 136.137 57.9242 142.292 62.0562C159.226 73.4238 171.28 87.5828 176.899 108.021C182.602 128.765 180.006 152.62 167.372 171.121C154.615 189.803 132.007 202.468 98.9348 201.338C89.162 201.229 74.0173 198.609 59.7293 191.116C45.3321 183.566 31.6074 170.945 25.4308 150.841C10.2536 101.441 42.0651 65.2531 63.7001 55.8069C67.5923 54.1075 72.0206 52.4719 76.9032 51.1711C76.5236 48.9134 76.1952 46.3699 76.0182 43.8991C75.7756 40.5126 75.7435 36.4519 76.7628 33.5802ZM93.0658 33.3513C89.0715 31.7127 85.9431 33.7619 84.9733 36.4943C84.6278 37.4676 84.4633 39.8582 84.7082 43.2766C84.9363 46.4602 85.4592 49.8411 85.9797 52.2961C86.5953 55.2003 84.8399 58.1843 81.8272 58.919C81.4336 59.015 81.0663 59.1042 80.9623 59.1293C75.8519 60.3592 71.2238 62.0284 67.1862 63.7913C48.7386 71.8459 20.1442 103.968 33.7589 148.282C39.0989 165.663 50.9196 176.659 63.7756 183.401C76.7144 190.186 90.5012 192.539 99.0778 192.627L99.1307 192.627L99.1837 192.629C129.687 193.685 149.305 182.13 160.178 166.208C171.18 150.096 173.616 128.947 168.498 110.33C163.546 92.3141 153.024 79.7541 137.436 69.2898C130.348 64.5318 123.045 61.6844 116.215 59.7009C112.795 58.7076 111.712 54.5064 114.042 51.9559C115.481 50.3811 117.057 48.1863 117.548 46.0476C117.75 45.1708 117.563 44.0549 116.929 43.0678C116.299 42.0869 115.46 41.5795 114.725 41.4712C114.031 41.369 113.086 41.5137 111.671 42.2078C110.223 42.9185 108.734 43.9704 106.939 45.2544L106.905 45.2781C106.104 45.8513 105.236 46.472 104.369 47.0438C100.422 49.6481 95.6786 46.47 95.9366 42.1476C96.0595 40.0877 96.1085 38.0989 95.6505 36.415C95.2535 34.9557 94.5583 33.9636 93.0658 33.3513Z" fill="#4D6296"/>
<path fill-rule="evenodd" clip-rule="evenodd" d="M66.6497 193.899C67.5917 193.131 69.2933 193.349 70.4882 192.833L74.5696 195.475L74.5664 195.596C74.423 201.131 69.6876 205.996 65.182 203.48C61.4024 201.231 63.2112 196.383 66.6497 193.899Z" fill="#4D6296"/>
<path fill-rule="evenodd" clip-rule="evenodd" d="M77.0965 206.805C71.4756 206.423 70.4659 200.59 73.0577 195.587L77.8891 195.047L77.9632 195.143C78.9501 196.415 81.2155 197.525 81.6945 199.016C82.226 202.243 82.573 206.805 77.0965 206.805Z" fill="#4D6296"/>
<path fill-rule="evenodd" clip-rule="evenodd" d="M115.623 200.482C115.869 199.4 119.092 194.088 119.661 193.046L124.08 192.65L124.146 192.739C126.457 195.856 126.344 201.737 124.445 204.832C123.605 206.201 122.449 206.824 121.151 207.007C119.11 207.295 117.275 206.009 116.448 204.832C115.678 203.736 115.228 202.227 115.623 200.482Z" fill="#4D6296"/>
<path fill-rule="evenodd" clip-rule="evenodd" d="M133.79 203.556C131.847 205.219 128.347 204.967 126.274 202.732C123.209 199.427 121.36 196.803 120.779 193.713L124.506 190.236L124.613 190.263C126.038 190.622 129.051 192.673 132.125 194.338C135.944 196.407 136.505 201.234 133.79 203.556Z" fill="#4D6296"/>
<path d="M80.515 35.7245C82.382 30.7887 88.4187 27.3743 95.2685 30.0112C101.691 32.4835 101.454 39.039 101.197 43.0906C101.137 44.0307 102.154 44.6093 102.992 44.0906C103.842 43.5644 104.707 42.9842 105.585 42.395C109.273 39.9195 113.196 37.2869 117.254 37.8477C121.927 38.4935 125.165 43.3853 124.107 47.7048C123.237 51.2561 120.525 54.3587 118.825 56.0234C102.102 72.3991 86.3617 73.2642 81.7071 55.0715C80.4392 50.1156 78.9441 39.8777 80.515 35.7245Z" fill="url(#paint0_linear_1193_14494)"/>
<path fill-rule="evenodd" clip-rule="evenodd" d="M74.8447 33.5789C77.9302 25.4213 87.5371 20.5365 97.4483 24.3519C102.715 26.3794 105.415 30.3118 106.563 34.27C106.59 34.3649 106.617 34.4599 106.643 34.5549C107.324 34.1718 108.028 33.805 108.746 33.4746C111.264 32.315 114.477 31.3421 118.085 31.8407C126.278 32.9729 131.921 41.2954 129.998 49.1475C128.704 54.4291 124.93 58.5324 123.069 60.3555C114.327 68.9156 104.741 74.5889 95.7319 74.5741C90.9994 74.5663 86.5742 72.9668 82.9933 69.6407C79.5086 66.4038 77.192 61.8826 75.8338 56.5742C75.1168 53.7718 74.3729 49.6536 74.0089 45.6452C73.826 43.6323 73.7284 41.5347 73.802 39.5746C73.8718 37.7176 74.107 35.5291 74.8447 33.5789L74.8447 33.5789ZM93.0913 35.6699C89.303 34.2116 86.8363 36.1556 86.188 37.8695C86.1881 37.8692 86.1881 37.8692 86.188 37.8695C86.1868 37.873 86.1697 37.9208 86.1445 38.023C86.1178 38.1314 86.0868 38.2813 86.0562 38.4776C85.9941 38.8765 85.9451 39.3931 85.9211 40.0301C85.8729 41.3126 85.9337 42.863 86.0868 44.5482C86.3945 47.9359 87.0321 51.4147 87.583 53.5681C88.5522 57.3561 89.9487 59.549 91.247 60.7549C92.4491 61.8715 93.877 62.4434 95.7518 62.4465C99.9571 62.4534 106.602 59.5062 114.583 51.6906C115.257 51.031 116.088 50.1255 116.81 49.0941C117.55 48.0374 118.021 47.0656 118.218 46.2615L124.108 47.7045L118.218 46.2615C118.279 46.0152 118.262 45.4598 117.826 44.8225C117.403 44.2043 116.858 43.914 116.425 43.8542C115.975 43.7919 115.198 43.8549 113.818 44.4903C112.389 45.1485 110.894 46.135 108.965 47.4298L106.269 43.4127L105.586 42.3947L106.269 43.4127L108.965 47.4298L108.922 47.459C108.074 48.0281 107.131 48.6609 106.185 49.2462C101.591 52.0902 94.7424 49.0602 95.1465 42.7055L101.198 43.0903L95.1465 42.7055C95.2783 40.6327 95.2969 38.9645 94.9149 37.6467C94.7481 37.0714 94.5408 36.7116 94.3331 36.4687C94.1454 36.2492 93.8075 35.9456 93.0913 35.6699Z" fill="url(#paint1_linear_1193_14494)"/>
<path d="M81.9009 39.109C83.5618 34.4296 88.9323 31.1925 95.026 33.6924C100.739 36.0363 100.529 42.2513 100.3 46.0925C100.247 46.9837 101.152 47.5323 101.897 47.0406C102.654 46.5417 103.423 45.9916 104.204 45.433C107.485 43.0861 110.975 40.5903 114.585 41.1219C118.742 41.7341 121.623 46.3719 120.681 50.467C119.973 53.5496 117.89 56.2755 116.383 57.9251C116.203 58.1219 116.291 58.4414 116.547 58.5158C123.277 60.4706 130.626 63.3198 137.804 68.1388C153.213 78.4826 163.909 91.1418 168.918 109.361C179.171 146.659 159.384 194.651 99.1138 192.566C81.7281 192.387 44.2284 183.151 33.3153 147.63C19.674 103.229 48.2938 70.8646 67.2845 62.5728C71.2928 60.8227 75.9088 59.1561 81.0243 57.9249C81.1158 57.9029 81.4577 57.8198 81.8318 57.7286C82.4584 57.5758 82.8403 56.9501 82.7065 56.3192C81.65 51.3351 80.6077 42.7524 81.9009 39.109Z" fill="url(#paint2_linear_1193_14494)"/>
<path d="M176.565 132.338C169.599 145.782 152.21 149.074 144.386 149.039L150.725 117.185C172.861 103.417 185.272 115.533 176.565 132.338Z" fill="#F8F3DA"/>
<path fill-rule="evenodd" clip-rule="evenodd" d="M147.927 117.981C146.673 115.994 147.265 113.383 149.25 112.148C161.309 104.648 172.529 103.054 179.764 108.213C187.38 113.642 187.494 124.052 182.514 133.664C178.234 141.924 170.849 146.879 163.75 149.743C156.663 152.601 149.472 153.542 144.861 153.521C142.512 153.511 140.602 151.606 140.595 149.267C140.588 146.928 142.487 145.04 144.836 145.05C148.463 145.066 154.546 144.292 160.507 141.888C166.456 139.488 171.894 135.632 174.948 129.736C179.136 121.653 177.3 116.837 174.847 115.088C172.013 113.068 165.045 112.344 153.795 119.342C151.809 120.577 149.182 119.968 147.927 117.981Z" fill="#4D6296"/>
<path d="M128.183 121.581C128.183 124.364 123.919 127.761 117.768 127.567C111.025 127.356 106.578 125.316 106.578 121.581C106.578 118.219 112.69 115.517 117.768 115.517C122.846 115.517 128.183 117.821 128.183 121.581Z" fill="#EFAC8F"/>
<path d="M53.2736 119.883C53.2736 124.173 47.512 126.717 43.1829 126.558C38.4371 126.383 35.0666 124.349 35.0664 119.883C35.0662 116.592 38.8687 114.054 43.9872 114.054C47.5607 114.054 53.2736 115.887 53.2736 119.883Z" fill="#EFAC8F"/>
<path d="M85.0082 97.0036C83.2794 95.5218 81.116 94.5879 79.212 94.5879C78.0621 94.5879 77.0642 94.7322 76.0671 95.1182C75.076 95.5018 74.1204 96.1109 73.037 96.9936C72.1929 97.6815 71.3627 98.7601 70.5994 99.9848C69.83 101.219 69.1035 102.643 68.4772 104.058C67.8507 105.473 67.3197 106.89 66.944 108.115C66.5747 109.32 66.3359 110.4 66.3359 111.114C66.3359 113.928 68.281 115.438 70.0811 115.913C71.7731 116.359 79.2155 117.382 87.9815 116.442L88.0498 116.435C88.8393 116.351 90.2878 116.197 91.3172 115.179C92.4283 114.079 92.8747 112.186 92.0873 109.034C91.3395 106.04 89.8527 103.28 88.4268 101.16C87.0056 99.047 85.6119 97.521 85.0082 97.0036Z" fill="#4D6296"/>
<path d="M62.9509 103.183C62.5759 105.32 60.8997 105.366 58.6758 103.76C57.1523 102.659 55.3702 101.137 53.4454 100.707C48.918 99.8281 47.0385 101.04 45.6884 99.0175C44.1807 94.9883 49.93 92.4012 55.6871 93.3041C59.1122 93.8414 64.0019 97.1934 62.9509 103.183Z" fill="#4D6296"/>
<path d="M98.1078 103.173C98.4086 105.322 100.082 105.426 102.36 103.897C103.921 102.85 107.722 100.588 109.661 100.224C114.216 99.5028 116.052 100.779 117.472 98.8045C119.118 94.8299 113.461 92.0454 107.677 92.7486C104.235 93.1669 97.2647 97.1509 98.1078 103.173Z" fill="#4D6296"/>
<path d="M168.231 42.1571C168.829 42.0191 169.047 42.0525 169.366 41.7905C169.684 41.5285 169.719 41.2966 169.945 40.748C171.02 36.9084 173.113 30.2035 169.767 26.1346C167.985 23.9671 164.903 23.4036 162.479 24.7995C160.874 25.7237 160.137 27.7784 159.96 29.6184L159.914 30.0962C159.903 30.2063 159.805 30.2869 159.695 30.2761L159.217 30.2289C157.378 30.0472 155.244 30.353 154.027 31.7485C152.188 33.8577 152.146 36.9903 153.928 39.1577C157.273 43.2267 164.064 42.4108 168.231 42.1571Z" fill="url(#paint3_linear_1193_14494)"/>
<path d="M35.3805 22.5942C35.731 23.2222 35.7646 23.4785 36.1634 23.7515C36.5622 24.0246 36.8345 23.9879 37.5255 24.0629C42.1971 24.0199 50.4246 24.186 53.9113 19.0935C55.7687 16.3808 55.397 12.729 53.0349 10.4562C51.4712 8.95237 48.9187 8.79374 46.7902 9.19467L46.2037 9.30514C46.095 9.32562 45.9903 9.25394 45.9701 9.14517L45.861 8.55843C45.4649 6.42904 44.4244 4.12753 42.4568 3.21362C39.4835 1.83337 35.9445 2.80761 34.0872 5.52033C30.6005 10.6128 33.735 17.9881 35.3805 22.5942Z" fill="url(#paint4_linear_1193_14494)"/>
<defs>
<linearGradient id="paint0_linear_1193_14494" x1="102.074" y1="29.0957" x2="102.074" y2="68.5106" gradientUnits="userSpaceOnUse">
<stop stop-color="#FABBB6"/>
<stop offset="0.47" stop-color="#FAB9BA"/>
<stop offset="1" stop-color="#FFE4BB"/>
</linearGradient>
<linearGradient id="paint1_linear_1193_14494" x1="104.151" y1="34.0073" x2="94.25" y2="68.7729" gradientUnits="userSpaceOnUse">
<stop stop-color="#F57F7F"/>
<stop offset="1" stop-color="#FFE3B4"/>
</linearGradient>
<linearGradient id="paint2_linear_1193_14494" x1="100.275" y1="33.2564" x2="98.2422" y2="187.042" gradientUnits="userSpaceOnUse">
<stop stop-color="#FFCCCC"/>
<stop offset="0.29" stop-color="#F8F3DA"/>
<stop offset="1" stop-color="#F8F3DA"/>
</linearGradient>
<linearGradient id="paint3_linear_1193_14494" x1="158.076" y1="28.0337" x2="169.238" y2="41.6105" gradientUnits="userSpaceOnUse">
<stop stop-color="#F57D7D"/>
<stop offset="1" stop-color="#EBA080"/>
</linearGradient>
<linearGradient id="paint4_linear_1193_14494" x1="47.9586" y1="6.55741" x2="36.3244" y2="23.5495" gradientUnits="userSpaceOnUse">
<stop stop-color="#F57D7D"/>
<stop offset="1" stop-color="#EBA080"/>
</linearGradient>
</defs>
</svg>
