<svg width="15" height="15" viewBox="0 0 15 15" fill="none" xmlns="http://www.w3.org/2000/svg">
<path d="M3.51562 7.11914C3.51562 9.32828 5.30649 11.1191 7.51562 11.1191C9.72476 11.1191 11.5156 9.32828 11.5156 7.11914C11.5156 4.91 9.72476 3.11914 7.51562 3.11914C5.30649 3.11914 3.51562 4.91 3.51562 7.11914Z" fill="#FAD85E"/>
<path fill-rule="evenodd" clip-rule="evenodd" d="M0.515625 7.11914C0.515625 10.9851 3.64963 14.1191 7.51562 14.1191C11.3816 14.1191 14.5156 10.9851 14.5156 7.11914C14.5156 3.25315 11.3816 0.119141 7.51562 0.119141C3.64963 0.119141 0.515625 3.25315 0.515625 7.11914ZM7.51562 11.1191C5.30649 11.1191 3.51562 9.32828 3.51562 7.11914C3.51562 4.91 5.30649 3.11914 7.51562 3.11914C9.72476 3.11914 11.5156 4.91 11.5156 7.11914C11.5156 9.32828 9.72476 11.1191 7.51562 11.1191Z" fill="white"/>
</svg>
