<svg width="17" height="11" viewBox="0 0 17 11" fill="none" xmlns="http://www.w3.org/2000/svg">
<path d="M3.51562 5.44873C3.51562 6.5533 4.41106 7.44873 5.51562 7.44873L11.5156 7.44873C12.6202 7.44873 13.5156 6.5533 13.5156 5.44873V5.44873C13.5156 4.34416 12.6202 3.44873 11.5156 3.44873L5.51562 3.44873C4.41106 3.44873 3.51562 4.34416 3.51562 5.44873V5.44873Z" fill="url(#paint0_linear_1322_368)"/>
<path fill-rule="evenodd" clip-rule="evenodd" d="M5.51562 10.4487H11.5156C14.277 10.4487 16.5156 8.21015 16.5156 5.44873C16.5156 2.68731 14.277 0.448731 11.5156 0.448731H5.51562C2.7542 0.448731 0.515625 2.68731 0.515625 5.44873C0.515625 8.21015 2.7542 10.4487 5.51562 10.4487ZM5.51562 7.44873C4.41106 7.44873 3.51562 6.5533 3.51562 5.44873C3.51562 4.34416 4.41106 3.44873 5.51562 3.44873L11.5156 3.44873C12.6202 3.44873 13.5156 4.34416 13.5156 5.44873C13.5156 6.5533 12.6202 7.44873 11.5156 7.44873H5.51562Z" fill="#F7F7F7"/>
<defs>
<linearGradient id="paint0_linear_1322_368" x1="4.21818" y1="4.65133" x2="14.445" y2="3.91232" gradientUnits="userSpaceOnUse">
<stop stop-color="#F9DF5A"/>
<stop offset="1" stop-color="#FFB464"/>
</linearGradient>
</defs>
</svg>
