<svg width="180" height="180" viewBox="0 0 180 180" fill="none" xmlns="http://www.w3.org/2000/svg">
<g clip-path="url(#clip0_1071_12149)">
<g clip-path="url(#clip1_1071_12149)">
<path fill-rule="evenodd" clip-rule="evenodd" d="M164.181 136.676C161.853 136.806 159.162 138.054 157.164 140.388C156.505 141.157 155.621 141.615 154.696 141.747C154.781 142.701 154.531 143.689 153.918 144.518C152.785 146.052 152.645 147.528 152.88 148.381C152.991 148.783 153.183 149.078 153.444 149.301C153.706 149.524 154.185 149.8 155.047 149.918C160.146 150.617 164.364 148.646 166.924 145.95C169.705 143.021 169.762 140.33 169.117 139.184C168.116 137.402 166.403 136.552 164.181 136.676Z" fill="#F8F5DF"/>
<path fill-rule="evenodd" clip-rule="evenodd" d="M164.181 136.676C161.853 136.806 159.163 138.054 157.164 140.388C156.506 141.157 155.622 141.615 154.696 141.746C154.781 142.701 154.531 143.689 153.919 144.518C152.786 146.051 152.645 147.528 152.88 148.381C152.991 148.783 153.184 149.078 153.445 149.301C153.706 149.524 154.185 149.8 155.048 149.918C160.146 150.617 164.365 148.646 166.924 145.95C169.705 143.021 169.762 140.33 169.118 139.183C168.117 137.402 166.404 136.552 164.181 136.676ZM150.146 138.107C149.126 138.253 148.162 138.793 147.498 139.692C145.158 142.859 144.154 146.873 145.165 150.543C146.242 154.451 149.436 157.3 153.97 157.921C161.784 158.991 168.503 155.963 172.708 151.536C176.69 147.342 179.222 140.785 176.084 135.201C173.345 130.327 168.485 128.348 163.739 128.612C159.1 128.871 154.427 131.228 151.104 135.109C150.366 135.971 150.053 137.057 150.146 138.107Z" fill="#4D6296"/>
<path fill-rule="evenodd" clip-rule="evenodd" d="M72.7209 12.8646C75.1231 6.09655 82.8979 1.56527 91.2986 5.01159C95.5968 6.77491 97.6892 10.1135 98.5788 13.3837C98.7683 14.0802 98.9056 14.7811 99.0034 15.4705C99.9949 14.814 101.059 14.1669 102.156 13.6285C104.283 12.5847 106.937 11.74 109.888 12.1746C113.348 12.6842 116.071 14.8279 117.719 17.3935C119.362 19.9533 120.154 23.2616 119.404 26.5252C119.001 28.2753 118.291 29.8883 117.481 31.3039C123.06 33.2531 128.97 35.9273 134.801 39.8418C150.844 50.6112 162.264 64.0249 167.587 83.3873C172.989 103.04 170.531 125.639 158.562 143.167C146.476 160.865 125.057 172.864 93.726 171.793C84.4675 171.69 70.12 169.208 56.5839 162.109C42.9445 154.957 29.9421 143 24.0906 123.953C9.71225 77.1537 39.8495 42.8705 60.3457 33.9215C64.0331 32.3115 68.2283 30.762 72.8539 29.5297C72.4943 27.3908 72.1832 24.9811 72.0155 22.6404C71.7857 19.4321 71.7553 15.5852 72.7209 12.8646ZM88.1659 12.6477C84.3819 11.0954 81.4181 13.0367 80.4993 15.6254C80.172 16.5474 80.0162 18.8122 80.2482 22.0506C80.4643 25.0667 80.9597 28.2696 81.4527 30.5955C82.036 33.3468 80.3729 36.1737 77.5188 36.8698C77.1459 36.9607 76.798 37.0453 76.6994 37.069C71.858 38.2342 67.4734 39.8156 63.6484 41.4857C46.1717 49.1163 19.0822 79.5475 31.9804 121.529C37.0394 137.996 48.2379 148.413 60.4172 154.8C72.6751 161.228 85.7363 163.457 93.8614 163.54L93.9116 163.541L93.9618 163.543C122.86 164.542 141.445 153.596 151.745 138.512C162.169 123.248 164.477 103.212 159.628 85.5751C154.936 68.5073 144.969 56.6083 130.201 46.6947C123.486 42.1872 116.567 39.4897 110.097 37.6106C106.857 36.6695 105.83 32.6894 108.038 30.2732C109.401 28.7812 110.894 26.702 111.36 24.6758C111.551 23.8452 111.373 22.788 110.773 21.8528C110.176 20.9236 109.382 20.4429 108.685 20.3403C108.027 20.2434 107.132 20.3806 105.792 21.0381C104.42 21.7114 103.009 22.708 101.309 23.9244L101.277 23.9468C100.518 24.4899 99.6958 25.0779 98.8746 25.6196C95.1347 28.0869 90.6412 25.076 90.8855 20.9811C91.002 19.0296 91.0484 17.1454 90.6145 15.5502C90.2384 14.1677 89.5799 13.2278 88.1659 12.6477Z" fill="#4D6296"/>
<path fill-rule="evenodd" clip-rule="evenodd" d="M63.1394 164.746C64.0318 164.018 65.6439 164.224 66.7759 163.736L70.6424 166.238L70.6395 166.353C70.5035 171.597 66.0173 176.206 61.7489 173.822C58.1682 171.692 59.8818 167.099 63.1394 164.746Z" fill="#4D6296"/>
<path fill-rule="evenodd" clip-rule="evenodd" d="M73.0363 176.972C67.7113 176.61 66.7547 171.084 69.2102 166.345L73.7872 165.833L73.8575 165.924C74.7924 167.129 76.9386 168.181 77.3924 169.593C77.8959 172.65 78.2246 176.972 73.0363 176.972Z" fill="#4D6296"/>
<path fill-rule="evenodd" clip-rule="evenodd" d="M109.536 170.983C109.769 169.958 112.822 164.925 113.362 163.938L117.548 163.562L117.611 163.646C119.8 166.599 119.693 172.171 117.894 175.104C117.098 176.401 116.003 176.991 114.773 177.164C112.839 177.437 111.102 176.219 110.318 175.104C109.588 174.065 109.162 172.635 109.536 170.983Z" fill="#4D6296"/>
<path fill-rule="evenodd" clip-rule="evenodd" d="M126.747 173.895C124.906 175.469 121.59 175.231 119.627 173.114C116.723 169.983 114.971 167.497 114.421 164.569L117.951 161.275L118.053 161.301C119.403 161.641 122.257 163.584 125.169 165.161C128.788 167.121 129.319 171.695 126.747 173.895Z" fill="#4D6296"/>
<path d="M76.278 14.8971C78.0466 10.2211 83.7657 6.98643 90.2549 9.48452C96.3392 11.8267 96.1153 18.0371 95.8712 21.8755C95.8146 22.7661 96.7785 23.3142 97.5722 22.8229C98.3774 22.3244 99.1965 21.7747 100.028 21.2166C103.523 18.8713 107.239 16.3773 111.083 16.9086C115.51 17.5204 118.578 22.1547 117.575 26.2469C116.751 29.6113 114.182 32.5505 112.571 34.1276C96.7291 49.6414 81.817 50.461 77.4073 33.2258C76.2061 28.5308 74.7897 18.8317 76.278 14.8971Z" fill="url(#paint0_linear_1071_12149)"/>
<path fill-rule="evenodd" clip-rule="evenodd" d="M70.9048 12.864C73.8279 5.13569 82.9291 0.507986 92.3187 4.12259C97.3083 6.04338 99.8666 9.76879 100.954 13.5187C100.98 13.6086 101.005 13.6986 101.029 13.7885C101.675 13.4256 102.342 13.0781 103.022 12.7651C105.407 11.6666 108.452 10.7449 111.869 11.2172C119.631 12.2899 124.978 20.1743 123.155 27.6131C121.929 32.6168 118.354 36.5041 116.591 38.2313C108.309 46.3408 99.2277 51.7155 90.6926 51.7015C86.2092 51.6941 82.017 50.1788 78.6246 47.0277C75.3232 43.9613 73.1286 39.678 71.8419 34.649C71.1626 31.9941 70.4579 28.0926 70.1129 24.2951C69.9397 22.3882 69.8472 20.401 69.917 18.5441C69.9831 16.7849 70.206 14.7115 70.9048 12.864L70.9048 12.864ZM88.191 14.8449C84.6022 13.4633 82.2653 15.305 81.6511 16.9287C81.6512 16.9284 81.6512 16.9285 81.6511 16.9287C81.6499 16.932 81.6337 16.9773 81.6098 17.0741C81.5845 17.1768 81.5552 17.3188 81.5262 17.5048C81.4674 17.8827 81.4209 18.3721 81.3983 18.9756C81.3526 20.1906 81.4102 21.6594 81.5552 23.2559C81.8467 26.4653 82.4507 29.761 82.9727 31.8011C83.8908 35.3897 85.2138 37.4672 86.4438 38.6096C87.5827 39.6675 88.9354 40.2092 90.7115 40.2121C94.6955 40.2187 100.991 37.4267 108.552 30.0224C109.19 29.3975 109.978 28.5396 110.662 27.5625C111.362 26.5614 111.809 25.6408 111.996 24.8791L117.575 26.2461L111.996 24.8791C112.053 24.6457 112.037 24.1196 111.624 23.5158C111.223 22.9301 110.707 22.6551 110.297 22.5984C109.87 22.5395 109.134 22.5991 107.827 23.2011C106.473 23.8246 105.057 24.7592 103.229 25.9858L100.675 22.1802L100.028 21.2158L100.675 22.1802L103.229 25.9858L103.188 26.0135C102.385 26.5527 101.492 27.1522 100.596 27.7066C96.2436 30.4009 89.7553 27.5304 90.1381 21.5102L95.8712 21.8747L90.1381 21.5102C90.263 19.5465 90.2806 17.9661 89.9186 16.7177C89.7606 16.1727 89.5642 15.8318 89.3675 15.6016C89.1896 15.3937 88.8695 15.1061 88.191 14.8449Z" fill="#4D6296"/>
<path d="M77.5914 18.1032C79.1649 13.67 84.2528 10.6034 90.0258 12.9717C95.4385 15.1923 95.2393 21.0801 95.0222 24.7191C94.9718 25.5635 95.8294 26.0831 96.5354 25.6173C97.2518 25.1447 97.9805 24.6235 98.7204 24.0944C101.829 21.8709 105.135 19.5065 108.555 20.0101C112.493 20.5902 115.223 24.9838 114.331 28.8634C113.66 31.7837 111.687 34.3662 110.259 35.929C110.088 36.1155 110.171 36.4181 110.414 36.4886C116.79 38.3405 123.752 41.0397 130.553 45.6051C145.15 55.4045 155.284 67.3974 160.029 84.6577C169.742 119.993 150.996 165.459 93.8984 163.483C77.4277 163.314 41.9017 154.564 31.563 120.912C18.6397 78.8485 45.7532 48.1874 63.7444 40.3321C67.5417 38.6741 71.9147 37.0951 76.761 35.9288C76.8477 35.9079 77.1715 35.8292 77.526 35.7428C78.1196 35.598 78.4814 35.0053 78.3547 34.4076C77.3537 29.6858 76.3663 21.5548 77.5914 18.1032Z" fill="#F8F3DA"/>
<path d="M121.435 96.236C121.435 98.8719 117.396 102.09 111.568 101.907C105.18 101.706 100.967 99.7745 100.967 96.236C100.967 93.0504 106.758 90.4912 111.568 90.4912C116.379 90.4912 121.435 92.674 121.435 96.236Z" fill="#F5CCBB"/>
<path d="M50.4681 94.9939C50.4681 99.0584 45.0097 101.469 40.9085 101.318C36.4125 101.152 33.2194 99.2247 33.2192 94.994C33.219 91.8765 36.8214 89.4717 41.6705 89.4717C45.0559 89.4717 50.4681 91.2086 50.4681 94.9939Z" fill="#F5CCBB"/>
<path d="M79.6611 72.771C78.0232 71.3672 75.9737 70.4824 74.1699 70.4824C73.0806 70.4824 72.1352 70.6191 71.1905 70.9848C70.2516 71.3483 69.3463 71.9253 68.3199 72.7616C67.5202 73.4132 66.7337 74.435 66.0106 75.5952C65.2817 76.7646 64.5935 78.1134 64.0001 79.4538C63.4066 80.7946 62.9035 82.1374 62.5477 83.298C62.1978 84.4391 61.9716 85.4624 61.9716 86.1388C61.9716 88.8043 63.8142 90.2348 65.5196 90.6849C67.1225 91.1079 74.1732 92.0765 82.4779 91.1865L82.5426 91.1796C83.2905 91.1003 84.6628 90.9546 85.638 89.9895C86.6906 88.9478 87.1136 87.1539 86.3676 84.1678C85.6592 81.332 84.2506 78.7174 82.8997 76.7087C81.5534 74.7068 80.233 73.2612 79.6611 72.771Z" fill="#4D6296"/>
<path d="M113.208 75.2007C113.208 80.0954 109.304 83.452 103.595 83.452C97.0844 83.452 92.0974 81.7714 92.0974 75.2007C92.0974 69.2854 98.2744 64.5332 103.169 64.5332C108.064 64.5332 113.208 68.5865 113.208 75.2007Z" fill="#4D6296"/>
<path d="M59.1928 74.4356C59.1928 80.758 53.5277 82.3397 49.4264 82.1045C44.9305 81.8467 41.9441 81.0166 41.9439 74.4357C41.9437 69.5864 45.5461 65.8457 50.3952 65.8457C53.7807 65.8457 59.1928 68.5475 59.1928 74.4356Z" fill="#4D6296"/>
<path d="M153.272 131.93C138.507 132.696 127.145 119.785 123.309 113.233L153.272 102.926C175.804 114.671 171.729 130.971 153.272 131.93Z" fill="#F8F3DA"/>
<path fill-rule="evenodd" clip-rule="evenodd" d="M151.2 100.429C152.253 98.408 154.746 97.6236 156.767 98.6772C169.04 105.075 175.925 113.666 175.154 122.236C174.343 131.256 165.63 136.449 155.073 136.998C146.001 137.469 138.179 133.728 132.261 129.201C126.352 124.682 122.008 119.136 119.748 115.275C118.596 113.308 119.257 110.78 121.224 109.628C123.191 108.477 125.719 109.138 126.871 111.105C128.649 114.142 132.306 118.844 137.276 122.645C142.236 126.439 148.17 129.092 154.645 128.755C163.522 128.294 166.672 124.402 166.934 121.496C167.236 118.14 164.403 111.966 152.951 105.996C150.93 104.943 150.146 102.45 151.2 100.429Z" fill="#4D6296"/>
<path d="M8.91831 120.13C8.67233 110.782 19.3295 97.5471 23.4297 92.5244C23.4297 117.741 27.3453 119.489 31.6505 131.79C19.9649 134.865 9.22579 131.816 8.91831 120.13Z" fill="#F8F3DA"/>
<path fill-rule="evenodd" clip-rule="evenodd" d="M27.5565 80.9434V92.5247C27.5565 104.941 28.5244 111.239 29.8829 115.83C30.5696 118.15 31.3819 120.125 32.3476 122.397C32.4336 122.599 32.5208 122.804 32.6091 123.011C33.5063 125.116 34.5175 127.489 35.5456 130.427L37.0216 134.644L32.7007 135.781C26.3552 137.451 19.7081 137.625 14.3573 135.274C8.64273 132.763 4.98657 127.604 4.79279 120.239C4.63527 114.253 7.85323 107.696 11.0308 102.54C14.3323 97.1831 18.1743 92.4365 20.2328 89.9149L27.5565 80.9434ZM18.0574 106.871C14.9429 111.924 12.9552 116.66 13.0437 120.022C13.1574 124.343 15.0245 126.552 17.6778 127.717C19.7908 128.646 22.6632 129.003 26.0295 128.651C25.6877 127.824 25.3481 127.026 25.0098 126.232C24.9237 126.03 24.8377 125.828 24.7517 125.626C23.7725 123.322 22.7987 120.978 21.9683 118.172C20.8963 114.549 20.105 110.303 19.6739 104.363C19.1256 105.179 18.5831 106.018 18.0574 106.871Z" fill="#4D6296"/>
</g>
</g>
<defs>
<linearGradient id="paint0_linear_1071_12149" x1="96.7021" y1="8.61719" x2="96.7021" y2="45.9576" gradientUnits="userSpaceOnUse">
<stop stop-color="#FABBB6"/>
<stop offset="0.47" stop-color="#FAB9BA"/>
<stop offset="1" stop-color="#FFE4BB"/>
</linearGradient>
<clipPath id="clip0_1071_12149">
<rect width="180" height="180" fill="white"/>
</clipPath>
<clipPath id="clip1_1071_12149">
<rect width="180" height="180" fill="white"/>
</clipPath>
</defs>
</svg>
