<svg viewBox="0 0 69 75" fill="none" xmlns="http://www.w3.org/2000/svg">
<path d="M16.0009 69.6977C19.7246 72.1056 26.2299 74.1006 34.6478 74.1006C38.0598 74.1006 45.9092 73.8897 52.4712 70.1042C60.3462 65.5613 68.8428 56.4455 68.8428 41.7693C68.8428 35.8288 66.1244 26.9856 58.4218 18.8628C57.5675 17.9619 56.0714 16.4484 54.3738 15.0458C52.2252 13.2706 49.5881 11.6475 48.4397 11.1292C48.7271 7.98534 46.9822 4.70969 44.3247 3.63804C41.9154 2.66645 39.5286 2.86213 37.8191 3.96637L37.0883 4.41426C37.0292 4.31861 36.863 4.03192 36.6706 3.65043C36.4301 3.17356 34.1655 0.10108 30.8735 0.100586C26.221 0.0998876 24.16 3.04025 23.6155 5.4494C23.071 7.85856 23.3604 9.00151 23.6155 9.78077C18.0025 12.1197 14.8696 14.1039 10.2452 18.8664C7.20154 22.0009 0.875608 30.7042 0.842963 41.79C0.800384 56.249 7.95354 64.4941 16.0009 69.6977Z" fill="url(#paint0_linear_1275_14982)"/>
<path d="M17.6038 65.997C21.065 68.2346 26.5104 70.0817 34.7536 70.0888C39.1493 70.0927 45.0745 69.7248 51.174 66.2071C56.3885 63.1997 65.2847 55.3362 64.8419 41.7837C64.6138 34.8003 61.0461 27.6286 56.4465 22.6493C55.4194 21.4169 53.361 19.4534 51.3087 17.7582C48.0151 15.1476 45.2589 14.0834 44.1914 13.6018C44.6773 10.2091 44.6683 8.2898 42.657 7.28414C41.9518 6.93154 40.9085 6.93654 40.3287 7.13726C39.2136 7.68738 37.2733 9.03495 36.3967 9.52347L35.7594 9.91795C35.7045 9.82906 35.5463 9.56031 35.3341 9.22472C35.167 8.96043 34.6699 8.14027 34.0989 7.18929C33.1771 5.44971 32.1177 4.11181 30.8428 4.11182C28.1747 4.11183 27.3488 5.56871 27.2819 7.73946C27.2779 8.46743 27.5859 9.02337 27.7428 9.52347C28.2579 11.166 28.2928 11.3275 28.5299 12.0516C23.0325 14.3205 18.4508 15.9542 13.8713 20.8664C9.96551 25.0559 4.82715 32.2217 4.82715 41.7127C4.82714 55.1491 11.1065 61.4423 17.6038 65.997Z" fill="url(#paint1_linear_1275_14982)"/>
<defs>
<linearGradient id="paint0_linear_1275_14982" x1="0.842773" y1="13.5649" x2="71.3335" y2="17.1688" gradientUnits="userSpaceOnUse">
<stop stop-color="#FEF8E6"/>
<stop offset="1" stop-color="#FFF6E7"/>
</linearGradient>
<linearGradient id="paint1_linear_1275_14982" x1="0.864098" y1="7.31806" x2="71.891" y2="11.2129" gradientUnits="userSpaceOnUse">
<stop stop-color="#FFF8D8"/>
<stop offset="0.2" stop-color="#FFF4B9"/>
<stop offset="0.49699" stop-color="#F9E5C8"/>
<stop offset="0.75" stop-color="#FDEAC3"/>
<stop offset="1" stop-color="#FFF2D0"/>
</linearGradient>
</defs>
</svg>
