<svg viewBox="0 0 69 75" fill="none" xmlns="http://www.w3.org/2000/svg">
<path d="M15.6146 69.9296C19.3384 72.3376 25.8437 74.3325 34.2616 74.3325C37.6735 74.3325 45.523 74.1216 52.085 70.3361C59.96 65.7932 68.4565 56.6775 68.4565 42.0013C68.4565 36.0607 65.7382 27.2176 58.0356 19.0948C57.1812 18.1938 55.6851 16.6803 53.9876 15.2778C51.839 13.5025 49.2019 11.8794 48.0535 11.3612C48.3409 8.21727 46.596 4.94162 43.9385 3.86998C41.5291 2.89838 39.1424 3.09406 37.4329 4.1983L36.702 4.6462C36.643 4.55054 36.4767 4.26386 36.2844 3.88236C36.0439 3.40549 33.7793 0.333014 30.4873 0.33252C25.8348 0.331821 23.7738 3.27218 23.2293 5.68134C22.6847 8.09049 22.9742 9.23344 23.2293 10.0127C17.6162 12.3517 14.4834 14.3359 9.859 19.0983C6.81531 22.2329 0.489378 30.9361 0.456732 42.022C0.414153 56.4809 7.56731 64.726 15.6146 69.9296Z" fill="url(#paint0_linear_1275_14980)"/>
<path d="M17.2175 66.229C20.6788 68.4665 26.1242 70.3136 34.3674 70.3208C38.7631 70.3246 44.6883 69.9568 50.7878 66.439C56.0023 63.4316 64.8985 55.5681 64.4557 42.0156C64.2275 35.0323 60.6599 27.8605 56.0602 22.8813C55.0332 21.6488 52.9748 19.6854 50.9225 17.9901C47.6289 15.3795 44.8727 14.3154 43.8052 13.8338C44.2911 10.4411 44.2821 8.52174 42.2708 7.51608C41.5656 7.16347 40.5223 7.16847 39.9425 7.36919C38.8273 7.91932 36.8871 9.26689 36.0105 9.7554L35.3732 10.1499C35.3183 10.061 35.1601 9.79225 34.9479 9.45666C34.7808 9.19237 34.2836 8.3722 33.7127 7.42122C32.7909 5.68164 31.7315 4.34374 30.4566 4.34375C27.7885 4.34376 26.9625 5.80064 26.8956 7.97139C26.8917 8.69936 27.1997 9.2553 27.3565 9.7554C27.8716 11.3979 27.9066 11.5594 28.1437 12.2835C22.6463 14.5524 18.0646 16.1861 13.4851 21.0983C9.57928 25.2878 4.44092 32.4537 4.44092 41.9447C4.44091 55.381 10.7203 61.6743 17.2175 66.229Z" fill="url(#paint1_linear_1275_14980)"/>
<defs>
<linearGradient id="paint0_linear_1275_14980" x1="0.456543" y1="16.3089" x2="70.931" y2="20.068" gradientUnits="userSpaceOnUse">
<stop stop-color="#FFDF8D"/>
<stop offset="1" stop-color="#FFC7A8"/>
</linearGradient>
<linearGradient id="paint1_linear_1275_14980" x1="0.477868" y1="10.1548" x2="71.4859" y2="14.2172" gradientUnits="userSpaceOnUse">
<stop stop-color="#FFF8D8"/>
<stop offset="0.2" stop-color="#FFF4B9"/>
<stop offset="0.49699" stop-color="#F9E5C8"/>
<stop offset="0.75" stop-color="#FDEAC3"/>
<stop offset="1" stop-color="#FFF2D0"/>
</linearGradient>
</defs>
</svg>
