<svg width="69" height="74" viewBox="0 0 69 74" fill="none" xmlns="http://www.w3.org/2000/svg">
<path d="M23.3237 9.71087C18.1778 11.5677 13.6752 14.7127 9.95409 18.7716C4.4314 24.7956 0.523438 32.8326 0.523438 41.659C0.523438 54.1823 6.31821 64.1212 16.4066 69.9712C21.3711 72.85 28.1276 74 34.2753 74C40.4229 74 47.1794 72.85 52.1439 69.9712C62.2323 64.1212 68.5234 54.1823 68.5234 41.659C68.5234 32.8326 63.6228 24.7956 58.1001 18.7716C55.1553 15.5595 51.8342 12.9197 48.0973 11.0378C48.5285 7.9431 46.8957 4.87939 44.005 3.55869C41.9127 2.60336 39.4917 2.72383 37.5052 3.87681L36.774 4.30122L36.3524 3.5671C35.207 1.57273 33.1704 0.254686 30.882 0.0330956C27.4241 -0.300914 24.2295 1.92442 23.3278 5.29865L23.253 5.57863C22.8871 6.94775 22.9179 8.37997 23.3237 9.71087Z" fill="white"/>
</svg>
