<svg viewBox="0 0 69 75" fill="none" xmlns="http://www.w3.org/2000/svg">
<path d="M15.6146 69.5971C19.3384 72.005 25.8437 74 34.2616 74C37.6735 74 45.523 73.7891 52.085 70.0036C59.96 65.4607 68.4565 56.3449 68.4565 41.6687C68.4565 35.7282 65.7382 26.885 58.0356 18.7623C57.1812 17.8613 55.6851 16.3478 53.9876 14.9452C51.839 13.17 49.2019 11.5469 48.0535 11.0287C48.3409 7.88475 46.596 4.6091 43.9385 3.53746C41.5291 2.56586 39.1424 2.76154 37.4329 3.86578L36.702 4.31368C36.643 4.21802 36.4767 3.93134 36.2844 3.54984C36.0439 3.07297 33.7793 0.000494516 30.4873 1.24398e-07C25.8348 -0.000698297 23.7738 2.93966 23.2293 5.34882C22.6847 7.75797 22.9742 8.90092 23.2293 9.68018C17.6162 12.0191 14.4834 14.0033 9.859 18.7658C6.81531 21.9003 0.489378 30.6036 0.456732 41.6894C0.414153 56.1484 7.56731 64.3935 15.6146 69.5971Z" fill="url(#paint0_linear_1275_14981)"/>
<path d="M17.2175 65.8964C20.6788 68.134 26.1242 69.9811 34.3674 69.9883C38.7631 69.9921 44.6883 69.6243 50.7878 66.1065C56.0023 63.0991 64.8985 55.2356 64.4557 41.6831C64.2275 34.6998 60.6599 27.528 56.0602 22.5488C55.0332 21.3163 52.9748 19.3528 50.9225 17.6576C47.6289 15.047 44.8727 13.9828 43.8052 13.5013C44.2911 10.1086 44.2821 8.18922 42.2708 7.18356C41.5656 6.83095 40.5223 6.83595 39.9425 7.03667C38.8273 7.5868 36.8871 8.93437 36.0105 9.42288L35.3732 9.81737C35.3183 9.72848 35.1601 9.45973 34.9479 9.12414C34.7808 8.85985 34.2836 8.03968 33.7127 7.0887C32.7909 5.34912 31.7315 4.01122 30.4566 4.01123C27.7885 4.01125 26.9625 5.46812 26.8956 7.63887C26.8917 8.36684 27.1997 8.92278 27.3565 9.42288C27.8716 11.0654 27.9066 11.2269 28.1437 11.951C22.6463 14.2199 18.0646 15.8536 13.4851 20.7658C9.57928 24.9553 4.44092 32.1211 4.44092 41.6122C4.44091 55.0485 10.7203 61.3417 17.2175 65.8964Z" fill="url(#paint1_linear_1275_14981)"/>
<defs>
<linearGradient id="paint0_linear_1275_14981" x1="38.9565" y1="79.3102" x2="48.7567" y2="4.39162" gradientUnits="userSpaceOnUse">
<stop stop-color="#F8B8BB"/>
<stop offset="1" stop-color="#F9CABF"/>
</linearGradient>
<linearGradient id="paint1_linear_1275_14981" x1="0.477868" y1="9.5423" x2="71.4881" y2="13.586" gradientUnits="userSpaceOnUse">
<stop stop-color="#FFF8D8"/>
<stop offset="0.2" stop-color="#FFF4B9"/>
<stop offset="0.49699" stop-color="#F9E5C8"/>
<stop offset="0.75" stop-color="#FDEAC3"/>
<stop offset="1" stop-color="#FFF2D0"/>
</linearGradient>
</defs>
</svg>
