<svg viewBox="0 0 188 188" fill="none" xmlns="http://www.w3.org/2000/svg">
<g clip-path="url(#clip0_39_152)">
<path fill-rule="evenodd" clip-rule="evenodd" d="M171.478 142.752C169.046 142.887 166.236 144.191 164.149 146.628C163.461 147.432 162.538 147.91 161.571 148.048C161.66 149.045 161.399 150.077 160.759 150.942C159.575 152.544 159.429 154.086 159.675 154.977C159.79 155.397 159.991 155.705 160.264 155.937C160.537 156.171 161.037 156.459 161.938 156.583C167.264 157.312 171.669 155.253 174.342 152.438C177.247 149.379 177.307 146.568 176.634 145.371C175.588 143.51 173.799 142.622 171.478 142.752Z" fill="#F8F5DF"/>
<path fill-rule="evenodd" clip-rule="evenodd" d="M171.479 142.751C169.047 142.886 166.237 144.19 164.15 146.628C163.461 147.431 162.538 147.909 161.572 148.047C161.66 149.044 161.399 150.076 160.76 150.942C159.576 152.543 159.43 154.085 159.675 154.976C159.791 155.396 159.992 155.704 160.264 155.937C160.538 156.17 161.038 156.458 161.939 156.582C167.264 157.311 171.67 155.253 174.343 152.437C177.248 149.378 177.307 146.567 176.634 145.37C175.589 143.509 173.8 142.621 171.479 142.751ZM156.819 144.246C155.754 144.398 154.747 144.963 154.053 145.901C151.609 149.209 150.561 153.401 151.617 157.235C152.742 161.317 156.077 164.291 160.813 164.94C168.975 166.058 175.993 162.896 180.384 158.271C184.543 153.891 187.188 147.042 183.91 141.211C181.049 136.119 175.973 134.053 171.017 134.329C166.171 134.599 161.291 137.061 157.82 141.115C157.049 142.014 156.723 143.148 156.819 144.246Z" fill="#4D6296"/>
<path fill-rule="evenodd" clip-rule="evenodd" d="M75.953 13.4371C78.4619 6.36823 86.5823 1.63556 95.3563 5.23505C99.8456 7.07673 102.031 10.5637 102.96 13.9792C103.158 14.7067 103.301 15.4387 103.404 16.1588C104.439 15.4731 105.55 14.7973 106.696 14.2349C108.918 13.1447 111.689 12.2625 114.772 12.7164C118.385 13.2486 121.23 15.4876 122.95 18.1673C124.667 20.8409 125.494 24.2962 124.711 27.7048C124.29 29.5327 123.549 31.2174 122.703 32.6959C128.529 34.7317 134.702 37.5248 140.792 41.6133C157.548 52.8613 169.476 66.8712 175.035 87.0941C180.678 107.62 178.11 131.224 165.609 149.531C152.986 168.015 130.615 180.547 97.8916 179.429C88.2217 179.321 73.2364 176.729 59.0987 169.315C44.8532 161.844 31.2729 149.356 25.1613 129.463C10.1439 80.5834 41.6206 44.7766 63.0277 35.4298C66.879 33.7483 71.2607 32.1299 76.0919 30.8428C75.7163 28.6089 75.3914 26.0921 75.2162 23.6474C74.9762 20.2965 74.9445 16.2786 75.953 13.4371ZM92.0844 13.2106C88.1322 11.5892 85.0366 13.6168 84.077 16.3205C83.7352 17.2836 83.5725 19.649 83.8148 23.0314C84.0405 26.1815 84.5579 29.5268 85.0728 31.956C85.682 34.8296 83.945 37.7822 80.9641 38.5091C80.5746 38.6041 80.2112 38.6924 80.1082 38.7172C75.0517 39.9342 70.4723 41.5859 66.4772 43.3302C48.2238 51.3 19.9303 83.0837 33.4017 126.931C38.6856 144.13 50.3818 155.009 63.1025 161.681C75.9051 168.395 89.5468 170.723 98.033 170.81L98.0855 170.81L98.1379 170.812C128.32 171.856 147.731 160.424 158.49 144.669C169.377 128.726 171.787 107.8 166.723 89.3792C161.822 71.5528 151.412 59.125 135.988 48.7707C128.975 44.0629 121.748 41.2455 114.99 39.2829C111.606 38.3 110.534 34.143 112.84 31.6194C114.263 30.0611 115.823 27.8895 116.309 25.7733C116.509 24.9057 116.323 23.8015 115.696 22.8248C115.073 21.8542 114.243 21.3521 113.516 21.245C112.829 21.1439 111.894 21.2871 110.494 21.9739C109.061 22.6771 107.587 23.718 105.811 24.9884L105.778 25.0119C104.985 25.579 104.127 26.1931 103.269 26.759C99.3629 29.3359 94.6697 26.1912 94.9249 21.9143C95.0465 19.8761 95.095 17.9082 94.6418 16.242C94.249 14.7981 93.5612 13.8164 92.0844 13.2106Z" fill="#4D6296"/>
<path fill-rule="evenodd" clip-rule="evenodd" d="M65.9455 172.069C66.8776 171.309 68.5613 171.524 69.7436 171.014L73.782 173.628L73.7789 173.747C73.637 179.224 68.9514 184.038 64.4933 181.548C60.7534 179.324 62.5432 174.526 65.9455 172.069Z" fill="#4D6296"/>
<path fill-rule="evenodd" clip-rule="evenodd" d="M76.2823 184.839C70.7206 184.461 69.7215 178.689 72.2861 173.739L77.0666 173.205L77.1399 173.299C78.1165 174.558 80.358 175.657 80.832 177.132C81.3578 180.324 81.7011 184.839 76.2823 184.839Z" fill="#4D6296"/>
<path fill-rule="evenodd" clip-rule="evenodd" d="M114.405 178.582C114.647 177.512 117.837 172.256 118.4 171.225L122.773 170.832L122.838 170.92C125.124 174.004 125.012 179.824 123.133 182.887C122.302 184.241 121.159 184.857 119.874 185.039C117.854 185.324 116.039 184.051 115.221 182.887C114.459 181.801 114.013 180.309 114.405 178.582Z" fill="#4D6296"/>
<path fill-rule="evenodd" clip-rule="evenodd" d="M132.38 181.624C130.457 183.269 126.994 183.02 124.943 180.809C121.911 177.538 120.081 174.941 119.506 171.884L123.194 168.444L123.3 168.47C124.709 168.826 127.691 170.855 130.732 172.502C134.512 174.55 135.066 179.326 132.38 181.624Z" fill="#4D6296"/>
<path d="M79.6681 15.559C81.5154 10.6752 87.4886 7.29677 94.2662 9.90588C100.621 12.3522 100.387 18.8386 100.132 22.8476C100.073 23.7778 101.08 24.3503 101.909 23.8371C102.75 23.3164 103.605 22.7423 104.474 22.1594C108.124 19.7099 112.005 17.105 116.02 17.6599C120.644 18.2989 123.848 23.1392 122.801 27.4132C121.94 30.9271 119.256 33.997 117.574 35.6442C101.028 51.8476 85.4533 52.7035 80.8476 34.7023C79.593 29.7986 78.1137 19.6685 79.6681 15.559Z" fill="url(#paint0_linear_39_152)"/>
<path fill-rule="evenodd" clip-rule="evenodd" d="M74.0561 13.4359C77.1092 5.36418 86.6149 0.530802 96.4218 4.30606C101.633 6.31221 104.305 10.2032 105.441 14.1197C105.468 14.2137 105.494 14.3076 105.52 14.4016C106.194 14.0225 106.89 13.6596 107.6 13.3327C110.092 12.1853 113.272 11.2227 116.841 11.716C124.948 12.8363 130.532 21.0712 128.629 28.8406C127.348 34.0667 123.614 38.1268 121.772 39.9307C113.123 48.4007 103.638 54.0142 94.7234 53.9996C90.0407 53.9919 85.6622 52.4092 82.119 49.1181C78.6709 45.9153 76.3787 41.4417 75.0348 36.1891C74.3254 33.4162 73.5893 29.3414 73.2291 25.3752C73.0482 23.3835 72.9515 21.308 73.0244 19.3685C73.0935 17.5311 73.3262 15.3656 74.0561 13.436L74.0561 13.4359ZM92.1106 15.5049C88.3623 14.0619 85.9215 15.9855 85.28 17.6813C85.2801 17.6811 85.2801 17.6811 85.28 17.6813C85.2788 17.6848 85.2619 17.7321 85.2369 17.8332C85.2105 17.9405 85.1798 18.0888 85.1496 18.283C85.0881 18.6777 85.0397 19.1889 85.016 19.8192C84.9683 21.0882 85.0284 22.6222 85.1799 24.2897C85.4843 27.6418 86.1152 31.0839 86.6604 33.2147C87.6193 36.9628 89.0011 39.1326 90.2857 40.3258C91.4753 41.4307 92.8881 41.9965 94.7431 41.9996C98.9042 42.0064 105.479 39.0903 113.376 31.357C114.043 30.7043 114.866 29.8083 115.58 28.7878C116.312 27.7422 116.778 26.7806 116.973 25.985L122.801 27.4128L116.973 25.985C117.033 25.7413 117.017 25.1918 116.585 24.5611C116.167 23.9494 115.627 23.6622 115.199 23.603C114.753 23.5414 113.985 23.6038 112.62 24.2325C111.205 24.8838 109.726 25.8598 107.817 27.141L105.15 23.1662L104.474 22.159L105.15 23.1662L107.817 27.141L107.774 27.1699C106.935 27.7331 106.002 28.3592 105.067 28.9383C100.521 31.7523 93.7444 28.7542 94.1442 22.4664L100.132 22.8472L94.1442 22.4664C94.2746 20.4154 94.293 18.7648 93.915 17.4609C93.75 16.8917 93.5449 16.5356 93.3394 16.2953C93.1536 16.0781 92.8193 15.7777 92.1106 15.5049Z" fill="#4D6296"/>
<path d="M81.04 18.9078C82.6834 14.2777 87.9973 11.0747 94.0269 13.5483C99.6803 15.8675 99.4722 22.017 99.2454 25.8178C99.1928 26.6997 100.088 27.2424 100.826 26.7559C101.574 26.2623 102.335 25.718 103.108 25.1653C106.355 22.843 109.808 20.3735 113.38 20.8996C117.493 21.5053 120.344 26.0943 119.412 30.1463C118.711 33.1964 116.651 35.8936 115.159 37.5259C114.981 37.7206 115.068 38.0368 115.321 38.1104C121.981 40.0446 129.252 42.8638 136.355 47.6321C151.602 57.867 162.185 70.3929 167.141 88.4203C177.287 125.326 157.707 172.812 98.0717 170.749C80.869 170.573 43.764 161.433 32.9658 126.286C19.4681 82.3529 47.7867 50.3291 66.5775 42.1247C70.5436 40.393 75.111 38.7439 80.1726 37.5257C80.2631 37.5039 80.6014 37.4217 80.9716 37.3314C81.5916 37.1802 81.9695 36.5612 81.8371 35.9369C80.7917 31.0053 79.7604 22.5129 81.04 18.9078Z" fill="#F8F3DA"/>
<path d="M126.832 100.513C126.832 103.266 122.614 106.627 116.527 106.436C109.855 106.226 105.455 104.209 105.455 100.513C105.455 97.1856 111.503 94.5127 116.527 94.5127C121.551 94.5127 126.832 96.7925 126.832 100.513Z" fill="#F5CCBB"/>
<path d="M52.7111 99.2159C52.7111 103.461 47.0101 105.979 42.7266 105.821C38.0308 105.648 34.6958 103.635 34.6956 99.216C34.6954 95.9599 38.4579 93.4482 43.5225 93.4482C47.0584 93.4482 52.7111 95.2623 52.7111 99.2159Z" fill="#F5CCBB"/>
<path d="M83.2016 76.0055C81.4909 74.5393 79.3503 73.6152 77.4663 73.6152C76.3286 73.6152 75.3412 73.758 74.3545 74.14C73.3739 74.5196 72.4283 75.1222 71.3563 75.9957C70.5211 76.6762 69.6997 77.7435 68.9444 78.9553C68.1831 80.1766 67.4643 81.5853 66.8446 82.9853C66.2247 84.3858 65.6992 85.7883 65.3275 87.0004C64.9621 88.1922 64.7258 89.261 64.7258 89.9675C64.7258 92.7514 66.6504 94.2455 68.4315 94.7156C70.1057 95.1574 77.4698 96.169 86.1436 95.2395L86.2112 95.2323C86.9923 95.1494 88.4256 94.9973 89.4441 93.9893C90.5435 92.9013 90.9853 91.0276 90.2061 87.9089C89.4662 84.947 87.9951 82.2162 86.5841 80.1183C85.178 78.0274 83.7989 76.5175 83.2016 76.0055Z" fill="#4D6296"/>
<path d="M118.24 78.543C118.24 83.6552 114.162 87.161 108.2 87.161C101.399 87.161 96.1907 85.4057 96.1907 78.543C96.1907 72.3647 102.642 67.4014 107.754 67.4014C112.867 67.4014 118.24 71.6348 118.24 78.543Z" fill="#4D6296"/>
<path d="M61.8236 77.7441C61.8236 84.3476 55.9067 85.9995 51.6232 85.7539C46.9274 85.4846 43.8083 84.6176 43.8081 77.7443C43.8079 72.6794 47.5704 68.7725 52.635 68.7725C56.1709 68.7725 61.8236 71.5943 61.8236 77.7441Z" fill="#4D6296"/>
<path d="M160.084 137.794C144.663 138.595 132.795 125.109 128.79 118.266L160.084 107.501C183.618 119.768 179.361 136.792 160.084 137.794Z" fill="#F8F3DA"/>
<path fill-rule="evenodd" clip-rule="evenodd" d="M157.919 104.893C159.02 102.782 161.623 101.963 163.734 103.063C176.553 109.745 183.744 118.718 182.939 127.669C182.091 137.09 172.991 142.514 161.965 143.087C152.49 143.579 144.321 139.672 138.139 134.944C131.968 130.223 127.431 124.431 125.07 120.398C123.867 118.344 124.558 115.704 126.612 114.501C128.666 113.298 131.307 113.989 132.509 116.043C134.366 119.216 138.186 124.126 143.377 128.096C148.557 132.059 154.755 134.829 161.518 134.478C170.79 133.996 174.08 129.931 174.353 126.896C174.668 123.391 171.71 116.942 159.749 110.708C157.638 109.607 156.819 107.004 157.919 104.893Z" fill="#4D6296"/>
<path d="M9.31468 125.47C9.05776 115.705 20.1886 101.883 24.4711 96.6367C24.4711 122.974 28.5606 124.8 33.0572 137.647C20.8522 140.859 9.63582 137.675 9.31468 125.47Z" fill="#F8F3DA"/>
<path fill-rule="evenodd" clip-rule="evenodd" d="M28.7813 84.541V96.637C28.7813 109.605 29.7922 116.183 31.211 120.978C31.9282 123.402 32.7766 125.464 33.7853 127.837C33.8751 128.048 33.9662 128.262 34.0584 128.478C34.9955 130.677 36.0516 133.156 37.1255 136.224L38.6671 140.628L34.1541 141.816C27.5265 143.56 20.5841 143.742 14.9954 141.286C9.02685 138.663 5.2082 133.275 5.0058 125.583C4.84128 119.331 8.20227 112.483 11.5211 107.098C14.9693 101.502 18.982 96.545 21.132 93.9113L28.7813 84.541ZM18.86 111.621C15.607 116.899 13.531 121.845 13.6234 125.357C13.7422 129.87 15.6923 132.176 18.4634 133.394C20.6704 134.364 23.6705 134.737 27.1863 134.369C26.8294 133.505 26.4747 132.672 26.1213 131.843C26.0314 131.632 25.9416 131.421 25.8518 131.209C24.829 128.804 23.8119 126.355 22.9447 123.424C21.825 119.64 20.9985 115.206 20.5483 109.001C19.9757 109.854 19.409 110.73 18.86 111.621Z" fill="#4D6296"/>
</g>
<defs>
<linearGradient id="paint0_linear_39_152" x1="101" y1="9" x2="101" y2="48" gradientUnits="userSpaceOnUse">
<stop stop-color="#FABBB6"/>
<stop offset="0.47" stop-color="#FAB9BA"/>
<stop offset="1" stop-color="#FFE4BB"/>
</linearGradient>
<clipPath id="clip0_39_152">
<rect width="188" height="188" fill="white"/>
</clipPath>
</defs>
</svg>
