<svg viewBox="0 0 188 188" fill="none" xmlns="http://www.w3.org/2000/svg">
<g clip-path="url(#clip0_252_2587)">
<path fill-rule="evenodd" clip-rule="evenodd" d="M65.9455 172.503C66.8776 171.743 68.5613 171.958 69.7436 171.448L73.782 174.061L73.7789 174.181C73.637 179.658 68.9514 184.472 64.4933 181.982C60.7534 179.757 62.5432 174.96 65.9455 172.503Z" fill="#4F5667"/>
<path fill-rule="evenodd" clip-rule="evenodd" d="M76.2823 185.272C70.7206 184.894 69.7216 179.122 72.2861 174.173L77.0666 173.638L77.14 173.733C78.1165 174.992 80.358 176.09 80.832 177.565C81.3579 180.758 81.7012 185.272 76.2823 185.272Z" fill="#4F5667"/>
<path fill-rule="evenodd" clip-rule="evenodd" d="M114.405 179.017C114.648 177.946 117.837 172.69 118.4 171.659L122.773 171.267L122.838 171.355C125.124 174.439 125.012 180.258 123.133 183.321C122.302 184.676 121.159 185.292 119.874 185.473C117.855 185.758 116.039 184.486 115.221 183.321C114.459 182.236 114.013 180.743 114.405 179.017Z" fill="#4F5667"/>
<path fill-rule="evenodd" clip-rule="evenodd" d="M132.38 182.059C130.457 183.703 126.994 183.454 124.944 181.243C121.911 177.973 120.081 175.376 119.506 172.319L123.194 168.878L123.3 168.905C124.71 169.261 127.691 171.289 130.732 172.937C134.512 174.984 135.066 179.761 132.38 182.059Z" fill="#4F5667"/>
<path fill-rule="evenodd" clip-rule="evenodd" d="M171.478 143.186C169.046 143.322 166.236 144.626 164.149 147.063C163.461 147.867 162.538 148.344 161.571 148.482C161.66 149.479 161.399 150.511 160.759 151.377C159.575 152.979 159.429 154.52 159.675 155.412C159.79 155.831 159.991 156.139 160.264 156.372C160.537 156.605 161.037 156.894 161.938 157.017C167.264 157.746 171.669 155.688 174.342 152.873C177.247 149.813 177.307 147.003 176.634 145.805C175.588 143.945 173.799 143.057 171.478 143.186Z" fill="#FFFDEE"/>
<path fill-rule="evenodd" clip-rule="evenodd" d="M171.478 143.185C169.047 143.321 166.237 144.625 164.149 147.062C163.461 147.866 162.538 148.344 161.572 148.481C161.66 149.478 161.399 150.51 160.759 151.376C159.576 152.978 159.43 154.52 159.675 155.411C159.791 155.831 159.992 156.139 160.264 156.371C160.537 156.604 161.038 156.893 161.939 157.016C167.264 157.746 171.67 155.687 174.343 152.872C177.248 149.813 177.307 147.002 176.634 145.804C175.589 143.944 173.8 143.056 171.478 143.185ZM156.819 144.68C155.754 144.833 154.747 145.397 154.053 146.336C151.609 149.643 150.561 153.836 151.617 157.669C152.742 161.751 156.077 164.726 160.813 165.374C168.975 166.492 175.992 163.33 180.383 158.706C184.543 154.325 187.188 147.477 183.91 141.645C181.049 136.554 175.973 134.487 171.017 134.763C166.171 135.034 161.291 137.496 157.82 141.549C157.049 142.449 156.722 143.583 156.819 144.68Z" fill="#4F5667"/>
<path fill-rule="evenodd" clip-rule="evenodd" d="M75.953 13.8707C78.4619 6.80182 86.5823 2.06915 95.3563 5.66864C99.8456 7.51033 102.031 10.9973 102.96 14.4128C103.158 15.1403 103.301 15.8723 103.404 16.5924C104.439 15.9067 105.55 15.2309 106.696 14.6685C108.918 13.5783 111.689 12.6961 114.772 13.15C118.385 13.6822 121.23 15.9212 122.95 18.6009C124.667 21.2745 125.494 24.7298 124.711 28.1384C124.29 29.9663 123.549 31.651 122.703 33.1295C128.529 35.1653 134.702 37.9584 140.792 42.0469C157.548 53.2949 169.476 67.3048 175.035 87.5277C180.678 108.054 178.11 131.658 165.609 149.964C152.986 168.449 130.615 180.981 97.8916 179.863C88.2217 179.755 73.2364 177.163 59.0987 169.749C44.8532 162.278 31.2729 149.789 25.1613 129.897C10.1439 81.017 41.6206 45.2102 63.0277 35.8634C66.879 34.1819 71.2607 32.5635 76.0919 31.2764C75.7163 29.0425 75.3914 26.5257 75.2162 24.081C74.9762 20.7301 74.9445 16.7121 75.953 13.8707ZM92.0844 13.6442C88.1322 12.0228 85.0366 14.0504 84.077 16.7541C83.7352 17.7172 83.5725 20.0826 83.8148 23.465C84.0405 26.6151 84.5579 29.9604 85.0728 32.3896C85.682 35.2632 83.945 38.2158 80.9641 38.9427C80.5746 39.0377 80.2112 39.126 80.1082 39.1508C75.0517 40.3678 70.4723 42.0195 66.4772 43.7638C48.2238 51.7336 19.9303 83.5173 33.4017 127.365C38.6856 144.563 50.3818 155.443 63.1025 162.114C75.9051 168.828 89.5468 171.156 98.033 171.243L98.0855 171.244L98.1379 171.245C128.32 172.29 147.731 160.857 158.49 145.103C169.377 129.16 171.787 108.234 166.723 89.8128C161.822 71.9864 151.412 59.5586 135.988 49.2043C128.975 44.4965 121.748 41.6791 114.99 39.7165C111.606 38.7335 110.534 34.5766 112.84 32.053C114.263 30.4947 115.823 28.3231 116.309 26.2068C116.509 25.3393 116.323 24.2351 115.696 23.2584C115.073 22.2878 114.243 21.7857 113.516 21.6786C112.829 21.5774 111.894 21.7207 110.494 22.4075C109.061 23.1107 107.587 24.1515 105.811 25.422L105.778 25.4454C104.985 26.0126 104.127 26.6267 103.269 27.1926C99.3629 29.7695 94.6697 26.6248 94.9249 22.3479C95.0465 20.3097 95.095 18.3418 94.6418 16.6756C94.249 15.2317 93.5612 14.25 92.0844 13.6442Z" fill="#4F5667"/>
<path d="M79.6681 15.9926C81.5154 11.1088 87.4886 7.73036 94.2662 10.3395C100.621 12.7858 100.387 19.2722 100.132 23.2812C100.073 24.2114 101.08 24.7838 101.909 24.2707C102.75 23.75 103.605 23.1759 104.474 22.5929C108.124 20.1434 112.005 17.5386 116.02 18.0935C120.644 18.7325 123.848 23.5728 122.801 27.8468C121.94 31.3607 119.256 34.4306 117.574 36.0778C101.028 52.2811 85.4533 53.1371 80.8476 35.1359C79.593 30.2322 78.1137 20.1021 79.6681 15.9926Z" fill="url(#paint0_linear_252_2587)"/>
<path fill-rule="evenodd" clip-rule="evenodd" d="M74.0561 13.8695C77.1092 5.79778 86.6149 0.964396 96.4218 4.73965C101.633 6.7458 104.305 10.6368 105.441 14.5533C105.468 14.6473 105.494 14.7412 105.52 14.8352C106.194 14.4561 106.89 14.0932 107.6 13.7663C110.092 12.6189 113.272 11.6563 116.841 12.1496C124.948 13.2699 130.532 21.5048 128.629 29.2742C127.348 34.5002 123.614 38.5604 121.772 40.3643C113.123 48.8343 103.638 54.4478 94.7234 54.4332C90.0407 54.4255 85.6622 52.8428 82.119 49.5517C78.6709 46.3489 76.3787 41.8753 75.0348 36.6227C74.3254 33.8498 73.5893 29.775 73.2291 25.8088C73.0482 23.8171 72.9515 21.7416 73.0244 19.8021C73.0935 17.9647 73.3262 15.7992 74.0561 13.8695L74.0561 13.8695ZM92.1106 15.9385C88.3623 14.4955 85.9215 16.419 85.28 18.1149C85.2801 18.1147 85.2801 18.1147 85.28 18.1149C85.2788 18.1184 85.2619 18.1657 85.2369 18.2668C85.2105 18.374 85.1798 18.5224 85.1496 18.7166C85.0881 19.1113 85.0397 19.6225 85.016 20.2528C84.9683 21.5218 85.0284 23.0558 85.1799 24.7233C85.4843 28.0754 86.1152 31.5175 86.6604 33.6483C87.6193 37.3964 89.0011 39.5662 90.2857 40.7594C91.4753 41.8643 92.8881 42.4301 94.7431 42.4332C98.9042 42.44 105.479 39.5239 113.376 31.7906C114.043 31.1379 114.866 30.2419 115.58 29.2214C116.312 28.1758 116.778 27.2142 116.973 26.4186L122.801 27.8464L116.973 26.4186C117.033 26.1749 117.017 25.6254 116.585 24.9947C116.167 24.383 115.627 24.0958 115.199 24.0366C114.753 23.975 113.985 24.0374 112.62 24.6661C111.205 25.3173 109.726 26.2934 107.817 27.5746L105.15 23.5998L104.474 22.5926L105.15 23.5998L107.817 27.5746L107.774 27.6035C106.935 28.1667 106.002 28.7927 105.067 29.3719C100.521 32.1859 93.7444 29.1878 94.1442 22.9L100.132 23.2808L94.1442 22.9C94.2746 20.849 94.293 19.1984 93.915 17.8945C93.75 17.3253 93.5449 16.9692 93.3394 16.7289C93.1536 16.5117 92.8193 16.2113 92.1106 15.9385Z" fill="#4F5667"/>
<path d="M81.04 19.3424C82.6834 14.7122 87.9973 11.5093 94.0269 13.9829C99.6803 16.3021 99.4722 22.4516 99.2454 26.2524C99.1928 27.1343 100.088 27.677 100.826 27.1905C101.574 26.6969 102.335 26.1526 103.108 25.5999C106.355 23.2776 109.808 20.8081 113.38 21.3341C117.493 21.9399 120.344 26.5288 119.412 30.5809C118.711 33.631 116.651 36.3282 115.159 37.9605C114.981 38.1552 115.068 38.4714 115.321 38.5449C121.981 40.4791 129.252 43.2983 136.355 48.0666C151.602 58.3016 162.185 70.8275 167.141 88.8549C177.287 125.76 157.707 173.247 98.0717 171.184C80.869 171.007 43.764 161.868 32.9658 126.721C19.4681 82.7875 47.7867 50.7637 66.5775 42.5593C70.5436 40.8276 75.111 39.1785 80.1726 37.9602C80.2631 37.9385 80.6014 37.8563 80.9716 37.766C81.5916 37.6148 81.9695 36.9957 81.8371 36.3714C80.7917 31.4398 79.7604 22.9475 81.04 19.3424Z" fill="#FFFDEE"/>
<path d="M126.832 100.946C126.832 103.699 122.614 107.061 116.527 106.87C109.855 106.66 105.455 104.642 105.455 100.946C105.455 97.6192 111.503 94.9463 116.527 94.9463C121.551 94.9463 126.832 97.2261 126.832 100.946Z" fill="#FFEAEA"/>
<path d="M52.7111 99.6495C52.7111 103.895 47.0101 106.412 42.7266 106.254C38.0308 106.081 34.6958 104.068 34.6956 99.6496C34.6954 96.3935 38.4579 93.8818 43.5225 93.8818C47.0584 93.8818 52.7111 95.6959 52.7111 99.6495Z" fill="#FFEAEA"/>
<path d="M83.2016 76.4401C81.4909 74.9739 79.3503 74.0498 77.4663 74.0498C76.3286 74.0498 75.3412 74.1926 74.3545 74.5745C73.3739 74.9541 72.4283 75.5568 71.3563 76.4302C70.5211 77.1108 69.6997 78.1781 68.9444 79.3899C68.1831 80.6112 67.4643 82.0199 66.8446 83.4199C66.2247 84.8203 65.6992 86.2228 65.3275 87.435C64.9621 88.6268 64.7258 89.6955 64.7258 90.402C64.7258 93.1859 66.6504 94.6801 68.4315 95.1501C70.1057 95.5919 77.4698 96.6036 86.1436 95.6741L86.2112 95.6669C86.9923 95.584 88.4256 95.4319 89.4441 94.4239C90.5435 93.3358 90.9853 91.4622 90.2061 88.3434C89.4662 85.3816 87.9951 82.6508 86.5841 80.5529C85.178 78.462 83.7989 76.9521 83.2016 76.4401Z" fill="#4F5667"/>
<path d="M118.24 78.9766C118.24 84.0888 114.162 87.5946 108.2 87.5946C101.399 87.5946 96.1907 85.8393 96.1907 78.9766C96.1907 72.7983 102.642 67.835 107.754 67.835C112.867 67.835 118.24 72.0684 118.24 78.9766Z" fill="#4F5667"/>
<path d="M61.8236 78.1777C61.8236 84.7812 55.9067 86.4331 51.6232 86.1875C46.9274 85.9182 43.8083 85.0512 43.8081 78.1778C43.8079 73.113 47.5704 69.2061 52.635 69.2061C56.1709 69.2061 61.8236 72.0279 61.8236 78.1777Z" fill="#4F5667"/>
<path d="M160.085 138.227C144.663 139.028 132.796 125.543 128.79 118.7L160.085 107.935C183.618 120.202 179.362 137.226 160.085 138.227Z" fill="#FFFDEE"/>
<path fill-rule="evenodd" clip-rule="evenodd" d="M157.92 105.327C159.02 103.216 161.623 102.396 163.734 103.497C176.553 110.179 183.744 119.152 182.939 128.102C182.091 137.523 172.992 142.948 161.965 143.521C152.49 144.013 144.321 140.105 138.139 135.377C131.968 130.657 127.431 124.865 125.07 120.832C123.867 118.778 124.558 116.137 126.612 114.935C128.666 113.732 131.307 114.423 132.509 116.477C134.367 119.649 138.186 124.56 143.377 128.53C148.557 132.492 154.755 135.263 161.518 134.912C170.79 134.43 174.08 130.364 174.353 127.33C174.668 123.825 171.71 117.376 159.749 111.141C157.638 110.041 156.819 107.438 157.92 105.327Z" fill="#4F5667"/>
<path d="M9.31468 125.903C9.05776 116.139 20.1886 102.316 24.4711 97.0703C24.4711 123.407 28.5606 125.233 33.0572 138.081C20.8522 141.293 9.63582 138.108 9.31468 125.903Z" fill="#FFFDEE"/>
<path fill-rule="evenodd" clip-rule="evenodd" d="M28.7813 84.9746V97.0706C28.7813 110.038 29.7922 116.617 31.211 121.411C31.9282 123.835 32.7766 125.898 33.7853 128.271C33.8751 128.482 33.9662 128.695 34.0584 128.912C34.9955 131.111 36.0516 133.589 37.1255 136.657L38.6671 141.062L34.1541 142.249C27.5265 143.994 20.5841 144.176 14.9954 141.72C9.02685 139.097 5.2082 133.709 5.0058 126.017C4.84128 119.764 8.20227 112.917 11.5211 107.531C14.9693 101.936 18.982 96.9786 21.132 94.3449L28.7813 84.9746ZM18.86 112.054C15.607 117.333 13.531 122.279 13.6234 125.79C13.7422 130.303 15.6923 132.61 18.4634 133.828C20.6704 134.797 23.6705 135.17 27.1863 134.803C26.8294 133.939 26.4747 133.106 26.1213 132.276C26.0314 132.065 25.9416 131.854 25.8518 131.643C24.829 129.237 23.8119 126.788 22.9447 123.857C21.825 120.074 20.9985 115.64 20.5483 109.435C19.9757 110.288 19.409 111.163 18.86 112.054Z" fill="#4F5667"/>
</g>
<defs>
<linearGradient id="paint0_linear_252_2587" x1="101" y1="9.43359" x2="101" y2="48.4336" gradientUnits="userSpaceOnUse">
<stop stop-color="#FABBB6"/>
<stop offset="0.47" stop-color="#FAB9BA"/>
<stop offset="1" stop-color="#FFE4BB"/>
</linearGradient>
<clipPath id="clip0_252_2587">
<rect width="188" height="188" fill="white"/>
</clipPath>
</defs>
</svg>
