<svg width="120" height="120" viewBox="0 0 120 120" fill="none" xmlns="http://www.w3.org/2000/svg">
<g clip-path="url(#clip0_252_2649)">
<path fill-rule="evenodd" clip-rule="evenodd" d="M40.0929 108.108C40.6879 107.623 41.7626 107.76 42.5172 107.435L45.0949 109.103L45.093 109.18C45.0024 112.676 42.0116 115.748 39.166 114.159C36.7788 112.739 37.9212 109.677 40.0929 108.108Z" fill="#4F5667"/>
<path fill-rule="evenodd" clip-rule="evenodd" d="M46.6909 116.259C43.1409 116.018 42.5032 112.334 44.1401 109.174L47.1915 108.833L47.2383 108.894C47.8616 109.697 49.2924 110.398 49.5949 111.34C49.9306 113.378 50.1497 116.259 46.6909 116.259Z" fill="#4F5667"/>
<path fill-rule="evenodd" clip-rule="evenodd" d="M71.0244 112.266C71.1793 111.582 73.2151 108.228 73.5746 107.569L76.3657 107.319L76.4072 107.375C77.8665 109.344 77.7952 113.058 76.5959 115.013C76.0654 115.878 75.3354 116.271 74.5154 116.387C73.2264 116.569 72.0678 115.757 71.5455 115.013C71.059 114.32 70.7745 113.368 71.0244 112.266Z" fill="#4F5667"/>
<path fill-rule="evenodd" clip-rule="evenodd" d="M82.4981 114.207C81.2708 115.257 79.0602 115.098 77.7513 113.687C75.8155 111.599 74.6474 109.942 74.2807 107.99L76.6344 105.794L76.702 105.811C77.6019 106.038 79.5048 107.333 81.4462 108.385C83.8587 109.692 84.2126 112.741 82.4981 114.207Z" fill="#4F5667"/>
<path fill-rule="evenodd" clip-rule="evenodd" d="M107.454 89.3954C105.902 89.4819 104.108 90.3143 102.776 91.87C102.337 92.3829 101.747 92.6879 101.131 92.7758C101.187 93.4121 101.02 94.071 100.612 94.6235C99.8567 95.6458 99.7632 96.63 99.9199 97.1989C99.9937 97.4668 100.122 97.6634 100.296 97.8119C100.47 97.9607 100.79 98.1449 101.365 98.2237C104.764 98.6892 107.576 97.3752 109.282 95.5783C111.137 93.6255 111.175 91.8315 110.745 91.0671C110.078 89.8796 108.936 89.3128 107.454 89.3954Z" fill="#FFFDEE"/>
<path fill-rule="evenodd" clip-rule="evenodd" d="M107.454 89.3949C105.902 89.4814 104.108 90.3138 102.776 91.8695C102.337 92.3824 101.748 92.6873 101.131 92.7753C101.187 93.4116 101.021 94.0704 100.612 94.623C99.857 95.6453 99.7635 96.6295 99.9203 97.1984C99.9941 97.4662 100.122 97.6629 100.296 97.8114C100.471 97.9602 100.79 98.1444 101.365 98.2231C104.764 98.6887 107.577 97.3747 109.283 95.5777C111.137 93.625 111.175 91.831 110.745 91.0666C110.078 89.8791 108.936 89.3123 107.454 89.3949ZM98.0975 90.3491C97.4175 90.4464 96.7748 90.8066 96.332 91.4058C94.7719 93.517 94.1026 96.193 94.7768 98.6398C95.4946 101.245 97.6239 103.144 100.647 103.558C105.856 104.272 110.336 102.253 113.138 99.3014C115.793 96.5054 117.481 92.1341 115.39 88.4118C113.563 85.162 110.323 83.8428 107.16 84.0192C104.066 84.1916 100.951 85.7633 98.736 88.3505C98.2443 88.9247 98.0356 89.6487 98.0975 90.3491Z" fill="#4F5667"/>
<path fill-rule="evenodd" clip-rule="evenodd" d="M46.4807 6.85374C48.0821 2.34171 53.2653 -0.67914 58.8658 1.61841C61.7313 2.79395 63.1262 5.01965 63.7193 7.1998C63.8456 7.66411 63.9371 8.13138 64.0023 8.59104C64.6633 8.15332 65.3726 7.72194 66.104 7.36301C67.522 6.66714 69.2911 6.104 71.2586 6.39376C73.5652 6.73346 75.3809 8.16258 76.4791 9.87303C77.5747 11.5796 78.1028 13.7851 77.6026 15.9608C77.3344 17.1275 76.861 18.2029 76.3208 19.1466C80.04 20.4461 83.98 22.2289 87.8675 24.8386C98.5625 32.0181 106.176 40.9606 109.725 53.8689C113.326 66.9705 111.687 82.037 103.708 93.7219C95.6506 105.521 81.3714 113.52 60.484 112.806C54.3117 112.737 44.7467 111.083 35.7226 106.35C26.6297 101.582 17.9615 93.6104 14.0604 80.913C4.47487 49.7131 24.5664 26.8577 38.2305 20.8917C40.6888 19.8183 43.4856 18.7853 46.5693 17.9638C46.3296 16.5379 46.1222 14.9314 46.0104 13.371C45.8572 11.2321 45.8369 8.66745 46.4807 6.85374ZM56.7773 6.70917C54.2546 5.67425 52.2788 6.96849 51.6662 8.69426C51.4481 9.30896 51.3442 10.8188 51.4988 12.9778C51.6429 14.9885 51.9731 17.1238 52.3019 18.6743C52.6907 20.5085 51.582 22.3932 49.6793 22.8572C49.4306 22.9178 49.1987 22.9742 49.133 22.99C45.9054 23.7668 42.9823 24.8211 40.4323 25.9345C28.7812 31.0216 10.7215 51.309 19.3203 79.297C22.693 90.2746 30.1586 97.2191 38.2782 101.477C46.4501 105.763 55.1576 107.249 60.5743 107.304L60.6078 107.305L60.6412 107.306C79.9066 107.972 92.2966 100.675 99.1637 90.6188C106.113 80.4426 107.651 67.0855 104.419 55.3274C101.291 43.9489 94.6459 36.0162 84.8006 29.4072C80.3242 26.4021 75.7114 24.6038 71.3981 23.3511C69.2379 22.7237 68.5536 20.0703 70.0254 18.4595C70.9342 17.4648 71.9295 16.0787 72.24 14.7279C72.3673 14.1741 72.249 13.4693 71.8488 12.8459C71.451 12.2264 70.9211 11.9059 70.4569 11.8375C70.0183 11.773 69.4214 11.8644 68.5282 12.3028C67.6135 12.7516 66.6729 13.416 65.5391 14.2269L65.5181 14.2419C65.012 14.6039 64.4639 14.9959 63.9164 15.3571C61.4232 17.0019 58.4275 14.9946 58.5904 12.2648C58.668 10.9638 58.699 9.70763 58.4097 8.64414C58.159 7.72249 57.72 7.09589 56.7773 6.70917Z" fill="#4F5667"/>
<path d="M48.852 8.20809C50.0311 5.09077 53.8438 2.93431 58.17 4.59971C62.2262 6.16118 62.0769 10.3014 61.9142 12.8604C61.8765 13.4541 62.5191 13.8195 63.0482 13.492C63.585 13.1596 64.1311 12.7932 64.6855 12.4211C67.0152 10.8576 69.4926 9.1949 72.0554 9.54907C75.0067 9.95693 77.052 13.0465 76.3836 15.7746C75.8341 18.0175 74.1212 19.977 73.0476 21.0284C62.4862 31.371 52.5447 31.9174 49.6049 20.4272C48.8041 17.2972 47.8599 10.8312 48.852 8.20809Z" fill="url(#paint0_linear_252_2649)"/>
<path fill-rule="evenodd" clip-rule="evenodd" d="M45.2699 6.853C47.2186 1.70081 53.2861 -1.38432 59.5458 1.02541C62.8722 2.30594 64.5777 4.78954 65.3025 7.28947C65.3198 7.34942 65.3367 7.4094 65.3529 7.46938C65.7832 7.22742 66.2279 6.99576 66.681 6.78708C68.2714 6.05472 70.3011 5.44027 72.5796 5.75515C77.7542 6.47026 81.3184 11.7266 80.1033 16.6858C79.2861 20.0215 76.9029 22.6131 75.7271 23.7645C70.2063 29.1709 64.1518 32.754 58.4618 32.7447C55.4728 32.7398 52.678 31.7295 50.4164 29.6288C48.2155 27.5845 46.7524 24.729 45.8946 21.3763C45.4418 19.6064 44.9719 17.0054 44.742 14.4738C44.6265 13.2025 44.5648 11.8777 44.6114 10.6397C44.6554 9.46692 44.804 8.0847 45.2699 6.853L45.2699 6.853ZM56.794 8.17362C54.4015 7.25257 52.8435 8.48034 52.4341 9.5628C52.4342 9.56265 52.4341 9.56266 52.4341 9.56282C52.4333 9.56503 52.4225 9.59525 52.4066 9.65978C52.3897 9.72822 52.3701 9.82289 52.3508 9.94689C52.3116 10.1988 52.2807 10.5251 52.2655 10.9274C52.2351 11.7374 52.2735 12.7166 52.3702 13.7809C52.5645 15.9206 52.9672 18.1177 53.3151 19.4778C53.9272 21.8701 54.8092 23.2551 55.6292 24.0167C56.3885 24.722 57.2903 25.0832 58.4744 25.0851C61.1303 25.0895 65.3273 23.2281 70.368 18.292C70.7934 17.8754 71.3186 17.3034 71.7745 16.652C72.2417 15.9846 72.5394 15.3709 72.6638 14.8631L76.3836 15.7744L72.6638 14.8631C72.7019 14.7075 72.6915 14.3567 72.4161 13.9542C72.1489 13.5637 71.8044 13.3804 71.5311 13.3426C71.2467 13.3033 70.7563 13.3431 69.8849 13.7444C68.9822 14.1601 68.0381 14.7831 66.8196 15.6009L65.1169 13.0638L64.6854 12.4209L65.1169 13.0638L66.8196 15.6009L66.7921 15.6194C66.2565 15.9788 65.6611 16.3785 65.0639 16.7481C62.1624 18.5443 57.8369 16.6306 58.0921 12.6171L61.9142 12.8602L58.0921 12.6171C58.1753 11.308 58.1871 10.2544 57.9458 9.42213C57.8405 9.05879 57.7095 8.83152 57.5783 8.67811C57.4598 8.53948 57.2464 8.34775 56.794 8.17362Z" fill="#4F5667"/>
<path d="M49.7277 10.3461C50.7766 7.3907 54.1685 5.34625 58.0172 6.92514C61.6257 8.40551 61.4929 12.3307 61.3482 14.7567C61.3146 15.3197 61.8863 15.6661 62.357 15.3556C62.8346 15.0405 63.3204 14.693 63.8136 14.3403C65.8862 12.858 68.0901 11.2817 70.3701 11.6174C72.9957 12.0041 74.8153 14.9332 74.2206 17.5196C73.773 19.4665 72.4579 21.1881 71.5059 22.23C71.3924 22.3543 71.4476 22.5561 71.6093 22.6031C75.8602 23.8377 80.5013 25.6371 85.0352 28.6807C94.767 35.2137 101.522 43.209 104.686 54.7158C111.162 78.2725 98.6641 108.583 60.599 107.266C49.6185 107.153 25.9345 101.32 19.042 78.8856C10.4265 50.843 28.5022 30.4023 40.4963 25.1654C43.0278 24.0601 45.9432 23.0074 49.174 22.2299C49.2318 22.216 49.4477 22.1635 49.6841 22.1059C50.0798 22.0093 50.321 21.6142 50.2365 21.2157C49.5692 18.0679 48.9109 12.6472 49.7277 10.3461Z" fill="#FFFDEE"/>
<path d="M51.1074 46.7913C50.0155 45.8554 48.6492 45.2656 47.4466 45.2656C46.7204 45.2656 46.0901 45.3568 45.4604 45.6006C44.8344 45.8429 44.2309 46.2275 43.5466 46.785C43.0135 47.2195 42.4892 47.9007 42.0071 48.6742C41.5212 49.4537 41.0623 50.3529 40.6668 51.2465C40.2711 52.1404 39.9357 53.0356 39.6985 53.8094C39.4652 54.5701 39.3144 55.2523 39.3144 55.7032C39.3144 57.4802 40.5428 58.4339 41.6797 58.7339C42.7484 59.0159 47.4488 59.6617 52.9853 59.0683L53.0284 59.0638C53.5271 59.0108 54.4419 58.9138 55.092 58.2704C55.7938 57.5759 56.0757 56.3799 55.5784 54.3892C55.1061 52.4987 54.1671 50.7556 53.2665 49.4165C52.3689 48.0819 51.4887 47.1181 51.1074 46.7913Z" fill="#4F5667"/>
<path d="M62.029 42.0596C64.3363 39.7522 67.7589 40.0102 70.4502 42.7015C73.5195 45.7707 75.0781 48.9139 71.9807 52.0113C69.1921 54.7999 64.0401 54.1282 61.7327 51.8208C59.4254 49.5135 58.911 45.1776 62.029 42.0596Z" fill="#4F5667"/>
<path d="M27.4348 51.455C24.4543 48.4745 26.3793 45.0584 28.4235 43.2359C30.6645 41.238 32.4636 40.2215 35.5659 43.3237C37.852 45.6096 37.9172 49.0711 35.6313 51.357C34.0354 52.9529 30.2105 54.2306 27.4348 51.455Z" fill="#4F5667"/>
<path d="M100.182 86.2304C90.338 86.7417 82.7632 78.1339 80.2062 73.766L100.182 66.8945C115.203 74.7248 112.486 85.5912 100.182 86.2304Z" fill="#FFFDEE"/>
<path fill-rule="evenodd" clip-rule="evenodd" d="M98.7997 65.2301C99.5021 63.8827 101.164 63.3598 102.511 64.0621C110.694 68.3274 115.283 74.0546 114.769 79.7677C114.229 85.7811 108.42 89.2436 101.382 89.6092C95.3342 89.9234 90.1197 87.4292 86.1741 84.4113C82.2349 81.3984 79.3388 77.7014 77.8318 75.1272C77.0642 73.8159 77.5049 72.1306 78.8162 71.3629C80.1275 70.5953 81.8128 71.036 82.5805 72.3473C83.7659 74.3723 86.204 77.5067 89.5171 80.0407C92.8238 82.5699 96.7797 84.3383 101.097 84.1141C107.015 83.8067 109.115 81.2117 109.289 79.2747C109.49 77.0373 107.602 72.9211 99.9677 68.9415C98.6203 68.2391 98.0974 66.5775 98.7997 65.2301Z" fill="#4F5667"/>
<path d="M3.9456 78.3639C3.78161 72.1315 10.8864 63.3084 13.6199 59.96C13.6199 76.7709 16.2302 77.9363 19.1004 86.1369C11.31 88.187 4.15059 86.1545 3.9456 78.3639Z" fill="#FFFDEE"/>
<path fill-rule="evenodd" clip-rule="evenodd" d="M16.3711 52.2393V59.9601C16.3711 68.2375 17.0163 72.4363 17.9219 75.4968C18.3797 77.0439 18.9213 78.3604 19.5651 79.875C19.6225 80.0098 19.6806 80.1462 19.7394 80.2843C20.3376 81.6879 21.0117 83.2698 21.6971 85.2281L22.6811 88.0396L19.8005 88.7977C15.5702 89.9109 11.1388 90.0271 7.57157 88.4596C3.76186 86.7855 1.32442 83.3463 1.19523 78.4365C1.09022 74.4454 3.23553 70.0747 5.35392 66.6372C7.5549 63.0657 10.1162 59.9014 11.4885 58.2203L16.3711 52.2393ZM10.0383 69.524C7.96195 72.8933 6.63686 76.0504 6.69583 78.2917C6.77163 81.1724 8.01638 82.6447 9.78522 83.422C11.1939 84.041 13.1089 84.2791 15.353 84.0444C15.1252 83.4928 14.8988 82.9613 14.6732 82.4318C14.6158 82.297 14.5585 82.1624 14.5012 82.0277C13.8484 80.4919 13.1992 78.9288 12.6456 77.0581C11.9309 74.6429 11.4033 71.8126 11.116 67.8523C10.7505 68.3964 10.3888 68.9554 10.0383 69.524Z" fill="#4F5667"/>
</g>
<defs>
<linearGradient id="paint0_linear_252_2649" x1="62.4681" y1="4.02148" x2="62.4681" y2="28.9151" gradientUnits="userSpaceOnUse">
<stop stop-color="#FABBB6"/>
<stop offset="0.47" stop-color="#FAB9BA"/>
<stop offset="1" stop-color="#FFE4BB"/>
</linearGradient>
<clipPath id="clip0_252_2649">
<rect width="120" height="120" fill="white"/>
</clipPath>
</defs>
</svg>
