<svg width="160" height="160" viewBox="0 0 160 160" fill="none" xmlns="http://www.w3.org/2000/svg">
<g clip-path="url(#clip0_1142_15567)">
<path d="M112.245 36.0993C128.283 37.223 134.86 56.0271 139.199 71.8107C148.082 104.122 132.561 143.379 77.2398 143.379C47.3021 141.972 30.38 132.675 21.8721 104.983C10.0545 66.518 34.7006 38.4607 51.1525 31.2775C54.6249 29.7613 58.6238 28.3175 63.0555 27.2509C80.5749 23.0344 78.7266 33.751 112.245 36.0993Z" fill="#F8F3DA"/>
<path fill-rule="evenodd" clip-rule="evenodd" d="M82.9751 26.171C88.6766 28.5273 96.2379 31.6524 112.477 32.7901C121.974 33.4554 128.441 39.4115 132.936 46.7201C137.397 53.9731 140.226 63.0269 142.399 70.9322C147.046 87.8361 145.378 106.793 135.016 121.614C124.576 136.547 105.728 146.698 77.2401 146.698H77.1622L77.0844 146.695C61.8635 145.98 49.452 143.248 39.6926 136.809C29.8431 130.311 23.1123 120.32 18.7002 105.959C6.29139 65.5695 32.145 35.9568 49.8249 28.2374C53.444 26.6572 57.6281 25.1451 62.2793 24.0257C66.9756 22.8954 70.5969 22.7154 73.9413 23.2484C77.1375 23.7577 79.9059 24.9022 82.7388 26.0733L82.9751 26.171ZM72.8969 29.8028C70.6132 29.4389 67.8957 29.5005 63.8323 30.4785C59.6201 31.4922 55.8065 32.8678 52.4807 34.3199C37.2569 40.967 13.8182 67.4689 25.0446 104.01C29.1405 117.341 35.1246 125.844 43.3476 131.269C51.6459 136.744 62.64 139.364 77.3178 140.061C104.106 140.043 120.655 130.573 129.576 117.811C138.584 104.927 140.235 88.0994 135.999 72.6915C133.834 64.8133 131.204 56.5732 127.283 50.1973C123.395 43.8771 118.555 39.8693 112.013 39.4109C94.788 38.2041 86.5106 34.8137 80.3834 32.2814C77.3615 31.0326 75.2614 30.1796 72.8969 29.8028Z" fill="#4D6296"/>
<path d="M106.295 77.4767C106.295 79.6235 103.006 82.2447 98.2596 82.0956C93.0565 81.9321 89.6255 80.3587 89.6255 77.4767C89.6255 74.8822 94.3417 72.7979 98.2596 72.7979C102.177 72.7979 106.295 74.5757 106.295 77.4767Z" fill="#F5CCBB"/>
<path d="M49.3155 72.7894C48.3483 75.9002 43.5972 76.4462 40.4943 75.3546C37.0928 74.1579 35.1076 71.9229 36.1141 68.685C36.8559 66.299 40.1852 65.3157 43.8964 66.4696C46.4874 67.2752 50.2163 69.8924 49.3155 72.7894Z" fill="#F5CCBB"/>
<path fill-rule="evenodd" clip-rule="evenodd" d="M48.8558 140.646C49.6291 140.016 51.0259 140.194 52.0068 139.771L55.3572 141.939L55.3547 142.039C55.2369 146.583 51.3496 150.576 47.6509 148.511C44.5482 146.665 46.0331 142.685 48.8558 140.646Z" fill="#4D6296"/>
<path fill-rule="evenodd" clip-rule="evenodd" d="M57.4316 151.24C52.8174 150.927 51.9885 146.138 54.1162 142.032L58.0822 141.588L58.1431 141.667C58.9533 142.711 60.8129 143.623 61.2061 144.846C61.6424 147.495 61.9272 151.24 57.4316 151.24Z" fill="#4D6296"/>
<path fill-rule="evenodd" clip-rule="evenodd" d="M86.9755 147.145C87.1769 146.257 89.8229 141.896 90.2903 141.04L93.918 140.715L93.9719 140.788C95.8687 143.347 95.7759 148.175 94.2171 150.716C93.5276 151.839 92.5788 152.351 91.513 152.501C89.8376 152.738 88.3317 151.682 87.6529 150.716C87.0205 149.815 86.6507 148.577 86.9755 147.145Z" fill="#4D6296"/>
<path fill-rule="evenodd" clip-rule="evenodd" d="M101.889 149.668C100.293 151.033 97.4202 150.826 95.7189 148.992C93.2028 146.279 91.6846 144.124 91.208 141.588L94.2673 138.733L94.3551 138.755C95.5248 139.051 97.9981 140.734 100.522 142.1C103.657 143.799 104.117 147.762 101.889 149.668Z" fill="#4D6296"/>
<path d="M74.1356 59.4005C73.0675 57.9653 71.5902 56.9073 70.1642 56.635C69.303 56.4706 68.5335 56.4437 67.7276 56.6105C66.9266 56.7764 66.1177 57.1281 65.1712 57.6809C64.4337 58.1116 63.6469 58.8576 62.8877 59.7303C62.1226 60.6099 61.3606 61.6474 60.675 62.6922C59.9892 63.7373 59.5341 64.4172 59.0652 65.3457C58.6043 66.2585 58.2601 67.0903 58.1509 67.6627C57.7202 69.9183 58.9459 71.4071 60.2214 72.0453C61.4203 72.6451 66.6328 74.0846 73.342 74.5848L73.3942 74.5887C73.9984 74.6344 75.1067 74.7183 76.0336 74.0488C77.034 73.326 77.6582 71.8718 77.5509 69.2323C77.449 66.7256 76.8032 65.1253 76.0597 63.2216C75.3188 61.3243 74.5085 59.9016 74.1356 59.4005Z" fill="#4D6296"/>
<path d="M97.0244 63.9583C96.5303 68.2882 93.5747 70.9589 89.7478 70.5222C85.3836 70.0241 82.2104 68.156 82.8737 62.3434C83.4709 57.1106 88.0912 53.3793 91.372 53.7537C94.6529 54.1281 97.6921 58.1073 97.0244 63.9583Z" fill="#4D6296"/>
<path d="M57.4982 58.4495C55.8627 64.1908 51.391 64.4698 48.5107 63.4184C45.3532 62.2659 43.4263 60.902 45.1285 54.926C46.3828 50.5223 49.9338 47.8614 53.4112 48.8519C55.839 49.5435 59.0213 53.1026 57.4982 58.4495Z" fill="#4D6296"/>
<path d="M140.412 115.421C130.478 117.049 113.22 112.847 109.8 105.03L140.412 80.5806C151.812 98.6576 150.346 113.792 140.412 115.421Z" fill="#F8F3DA"/>
<path fill-rule="evenodd" clip-rule="evenodd" d="M139.405 79.3323C140.955 78.3547 143.004 78.8188 143.982 80.3691C150.033 89.9635 151.672 99.0083 150.174 106.313C148.68 113.592 144.029 119.094 137.873 120.978C128.77 123.765 116.757 119.072 109.782 107.148C108.857 105.566 109.389 103.533 110.971 102.608C112.553 101.682 114.586 102.215 115.511 103.797C121.28 113.66 130.381 116.33 135.93 114.632C139.4 113.569 142.585 110.277 143.672 104.979C144.754 99.7067 143.718 92.3921 138.368 83.9095C137.39 82.3592 137.855 80.3099 139.405 79.3323Z" fill="#4D6296"/>
<path d="M154.808 65.1021C151.962 60.9903 144.536 63.8643 140.567 64.6285C140.567 64.6285 141.534 67.8097 142.17 70.123C142.733 72.1685 143.336 76.005 143.336 76.005C155.463 75.9655 158.366 70.2418 154.808 65.1021Z" fill="#B2A879"/>
<path d="M11.0029 53.0733L20.4766 43.1594C16.2903 39.6345 12.7652 38.9736 9.35055 41.617C5.39601 44.6783 8.17722 50.1841 11.0029 53.0733Z" fill="#B2A879"/>
<path d="M89.8624 9.62431C63.9556 3.24514 44.9741 16.6426 41.062 27.924L127.329 45.6231C127.329 20.5351 115.769 16.0035 89.8624 9.62431Z" fill="#EDE1A2"/>
<path fill-rule="evenodd" clip-rule="evenodd" d="M88.1438 9.68201C65.0635 7.20554 48.8401 16.441 42.8884 28.5717C42.0811 30.2171 40.0928 30.8966 38.4474 30.0893C36.802 29.282 36.1226 27.2937 36.9298 25.6483C44.4509 10.3187 63.8545 0.400635 88.8519 3.0828C89.9388 3.19943 91.0076 3.42357 92.0239 3.72603C101.858 6.65242 109.67 9.90605 116.024 15.8462C122.384 21.792 126.962 30.122 131.029 42.5697C131.598 44.3118 130.648 46.1856 128.906 46.7548C127.163 47.3241 125.29 46.3733 124.72 44.6312C120.817 32.6873 116.691 25.5552 111.491 20.6944C106.286 15.8279 99.6848 12.9305 90.1309 10.0874C89.4694 9.89058 88.7974 9.75214 88.1438 9.68201Z" fill="#4D6296"/>
<path d="M43.1364 27.0226C16.9261 27.5788 14.8346 28.2041 14.4665 37.6458L29.5276 40.6069L44.7396 42.1669L65.7533 40.4891L88.7892 46.7669L112.434 47.4902L128.868 58.0618L152.437 60.7569L157.602 68.2672C158.84 54.5454 142.089 47.3956 136.114 45.9348C130.139 44.4739 127.419 42.7557 123.858 40.3C113.375 33.4752 105.381 33.2545 99.3605 33.2248C93.3404 33.195 90.7223 32.3153 86.901 30.8042C62.0512 21.3531 60.0036 25.202 43.1364 27.0226Z" fill="#EDE1A2"/>
<path fill-rule="evenodd" clip-rule="evenodd" d="M52.5912 30.6992C50.0345 31.1144 47.0826 31.5937 43.4978 31.9806L43.3554 31.996L43.2121 31.999C30.3129 32.2727 21.7483 34.1669 16.4809 36.8641C11.3762 39.4781 9.62001 42.6697 9.49279 45.9329C9.42138 47.7643 7.87886 49.191 6.04747 49.1196C4.21608 49.0482 2.78933 47.5057 2.86074 45.6743C3.10164 39.4957 6.72281 34.4043 13.4559 30.9565C20.0025 27.6042 29.6895 25.66 42.9262 25.3666C46.2552 25.0032 48.9721 24.5624 51.4866 24.1544C52.0258 24.0669 52.5557 23.9809 53.0804 23.8975C56.0617 23.4237 58.889 23.0312 62.0256 23.0266C68.3597 23.0173 75.5353 24.5876 88.086 29.361L88.1064 29.3688L88.1267 29.3768C91.6748 30.7799 93.8784 31.5377 99.3822 31.5649C105.678 31.596 114.418 31.8498 125.674 39.1775L125.711 39.2016L125.748 39.2267C129.116 41.55 131.461 43.0383 136.907 44.3698C140.294 45.1976 146.026 47.4837 150.922 51.5087C155.865 55.5715 160.27 61.6984 159.973 70.0689C159.907 71.9005 158.37 73.3325 156.538 73.2675C154.707 73.2024 153.275 71.6648 153.34 69.8332C153.539 64.2097 150.664 59.8883 146.708 56.6359C142.705 53.3458 137.92 51.45 135.331 50.817C128.848 49.2319 125.753 47.2913 122.017 44.7162C112.324 38.4175 105.087 38.2302 99.3494 38.2019C92.8239 38.1696 89.7904 37.1713 85.7064 35.5569C73.4205 30.8855 67.1515 29.6561 62.0354 29.6636C59.4454 29.6674 57.0452 29.9878 54.1221 30.4524C53.6272 30.531 53.1175 30.6138 52.5912 30.6992Z" fill="#4D6296"/>
<path fill-rule="evenodd" clip-rule="evenodd" d="M14.0214 42.45C11.3346 42.0818 9.44778 43.7953 9.4544 45.8303C9.45974 47.4731 10.5296 50.5598 13.2233 54.0224C14.3487 55.469 14.0883 57.554 12.6417 58.6794C11.1951 59.8047 9.11009 59.5443 7.98473 58.0977C4.85507 54.0747 2.82946 49.575 2.81735 45.8519C2.79437 38.7906 9.29292 35.1029 14.9225 35.8743C17.8848 36.2803 20.357 37.2482 22.1417 38.046C22.5875 38.2453 22.9963 38.4368 23.3505 38.6033C23.384 38.6191 23.4168 38.6345 23.4489 38.6496C23.7687 38.8 24.0246 38.9204 24.2521 39.0222C24.3035 39.0452 24.3501 39.0658 24.3923 39.084C24.5388 39.0537 24.7052 39.0178 24.9034 38.9751C24.9951 38.9553 25.0936 38.9341 25.2001 38.9112C26.0269 38.7339 27.1526 38.5004 28.3946 38.3414C30.7199 38.0436 34.187 37.895 37.0986 39.5462C39.2534 40.7682 40.8687 41.543 42.4047 41.8964C43.8304 42.2245 45.312 42.2149 47.2078 41.5805C47.4724 41.492 47.7588 41.3943 48.0656 41.2898C53.1101 39.5701 63.6697 35.9704 73.5849 39.9372C82.8639 43.6494 87.286 44.9415 90.6819 44.9305C91.616 44.9274 92.9021 44.8756 94.4641 44.8126L94.5897 44.8075C96.1759 44.7436 97.9878 44.6719 99.8056 44.6444C101.618 44.617 103.49 44.6323 105.201 44.7497C106.862 44.8636 108.593 45.086 110.019 45.5648C115.174 47.295 117.646 48.4258 121.256 51.3597C121.582 51.6249 121.916 51.9 122.258 52.1816C123.694 53.3648 125.268 54.6616 126.993 55.8108C129.157 57.253 131.121 58.15 132.757 58.2993C133.524 58.3694 134.639 58.3815 136.128 58.3977C136.717 58.4042 137.364 58.4112 138.072 58.4227C140.43 58.4611 143.238 58.5528 145.988 58.8965C148.698 59.2351 151.594 59.8453 154.025 61.048C156.499 62.2719 158.839 64.3017 159.603 67.5542C160.051 69.4609 160.08 71.4497 159.459 73.3703C158.832 75.3105 157.611 76.9606 155.919 78.2696C152.65 80.7977 147.624 82.0673 141.125 82.2822C139.294 82.3427 137.76 80.9069 137.699 79.0751C137.638 77.2433 139.074 75.7093 140.906 75.6487C146.907 75.4503 150.236 74.274 151.859 73.0193C152.612 72.4369 152.971 71.8614 153.144 71.3286C153.322 70.7764 153.37 70.045 153.142 69.0713C152.985 68.4062 152.493 67.695 151.082 66.9969C149.629 66.2777 147.587 65.785 145.165 65.4823C142.783 65.1846 140.265 65.0964 137.964 65.0589C137.429 65.0502 136.889 65.0445 136.359 65.0388C134.741 65.0215 133.207 65.0052 132.153 64.9089C128.849 64.6072 125.761 62.9658 123.313 61.3343C121.276 59.9773 119.378 58.4113 117.938 57.2232C117.626 56.9658 117.336 56.7261 117.07 56.5102C114.301 54.2592 112.639 53.4451 107.907 51.8569C107.299 51.6526 106.247 51.4741 104.747 51.3712C103.299 51.2719 101.634 51.2546 99.9061 51.2807C98.1829 51.3068 96.4492 51.375 94.8571 51.4392L94.6393 51.448C93.1601 51.5077 91.7645 51.5641 90.7034 51.5675C85.8112 51.5834 80.2045 49.734 71.1196 46.0994C63.5709 43.0794 55.189 45.8988 49.9208 47.6708C49.7137 47.7404 49.5114 47.8085 49.3141 47.8745C46.2888 48.8869 43.5637 48.9737 40.9163 48.3645C38.3794 47.7807 36.0556 46.5848 33.8245 45.3195C32.8954 44.7926 31.3006 44.6605 29.2377 44.9247C28.2857 45.0466 27.3856 45.2305 26.592 45.4007C26.5123 45.4178 26.431 45.4354 26.3493 45.453C26.049 45.5178 25.7427 45.5839 25.4849 45.6343L25.4828 45.6347C25.2298 45.6843 24.7077 45.7864 24.2025 45.7881C23.509 45.7903 22.9153 45.6103 22.5948 45.5027C22.2246 45.3784 21.8567 45.2217 21.5408 45.0803C21.2522 44.9511 20.9367 44.8027 20.6311 44.6588C20.596 44.6423 20.561 44.6258 20.5262 44.6095C20.1761 44.4449 19.8166 44.2766 19.4332 44.1053C17.9017 43.4207 16.0871 42.733 14.0214 42.45ZM24.7075 39.2109C24.7072 39.2107 24.7068 39.2106 24.7064 39.2105C24.744 39.2206 24.7468 39.2241 24.7075 39.2109Z" fill="#4D6296"/>
<path d="M64.4629 115.904C65.2445 112.599 66.5876 104.759 67.1517 101.292C65.9742 100.259 65.4074 99.8052 64.563 99.6611C63.4227 99.4664 62.3909 99.727 61.2452 100.318L58.143 114.682C58.143 114.682 59.348 114.016 61.4236 114.315C63.4993 114.614 64.4629 115.904 64.4629 115.904Z" fill="#94A1C0"/>
<path fill-rule="evenodd" clip-rule="evenodd" d="M63.3991 102.135L61.3127 111.796C61.4647 111.811 61.62 111.829 61.7786 111.852C62.1134 111.9 62.4298 111.967 62.7278 112.047C63.3268 108.958 64.0119 105.005 64.4642 102.292C64.4275 102.266 64.3932 102.242 64.3605 102.22C64.2174 102.126 64.1781 102.12 64.1512 102.116C64.1488 102.116 64.1465 102.115 64.1442 102.115C63.9208 102.077 63.6876 102.072 63.3991 102.135ZM60.1038 98.107C61.5472 97.3622 63.1369 96.8934 64.9817 97.2082C66.5844 97.4818 67.6512 98.4187 68.6941 99.3346C68.727 99.3635 68.7599 99.3924 68.7928 99.4213L69.8297 100.331L69.6082 101.692C69.0476 105.138 67.6907 113.07 66.8849 116.478L65.6582 121.664L62.5075 117.446C62.5053 117.444 62.5027 117.441 62.4998 117.438C62.4639 117.401 62.3867 117.328 62.2682 117.243C62.036 117.076 61.6458 116.862 61.0685 116.779C60.3635 116.678 59.8541 116.746 59.5639 116.812C59.4183 116.846 59.3238 116.88 59.2846 116.896L54.5536 119.513L59.0602 98.6455L60.1038 98.107Z" fill="#4D6296"/>
<path d="M49.1976 92.5617C49.1511 92.7587 49.1117 95.6629 48.979 97.6166C48.9419 98.1634 49.4165 98.6294 49.9623 98.58C51.0896 98.4779 52.8759 98.3839 54.2198 98.6325C55.4268 98.8557 56.9941 99.5214 57.9799 99.9789C58.4663 100.205 59.0632 99.9423 59.2476 99.4389C59.8197 97.8769 60.8372 95.6164 60.9329 95.0212C61.5813 90.9889 49.9186 89.5035 49.1976 92.5617Z" fill="#94A1C0"/>
<path fill-rule="evenodd" clip-rule="evenodd" d="M51.6379 93.5918C51.6328 93.7467 51.6273 93.9171 51.6215 94.1011C51.6173 94.2313 51.6129 94.3684 51.6083 94.5115C51.5936 94.9656 51.5763 95.4754 51.5552 95.9934C52.5473 95.9681 53.6742 96.0009 54.6725 96.1855C55.5978 96.3566 56.6205 96.7085 57.5038 97.0614C57.5906 96.8467 57.677 96.6345 57.7602 96.4302C57.8303 96.2582 57.8981 96.0918 57.9619 95.9342C58.1301 95.5185 58.2711 95.1632 58.374 94.8836C58.3848 94.8545 58.3946 94.8275 58.4035 94.8026C58.3414 94.7488 58.2501 94.6789 58.1182 94.5932C57.4888 94.1842 56.4306 93.8006 55.1651 93.5872C53.9119 93.3759 52.7166 93.3757 51.8967 93.5333C51.7977 93.5524 51.7118 93.5723 51.6379 93.5918ZM58.523 94.9356C58.52 94.9357 58.5079 94.9216 58.4958 94.893C58.5199 94.9212 58.5259 94.9355 58.523 94.9356ZM60.8304 90.4191C62.1838 91.2985 63.7837 92.9705 63.3903 95.4168C63.3221 95.8413 63.1513 96.3154 63.0455 96.603C62.9128 96.9635 62.7457 97.3826 62.5761 97.8017C62.5015 97.9859 62.4262 98.1709 62.3513 98.355C62.0708 99.0438 61.7955 99.7199 61.5848 100.295C60.9228 102.103 58.8004 103.104 56.9323 102.237C55.9441 101.778 54.632 101.24 53.7672 101.08C52.7877 100.899 51.2996 100.958 50.1868 101.059C48.1091 101.247 46.3555 99.5153 46.4959 97.4484C46.5588 96.5217 46.6007 95.3491 46.6331 94.3502C46.6375 94.2161 46.6416 94.0845 46.6457 93.9572C46.6564 93.6205 46.6662 93.3133 46.6754 93.0678C46.6817 92.8989 46.6883 92.7421 46.6955 92.615C46.6955 92.615 46.6955 92.6149 46.6955 92.6146C46.6959 92.6022 46.7081 92.2755 46.7752 91.991C47.0572 90.795 47.8468 89.9999 48.6065 89.5201C49.3465 89.0527 50.1863 88.7932 50.9567 88.6451C52.506 88.3472 54.3211 88.3969 55.9927 88.6787C57.6519 88.9584 59.4329 89.5111 60.8304 90.4191Z" fill="#4D6296"/>
<path d="M69.737 95.234C69.691 95.4291 69.4989 98.0639 69.3442 100.017C69.2988 100.59 69.8352 101.047 70.3998 100.94C71.5185 100.73 73.2351 100.499 74.5463 100.742C75.7801 100.97 77.4646 101.66 78.4975 102.117C78.98 102.331 79.551 102.065 79.6942 101.557C80.1153 100.064 80.7492 97.985 80.8446 97.3921C81.5942 92.7307 70.5945 91.5971 69.737 95.234Z" fill="#94A1C0"/>
<path fill-rule="evenodd" clip-rule="evenodd" d="M72.0496 96.035C72.0486 96.0345 72.0543 96.0272 72.0701 96.0144C72.0586 96.0291 72.0507 96.0355 72.0496 96.035ZM72.1622 95.9546C72.25 95.906 72.3981 95.8402 72.6365 95.7707C73.3561 95.561 74.4138 95.4971 75.5272 95.6629C76.6538 95.8306 77.5491 96.19 78.052 96.5674C78.2884 96.7448 78.3653 96.871 78.3837 96.9085C78.3842 96.9096 78.3849 96.9107 78.3855 96.9119C78.3907 96.9209 78.3977 96.9331 78.3875 96.9968C78.3877 96.9955 78.3878 96.9947 78.3878 96.9947C78.3877 96.9947 78.3814 97.0294 78.3619 97.1125C78.3416 97.1992 78.3135 97.3112 78.2772 97.4491C78.2045 97.7252 78.1088 98.0675 77.9987 98.4529C77.9378 98.6659 77.871 98.8973 77.8017 99.1366C76.906 98.795 75.8913 98.4593 74.9992 98.2943C74.0164 98.1125 72.941 98.1244 71.9814 98.2077C72.0102 97.8357 72.0379 97.4784 72.0628 97.1619C72.0993 96.6993 72.1317 96.3003 72.1575 96.0076C72.1591 95.9894 72.1607 95.9717 72.1622 95.9546ZM72.1949 95.6205C72.1964 95.6081 72.1972 95.6026 72.1972 95.603C72.1972 95.6034 72.1965 95.6096 72.1949 95.6205ZM81.0402 92.5863C82.4801 93.6671 83.6782 95.4486 83.3022 97.7872C83.225 98.2666 82.9884 99.1086 82.7849 99.8207C82.6824 100.179 82.578 100.539 82.4752 100.893C82.3414 101.354 82.2104 101.805 82.09 102.232C81.5327 104.209 79.3472 105.216 77.4899 104.393C76.4433 103.93 75.0046 103.357 74.0939 103.189C73.2761 103.038 71.9595 103.179 70.8612 103.386C68.7791 103.779 66.6809 102.123 66.8633 99.8205C66.9052 99.291 66.9478 98.7391 66.9898 98.194C67.0274 97.7073 67.0645 97.2259 67.1004 96.7705C67.1371 96.3058 67.171 95.8874 67.199 95.5702C67.2128 95.4129 67.2262 95.27 67.2383 95.1546C67.2385 95.1524 67.2389 95.1493 67.2393 95.1454C67.2449 95.0899 67.2678 94.8621 67.3148 94.6627C67.8379 92.444 69.7836 91.4174 71.2435 90.9918C72.8041 90.5369 74.6102 90.4937 76.2603 90.7394C77.897 90.9831 79.6646 91.5538 81.0402 92.5863Z" fill="#4D6296"/>
<path d="M46.0708 101.323L43.2834 116.248C43.1979 116.705 43.5052 117.143 43.9643 117.219L56.3355 119.252C56.7768 119.325 57.1962 119.034 57.2837 118.596L59.973 105.118C60.5112 101.571 59.899 99.3106 54.3419 98.0958C48.7847 96.881 46.5019 99.5537 46.0708 101.323Z" fill="#94A1C0"/>
<path fill-rule="evenodd" clip-rule="evenodd" d="M48.5006 101.869L46.0412 115.037L55.1566 116.536L57.5205 104.69C57.7629 103.054 57.5972 102.447 57.3779 102.121C57.1465 101.777 56.405 101.094 53.8103 100.527C51.4778 100.017 50.1681 100.388 49.4985 100.762C48.839 101.131 48.5757 101.621 48.5006 101.869ZM47.0695 96.4175C49.0384 95.3168 51.6487 94.959 54.8733 95.6639C57.8357 96.3115 60.1789 97.3662 61.5084 99.3429C62.8474 101.334 62.7175 103.621 62.4337 105.491L62.4251 105.548L59.7244 119.083C59.3743 120.837 57.6969 121.998 55.9317 121.708L43.5606 119.674C41.7242 119.372 40.495 117.62 40.8367 115.79L43.6365 100.8L43.6525 100.734C44.0276 99.1945 45.1308 97.5014 47.0695 96.4175Z" fill="#4D6296"/>
<path d="M66.9468 103.424L64.1593 118.349C64.0739 118.806 64.3812 119.244 64.8403 119.32L77.2115 121.353C77.6528 121.426 78.0721 121.136 78.1596 120.697L80.849 107.219C81.3872 103.672 80.775 101.412 75.2178 100.197C69.6607 98.9821 67.3779 101.655 66.9468 103.424Z" fill="#94A1C0"/>
<path fill-rule="evenodd" clip-rule="evenodd" d="M69.3766 103.971L66.9172 117.138L76.0326 118.637L78.3965 106.791C78.6389 105.155 78.4732 104.548 78.2538 104.222C78.0224 103.878 77.281 103.195 74.6863 102.628C72.3537 102.118 71.0441 102.489 70.3745 102.864C69.715 103.232 69.4517 103.722 69.3766 103.971ZM67.9455 98.5186C69.9144 97.4179 72.5246 97.0601 75.7493 97.765C78.7117 98.4126 81.0549 99.4673 82.3844 101.444C83.7234 103.435 83.5935 105.722 83.3097 107.592L83.3011 107.649L80.6004 121.184C80.2503 122.938 78.5728 124.099 76.8077 123.809L64.4365 121.775C62.6002 121.473 61.371 119.721 61.7127 117.891L64.5125 102.901L64.5285 102.835C64.9035 101.296 66.0067 99.6025 67.9455 98.5186Z" fill="#4D6296"/>
<path d="M57.1705 118.855C56.9408 120.663 53.6017 121.729 49.7125 121.235C45.8232 120.741 42.8565 118.874 43.0861 117.066C43.3158 115.258 46.6548 114.193 50.5441 114.687C54.4334 115.181 57.4001 117.047 57.1705 118.855Z" fill="#94A1C0"/>
<path fill-rule="evenodd" clip-rule="evenodd" d="M45.4131 117.761C45.4119 117.761 45.4181 117.752 45.435 117.738C45.4226 117.754 45.4142 117.762 45.4131 117.761ZM46.033 117.44C46.0844 117.422 46.1398 117.403 46.1994 117.384C47.1319 117.086 48.5624 116.944 50.2307 117.156C51.8989 117.367 53.2483 117.863 54.0768 118.385C54.1298 118.418 54.1787 118.45 54.2239 118.48C54.1725 118.499 54.1171 118.518 54.0575 118.537C53.125 118.834 51.6945 118.977 50.0263 118.765C48.358 118.553 47.0086 118.057 46.1801 117.536C46.1272 117.503 46.0782 117.471 46.033 117.44ZM54.7439 118.946C54.7427 118.947 54.7364 118.937 54.7286 118.918C54.7412 118.937 54.7451 118.946 54.7439 118.946ZM54.8219 118.183C54.8343 118.166 54.8428 118.159 54.8439 118.159C54.845 118.16 54.8388 118.168 54.8219 118.183ZM45.5284 117.003C45.5158 116.984 45.5118 116.974 45.513 116.974C45.5142 116.974 45.5205 116.983 45.5284 117.003ZM44.6865 112.642C46.4532 112.078 48.6369 111.935 50.8579 112.217C53.079 112.499 55.1576 113.184 56.7273 114.171C58.1054 115.038 59.9494 116.73 59.6397 119.168C59.33 121.607 57.1216 122.784 55.5705 123.279C53.8037 123.843 51.6201 123.985 49.399 123.703C47.178 123.421 45.0994 122.737 43.5296 121.749C42.1515 120.883 40.3075 119.19 40.6172 116.752C40.9269 114.314 43.1354 113.137 44.6865 112.642Z" fill="#4D6296"/>
<path d="M77.9691 121.326C77.7395 123.134 74.4285 124.075 70.5392 123.581C66.65 123.087 63.7434 121.092 63.973 119.284C64.2027 117.476 67.4708 116.212 71.3601 116.706C75.2494 117.2 78.1988 119.518 77.9691 121.326Z" fill="#94A1C0"/>
<path fill-rule="evenodd" clip-rule="evenodd" d="M66.3441 119.901C66.3438 119.901 66.3464 119.897 66.3531 119.89C66.3478 119.898 66.3444 119.901 66.3441 119.901ZM66.7728 119.623C66.872 119.576 66.9927 119.525 67.1387 119.473C68.0388 119.148 69.4224 118.968 71.0467 119.175C72.612 119.374 73.919 119.936 74.7475 120.537C74.9053 120.652 75.0354 120.76 75.1411 120.858C75.0744 120.882 74.9998 120.906 74.9168 120.931C73.9877 121.207 72.5506 121.327 70.853 121.112C69.2162 120.904 67.8978 120.389 67.0887 119.852C66.9615 119.767 66.8575 119.691 66.7728 119.623ZM75.5215 121.32C75.5214 121.32 75.5204 121.318 75.5189 121.314C75.5208 121.318 75.5216 121.32 75.5215 121.32ZM75.6386 120.623C75.6558 120.601 75.668 120.592 75.6698 120.592C75.6715 120.593 75.6629 120.604 75.6386 120.623ZM66.4249 119.267C66.4183 119.255 66.4161 119.249 66.4167 119.249C66.4172 119.249 66.4205 119.255 66.4249 119.267ZM65.4501 114.79C67.2137 114.154 69.4088 113.949 71.6739 114.237C73.9979 114.532 76.1102 115.375 77.6713 116.508C78.4508 117.074 79.1656 117.765 79.6802 118.574C80.1914 119.377 80.5904 120.442 80.4384 121.639C80.1244 124.111 77.878 125.243 76.3367 125.702C74.5806 126.224 72.4175 126.328 70.2258 126.05C67.9734 125.764 65.8938 125.034 64.3347 123.998C62.9537 123.081 61.2013 121.354 61.5041 118.97C61.8028 116.619 63.8747 115.358 65.4501 114.79Z" fill="#4D6296"/>
<path fill-rule="evenodd" clip-rule="evenodd" d="M88.0018 86.3877C88.8675 87.1379 88.9612 88.4478 88.211 89.3135C88.104 89.4369 87.9992 89.558 87.8963 89.6767C85.7055 92.2064 84.3987 93.7152 81.8558 96.0772C81.0165 96.8568 79.7042 96.8084 78.9246 95.9692C78.145 95.1299 78.1934 93.8175 79.0327 93.0379C81.4088 90.8308 82.5881 89.4693 84.7833 86.9349C84.8789 86.8245 84.9764 86.712 85.076 86.597C85.8262 85.7313 87.1361 85.6376 88.0018 86.3877Z" fill="#4D6296"/>
<path fill-rule="evenodd" clip-rule="evenodd" d="M47.1766 79.7918C48.2584 79.4153 49.4406 79.9871 49.8171 81.069C51.5535 86.0586 52.6566 88.6735 53.3426 90.0821C53.8442 91.112 53.4159 92.3534 52.386 92.8549C51.3561 93.3565 50.1147 92.9282 49.6132 91.8983C48.8234 90.2766 47.6583 87.4868 45.8994 82.4324C45.5229 81.3505 46.0947 80.1683 47.1766 79.7918Z" fill="#4D6296"/>
<path d="M14.0891 51.0003C24.4696 37.7403 44.474 36.528 38.8671 58.123L23.1758 91.2718C8.96531 81.3471 6.36481 60.4067 14.0891 51.0003Z" fill="#F8F3DA"/>
<path fill-rule="evenodd" clip-rule="evenodd" d="M21.4349 93.7236C20.1218 95.0022 18.0208 94.9741 16.7422 93.661C2.95724 79.5027 5.46189 62.1438 11.3295 51.7756C17.1378 41.512 27.8009 37.0912 35.2945 39.6321C39.3308 41.0007 42.2013 44.4113 42.2666 49.2935C42.3271 53.8216 39.9754 59.1305 35.1899 64.9895C34.0305 66.409 31.94 66.6199 30.5205 65.4605C29.101 64.3011 28.8902 62.2105 30.0496 60.791C34.4198 55.4404 35.6602 51.6367 35.6301 49.3822C35.6047 47.4817 34.7018 46.4394 33.1632 45.9177C29.5067 44.6778 21.813 46.7265 17.1057 55.0445C12.2432 63.6367 10.3418 77.5731 21.4976 89.0309C22.7762 90.3441 22.7481 92.4451 21.4349 93.7236Z" fill="#4D6296"/>
</g>
<defs>
<clipPath id="clip0_1142_15567">
<rect width="160" height="160" fill="white"/>
</clipPath>
</defs>
</svg>
