<svg width="180" height="180" viewBox="0 0 180 180" fill="none" xmlns="http://www.w3.org/2000/svg">
<g clip-path="url(#clip0_252_2649)">
<path d="M126.276 44.6355C144.319 45.8996 151.717 67.0542 156.599 84.8106C166.592 121.161 149.131 165.324 86.8949 165.324C53.2149 163.742 34.1777 153.283 24.6063 122.129C11.3114 78.8564 39.0383 47.292 57.5467 39.2109C61.4532 37.5053 65.9519 35.8809 70.9375 34.6811C90.6469 29.9375 88.5675 41.9936 126.276 44.6355Z" fill="#F8F3DA"/>
<path fill-rule="evenodd" clip-rule="evenodd" d="M93.347 33.4658C99.7611 36.1167 108.268 39.6323 126.537 40.9122C137.22 41.6607 144.496 48.3613 149.553 56.5835C154.572 64.7431 157.754 74.9285 160.199 83.8219C165.427 102.839 163.55 124.165 151.893 140.839C140.148 157.638 118.944 169.059 86.8951 169.059H86.8075L86.7199 169.054C69.5964 168.25 55.6335 165.177 44.6541 157.933C33.5735 150.623 26.0013 139.382 21.0378 123.227C7.07782 77.789 36.1631 44.4748 56.053 35.7904C60.1244 34.0128 64.8316 32.3116 70.0641 31.0523C75.3475 29.7807 79.4214 29.5783 83.184 30.1779C86.7797 30.7508 89.8941 32.0384 93.0811 33.3559L93.347 33.4658ZM82.009 37.5515C79.4398 37.1421 76.3826 37.2115 71.8113 38.3117C67.0726 39.4522 62.7823 40.9997 59.0408 42.6333C41.914 50.1112 15.5455 79.9257 28.1752 121.034C32.7831 136.032 39.5152 145.598 48.766 151.701C58.1017 157.86 70.47 160.808 86.9825 161.592C117.119 161.571 135.736 150.917 145.773 136.561C155.907 122.065 157.764 103.135 152.999 85.8011C150.563 76.9382 147.605 67.6681 143.193 60.4953C138.82 53.385 133.374 48.8763 126.015 48.3607C106.636 47.003 97.3244 43.1888 90.4313 40.34C87.0317 38.935 84.6691 37.9754 82.009 37.5515Z" fill="#4D6296"/>
<path d="M119.582 91.1846C119.582 93.5997 115.881 96.5486 110.542 96.3808C104.689 96.1969 100.829 94.4268 100.829 91.1846C100.829 88.2658 106.134 85.9209 110.542 85.9209C114.95 85.9209 119.582 87.9209 119.582 91.1846Z" fill="#F5CCBB"/>
<path d="M55.4802 85.9123C54.3921 89.4119 49.0471 90.0262 45.5563 88.7981C41.7296 87.4518 39.4963 84.9375 40.6287 81.2948C41.4631 78.6106 45.2086 77.5044 49.3837 78.8025C52.2986 79.7088 56.4936 82.6531 55.4802 85.9123Z" fill="#F5CCBB"/>
<path fill-rule="evenodd" clip-rule="evenodd" d="M54.9624 162.25C55.8324 161.541 57.4038 161.741 58.5073 161.266L62.2765 163.705L62.2736 163.816C62.1411 168.928 57.7679 173.421 53.6069 171.097C50.1164 169.021 51.7868 164.544 54.9624 162.25Z" fill="#4D6296"/>
<path fill-rule="evenodd" clip-rule="evenodd" d="M64.6101 174.168C59.4192 173.816 58.4867 168.428 60.8803 163.809L65.3421 163.31L65.4106 163.398C66.322 164.573 68.4141 165.599 68.8565 166.975C69.3473 169.955 69.6678 174.168 64.6101 174.168Z" fill="#4D6296"/>
<path fill-rule="evenodd" clip-rule="evenodd" d="M97.8474 169.561C98.0739 168.562 101.051 163.656 101.576 162.694L105.658 162.328L105.718 162.41C107.852 165.288 107.748 170.72 105.994 173.578C105.218 174.843 104.151 175.418 102.952 175.587C101.067 175.853 99.373 174.665 98.6093 173.578C97.898 172.566 97.482 171.172 97.8474 169.561Z" fill="#4D6296"/>
<path fill-rule="evenodd" clip-rule="evenodd" d="M114.625 172.4C112.83 173.935 109.598 173.703 107.684 171.639C104.853 168.587 103.145 166.163 102.609 163.309L106.051 160.098L106.149 160.123C107.465 160.455 110.248 162.348 113.087 163.886C116.614 165.797 117.132 170.255 114.625 172.4Z" fill="#4D6296"/>
<path d="M83.4022 70.8497C82.2007 69.2352 80.5387 68.0449 78.9345 67.7386C77.9656 67.5537 77.0999 67.5233 76.1933 67.7111C75.2922 67.8977 74.3822 68.2933 73.3173 68.9152C72.4877 69.3998 71.6025 70.2391 70.7485 71.2208C69.8877 72.2103 69.0304 73.3775 68.2591 74.5529C67.4876 75.7286 66.9756 76.4936 66.4481 77.5381C65.9296 78.565 65.5424 79.5008 65.4195 80.1447C64.935 82.6823 66.3139 84.3571 67.7488 85.0751C69.0975 85.7499 74.9617 87.3693 82.5095 87.932L82.5683 87.9364C83.2479 87.9879 84.4948 88.0822 85.5375 87.329C86.6631 86.5159 87.3653 84.8799 87.2445 81.9105C87.1298 79.0905 86.4033 77.2901 85.567 75.1484C84.7334 73.014 83.8218 71.4135 83.4022 70.8497Z" fill="#4D6296"/>
<path d="M109.152 75.9769C108.596 80.848 105.271 83.8525 100.966 83.3612C96.0563 82.8009 92.4865 80.6993 93.2328 74.1602C93.9046 68.2732 99.1024 64.0755 102.793 64.4967C106.484 64.918 109.903 69.3945 109.152 75.9769Z" fill="#4D6296"/>
<path d="M64.6856 69.7795C62.8457 76.2385 57.8149 76.5523 54.5746 75.3695C51.0225 74.0729 48.8548 72.5386 50.7697 65.8155C52.1808 60.8615 56.1757 57.8679 60.0878 58.9823C62.819 59.7603 66.3991 63.7642 64.6856 69.7795Z" fill="#4D6296"/>
<path d="M157.963 133.872C146.787 135.704 127.372 130.977 123.525 122.183L157.963 94.6768C170.788 115.013 169.139 132.04 157.963 133.872Z" fill="#F8F3DA"/>
<path fill-rule="evenodd" clip-rule="evenodd" d="M156.83 93.2723C158.575 92.1724 160.88 92.6946 161.98 94.4387C168.787 105.232 170.631 115.408 168.945 123.625C167.265 131.814 162.032 138.003 155.107 140.124C144.866 143.258 131.352 137.979 123.505 124.564C122.464 122.785 123.063 120.498 124.843 119.457C126.622 118.416 128.909 119.015 129.95 120.795C136.44 131.891 146.679 134.895 152.921 132.984C156.825 131.789 160.408 128.085 161.631 122.125C162.848 116.193 161.682 107.964 155.664 98.4216C154.564 96.6775 155.086 94.3721 156.83 93.2723Z" fill="#4D6296"/>
<path d="M174.16 77.2633C170.957 72.6375 162.603 75.8708 158.139 76.7305C158.139 76.7305 159.226 80.3093 159.942 82.9117C160.575 85.2129 161.253 89.529 161.253 89.529C174.896 89.4846 178.163 83.0454 174.16 77.2633Z" fill="#B2A879"/>
<path d="M12.3784 63.7312L23.0363 52.5782C18.3268 48.6127 14.3611 47.8691 10.5196 50.8429C6.0707 54.2868 9.19956 60.4809 12.3784 63.7312Z" fill="#B2A879"/>
<path d="M101.095 14.8516C71.9503 7.67504 50.5961 22.7471 46.195 35.4386L143.245 55.3501C143.245 27.1261 130.241 22.0281 101.095 14.8516Z" fill="#EDE1A2"/>
<path fill-rule="evenodd" clip-rule="evenodd" d="M99.1619 14.916C73.1966 12.13 54.9452 22.5198 48.2497 36.1669C47.3415 38.0179 45.1046 38.7823 43.2535 37.8741C41.4024 36.9659 40.6381 34.7291 41.5463 32.878C50.0075 15.6323 71.8365 4.47453 99.9585 7.49195C101.181 7.62316 102.384 7.87532 103.527 8.21558C114.59 11.5078 123.379 15.1681 130.527 21.8507C137.682 28.5397 142.832 37.9109 147.408 51.9145C148.048 53.8744 146.979 55.9823 145.019 56.6228C143.059 57.2632 140.951 56.1936 140.311 54.2337C135.92 40.7969 131.277 32.7733 125.428 27.305C119.572 21.8302 112.146 18.5705 101.397 15.3721C100.653 15.1507 99.8973 14.9949 99.1619 14.916Z" fill="#4D6296"/>
<path d="M48.5286 34.4237C19.042 35.0494 16.689 35.7528 16.2749 46.3747L33.2186 49.706L50.3321 51.4609L73.9726 49.5734L99.888 56.6359L126.488 57.4496L144.977 69.3426L171.492 72.3746L177.302 80.8236C178.696 65.3867 159.851 57.3432 153.128 55.6997C146.406 54.0563 143.347 52.1233 139.341 49.3607C127.547 41.6829 118.553 41.4346 111.781 41.4011C105.008 41.3676 102.063 40.378 97.7637 38.678C69.8077 28.0455 67.5041 32.3755 48.5286 34.4237Z" fill="#EDE1A2"/>
<path fill-rule="evenodd" clip-rule="evenodd" d="M59.1651 38.5605C56.2889 39.0275 52.968 39.5667 48.9351 40.002L48.7748 40.0193L48.6137 40.0227C34.102 40.3306 24.4669 42.4616 18.5411 45.4959C12.7982 48.4366 10.8226 52.0272 10.6794 55.6982C10.5991 57.7585 8.86378 59.3636 6.80347 59.2833C4.74315 59.203 3.13806 57.4676 3.21839 55.4073C3.4894 48.4565 7.56322 42.7286 15.1379 38.8499C22.5029 35.0786 33.4007 32.8914 48.2921 32.5613C52.0371 32.1524 55.0937 31.6565 57.9225 31.1975C58.5291 31.0991 59.1252 31.0024 59.7154 30.9086C63.0694 30.3756 66.2502 29.9339 69.7788 29.9287C76.9047 29.9183 84.9773 31.685 99.0968 37.055L99.1197 37.0637L99.1425 37.0727C103.134 38.6513 105.613 39.5037 111.805 39.5343C118.888 39.5693 128.721 39.8548 141.383 48.0985L141.425 48.1256L141.466 48.1539C145.256 50.7676 147.894 52.4418 154.021 53.9397C157.83 54.8711 164.279 57.4429 169.788 61.9711C175.348 66.5416 180.304 73.4344 179.969 82.8511C179.896 84.9117 178.166 86.5227 176.106 86.4495C174.045 86.3763 172.434 84.6465 172.507 82.5859C172.732 76.2596 169.497 71.398 165.046 67.7391C160.543 64.0378 155.16 61.9049 152.248 61.1928C144.954 59.4096 141.472 57.2265 137.269 54.3294C126.365 47.2435 118.223 47.0328 111.768 47.0009C104.427 46.9646 101.014 45.8415 96.4197 44.0253C82.5981 38.77 75.5455 37.387 69.7898 37.3954C66.8761 37.3997 64.1759 37.7601 60.8874 38.2827C60.3306 38.3712 59.7573 38.4643 59.1651 38.5605Z" fill="#4D6296"/>
<path fill-rule="evenodd" clip-rule="evenodd" d="M15.7743 51.7807C12.7516 51.3665 10.629 53.2942 10.6364 55.5835C10.6425 57.4317 11.8461 60.9042 14.8765 64.7996C16.1425 66.427 15.8495 68.7726 14.2221 70.0387C12.5947 71.3047 10.2491 71.0117 8.98306 69.3843C5.4622 64.8584 3.18338 59.7963 3.16976 55.6078C3.14391 47.6638 10.4548 43.5152 16.788 44.3831C20.1207 44.8398 22.9018 45.9287 24.9097 46.8262C25.4112 47.0504 25.8711 47.2658 26.2696 47.4532C26.3072 47.4709 26.3441 47.4883 26.3803 47.5053C26.7401 47.6745 27.0279 47.8099 27.2839 47.9245C27.3417 47.9504 27.3941 47.9734 27.4415 47.994C27.6064 47.9599 27.7936 47.9195 28.0165 47.8714C28.1197 47.8492 28.2305 47.8253 28.3504 47.7996C29.2806 47.6001 30.5469 47.3374 31.9442 47.1585C34.5601 46.8235 38.4606 46.6564 41.7361 48.5139C44.1603 49.8887 45.9776 50.7603 47.7055 51.1579C49.3094 51.527 50.9762 51.5163 53.109 50.8025C53.4067 50.7029 53.7289 50.5931 54.074 50.4754C59.7491 48.5408 71.6286 44.4912 82.7833 48.9538C93.2221 53.13 98.197 54.5836 102.017 54.5712C103.068 54.5678 104.515 54.5094 106.272 54.4386L106.414 54.4329C108.198 54.361 110.237 54.2804 112.281 54.2494C114.321 54.2185 116.426 54.2358 118.352 54.3678C120.22 54.496 122.167 54.7462 123.772 55.2848C129.571 57.2313 132.352 58.5034 136.413 61.8041C136.78 62.1024 137.156 62.4119 137.541 62.7287C139.156 64.0598 140.926 65.5186 142.867 66.8115C145.302 68.434 147.511 69.4431 149.352 69.6111C150.214 69.6899 151.469 69.7036 153.144 69.7218C153.807 69.729 154.535 69.737 155.331 69.7499C157.984 69.7931 161.143 69.8963 164.237 70.2829C167.285 70.6639 170.543 71.3503 173.279 72.7033C176.062 74.0803 178.694 76.3637 179.554 80.0228C180.057 82.1678 180.09 84.4052 179.391 86.5659C178.686 88.7486 177.313 90.605 175.409 92.0776C171.731 94.9217 166.078 96.35 158.766 96.5917C156.705 96.6598 154.98 95.0445 154.912 92.9837C154.843 90.923 156.459 89.1972 158.52 89.1291C165.27 88.9059 169.016 87.5825 170.841 86.171C171.688 85.5158 172.093 84.8683 172.287 84.269C172.488 83.6477 172.542 82.825 172.285 81.7296C172.109 80.9813 171.555 80.1811 169.968 79.3959C168.332 78.5868 166.035 78.0325 163.311 77.6919C160.631 77.357 157.798 77.2578 155.209 77.2156C154.608 77.2058 154.001 77.1994 153.404 77.193C151.584 77.1736 149.858 77.1552 148.673 77.0469C144.955 76.7075 141.482 74.8608 138.727 73.0254C136.436 71.4988 134.301 69.7371 132.681 68.4005C132.33 68.1109 132.003 67.8413 131.704 67.5983C128.588 65.066 126.719 64.1501 121.396 62.3634C120.711 62.1336 119.528 61.9328 117.841 61.817C116.211 61.7052 114.339 61.6858 112.395 61.7152C110.456 61.7446 108.506 61.8213 106.714 61.8935L106.469 61.9034C104.805 61.9706 103.235 62.034 102.042 62.0378C96.5378 62.0558 90.2303 59.9751 80.0098 55.8863C71.5175 52.4888 62.0879 55.6605 56.1612 57.654C55.9281 57.7324 55.7005 57.809 55.4786 57.8833C52.0751 59.0222 49.0093 59.1198 46.0311 58.4345C43.177 57.7777 40.5627 56.4323 38.0528 55.0089C37.0075 54.4161 35.2135 54.2675 32.8926 54.5647C31.8216 54.7019 30.809 54.9087 29.9162 55.1002C29.8265 55.1195 29.7351 55.1392 29.6432 55.159C29.3053 55.2319 28.9608 55.3063 28.6707 55.3631L28.6684 55.3635C28.3838 55.4192 27.7964 55.5342 27.228 55.536C26.4478 55.5386 25.7799 55.336 25.4194 55.215C25.003 55.0751 24.5891 54.8988 24.2337 54.7397C23.909 54.5944 23.5541 54.4274 23.2102 54.2656C23.1707 54.247 23.1313 54.2285 23.0922 54.2101C22.6984 54.0249 22.2939 53.8356 21.8626 53.6429C20.1396 52.8727 18.0982 52.0991 15.7743 51.7807ZM27.7962 48.1367C27.7958 48.1365 27.7954 48.1364 27.795 48.1363C27.8373 48.1476 27.8404 48.1515 27.7962 48.1367Z" fill="#4D6296"/>
<path d="M72.5211 134.415C73.4004 130.697 74.9114 121.876 75.546 117.976C74.2213 116.814 73.5837 116.303 72.6338 116.141C71.3509 115.922 70.1902 116.215 68.9013 116.88L65.4112 133.04C65.4112 133.04 66.7669 132.29 69.102 132.627C71.4371 132.963 72.5211 134.415 72.5211 134.415Z" fill="#94A1C0"/>
<path fill-rule="evenodd" clip-rule="evenodd" d="M71.3243 118.925L68.9771 129.793C69.1481 129.809 69.3228 129.83 69.5011 129.856C69.8778 129.91 70.2337 129.985 70.569 130.076C71.2429 126.601 72.0136 122.153 72.5225 119.101C72.4812 119.072 72.4426 119.045 72.4057 119.02C72.2448 118.914 72.2006 118.908 72.1704 118.903C72.1676 118.903 72.165 118.902 72.1625 118.902C71.9112 118.859 71.6487 118.854 71.3243 118.925ZM67.6171 114.393C69.2408 113.555 71.0293 113.028 73.1046 113.382C74.9076 113.69 76.1079 114.744 77.2811 115.774C77.3181 115.807 77.3552 115.839 77.3922 115.871L78.5586 116.895L78.3094 118.426C77.6788 122.302 76.1523 131.227 75.2457 135.06L73.8657 140.895L70.3212 136.149C70.3187 136.147 70.3158 136.144 70.3125 136.14C70.2722 136.099 70.1853 136.017 70.052 135.921C69.7907 135.733 69.3518 135.493 68.7024 135.399C67.9092 135.285 67.3361 135.361 67.0096 135.436C66.8458 135.474 66.7395 135.513 66.6954 135.53L61.373 138.474L66.443 114.999L67.6171 114.393Z" fill="#4D6296"/>
<path d="M55.3476 108.155C55.2954 108.377 55.251 111.644 55.1017 113.842C55.06 114.457 55.5939 114.981 56.2079 114.926C57.4762 114.811 59.4857 114.705 60.9977 114.985C62.3555 115.236 64.1187 115.985 65.2278 116.499C65.7749 116.753 66.4465 116.458 66.6539 115.892C67.2975 114.135 68.4422 111.592 68.5499 110.922C69.2794 106.386 56.1588 104.715 55.3476 108.155Z" fill="#94A1C0"/>
<path fill-rule="evenodd" clip-rule="evenodd" d="M58.0927 109.314C58.0869 109.488 58.0808 109.68 58.0742 109.887C58.0695 110.033 58.0646 110.188 58.0594 110.349C58.0428 110.859 58.0234 111.433 57.9997 112.016C59.1158 111.987 60.3835 112.024 61.5067 112.232C62.5475 112.424 63.6981 112.82 64.6918 113.217C64.7895 112.976 64.8867 112.737 64.9803 112.507C65.0591 112.314 65.1354 112.126 65.2072 111.949C65.3964 111.481 65.555 111.082 65.6708 110.767C65.6829 110.734 65.6939 110.704 65.704 110.676C65.6342 110.616 65.5315 110.537 65.383 110.44C64.6749 109.98 63.4845 109.549 62.0608 109.309C60.6509 109.071 59.3063 109.071 58.3838 109.248C58.2724 109.27 58.1758 109.292 58.0927 109.314ZM65.8384 110.826C65.835 110.826 65.8215 110.81 65.8078 110.778C65.8349 110.809 65.8417 110.826 65.8384 110.826ZM68.4343 105.745C69.9569 106.734 71.7567 108.615 71.3142 111.367C71.2374 111.845 71.0453 112.378 70.9262 112.702C70.7769 113.107 70.589 113.579 70.3982 114.05C70.3143 114.257 70.2295 114.465 70.1452 114.672C69.8297 115.447 69.52 116.208 69.2829 116.855C68.5382 118.889 66.1505 120.015 64.0488 119.04C62.9371 118.524 61.4611 117.918 60.4882 117.738C59.3862 117.535 57.7122 117.601 56.4603 117.715C54.1228 117.926 52.15 115.978 52.3079 113.653C52.3787 112.61 52.4259 111.291 52.4623 110.167C52.4672 110.016 52.4719 109.868 52.4765 109.725C52.4886 109.346 52.4996 109.001 52.5099 108.724C52.5169 108.534 52.5244 108.358 52.5324 108.215C52.5325 108.215 52.5325 108.215 52.5325 108.215C52.533 108.201 52.5467 107.833 52.6221 107.513C52.9394 106.168 53.8277 105.273 54.6824 104.733C55.5149 104.207 56.4596 103.916 57.3263 103.749C59.0694 103.414 61.1113 103.47 62.9918 103.787C64.8585 104.101 66.8621 104.723 68.4343 105.745Z" fill="#4D6296"/>
<path d="M78.4544 111.161C78.4026 111.38 78.1865 114.345 78.0124 116.542C77.9614 117.186 78.5648 117.7 79.2 117.581C80.4585 117.343 82.3897 117.084 83.8648 117.357C85.2529 117.614 87.1479 118.39 88.31 118.905C88.8528 119.145 89.4951 118.846 89.6562 118.274C90.13 116.594 90.8431 114.256 90.9504 113.589C91.7937 108.345 79.4191 107.069 78.4544 111.161Z" fill="#94A1C0"/>
<path fill-rule="evenodd" clip-rule="evenodd" d="M81.0561 112.062C81.0549 112.062 81.0614 112.054 81.0792 112.039C81.0662 112.056 81.0573 112.063 81.0561 112.062ZM81.1828 111.972C81.2816 111.917 81.4481 111.843 81.7164 111.765C82.5259 111.529 83.7159 111.457 84.9683 111.644C86.2358 111.833 87.2431 112.237 87.8088 112.661C88.0747 112.861 88.1612 113.003 88.1819 113.045C88.1826 113.046 88.1833 113.048 88.184 113.049C88.1898 113.059 88.1977 113.073 88.1862 113.145C88.1865 113.143 88.1866 113.142 88.1866 113.142C88.1865 113.142 88.1794 113.181 88.1575 113.275C88.1346 113.372 88.103 113.498 88.0622 113.653C87.9804 113.964 87.8727 114.349 87.7488 114.783C87.6803 115.022 87.6051 115.283 87.5272 115.552C86.5196 115.167 85.378 114.79 84.3744 114.604C83.2687 114.4 82.0589 114.413 80.9794 114.507C81.0117 114.088 81.0429 113.686 81.071 113.33C81.112 112.81 81.1485 112.361 81.1775 112.032C81.1793 112.011 81.1811 111.991 81.1828 111.972ZM81.2196 111.596C81.2213 111.582 81.2222 111.576 81.2222 111.577C81.2222 111.577 81.2214 111.584 81.2196 111.596ZM91.1705 108.183C92.7905 109.399 94.1383 111.403 93.7152 114.034C93.6285 114.573 93.3622 115.52 93.1333 116.321C93.018 116.725 92.9005 117.129 92.7849 117.528C92.6344 118.046 92.487 118.554 92.3515 119.035C91.7246 121.258 89.2658 122.391 87.1764 121.465C85.999 120.944 84.3805 120.3 83.356 120.111C82.4359 119.941 80.9547 120.1 79.7192 120.333C77.3768 120.774 75.0163 118.911 75.2215 116.321C75.2687 115.725 75.3166 115.105 75.3639 114.491C75.4061 113.944 75.4479 113.402 75.4883 112.89C75.5295 112.367 75.5677 111.896 75.5991 111.54C75.6148 111.363 75.6297 111.202 75.6434 111.072C75.6437 111.07 75.644 111.066 75.6445 111.062C75.6508 110.999 75.6766 110.743 75.7295 110.519C76.318 108.023 78.5069 106.868 80.1492 106.389C81.9049 105.877 83.9368 105.828 85.7931 106.105C87.6345 106.379 89.623 107.021 91.1705 108.183Z" fill="#4D6296"/>
<path d="M51.8298 118.011L48.6939 134.801C48.5978 135.315 48.9435 135.808 49.46 135.893L63.3776 138.181C63.874 138.263 64.3458 137.936 64.4442 137.443L67.4698 122.281C68.0752 118.29 67.3865 115.747 61.1347 114.38C54.8829 113.013 52.3148 116.02 51.8298 118.011Z" fill="#94A1C0"/>
<path fill-rule="evenodd" clip-rule="evenodd" d="M54.5633 118.625L51.7965 133.439L62.0513 135.124L64.7107 121.798C64.9834 119.958 64.797 119.275 64.5502 118.908C64.2899 118.521 63.4558 117.753 60.5367 117.115C57.9126 116.541 56.4392 116.958 55.686 117.38C54.944 117.794 54.6478 118.346 54.5633 118.625ZM52.9533 112.492C55.1683 111.253 58.1049 110.851 61.7326 111.644C65.0653 112.372 67.7014 113.559 69.197 115.783C70.7034 118.022 70.5573 120.595 70.2381 122.699L70.2283 122.764L67.1901 137.99C66.7962 139.963 64.9091 141.269 62.9233 140.943L49.0057 138.655C46.9399 138.316 45.557 136.344 45.9414 134.286L49.0912 117.421L49.1092 117.347C49.5311 115.616 50.7722 113.711 52.9533 112.492Z" fill="#4D6296"/>
<path d="M75.3151 120.375L72.1792 137.165C72.0832 137.68 72.4289 138.173 72.9453 138.258L86.8629 140.545C87.3593 140.627 87.8311 140.3 87.9296 139.807L90.9551 124.645C91.5605 120.654 90.8719 118.111 84.6201 116.744C78.3683 115.378 75.8001 118.384 75.3151 120.375Z" fill="#94A1C0"/>
<path fill-rule="evenodd" clip-rule="evenodd" d="M78.0487 120.989L75.2819 135.803L85.5368 137.489L88.1961 124.162C88.4688 122.322 88.2824 121.639 88.0356 121.272C87.7753 120.885 86.9412 120.117 84.0221 119.479C81.398 118.905 79.9246 119.323 79.1714 119.744C78.4295 120.159 78.1332 120.71 78.0487 120.989ZM76.4387 114.856C78.6537 113.618 81.5903 113.215 85.218 114.008C88.5507 114.737 91.1868 115.923 92.6824 118.147C94.1889 120.387 94.0427 122.959 93.7235 125.064L93.7137 125.128L90.6755 140.354C90.2817 142.327 88.3945 143.634 86.4087 143.307L72.4912 141.019C70.4253 140.68 69.0424 138.708 69.4268 136.65L72.5766 119.786L72.5946 119.712C73.0165 117.98 74.2576 116.075 76.4387 114.856Z" fill="#4D6296"/>
<path d="M64.3171 137.735C64.0588 139.769 60.3023 140.967 55.9269 140.411C51.5514 139.856 48.2139 137.756 48.4723 135.722C48.7306 133.688 52.4871 132.49 56.8625 133.045C61.2379 133.601 64.5755 135.701 64.3171 137.735Z" fill="#94A1C0"/>
<path fill-rule="evenodd" clip-rule="evenodd" d="M51.0897 136.504C51.0885 136.504 51.0955 136.494 51.1145 136.477C51.1005 136.496 51.091 136.505 51.0897 136.504ZM51.7872 136.143C51.8451 136.122 51.9073 136.101 51.9744 136.08C53.0234 135.745 54.6328 135.584 56.5096 135.823C58.3863 136.061 59.9044 136.619 60.8365 137.205C60.8961 137.243 60.9511 137.279 61.0019 137.313C60.9441 137.334 60.8818 137.355 60.8148 137.376C59.7657 137.711 58.1564 137.872 56.2796 137.633C54.4028 137.395 52.8848 136.837 51.9527 136.251C51.8931 136.213 51.8381 136.177 51.7872 136.143ZM61.5869 137.837C61.5856 137.838 61.5785 137.827 61.5697 137.805C61.5839 137.826 61.5883 137.837 61.5869 137.837ZM61.6747 136.979C61.6887 136.96 61.6982 136.951 61.6994 136.952C61.7007 136.952 61.6937 136.962 61.6747 136.979ZM51.2195 135.651C51.2053 135.63 51.2009 135.619 51.2022 135.619C51.2036 135.618 51.2107 135.629 51.2195 135.651ZM50.2723 130.745C52.26 130.111 54.7165 129.95 57.2152 130.267C59.7139 130.585 62.0523 131.354 63.8183 132.465C65.3687 133.44 67.4431 135.344 67.0947 138.087C66.7463 140.83 64.2618 142.155 62.5168 142.711C60.5292 143.346 58.0726 143.506 55.574 143.189C53.0753 142.871 50.7369 142.102 48.9709 140.991C47.4205 140.016 45.346 138.112 45.6944 135.369C46.0428 132.626 48.5274 131.301 50.2723 130.745Z" fill="#4D6296"/>
<path d="M87.7156 140.514C87.4572 142.548 83.7324 143.607 79.3569 143.051C74.9815 142.496 71.7116 140.252 71.97 138.217C72.2283 136.183 75.905 134.761 80.2804 135.317C84.6558 135.873 87.9739 138.48 87.7156 140.514Z" fill="#94A1C0"/>
<path fill-rule="evenodd" clip-rule="evenodd" d="M74.6372 138.912C74.6368 138.912 74.6398 138.907 74.6473 138.899C74.6413 138.908 74.6376 138.912 74.6372 138.912ZM75.1194 138.598C75.2311 138.546 75.3668 138.489 75.5311 138.43C76.5438 138.064 78.1003 137.862 79.9275 138.094C81.6885 138.318 83.1589 138.95 84.091 139.627C84.2686 139.756 84.4148 139.878 84.5338 139.988C84.4587 140.015 84.3749 140.042 84.2814 140.07C83.2362 140.381 81.6195 140.516 79.7097 140.273C77.8682 140.039 76.3851 139.461 75.4749 138.856C75.3317 138.761 75.2148 138.675 75.1194 138.598ZM84.9617 140.508C84.9616 140.507 84.9605 140.505 84.9588 140.5C84.961 140.505 84.9618 140.508 84.9617 140.508ZM85.0934 139.723C85.1129 139.699 85.1266 139.688 85.1285 139.689C85.1305 139.69 85.1208 139.702 85.0934 139.723ZM74.7281 138.198C74.7206 138.185 74.7182 138.178 74.7188 138.178C74.7194 138.178 74.7232 138.184 74.7281 138.198ZM73.6314 133.162C75.6155 132.446 78.085 132.215 80.6332 132.539C83.2477 132.871 85.624 133.82 87.3803 135.095C88.2572 135.731 89.0614 136.509 89.6403 137.418C90.2154 138.322 90.6643 139.52 90.4932 140.867C90.14 143.648 87.6128 144.921 85.8788 145.437C83.9032 146.025 81.4697 146.142 79.0041 145.829C76.4701 145.507 74.1306 144.686 72.3766 143.521C70.8229 142.489 68.8515 140.546 69.1922 137.864C69.5282 135.219 71.8591 133.801 73.6314 133.162Z" fill="#4D6296"/>
<path fill-rule="evenodd" clip-rule="evenodd" d="M99.0023 101.209C99.9763 102.053 100.082 103.526 99.2378 104.5C99.1174 104.639 98.9995 104.775 98.8837 104.909C96.419 107.755 94.9489 109.452 92.0882 112.109C91.144 112.986 89.6676 112.932 88.7905 111.988C87.9135 111.044 87.9679 109.567 88.9121 108.69C91.5852 106.207 92.912 104.675 95.3816 101.824C95.4891 101.7 95.5988 101.573 95.7109 101.444C96.5548 100.47 98.0284 100.365 99.0023 101.209Z" fill="#4D6296"/>
<path fill-rule="evenodd" clip-rule="evenodd" d="M53.0736 93.7888C54.2907 93.3653 55.6207 94.0086 56.0443 95.2256C57.9977 100.839 59.2387 103.781 60.0105 105.365C60.5747 106.524 60.0928 107.921 58.9343 108.485C57.7757 109.049 56.379 108.567 55.8148 107.409C54.9264 105.584 53.6156 102.446 51.6368 96.7594C51.2133 95.5423 51.8566 94.2123 53.0736 93.7888Z" fill="#4D6296"/>
<path d="M15.8503 61.3998C27.5283 46.4823 50.0333 45.1185 43.7255 69.4128L26.0728 106.705C10.086 95.5398 7.16043 71.982 15.8503 61.3998Z" fill="#F8F3DA"/>
<path fill-rule="evenodd" clip-rule="evenodd" d="M24.1142 109.462C22.6369 110.901 20.2733 110.869 18.835 109.392C3.32684 93.4637 6.14457 73.9351 12.7456 62.2709C19.28 50.7244 31.276 45.751 39.7062 48.6094C44.2471 50.1491 47.4764 53.986 47.5498 59.4785C47.6179 64.5726 44.9723 70.5451 39.5886 77.1365C38.2843 78.7334 35.9324 78.9706 34.3355 77.6663C32.7386 76.362 32.5014 74.0101 33.8057 72.4132C38.7222 66.3937 40.1176 62.1146 40.0838 59.5783C40.0552 57.4402 39.0395 56.2676 37.3085 55.6807C33.195 54.2859 24.5396 56.5907 19.2439 65.9483C13.7736 75.6146 11.6345 91.2929 24.1848 104.183C25.6231 105.66 25.5916 108.024 24.1142 109.462Z" fill="#4D6296"/>
</g>
<defs>
<clipPath id="clip0_252_2649">
<rect width="180" height="180" fill="white"/>
</clipPath>
</defs>
</svg>
