<svg viewBox="0 0 24 24" fill="none" xmlns="http://www.w3.org/2000/svg">
<path fill-rule="evenodd" clip-rule="evenodd" d="M16.1836 13.1836C16.1836 15.4941 14.3105 17.3672 12 17.3672C9.68947 17.3672 7.81641 15.4941 7.81641 13.1836C7.81641 10.8731 9.68947 9 12 9C14.3105 9 16.1836 10.8731 16.1836 13.1836ZM14.1836 13.1836C14.1836 14.3896 13.206 15.3672 12 15.3672C10.794 15.3672 9.81641 14.3896 9.81641 13.1836C9.81641 11.9776 10.794 11 12 11C13.206 11 14.1836 11.9776 14.1836 13.1836Z" fill="currentColor"/>
<path fill-rule="evenodd" clip-rule="evenodd" d="M3.1657 20.4115C3.78887 20.8602 4.50664 21 5 21H19C19.4934 21 20.2111 20.8602 20.8343 20.4115C21.5085 19.9261 22 19.1259 22 18V9C22 8.50664 21.8602 7.78887 21.4115 7.1657C20.9261 6.49153 20.1259 6 19 6H17.0043L17.0002 5.99954C17 5.39659 16.8404 4.69467 16.5819 4.17779C16.4529 3.9198 16.279 3.65498 16.0495 3.44082C15.8257 3.23189 15.4684 3 15 3H9C8.5316 3 8.17435 3.23189 7.95049 3.44082C7.72104 3.65498 7.54707 3.9198 7.41807 4.17779C7.15963 4.69467 7 5.39659 6.99977 5.99954L6.99573 6H5C3.87408 6 3.07386 6.49153 2.58847 7.1657C2.13978 7.78887 2 8.50664 2 9V18C2 19.1259 2.49153 19.9261 3.1657 20.4115ZM9 6C9 6.72592 8.67513 7.27614 8.2093 7.61153C7.79446 7.91022 7.32669 8 7 8H5C4.52592 8 4.32614 8.17513 4.21153 8.3343C4.06022 8.54446 4 8.82669 4 9V18C4 18.4741 4.17513 18.6739 4.3343 18.7885C4.54447 18.9398 4.82669 19 5 19H19C19.1733 19 19.4555 18.9398 19.6657 18.7885C19.8249 18.6739 20 18.4741 20 18V9C20 8.82669 19.9398 8.54446 19.7885 8.3343C19.6739 8.17513 19.4741 8 19 8H17C16.6733 8 16.2055 7.91022 15.7907 7.61153C15.3249 7.27614 15 6.72592 15 6C15 5.6616 15 5 14.5014 5H9.49861C9 5 9 5.6616 9 6Z" fill="currentColor"/>
</svg>
