<svg viewBox="0 0 24 24" fill="currentColor" xmlns="http://www.w3.org/2000/svg">
<path d="M7.42857 4C5.53571 4 4 5.53571 4 7.42857V16.5714C4 18.4643 5.53571 20 7.42857 20H16.5714C18.4643 20 20 18.4643 20 16.5714V13.1429C20 12.5107 19.6321 12 19 12C18.3679 12 18 12.5107 18 13.1429L18 16.5C18 17.1321 17.2036 18 16.5714 18H7.42857C6.79643 18 6 17.2337 6 16.6016L6 7.5C6 6.86786 6.86786 6 7.5 6H11C11.6321 6 12 5.63214 12 5C12 4.36786 11.4893 4 10.8571 4H7.42857Z" fill="currentColor"/>
<path d="M16.4748 4.77659C17.1289 4.12263 18.1318 4.00137 18.786 4.65533L19.3445 5.21074C19.9987 5.8647 19.8768 6.86749 19.2227 7.52145L17.6584 9.16218L12.6542 14.0969C12.469 14.279 12.2449 14.4194 12 14.5L9.46937 15.4382C9.2095 15.5248 8.92573 15.4591 8.73456 15.265C8.54339 15.0709 8.47469 14.7872 8.56131 14.5304L9.5 12C9.58065 11.7522 9.72104 11.5282 9.90325 11.346L14.9036 6.35027L16.4748 4.77659Z" fill="currentColor"/>
</svg>
