<svg viewBox="0 0 24 24" fill="none" xmlns="http://www.w3.org/2000/svg">
<path fill-rule="evenodd" clip-rule="evenodd" d="M18.72 6.49488C18.72 6.49488 18.7 6.40488 18.69 6.36488C18.68 6.28488 18.67 6.20488 18.64 6.12488C18.61 6.04488 18.56 5.98488 18.51 5.91488C18.48 5.87488 18.47 5.83488 18.44 5.80488C18.37 5.73488 18.28 5.68488 18.19 5.63488C18.16 5.62488 18.14 5.59488 18.12 5.58488C18.09 5.57488 18.06 5.57488 18.03 5.56488C17.94 5.53488 17.84 5.50488 17.74 5.50488C17.69 5.50488 17.65 5.52488 17.61 5.53488C17.53 5.54488 17.45 5.55488 17.37 5.58488C17.29 5.61488 17.23 5.66488 17.16 5.71488C17.12 5.74488 17.08 5.75488 17.05 5.78488C16.68 6.13488 16.09 6.50488 15.14 6.50488C14.63 6.50488 14.3 6.36488 13.74 6.12488C13.71 6.11488 13.68 6.09488 13.64 6.08488C13 5.81488 12.2 5.50488 10.97 5.50488C10.21 5.50488 9.28003 5.70488 8.48003 5.91488C8.06003 6.02488 7.66003 6.15488 7.30003 6.26488V5.00488C7.30003 4.45488 6.85003 4.00488 6.30003 4.00488C5.75003 4.00488 5.28003 4.44488 5.28003 4.99488V18.9949C5.28003 19.5449 5.73003 19.9949 6.28003 19.9949C6.83003 19.9949 7.28003 19.5449 7.28003 18.9949V15.7449C7.69003 15.5949 8.31003 15.3849 8.98003 15.2049C9.74003 15.0049 10.46 14.8649 10.95 14.8649C11.8 14.8649 12.31 15.0549 12.84 15.2849C12.88 15.3049 12.93 15.3249 12.97 15.3449C13.5 15.5749 14.18 15.8649 15.12 15.8649C16.67 15.8649 17.74 15.2349 18.42 14.5849C18.49 14.5149 18.54 14.4249 18.59 14.3349C18.6 14.3049 18.63 14.2849 18.64 14.2649C18.65 14.2349 18.65 14.2049 18.66 14.1749C18.69 14.0849 18.72 13.9849 18.72 13.8849C18.72 13.8849 18.72 13.8849 18.72 13.8749V6.49488ZM13.72 13.4849C13.72 13.4849 13.66 13.4549 13.62 13.4449C12.98 13.1749 12.18 12.8649 10.95 12.8649C10.19 12.8649 9.26003 13.0649 8.46003 13.2749C8.04003 13.3849 7.64003 13.5149 7.28003 13.6249V8.37488C7.69003 8.22488 8.31003 8.01488 8.98003 7.83488C9.74003 7.63488 10.46 7.49488 10.95 7.49488C11.8 7.49488 12.31 7.68488 12.84 7.91488C12.88 7.93488 12.93 7.95488 12.97 7.97488C13.5 8.20488 14.18 8.49488 15.12 8.49488C15.73 8.49488 16.26 8.39488 16.72 8.23488V13.3849C16.35 13.6449 15.84 13.8549 15.12 13.8549C14.61 13.8549 14.28 13.7149 13.72 13.4749V13.4849Z" fill="currentColor"/>
</svg>
