<svg viewBox="0 0 25 25" fill="currentColor" xmlns="http://www.w3.org/2000/svg">
<g clip-path="url(#clip0_901_10947)">
<path fill-rule="evenodd" clip-rule="evenodd" d="M12 24C18.6274 24 24 18.6274 24 12C24 5.37258 18.6274 0 12 0C5.37258 0 0 5.37258 0 12C0 18.6274 5.37258 24 12 24ZM11.256 16.288C11.256 16.9173 11.5547 17.232 12.152 17.232C12.7493 17.232 13.048 16.9173 13.048 16.288V10.48C13.048 9.85067 12.7493 9.536 12.152 9.536C11.5547 9.536 11.256 9.85067 11.256 10.48V16.288ZM11.336 7.936C11.56 8.16 11.8267 8.272 12.136 8.272C12.4453 8.272 12.712 8.16 12.936 7.936C13.16 7.712 13.272 7.44533 13.272 7.136C13.272 6.82667 13.16 6.56 12.936 6.336C12.712 6.112 12.4453 6 12.136 6C11.8267 6 11.56 6.112 11.336 6.336C11.112 6.56 11 6.82667 11 7.136C11 7.44533 11.112 7.712 11.336 7.936Z" fill="currentColor"/>
</g>
<defs>
<clipPath id="clip0_901_10947">
<rect width="24" height="24" fill="white"/>
</clipPath>
</defs>
</svg>
