<svg viewBox="0 0 24 24" fill="currentColor" xmlns="http://www.w3.org/2000/svg">
<path d="M21.4574 11.9229C23.5142 9.88064 23.5142 6.57325 21.4574 4.53098C19.6373 2.72367 16.7688 2.48872 14.6756 3.97433L14.6174 4.01409C14.0932 4.3864 13.973 5.10933 14.348 5.62622C14.7229 6.14311 15.451 6.26601 15.9715 5.8937L16.0298 5.85394C17.1983 5.02619 18.7964 5.15632 19.8084 6.1648C20.9551 7.30341 20.9551 9.14687 19.8084 10.2855L15.724 14.3483C14.5773 15.4869 12.7208 15.4869 11.5741 14.3483C10.5585 13.3398 10.4274 11.753 11.261 10.5963L11.3011 10.5385C11.676 10.018 11.5522 9.29507 11.0317 8.92638C10.5111 8.55769 9.77943 8.67697 9.40812 9.19386L9.36808 9.2517C7.86829 11.3265 8.10491 14.1748 9.92504 15.9821C11.9818 18.0244 15.3126 18.0244 17.3694 15.9821L21.4574 11.9229ZM2.54257 11.0771C0.485811 13.1194 0.485811 16.4267 2.54257 18.469C4.3627 20.2763 7.23124 20.5113 9.3244 19.0257L9.38264 18.9859C9.90684 18.6136 10.027 17.8907 9.65202 17.3738C9.27707 16.8569 8.54902 16.734 8.02846 17.1063L7.97022 17.1461C6.80169 17.9738 5.20361 17.8437 4.19161 16.8352C3.04492 15.693 3.04492 13.8495 4.19161 12.7109L8.276 8.65167C9.42269 7.51306 11.2792 7.51306 12.4259 8.65167C13.4415 9.66015 13.5726 11.247 12.739 12.4073L12.6989 12.4651C12.324 12.9856 12.4478 13.7085 12.9683 14.0772C13.4889 14.4459 14.2206 14.3266 14.5919 13.8098L14.6319 13.7519C16.1317 11.6735 15.8951 8.82517 14.075 7.01785C12.0182 4.97558 8.68735 4.97558 6.6306 7.01785L2.54257 11.0771Z" fill="currentColor"/>
</svg>
