<svg viewBox="0 0 24 24" fill="currentColor" xmlns="http://www.w3.org/2000/svg">
<path d="M18.5793 12.7C18.9283 12.3094 18.9283 11.675 18.5793 11.2844L15.0046 7.28439C14.6555 6.89377 14.0885 6.89377 13.7394 7.28439C13.3904 7.67502 13.3904 8.30939 13.7394 8.70002L15.7893 10.9938H9.90503C9.41071 10.9938 9.01135 11.4406 9.01135 11.9938C9.01135 12.5469 9.41071 12.9938 9.90503 12.9938H15.7893L13.7394 15.2875C13.3904 15.6781 13.3904 16.3125 13.7394 16.7031C14.0885 17.0938 14.6555 17.0938 15.0046 16.7031L18.5793 12.7031V12.7ZM9.46837 7C9.96269 7 10.362 6.55313 10.362 6C10.362 5.44687 9.96269 5 9.46837 5H7.68102C6.20088 5 5 6.34375 5 8V16C5 17.6562 6.20088 19 7.68102 19H9.46837C9.96269 19 10.362 18.5531 10.362 18C10.362 17.4469 9.96269 17 9.46837 17H7.68102C7.18671 17 7 16.5531 7 16V8C7 7.44687 7.18671 7 7.68102 7H9.46837Z" fill="currentColor"/>
</svg>
