<svg viewBox="0 0 24 24" fill="currentColor" xmlns="http://www.w3.org/2000/svg">
<g clip-path="url(#clip0_57_466)">
<path fill-rule="evenodd" clip-rule="evenodd" d="M5.81818 11.0697C5.81818 13.3291 3.90729 13.8943 2.52391 13.8103C1.00739 13.7182 7.33968e-05 13.4215 1.80489e-09 11.0697C-5.40749e-05 9.33679 1.21505 8 2.85068 8C3.99262 8 5.81818 8.9655 5.81818 11.0697ZM18.1818 11.0697C18.1818 13.3291 20.0927 13.8943 21.4761 13.8103C22.9926 13.7182 23.9999 13.4215 24 11.0697C24.0001 9.33679 22.7849 8 21.1493 8C20.0074 8 18.1818 8.9655 18.1818 11.0697ZM11.9245 8.7274C12.5771 8.7274 13.3458 9.02323 13.9712 9.51234C14.3864 9.83714 16.0332 11.5596 16.5831 13.5683C17.161 15.6794 15.856 15.8069 15.2383 15.8672L15.2285 15.8682C11.9245 16.1913 9.12867 15.8376 8.5185 15.6907C7.90832 15.5437 7.27273 15.0875 7.27273 14.2368C7.27273 13.3861 8.56754 10.3764 9.72958 9.51234C10.5304 8.91687 11.094 8.7274 11.9245 8.7274Z" fill="currentColor"/>
</g>
<defs>
<clipPath id="clip0_57_466">
<rect width="24" height="24" fill="currentColor"/>
</clipPath>
</defs>
</svg>
