<svg viewBox="0 0 24 24" fill="currentColor" xmlns="http://www.w3.org/2000/svg">
<path d="M22 12C22 11.4696 21.7815 10.9609 21.3925 10.5858C21.0036 10.2107 20.476 10 19.9259 10C19.3758 10 18.8483 10.2107 18.4593 10.5858C18.0704 10.9609 17.8519 11.4696 17.8519 12C17.8519 12.5304 18.0704 13.0391 18.4593 13.4142C18.8483 13.7893 19.3758 14 19.9259 14C20.476 14 21.0036 13.7893 21.3925 13.4142C21.7815 13.0391 22 12.5304 22 12ZM14.0741 12C14.0741 11.4696 13.8556 10.9609 13.4666 10.5858C13.0776 10.2107 12.5501 10 12 10C11.4499 10 10.9224 10.2107 10.5334 10.5858C10.1444 10.9609 9.92593 11.4696 9.92593 12C9.92593 12.5304 10.1444 13.0391 10.5334 13.4142C10.9224 13.7893 11.4499 14 12 14C12.5501 14 13.0776 13.7893 13.4666 13.4142C13.8556 13.0391 14.0741 12.5304 14.0741 12ZM4.07407 10C3.52399 10 2.99645 10.2107 2.60748 10.5858C2.21852 10.9609 2 11.4696 2 12C2 12.5304 2.21852 13.0391 2.60748 13.4142C2.99645 13.7893 3.52399 14 4.07407 14C4.62415 14 5.1517 13.7893 5.54067 13.4142C5.92963 13.0391 6.14815 12.5304 6.14815 12C6.14815 11.4696 5.92963 10.9609 5.54067 10.5858C5.1517 10.2107 4.62415 10 4.07407 10Z" fill="currentColor"/>
</svg>
