<svg viewBox="0 0 24 24" fill="currentColor" xmlns="http://www.w3.org/2000/svg">
<path fill-rule="evenodd" clip-rule="evenodd" d="M18.0367 16.102L17.8578 16.3472L22.1597 20.6562C22.5756 21.072 22.5756 21.7477 22.1597 22.1635C21.7438 22.5792 21.0681 22.5793 20.6522 22.1636L16.3499 17.8541L16.1043 18.0339C14.6375 19.1082 12.8298 19.7393 10.8714 19.7393C5.97077 19.7393 2 15.7693 2 10.8696C2 5.96997 5.97077 2 10.8714 2C15.7721 2 19.7428 5.96997 19.7428 10.8696C19.7428 12.8272 19.1075 14.6348 18.0367 16.102ZM10.8714 17.6105C11.7568 17.6105 12.6336 17.4362 13.4516 17.0974C14.2696 16.7587 15.0128 16.2621 15.6389 15.6362C16.265 15.0102 16.7616 14.2671 17.1005 13.4493C17.4393 12.6314 17.6137 11.7549 17.6137 10.8696C17.6137 9.9844 17.4393 9.10783 17.1005 8.28999C16.7616 7.47214 16.265 6.72903 15.6389 6.10308C15.0128 5.47713 14.2696 4.98059 13.4516 4.64183C12.6336 4.30307 11.7568 4.12871 10.8714 4.12871C9.98601 4.12871 9.10927 4.30307 8.29126 4.64183C7.47325 4.98059 6.72998 5.47713 6.10391 6.10308C5.47783 6.72903 4.9812 7.47214 4.64236 8.28999C4.30353 9.10783 4.12914 9.9844 4.12914 10.8696C4.12914 11.7549 4.30353 12.6314 4.64236 13.4493C4.9812 14.2671 5.47783 15.0102 6.10391 15.6362C6.72998 16.2621 7.47325 16.7587 8.29126 17.0974C9.10927 17.4362 9.98601 17.6105 10.8714 17.6105Z" fill="currentColor"/>
<path d="M14.9063 14.6991C14.9913 14.9055 14.7407 15.0888 14.5583 14.9536L13.3485 14.056C13.3366 14.0472 13.3367 14.0299 13.3486 14.0212L14.3073 13.32C14.3192 13.3113 14.3364 13.316 14.3419 13.3294L14.9063 14.6991Z" fill="currentColor"/>
<path d="M12.0443 11.9812C9.90229 14.1883 7.30653 15.236 6.07476 14.438C5.97096 14.3707 5.97377 14.2332 6.09249 14.1955C6.22685 14.1529 6.3972 14.119 6.60591 13.9557C7.72025 12.8075 8.46654 11.8501 9.32505 10.9655C9.73146 10.5468 10.1356 10.1303 10.5626 9.6904C11.4486 8.77745 12.3399 8.06412 13.6459 6.71852C13.7902 6.54241 13.8527 6.28401 13.9354 6.09135C13.9832 5.97978 14.1243 5.96955 14.2003 6.06541C15.1025 7.20304 14.1863 9.77414 12.0443 11.9812Z" fill="currentColor"/>
<path d="M12.2918 13.2419L6.92061 9.10121C6.76635 8.95291 6.85634 8.80833 6.92061 8.75458C7.18536 8.47707 7.7699 7.86394 7.99008 7.63149C8.26531 7.34093 8.38253 7.49349 8.52524 7.63149C8.9075 7.99108 13.0665 11.7496 13.3696 11.986C13.6727 12.2225 14.2999 12.4195 14.4273 12.4491C14.5547 12.4786 15.3702 12.9663 14.7993 13.784C14.3427 14.4382 13.6559 14.2518 13.3696 14.0768L12.2918 13.2419Z" fill="currentColor"/>
</svg>
