<svg viewBox="0 0 24 24" fill="currentColor" xmlns="http://www.w3.org/2000/svg">
<path fill-rule="evenodd" clip-rule="evenodd" d="M6.40057 9.00498C6.95011 8.95002 7.44016 9.35097 7.49511 9.90051L8.31501 18.0995C8.36613 18.6107 8.7963 19 9.31005 19H14.6901C15.2038 19 15.634 18.6107 15.6851 18.0995L16.505 9.90051C16.56 9.35097 17.05 8.95002 17.5996 9.00498C18.1491 9.05993 18.5501 9.54997 18.4951 10.0995L17.6752 18.2985C17.5219 19.8321 16.2314 21 14.6901 21H9.31005C7.7688 21 6.4783 19.8321 6.32494 18.2985L5.50504 10.0995C5.45008 9.54997 5.85103 9.05993 6.40057 9.00498Z" fill="currentColor"/>
<path fill-rule="evenodd" clip-rule="evenodd" d="M5 7C5 6.44772 5.44772 6 6 6H18C18.5523 6 19 6.44772 19 7C19 7.55228 18.5523 8 18 8H6C5.44772 8 5 7.55228 5 7Z" fill="currentColor"/>
<path fill-rule="evenodd" clip-rule="evenodd" d="M12 5C11.4477 5 11 5.44772 11 6V6.5C11 7.05228 10.5523 7.5 10 7.5C9.44772 7.5 9 7.05228 9 6.5V6C9 4.34315 10.3431 3 12 3C13.6569 3 15 4.34315 15 6V6.5C15 7.05228 14.5523 7.5 14 7.5C13.4477 7.5 13 7.05228 13 6.5V6C13 5.44772 12.5523 5 12 5Z" fill="currentColor"/>
</svg>
