<svg viewBox="0 0 24 24" fill="currentColor" xmlns="http://www.w3.org/2000/svg">
<path d="M17.2863 9.50866C17.5138 9.76707 17.5758 10.1436 17.4449 10.4685C17.3139 10.7933 17.0175 11.0037 16.6867 11.0037H14V14.8187C14 15.4721 13.5072 16 12.8972 16H11.1028C10.4928 16 10 15.4721 10 14.8187V11.0037H7.31322C6.98239 11.0037 6.68602 10.7933 6.55507 10.4685C6.42412 10.1436 6.48615 9.76707 6.71359 9.50866L11.4004 4.27686C11.5554 4.09967 11.7726 4 12 4C12.2274 4 12.4446 4.09967 12.5996 4.27686L17.2863 9.50866Z" fill="currentColor"/>
<path d="M5 18C4.44772 18 4 18.4477 4 19C4 19.5523 4.44772 20 5 20H19C19.5523 20 20 19.5523 20 19C20 18.4477 19.5523 18 19 18H5Z" fill="currentColor"/>
</svg>
