<svg viewBox="0 0 16 16" fill="currentColor" xmlns="http://www.w3.org/2000/svg">
<path d="M0.402977 0.39779C-0.12741 0.928177 -0.12741 1.78984 0.402977 2.32023L6.07756 8.0002L0.397689 13.6747C-0.132597 14.2051 -0.132563 15.0667 0.39779 15.597C0.928177 16.1274 1.78994 16.1273 2.32033 15.5969L8.0002 9.92244L13.6747 15.6023C14.2051 16.1326 15.0667 16.1326 15.597 15.6022C16.1274 15.0718 16.1273 14.2101 15.5969 13.6797L9.92244 7.9998L15.6023 2.32531C16.1326 1.79492 16.1326 0.933329 15.6022 0.402976C15.0718 -0.127411 14.2101 -0.127309 13.6797 0.403078L7.9998 6.07756L2.32542 0.39779C1.79503 -0.132597 0.933364 -0.132597 0.402977 0.39779Z" fill="black"/>
</svg>
