<svg width="356" height="118" viewBox="0 0 356 118" fill="none" xmlns="http://www.w3.org/2000/svg">
<g clip-path="url(#clip0_518_11328)">
<path d="M64 1.56227C64 0.945255 64.5 0.445068 65.1169 0.445068H74.4717C75.0886 0.445068 75.5886 0.945254 75.5886 1.56226V50.4671C75.5886 51.0842 75.0886 51.5843 74.4717 51.5843H65.1169C64.5 51.5843 64 51.0842 64 50.4671V1.56227Z" fill="#4D6296"/>
<path d="M94.7212 34.2913C94.4359 35.4919 93.0922 36.0075 91.9609 35.5153C84.0296 32.0647 82.6961 31.4846 70.9968 26.3948C73.7613 20.0367 81.1551 17.1242 87.5112 19.8895C93.1717 22.3521 96.1005 28.4873 94.7212 34.2913Z" fill="#CDAC00"/>
<path d="M212.776 47.2066C213.196 48.261 211.959 49.1972 211.059 48.5063L205.086 43.9214C205.027 43.8765 205.028 43.7881 205.087 43.7436L209.819 40.1623C209.878 40.1178 209.963 40.1415 209.99 40.2101L212.776 47.2066Z" fill="#E67642"/>
<path d="M198.647 33.3238C188.073 44.5974 175.258 49.9489 169.178 45.8725C168.665 45.5291 168.679 44.8266 169.265 44.6343C169.928 44.4167 170.769 44.2434 171.8 43.409C177.301 37.5441 180.985 32.6543 185.223 28.1358C187.23 25.9968 189.225 23.8696 191.333 21.6224C195.707 16.9592 200.107 13.3155 206.554 6.44231C207.267 5.54274 207.575 4.22288 207.983 3.23878C208.22 2.66888 208.916 2.61662 209.291 3.10628C213.745 8.91719 209.222 22.0502 198.647 33.3238Z" fill="#E67642"/>
<path d="M199.87 39.7633L173.354 18.6129C172.592 17.8554 173.036 17.1169 173.354 16.8424C174.661 15.4249 177.546 12.293 178.633 11.1057C179.992 9.62154 180.571 10.4008 181.275 11.1057C183.162 12.9425 203.694 32.1405 205.19 33.3483C206.687 34.556 209.783 35.5625 210.412 35.7134C211.041 35.8644 215.067 38.3554 212.249 42.5322C209.994 45.8736 206.604 44.9216 205.19 44.0279L199.87 39.7633Z" fill="#4D6296"/>
<path d="M142.64 3.40918C140.857 1.40535 138.664 0.224809 137.403 0C135.595 0 135.569 1.82298 135.569 1.92413C135.569 2.02528 135.973 12.4235 136.034 13.8396C136.095 15.2557 136.358 22.7408 136.337 26.8475C136.317 30.9542 135.696 36.3256 135.185 38.8894C134.979 39.9266 134.552 41.6178 134.097 43.1004C133.526 45.1256 132.818 46.8548 132.725 47.0332C132.09 48.2461 132.359 47.7172 131.766 48.7969C131.154 49.9106 131.054 51.3058 131.634 51.6562C131.952 51.8483 132.245 51.9017 132.779 51.8207C133.432 51.7219 133.865 51.6098 134.458 51.4344C141.568 49.04 145.573 39.9741 146.406 37.8761C147.238 35.778 148.404 32.5477 148.803 27.852C149.203 23.1563 148.937 19.593 148.037 15.0971C147.138 10.6013 144.955 6.0106 142.64 3.40918Z" fill="#CDAC00"/>
<path d="M120.861 33.3307C117.59 33.3307 116.319 30.5445 116.253 28.8685C115.956 21.3568 115.375 6.07837 115.356 5.25806C115.337 4.46922 116.082 4.15161 116.391 4.15161H124.903C125.598 4.21899 125.911 4.87888 125.904 5.26352C125.771 12.6801 125.503 27.814 125.452 28.8685C125.452 30.3319 124.234 33.3307 120.861 33.3307Z" fill="#E67642"/>
<path d="M270.691 4.99439C271.307 4.99439 271.807 5.49457 271.807 6.11158V13.3734C271.807 13.9904 271.307 14.4906 270.691 14.4906L244.308 14.4906C243.691 14.4906 243.191 13.9904 243.191 13.3734L243.191 6.11158C243.191 5.49457 243.691 4.99438 244.308 4.99438L270.691 4.99439Z" fill="#4D6296"/>
<path d="M278.89 19.829C279.506 19.829 280.006 20.3292 280.006 20.9462V28.208C280.006 28.825 279.506 29.3251 278.89 29.3251L236.108 29.3251C235.491 29.3251 234.991 28.825 234.991 28.208L234.991 20.9462C234.991 20.3292 235.491 19.829 236.108 19.829L278.89 19.829Z" fill="#CDAC00"/>
<path d="M245.151 49.6052C244.558 49.4354 244.293 48.7702 244.533 48.2018C249.318 36.8659 249.773 35.7886 256.262 20.4154C261.4 22.3957 264.206 24.4076 264.398 28.1714C264.555 31.2533 262.691 35.8871 261.179 39.4696C258.011 46.9739 251.03 51.2889 245.151 49.6052Z" fill="#CDAC00"/>
<path d="M275.361 1.05465C276.146 0.102776 277.56 0.473712 278.187 1.53665C279.72 4.13719 280.364 5.22908 282.436 8.74407C283.063 9.80701 282.704 11.2268 281.492 11.4534C278.912 11.9355 276.194 10.794 274.784 8.40257C273.374 6.01118 273.691 3.07907 275.361 1.05465Z" fill="#E67642"/>
<path d="M290.31 13.9564C289.525 14.9082 288.11 14.5373 287.484 13.4744C285.95 10.8738 285.307 9.78192 283.234 6.26693C282.608 5.204 282.966 3.78425 284.179 3.55758C286.758 3.07551 289.476 4.21705 290.886 6.60843C292.296 8.99982 291.979 11.9319 290.31 13.9564Z" fill="#E67642"/>
</g>
<path d="M351.109 115.909C350.306 115.909 349.569 115.713 348.897 115.321C348.244 114.929 347.721 114.406 347.329 113.753C346.956 113.081 346.769 112.353 346.769 111.569C346.769 110.748 346.965 110.01 347.357 109.357C347.749 108.685 348.272 108.153 348.925 107.761C349.597 107.369 350.325 107.173 351.109 107.173C351.912 107.173 352.64 107.369 353.293 107.761C353.965 108.153 354.497 108.685 354.889 109.357C355.281 110.01 355.477 110.748 355.477 111.569C355.477 112.372 355.281 113.1 354.889 113.753C354.497 114.406 353.974 114.929 353.321 115.321C352.668 115.713 351.93 115.909 351.109 115.909ZM351.109 113.949C351.781 113.949 352.35 113.716 352.817 113.249C353.284 112.764 353.517 112.194 353.517 111.541C353.517 110.888 353.284 110.328 352.817 109.861C352.35 109.394 351.781 109.161 351.109 109.161C350.456 109.161 349.896 109.394 349.429 109.861C348.962 110.328 348.729 110.888 348.729 111.541C348.729 112.176 348.953 112.736 349.401 113.221C349.868 113.706 350.437 113.949 351.109 113.949Z" fill="#2B2F3A"/>
<path d="M326.693 115.517C326.357 115.2 326.17 114.808 326.133 114.341C326.114 113.874 326.273 113.473 326.609 113.137C328.028 111.7 329.138 109.889 329.941 107.705C330.762 105.521 331.173 103.141 331.173 100.565C331.173 99.1089 330.94 98.0542 330.473 97.4009C330.006 96.7475 329.316 96.4209 328.401 96.4209C327.654 96.4209 326.964 96.7289 326.329 97.3449C325.694 97.9422 325.218 98.8382 324.901 100.033C324.584 101.228 324.5 102.73 324.649 104.541C324.686 104.97 324.565 105.362 324.285 105.717C324.024 106.053 323.678 106.24 323.249 106.277C322.801 106.314 322.409 106.202 322.073 105.941C321.756 105.68 321.56 105.334 321.485 104.905C321.354 103.934 321.27 102.87 321.233 101.713C321.196 100.537 321.186 99.3702 321.205 98.2129C321.242 97.0369 321.298 95.9542 321.373 94.9649C321.448 93.9569 321.522 93.1262 321.597 92.4729C321.653 92.0249 321.858 91.6609 322.213 91.3809C322.568 91.1009 322.969 90.9889 323.417 91.0449C323.884 91.1009 324.248 91.2969 324.509 91.6329C324.789 91.9689 324.892 92.3795 324.817 92.8649C324.78 93.2009 324.724 93.6302 324.649 94.1529C324.593 94.6756 324.546 95.1702 324.509 95.6369C324.938 94.9089 325.517 94.3022 326.245 93.8169C326.973 93.3129 327.729 93.0609 328.513 93.0609C330.51 93.0609 332.004 93.7142 332.993 95.0209C333.982 96.3089 334.477 98.1569 334.477 100.565C334.477 102.488 334.272 104.364 333.861 106.193C333.469 108.004 332.872 109.702 332.069 111.289C331.285 112.857 330.296 114.248 329.101 115.461C328.784 115.797 328.382 115.965 327.897 115.965C327.43 115.984 327.029 115.834 326.693 115.517Z" fill="#2B2F3A"/>
<path d="M303.789 113.417C300.97 114.07 298.45 114.35 296.229 114.257C294.026 114.182 292.188 113.762 290.713 112.997C289.257 112.232 288.24 111.149 287.661 109.749C287.474 109.32 287.474 108.89 287.661 108.461C287.848 108.032 288.156 107.733 288.585 107.565C289.014 107.378 289.434 107.378 289.845 107.565C290.274 107.752 290.573 108.06 290.741 108.489C291.096 109.292 291.824 109.908 292.925 110.337C294.026 110.766 295.436 110.981 297.153 110.981C298.889 110.962 300.849 110.682 303.033 110.141C303.481 110.029 303.901 110.104 304.293 110.365C304.685 110.608 304.937 110.953 305.049 111.401C305.142 111.849 305.068 112.269 304.825 112.661C304.582 113.053 304.237 113.305 303.789 113.417ZM301.213 98.1008C300.205 97.8395 299.122 97.6435 297.965 97.5128C296.826 97.3635 295.697 97.2795 294.577 97.2608C293.457 97.2422 292.412 97.2795 291.441 97.3728C290.974 97.4288 290.554 97.3168 290.181 97.0368C289.826 96.7568 289.621 96.3835 289.565 95.9168C289.509 95.4502 289.621 95.0395 289.901 94.6848C290.181 94.3115 290.554 94.0968 291.021 94.0408C292.141 93.9288 293.373 93.9008 294.717 93.9568C296.061 93.9942 297.368 94.0875 298.637 94.2368C299.925 94.3862 301.045 94.5822 301.997 94.8248C302.445 94.9555 302.79 95.2168 303.033 95.6088C303.276 95.9822 303.341 96.3928 303.229 96.8408C303.136 97.2888 302.884 97.6435 302.473 97.9048C302.081 98.1475 301.661 98.2128 301.213 98.1008Z" fill="#2B2F3A"/>
<path d="M263.889 114.761C263.478 114.817 263.105 114.714 262.769 114.453C262.452 114.21 262.265 113.883 262.209 113.473C262.172 113.062 262.274 112.698 262.517 112.381C262.778 112.045 263.114 111.849 263.525 111.793C265.298 111.55 266.698 111.167 267.725 110.645C268.77 110.122 269.498 109.506 269.909 108.797C270.32 108.087 270.469 107.35 270.357 106.585C270.226 105.595 269.862 104.877 269.265 104.429C268.668 103.981 267.818 103.803 266.717 103.897C266.12 103.934 265.42 104.018 264.617 104.149C263.833 104.261 263.021 104.391 262.181 104.541C261.341 104.69 260.538 104.858 259.773 105.045C259.008 105.213 258.345 105.371 257.785 105.521C257.374 105.633 256.992 105.595 256.637 105.409C256.282 105.203 256.049 104.895 255.937 104.485C255.825 104.093 255.862 103.719 256.049 103.365C256.254 102.991 256.562 102.749 256.973 102.637C257.57 102.469 258.27 102.301 259.073 102.133C259.894 101.965 260.744 101.806 261.621 101.657C262.517 101.489 263.385 101.349 264.225 101.237C265.084 101.125 265.84 101.041 266.493 100.985C268.378 100.835 269.918 101.218 271.113 102.133C272.308 103.029 273.026 104.345 273.269 106.081C273.474 107.406 273.269 108.685 272.653 109.917C272.037 111.13 271.001 112.175 269.545 113.053C268.089 113.911 266.204 114.481 263.889 114.761Z" fill="#2B2F3A"/>
<path d="M234.321 115.013C232.828 115.013 231.624 114.649 230.709 113.921C229.813 113.193 229.365 112.129 229.365 110.729C229.365 109.422 229.813 108.386 230.709 107.621C231.624 106.855 232.874 106.473 234.461 106.473C234.965 106.473 235.469 106.501 235.973 106.557C235.954 105.997 235.936 105.409 235.917 104.793C235.898 104.177 235.88 103.551 235.861 102.917C234.984 102.973 234.153 103.01 233.369 103.029C232.585 103.047 231.95 103.047 231.465 103.029C231.017 103.01 230.634 102.833 230.317 102.497C230.018 102.161 229.878 101.769 229.897 101.321C229.934 100.854 230.112 100.471 230.429 100.173C230.765 99.8741 231.166 99.7341 231.633 99.7528C232.081 99.7715 232.669 99.7715 233.397 99.7528C234.144 99.7155 234.937 99.6688 235.777 99.6128C235.777 99.1835 235.768 98.7635 235.749 98.3528C235.749 97.9421 235.749 97.5501 235.749 97.1768C235.021 97.2141 234.312 97.2515 233.621 97.2888C232.949 97.3075 232.342 97.3168 231.801 97.3168C231.353 97.3168 230.97 97.1488 230.653 96.8128C230.336 96.4768 230.186 96.0755 230.205 95.6088C230.224 95.1608 230.392 94.7875 230.709 94.4888C231.045 94.1715 231.446 94.0128 231.913 94.0128C232.529 94.0128 233.229 93.9941 234.013 93.9568C234.816 93.9195 235.637 93.8728 236.477 93.8168C237.317 93.7608 238.12 93.6955 238.885 93.6208C239.669 93.5275 240.35 93.4435 240.929 93.3688C241.377 93.2941 241.788 93.3875 242.161 93.6488C242.534 93.9101 242.758 94.2648 242.833 94.7128C242.908 95.1608 242.805 95.5715 242.525 95.9448C242.264 96.3181 241.909 96.5421 241.461 96.6168C241.125 96.6728 240.752 96.7288 240.341 96.7848C239.93 96.8221 239.501 96.8595 239.053 96.8968C239.053 97.3075 239.053 97.7181 239.053 98.1288C239.072 98.5208 239.081 98.9315 239.081 99.3608C240.238 99.2675 241.209 99.1648 241.993 99.0528C242.441 98.9781 242.842 99.0715 243.197 99.3328C243.57 99.5941 243.794 99.9488 243.869 100.397C243.962 100.845 243.869 101.255 243.589 101.629C243.328 101.983 242.973 102.198 242.525 102.273C241.685 102.422 240.565 102.553 239.165 102.665C239.184 103.505 239.202 104.317 239.221 105.101C239.24 105.885 239.258 106.603 239.277 107.257C240.322 107.593 241.293 107.994 242.189 108.461C243.104 108.927 243.897 109.403 244.569 109.889C244.942 110.169 245.166 110.542 245.241 111.009C245.316 111.475 245.222 111.895 244.961 112.269C244.7 112.623 244.336 112.847 243.869 112.941C243.421 113.034 243.01 112.941 242.637 112.661C241.685 111.951 240.584 111.307 239.333 110.729C239.165 113.585 237.494 115.013 234.321 115.013ZM225.165 115.293C224.698 115.367 224.278 115.274 223.905 115.013C223.532 114.77 223.298 114.415 223.205 113.949C223.093 113.333 223.009 112.511 222.953 111.485C222.897 110.439 222.86 109.273 222.841 107.985C222.822 106.678 222.822 105.334 222.841 103.953C222.878 102.553 222.934 101.199 223.009 99.8928C223.084 98.5675 223.177 97.3635 223.289 96.2808C223.42 95.1795 223.569 94.2835 223.737 93.5928C223.849 93.1448 224.101 92.7995 224.493 92.5568C224.885 92.3141 225.305 92.2488 225.753 92.3608C226.22 92.4541 226.565 92.7061 226.789 93.1168C227.032 93.5088 227.106 93.9288 227.013 94.3768C226.808 95.2168 226.63 96.2901 226.481 97.5968C226.35 98.8848 226.248 100.285 226.173 101.797C226.117 103.29 226.089 104.783 226.089 106.277C226.089 107.751 226.126 109.114 226.201 110.365C226.276 111.597 226.378 112.595 226.509 113.361C226.602 113.827 226.509 114.247 226.229 114.621C225.968 114.994 225.613 115.218 225.165 115.293ZM234.321 111.877C235.478 111.877 236.057 111.317 236.057 110.197V109.665C235.478 109.553 234.9 109.497 234.321 109.497C233.742 109.497 233.313 109.618 233.033 109.861C232.772 110.085 232.641 110.374 232.641 110.729C232.641 111.083 232.772 111.363 233.033 111.569C233.294 111.774 233.724 111.877 234.321 111.877Z" fill="#2B2F3A"/>
<path d="M204.361 115.713C202.718 115.713 201.43 115.563 200.497 115.265C199.564 114.966 198.901 114.443 198.509 113.697C198.117 112.931 197.921 111.867 197.921 110.505V99.8088C197.921 99.2675 198.089 98.8475 198.425 98.5488C198.761 98.2501 199.162 98.1008 199.629 98.1008C200.114 98.1008 200.516 98.2501 200.833 98.5488C201.169 98.8475 201.337 99.2675 201.337 99.8088V110.141C201.337 110.775 201.421 111.261 201.589 111.597C201.776 111.914 202.102 112.138 202.569 112.269C203.036 112.381 203.698 112.437 204.557 112.437C205.36 112.437 205.976 112.39 206.405 112.297C206.834 112.185 207.161 111.97 207.385 111.653C207.628 111.317 207.842 110.822 208.029 110.169C208.178 109.721 208.458 109.403 208.869 109.217C209.298 109.03 209.756 109.011 210.241 109.161C210.726 109.31 211.062 109.571 211.249 109.945C211.454 110.318 211.492 110.747 211.361 111.233C211.1 112.353 210.708 113.239 210.185 113.893C209.662 114.546 208.934 115.013 208.001 115.293C207.086 115.573 205.873 115.713 204.361 115.713ZM189.885 110.281C189.456 110.057 189.194 109.721 189.101 109.273C189.008 108.806 189.082 108.377 189.325 107.985C189.736 107.35 190.137 106.659 190.529 105.913C190.94 105.147 191.322 104.382 191.677 103.617C192.032 102.833 192.321 102.105 192.545 101.433C192.713 100.947 193.021 100.639 193.469 100.509C193.936 100.359 194.384 100.378 194.813 100.565C195.28 100.751 195.588 101.05 195.737 101.461C195.886 101.853 195.877 102.273 195.709 102.721C195.448 103.411 195.14 104.177 194.785 105.017C194.43 105.838 194.048 106.65 193.637 107.453C193.226 108.255 192.806 108.983 192.377 109.637C192.097 110.047 191.714 110.318 191.229 110.449C190.762 110.579 190.314 110.523 189.885 110.281ZM214.805 108.293C214.394 108.61 213.937 108.731 213.433 108.657C212.948 108.563 212.574 108.311 212.313 107.901C211.958 107.322 211.51 106.687 210.969 105.997C210.446 105.306 209.896 104.634 209.317 103.981C208.757 103.327 208.225 102.758 207.721 102.273C207.422 101.974 207.282 101.61 207.301 101.181C207.338 100.733 207.516 100.359 207.833 100.061C208.15 99.7621 208.533 99.6128 208.981 99.6128C209.429 99.5941 209.83 99.7435 210.185 100.061C210.764 100.602 211.361 101.218 211.977 101.909C212.593 102.581 213.181 103.262 213.741 103.953C214.301 104.625 214.768 105.241 215.141 105.801C215.44 106.23 215.561 106.678 215.505 107.145C215.449 107.593 215.216 107.975 214.805 108.293ZM204.445 97.2888C203.997 96.9715 203.465 96.6075 202.849 96.1968C202.233 95.7861 201.608 95.3848 200.973 94.9928C200.357 94.6008 199.797 94.2835 199.293 94.0408C198.882 93.8355 198.64 93.5181 198.565 93.0888C198.49 92.6408 198.546 92.2488 198.733 91.9128C198.957 91.5208 199.274 91.2688 199.685 91.1568C200.096 91.0261 200.506 91.0635 200.917 91.2688C201.44 91.5115 202.018 91.8195 202.653 92.1928C203.306 92.5475 203.96 92.9301 204.613 93.3408C205.266 93.7328 205.845 94.1061 206.349 94.4608C206.741 94.7221 206.984 95.0675 207.077 95.4968C207.17 95.9261 207.086 96.3555 206.825 96.7848C206.582 97.1768 206.218 97.4288 205.733 97.5408C205.248 97.6341 204.818 97.5501 204.445 97.2888Z" fill="#2B2F3A"/>
<path d="M165.581 115.321C165.226 115.619 164.816 115.741 164.349 115.685C163.882 115.647 163.49 115.451 163.173 115.097C162.893 114.761 162.52 114.35 162.053 113.865C161.586 113.361 161.101 112.866 160.597 112.381C160.112 111.877 159.682 111.466 159.309 111.149C159.01 110.869 158.833 110.514 158.777 110.085C158.74 109.637 158.87 109.254 159.169 108.937C159.486 108.619 159.85 108.442 160.261 108.405C160.69 108.367 161.082 108.479 161.437 108.741C161.848 109.058 162.324 109.469 162.865 109.973C163.425 110.477 163.966 110.999 164.489 111.541C165.03 112.063 165.46 112.521 165.777 112.913C166.094 113.267 166.234 113.678 166.197 114.145C166.16 114.611 165.954 115.003 165.581 115.321Z" fill="#2B2F3A"/>
<path d="M146.849 115.097C144.646 114.78 142.826 114.145 141.389 113.193C139.952 112.222 138.878 111.056 138.169 109.693C137.478 108.33 137.133 106.912 137.133 105.437C137.133 103.944 137.422 102.553 138.001 101.265C138.598 99.9582 139.448 98.8289 140.549 97.8769C139.429 98.0449 138.234 98.2409 136.965 98.4649C135.696 98.6702 134.464 98.8849 133.269 99.1089C132.074 99.3142 131.029 99.5009 130.133 99.6689C129.685 99.7435 129.274 99.6409 128.901 99.3609C128.528 99.0809 128.304 98.7169 128.229 98.2689C128.154 97.8022 128.257 97.3915 128.537 97.0369C128.817 96.6635 129.19 96.4395 129.657 96.3649C130.254 96.2715 131.02 96.1502 131.953 96.0009C132.886 95.8329 133.932 95.6555 135.089 95.4689C136.246 95.2822 137.432 95.0862 138.645 94.8809C139.858 94.6755 141.044 94.4795 142.201 94.2929C143.377 94.0875 144.45 93.9009 145.421 93.7329C146.392 93.5649 147.185 93.4249 147.801 93.3129C148.23 93.2382 148.632 93.3315 149.005 93.5929C149.378 93.8542 149.612 94.1995 149.705 94.6289C149.798 95.0769 149.714 95.4969 149.453 95.8889C149.21 96.2809 148.865 96.5142 148.417 96.5889C147.054 96.7755 145.869 97.1675 144.861 97.7649C143.872 98.3435 143.05 99.0529 142.397 99.8929C141.744 100.714 141.258 101.592 140.941 102.525C140.624 103.458 140.465 104.364 140.465 105.241C140.465 107.052 141.081 108.517 142.313 109.637C143.545 110.738 145.216 111.448 147.325 111.765C147.792 111.84 148.165 112.064 148.445 112.437C148.725 112.81 148.828 113.221 148.753 113.669C148.678 114.136 148.454 114.509 148.081 114.789C147.726 115.069 147.316 115.172 146.849 115.097Z" fill="#2B2F3A"/>
<path d="M115.377 115.097C113.174 114.78 111.354 114.145 109.917 113.193C108.48 112.222 107.406 111.056 106.697 109.693C106.006 108.33 105.661 106.912 105.661 105.437C105.661 103.944 105.95 102.553 106.529 101.265C107.108 99.9582 107.948 98.8289 109.049 97.8769C107.929 98.0449 106.734 98.2409 105.465 98.4649C104.196 98.6702 102.964 98.8849 101.769 99.1089C100.593 99.3142 99.5571 99.5009 98.6611 99.6689C98.1944 99.7435 97.7744 99.6409 97.4011 99.3609C97.0464 99.0809 96.8317 98.7169 96.7571 98.2689C96.6824 97.8022 96.7757 97.3915 97.0371 97.0369C97.3171 96.6635 97.6904 96.4395 98.1571 96.3649C98.7544 96.2715 99.5197 96.1502 100.453 96.0009C101.386 95.8329 102.432 95.6555 103.589 95.4689C104.746 95.2822 105.932 95.0862 107.145 94.8809C108.358 94.6755 109.544 94.4795 110.701 94.2929C111.877 94.0875 112.95 93.9009 113.921 93.7329C114.892 93.5649 115.685 93.4249 116.301 93.3129C116.73 93.2382 117.132 93.3315 117.505 93.5929C117.897 93.8542 118.13 94.1995 118.205 94.6289C118.298 95.0769 118.224 95.4969 117.981 95.8889C117.757 96.2809 117.421 96.5142 116.973 96.5889C115.666 96.7942 114.518 97.1955 113.529 97.7929C112.54 98.3715 111.7 99.0809 111.009 99.9209C110.337 100.742 109.824 101.62 109.469 102.553C109.133 103.468 108.965 104.373 108.965 105.269C108.965 107.08 109.581 108.545 110.813 109.665C112.045 110.766 113.725 111.466 115.853 111.765C116.301 111.84 116.665 112.064 116.945 112.437C117.225 112.81 117.328 113.221 117.253 113.669C117.197 114.136 116.982 114.509 116.609 114.789C116.236 115.069 115.825 115.172 115.377 115.097ZM118.933 103.645C118.69 103.85 118.392 103.934 118.037 103.897C117.701 103.86 117.43 103.701 117.225 103.421C117.02 103.16 116.758 102.833 116.441 102.441C116.124 102.03 115.834 101.676 115.573 101.377C115.405 101.172 115.321 100.929 115.321 100.649C115.34 100.35 115.47 100.098 115.713 99.8929C115.937 99.6875 116.189 99.5942 116.469 99.6129C116.768 99.6129 117.038 99.7155 117.281 99.9209C117.561 100.164 117.878 100.481 118.233 100.873C118.606 101.265 118.914 101.62 119.157 101.937C119.362 102.198 119.437 102.497 119.381 102.833C119.344 103.169 119.194 103.44 118.933 103.645ZM121.621 101.237C121.378 101.48 121.08 101.592 120.725 101.573C120.389 101.554 120.109 101.414 119.885 101.153C119.661 100.892 119.372 100.574 119.017 100.201C118.681 99.8275 118.373 99.5009 118.093 99.2209C117.906 99.0342 117.804 98.7915 117.785 98.4929C117.785 98.1942 117.897 97.9329 118.121 97.7089C118.326 97.5035 118.578 97.4009 118.877 97.4009C119.176 97.3822 119.446 97.4662 119.689 97.6529C119.988 97.8582 120.333 98.1475 120.725 98.5209C121.117 98.8755 121.444 99.2115 121.705 99.5289C121.929 99.7715 122.032 100.061 122.013 100.397C121.994 100.714 121.864 100.994 121.621 101.237Z" fill="#2B2F3A"/>
<path d="M66.069 116.665C65.621 116.683 65.2384 116.581 64.921 116.357C64.6037 116.151 64.4264 115.815 64.389 115.349C64.3517 114.901 64.4824 114.546 64.781 114.285C65.0797 114.023 65.4717 113.883 65.957 113.865C67.4504 113.79 68.9157 113.631 70.353 113.389C71.809 113.127 73.1624 112.791 74.413 112.381C73.965 112.007 73.5357 111.625 73.125 111.233C72.7144 110.822 72.3224 110.383 71.949 109.917C70.5864 110.887 69.1677 111.653 67.693 112.213C67.2824 112.381 66.8904 112.409 66.517 112.297C66.1437 112.166 65.873 111.895 65.705 111.485C65.5557 111.111 65.565 110.757 65.733 110.421C65.901 110.085 66.1997 109.842 66.629 109.693C67.8424 109.245 69.0557 108.619 70.269 107.817C71.4824 106.995 72.509 106.146 73.349 105.269C72.733 105.007 72.313 104.634 72.089 104.149C71.8837 103.663 71.781 103.019 71.781 102.217V101.013C71.781 100.546 71.9304 100.182 72.229 99.9208C72.5277 99.6408 72.8824 99.5008 73.293 99.5008C73.7224 99.5008 74.077 99.6408 74.357 99.9208C74.6557 100.182 74.805 100.546 74.805 101.013V101.993C74.805 102.329 74.861 102.581 74.973 102.749C75.1037 102.917 75.3464 103.029 75.701 103.085C76.0744 103.141 76.6064 103.169 77.297 103.169C77.969 103.169 78.473 103.141 78.809 103.085C79.145 103.01 79.3877 102.889 79.537 102.721C79.705 102.553 79.8264 102.301 79.901 101.965C80.013 101.573 80.2464 101.293 80.601 101.125C80.9744 100.957 81.3384 100.919 81.693 101.013C82.0104 101.087 82.2624 101.227 82.449 101.433C82.4117 101.003 82.5517 100.649 82.869 100.369C83.149 100.107 83.4664 99.9768 83.821 99.9768C84.1944 99.9768 84.5117 100.107 84.773 100.369C84.941 100.537 85.1277 100.733 85.333 100.957C85.5384 101.162 85.753 101.386 85.977 101.629V100.537C85.977 100.014 85.8464 99.6594 85.585 99.4728C85.3424 99.2861 84.8664 99.1928 84.157 99.1928H77.913C78.081 99.3794 78.277 99.6221 78.501 99.9208C78.7437 100.219 78.9304 100.443 79.061 100.593C79.285 100.891 79.3597 101.218 79.285 101.573C79.2104 101.909 79.0144 102.189 78.697 102.413C78.3984 102.599 78.0717 102.674 77.717 102.637C77.3624 102.599 77.073 102.431 76.849 102.133C76.7744 102.039 76.6437 101.89 76.457 101.685C76.289 101.461 76.1117 101.237 75.925 101.013C75.757 100.789 75.6264 100.621 75.533 100.509C75.4024 100.303 75.3277 100.079 75.309 99.8368C75.309 99.5941 75.365 99.3794 75.477 99.1928H69.625C68.9157 99.1928 68.4304 99.2861 68.169 99.4728C67.9264 99.6594 67.805 100.014 67.805 100.537V101.377C67.805 101.862 67.6464 102.254 67.329 102.553C67.0304 102.833 66.657 102.973 66.209 102.973C65.7797 102.973 65.4064 102.833 65.089 102.553C64.7904 102.254 64.641 101.862 64.641 101.377V100.593C64.641 99.6408 64.781 98.8848 65.061 98.3248C65.341 97.7461 65.8357 97.3354 66.545 97.0928C67.273 96.8314 68.2717 96.7008 69.541 96.7008H69.709C69.6157 96.5328 69.5224 96.3648 69.429 96.1968C69.3357 96.0288 69.2704 95.8981 69.233 95.8048C69.1024 95.5808 69.0464 95.3474 69.065 95.1048C69.0837 94.8621 69.1584 94.6474 69.289 94.4608C69.0464 94.4794 68.7944 94.4888 68.533 94.4888C68.2717 94.4888 68.0197 94.4888 67.777 94.4888C67.273 94.5074 66.8904 94.3954 66.629 94.1528C66.3677 93.9101 66.2184 93.5834 66.181 93.1728C66.1624 92.7994 66.293 92.4728 66.573 92.1928C66.8717 91.9128 67.2544 91.7728 67.721 91.7728C69.0464 91.7914 70.4464 91.7728 71.921 91.7168C73.4144 91.6608 74.9077 91.5768 76.401 91.4648C77.8944 91.3341 79.313 91.1848 80.657 91.0168C82.0197 90.8301 83.2237 90.6154 84.269 90.3728C84.7917 90.2608 85.2304 90.2794 85.585 90.4288C85.9397 90.5781 86.173 90.8581 86.285 91.2688C86.397 91.7354 86.3504 92.1181 86.145 92.4168C85.9397 92.6968 85.613 92.8834 85.165 92.9768C84.9597 93.0141 84.745 93.0608 84.521 93.1168C84.297 93.1541 84.073 93.1914 83.849 93.2288C84.017 93.2474 84.185 93.3034 84.353 93.3968C84.7264 93.5834 84.969 93.8634 85.081 94.2368C85.2117 94.5914 85.1744 94.9461 84.969 95.3008C84.8944 95.4688 84.7824 95.6834 84.633 95.9448C84.4837 96.1874 84.3344 96.4394 84.185 96.7008H84.213C85.501 96.7008 86.4997 96.8128 87.209 97.0368C87.9184 97.2608 88.413 97.6434 88.693 98.1848C88.9917 98.7261 89.141 99.4728 89.141 100.425V101.377C89.141 101.862 88.9824 102.254 88.665 102.553C88.3664 102.833 87.993 102.973 87.545 102.973C87.489 102.973 87.4237 102.973 87.349 102.973C87.293 102.954 87.2277 102.935 87.153 102.917C87.2464 103.01 87.321 103.103 87.377 103.197C87.4517 103.271 87.5264 103.346 87.601 103.421C87.8624 103.719 87.965 104.065 87.909 104.457C87.8717 104.849 87.6944 105.175 87.377 105.437C87.0597 105.679 86.705 105.782 86.313 105.745C85.921 105.707 85.6037 105.53 85.361 105.213C85.1557 104.951 84.8944 104.634 84.577 104.261C84.2597 103.887 83.933 103.514 83.597 103.141C83.2797 102.767 83.009 102.459 82.785 102.217C82.8037 102.291 82.7944 102.413 82.757 102.581C82.757 102.599 82.757 102.618 82.757 102.637C82.5704 103.757 82.0757 104.559 81.273 105.045C80.4704 105.511 79.1357 105.745 77.269 105.745H76.373C76.2424 105.913 76.1024 106.09 75.953 106.277C75.8224 106.445 75.6824 106.613 75.533 106.781H79.761C80.9744 106.781 81.8517 107.033 82.393 107.537C82.9344 108.022 83.149 108.629 83.037 109.357C82.925 110.066 82.4864 110.757 81.721 111.429C81.3477 111.765 80.909 112.101 80.405 112.437C82.4397 113.127 84.857 113.501 87.657 113.557C88.2544 113.575 88.7117 113.734 89.029 114.033C89.365 114.331 89.505 114.723 89.449 115.209C89.3744 115.713 89.1597 116.058 88.805 116.245C88.4504 116.45 88.021 116.543 87.517 116.525C85.501 116.431 83.6344 116.189 81.917 115.797C80.2184 115.405 78.669 114.863 77.269 114.173C75.6264 114.901 73.8437 115.461 71.921 115.853C70.017 116.263 68.0664 116.534 66.069 116.665ZM66.405 105.773C66.125 105.511 65.9757 105.194 65.957 104.821C65.957 104.447 66.0877 104.121 66.349 103.841C66.573 103.598 66.8344 103.29 67.133 102.917C67.4504 102.543 67.749 102.161 68.029 101.769C68.309 101.377 68.533 101.05 68.701 100.789C68.9064 100.471 69.205 100.285 69.597 100.229C69.989 100.154 70.3437 100.229 70.661 100.453C71.0157 100.695 71.221 101.003 71.277 101.377C71.3517 101.731 71.2864 102.077 71.081 102.413C70.7637 102.898 70.3717 103.449 69.905 104.065C69.457 104.681 69.037 105.203 68.645 105.633C68.365 105.931 68.001 106.109 67.553 106.165C67.1237 106.202 66.741 106.071 66.405 105.773ZM78.445 96.7008H80.881C81.0117 96.4581 81.1704 96.1501 81.357 95.7768C81.5624 95.3848 81.7584 95.0208 81.945 94.6848C82.1317 94.3301 82.253 94.0874 82.309 93.9568C82.4397 93.7141 82.6264 93.5181 82.869 93.3688C82.0664 93.4994 81.2077 93.6114 80.293 93.7048C79.397 93.7981 78.4824 93.8914 77.549 93.9848C77.5864 94.0408 77.6237 94.0968 77.661 94.1528C77.6984 94.2088 77.7264 94.2648 77.745 94.3208C77.8384 94.5074 77.9504 94.7874 78.081 95.1608C78.2117 95.5154 78.2957 95.7674 78.333 95.9168C78.445 96.1781 78.4824 96.4394 78.445 96.7008ZM72.789 96.7008H75.561C75.4864 96.4768 75.393 96.2341 75.281 95.9728C75.1877 95.7114 75.1224 95.5154 75.085 95.3848C74.917 94.9741 74.945 94.5728 75.169 94.1808C74.5904 94.2181 74.0117 94.2554 73.433 94.2928C72.8544 94.3114 72.2757 94.3394 71.697 94.3768C71.753 94.4328 71.7904 94.4794 71.809 94.5168C71.9024 94.7034 72.0424 94.9648 72.229 95.3008C72.4157 95.6368 72.5464 95.8701 72.621 96.0008C72.733 96.2434 72.789 96.4768 72.789 96.7008ZM77.437 111.121C77.7544 110.953 78.0437 110.775 78.305 110.589C78.585 110.402 78.8464 110.215 79.089 110.029C79.425 109.767 79.565 109.543 79.509 109.357C79.453 109.17 79.1917 109.077 78.725 109.077H74.861C75.2344 109.469 75.6357 109.833 76.065 110.169C76.513 110.505 76.9704 110.822 77.437 111.121Z" fill="#2B2F3A"/>
<path d="M51.6489 115.461C49.1476 115.816 47.0383 115.946 45.3209 115.853C43.6036 115.778 42.2223 115.526 41.1769 115.097C40.1503 114.668 39.4036 114.098 38.9369 113.389C38.4703 112.661 38.2369 111.84 38.2369 110.925C38.2369 109.525 38.7969 108.218 39.9169 107.005C41.0556 105.792 42.6983 104.728 44.8449 103.813C44.5463 103.44 44.1823 103.188 43.7529 103.057C42.8196 102.777 41.8956 102.88 40.9809 103.365C40.0849 103.85 39.2076 104.56 38.3489 105.493C38.0316 105.829 37.6116 106.016 37.0889 106.053C36.5849 106.072 36.1743 105.913 35.8569 105.577C35.5583 105.222 35.4183 104.812 35.4369 104.345C35.4743 103.878 35.6703 103.496 36.0249 103.197C36.9396 102.413 37.7423 101.564 38.4329 100.649C39.1423 99.7342 39.7396 98.7915 40.2249 97.8209C39.4223 97.8395 38.6663 97.8582 37.9569 97.8769C37.2663 97.8769 36.6689 97.8675 36.1649 97.8489C35.6983 97.8489 35.3063 97.6902 34.9889 97.3729C34.6716 97.0369 34.5129 96.6355 34.5129 96.1689C34.5316 95.7022 34.7089 95.3195 35.0449 95.0209C35.3809 94.7222 35.7823 94.5822 36.2489 94.6009C36.9023 94.6195 37.6863 94.6289 38.6009 94.6289C39.5343 94.6102 40.5049 94.5915 41.5129 94.5729C41.6063 94.2182 41.6903 93.8729 41.7649 93.5369C41.8396 93.2009 41.9049 92.8649 41.9609 92.5289C42.0356 92.0622 42.2409 91.6889 42.5769 91.4089C42.9129 91.1102 43.3143 90.9889 43.7809 91.0449C44.2476 91.1009 44.6209 91.3062 44.9009 91.6609C45.1809 92.0155 45.2929 92.4262 45.2369 92.8929C45.2183 93.1355 45.1809 93.3875 45.1249 93.6489C45.0689 93.9102 45.0036 94.1715 44.9289 94.4329C45.6383 94.3955 46.3009 94.3582 46.9169 94.3209C47.5329 94.2649 48.0836 94.1995 48.5689 94.1249C49.0356 94.0689 49.4463 94.1809 49.8009 94.4609C50.1743 94.7222 50.3889 95.0862 50.4449 95.5529C50.5009 96.0195 50.3796 96.4302 50.0809 96.7849C49.8009 97.1395 49.4369 97.3355 48.9889 97.3729C48.2983 97.4475 47.5049 97.5129 46.6089 97.5689C45.7129 97.6249 44.7796 97.6715 43.8089 97.7089C43.3983 98.6235 42.9503 99.4822 42.4649 100.285C42.9129 100.192 43.3423 100.164 43.7529 100.201C44.1636 100.22 44.5556 100.285 44.9289 100.397C45.4889 100.546 46.0303 100.808 46.5529 101.181C47.0943 101.536 47.5703 102.04 47.9809 102.693C48.8956 102.432 49.8663 102.189 50.8929 101.965C51.9383 101.741 53.0396 101.545 54.1969 101.377C54.6449 101.302 55.0556 101.405 55.4289 101.685C55.8023 101.946 56.0169 102.31 56.0729 102.777C56.1476 103.244 56.0449 103.654 55.7649 104.009C55.4849 104.364 55.1116 104.578 54.6449 104.653C53.5623 104.784 52.5636 104.942 51.6489 105.129C50.7343 105.297 49.8849 105.484 49.1009 105.689C49.1943 106.193 49.2689 106.744 49.3249 107.341C49.3809 107.938 49.4089 108.582 49.4089 109.273C49.4089 109.74 49.2409 110.141 48.9049 110.477C48.5876 110.794 48.1956 110.953 47.7289 110.953C47.2623 110.953 46.8703 110.794 46.5529 110.477C46.2356 110.141 46.0769 109.74 46.0769 109.273C46.0769 108.321 46.0209 107.472 45.9089 106.725C44.3783 107.36 43.2676 108.041 42.5769 108.769C41.9049 109.478 41.5689 110.169 41.5689 110.841C41.5689 111.345 41.8676 111.756 42.4649 112.073C43.0623 112.39 44.0609 112.568 45.4609 112.605C46.8609 112.642 48.7743 112.502 51.2009 112.185C51.6489 112.129 52.0596 112.241 52.4329 112.521C52.8063 112.782 53.0209 113.146 53.0769 113.613C53.1329 114.061 53.0209 114.462 52.7409 114.817C52.4609 115.172 52.0969 115.386 51.6489 115.461Z" fill="#2B2F3A"/>
<path d="M19.7851 116.861C19.3184 116.861 18.9077 116.73 18.5531 116.469C18.2171 116.208 18.0304 115.825 17.9931 115.321C17.9557 114.78 18.1331 114.36 18.5251 114.061C18.2264 114.098 17.9371 114.052 17.6571 113.921C17.3771 113.772 17.1904 113.548 17.0971 113.249C17.0037 112.932 16.8637 112.512 16.6771 111.989C16.4904 111.448 16.3317 111.028 16.2011 110.729C16.0704 110.356 16.0891 110.02 16.2571 109.721C16.4251 109.422 16.6677 109.217 16.9851 109.105C17.3584 108.974 17.7131 108.965 18.0491 109.077C18.3851 109.189 18.6277 109.432 18.7771 109.805C18.8517 109.973 18.9451 110.225 19.0571 110.561C19.1877 110.878 19.3091 111.196 19.4211 111.513C19.5517 111.83 19.6451 112.073 19.7011 112.241C19.9064 112.838 19.7944 113.314 19.3651 113.669C19.4024 113.669 19.4397 113.669 19.4771 113.669C19.5331 113.65 19.5797 113.641 19.6171 113.641C20.3264 113.604 20.8024 113.501 21.0451 113.333C21.2877 113.146 21.4744 112.773 21.6051 112.213C21.6611 111.989 21.7077 111.746 21.7451 111.485C21.7824 111.205 21.8104 110.897 21.8291 110.561C21.8851 109.926 21.7917 109.506 21.5491 109.301C21.3064 109.077 20.8304 108.965 20.1211 108.965H10.6571C9.23839 108.965 8.11839 108.844 7.29705 108.601C6.49439 108.358 5.91572 107.929 5.56105 107.313C5.22505 106.697 5.05705 105.838 5.05705 104.737V97.1208C5.05705 95.5715 5.47705 94.4795 6.31705 93.8448C7.15705 93.1915 8.51972 92.8648 10.4051 92.8648H10.6851C10.7784 92.5662 10.8811 92.2675 10.9931 91.9688C11.1051 91.6515 11.1797 91.4275 11.2171 91.2968C11.3477 90.8675 11.6184 90.5315 12.0291 90.2888C12.4397 90.0275 12.9437 89.9435 13.5411 90.0368C14.0637 90.1302 14.4464 90.3728 14.6891 90.7648C14.9504 91.1382 15.0064 91.5395 14.8571 91.9688C14.8384 92.0435 14.8011 92.1648 14.7451 92.3328C14.6891 92.5008 14.6331 92.6782 14.5771 92.8648H16.8731C18.7771 92.8648 20.1491 93.1728 20.9891 93.7888C21.8291 94.3862 22.2491 95.4782 22.2491 97.0648V97.6808C22.2491 99.2675 21.8291 100.369 20.9891 100.985C20.1491 101.582 18.7771 101.881 16.8731 101.881H8.61305V103.029H25.9451C26.2437 103.029 26.4957 103.141 26.7011 103.365C26.9251 103.589 27.0371 103.86 27.0371 104.177C27.0371 104.494 26.9251 104.765 26.7011 104.989C26.4957 105.213 26.2437 105.325 25.9451 105.325H8.64105C8.71572 105.81 8.91172 106.137 9.22905 106.305C9.54639 106.473 10.0784 106.557 10.8251 106.557H20.7091C22.4637 106.557 23.7051 106.912 24.4331 107.621C25.1611 108.312 25.4597 109.282 25.3291 110.533C25.2731 111.037 25.2077 111.522 25.1331 111.989C25.0771 112.437 25.0304 112.792 24.9931 113.053C24.7317 114.509 24.1624 115.508 23.2851 116.049C22.4077 116.59 21.2411 116.861 19.7851 116.861ZM1.72505 115.909C1.40772 115.704 1.18372 115.405 1.05305 115.013C0.941053 114.64 1.00639 114.276 1.24905 113.921C1.47305 113.604 1.72505 113.202 2.00505 112.717C2.28505 112.232 2.55572 111.746 2.81705 111.261C3.07839 110.757 3.28372 110.337 3.43305 110.001C3.61972 109.572 3.89039 109.292 4.24505 109.161C4.61839 109.03 5.01039 109.049 5.42105 109.217C5.79439 109.366 6.06505 109.637 6.23305 110.029C6.41972 110.402 6.41972 110.804 6.23305 111.233C6.06505 111.606 5.84105 112.054 5.56105 112.577C5.29972 113.081 5.02905 113.585 4.74905 114.089C4.46905 114.593 4.21705 115.022 3.99305 115.377C3.71305 115.788 3.35839 116.03 2.92905 116.105C2.49972 116.198 2.09839 116.133 1.72505 115.909ZM9.84505 115.993C9.43439 116.068 9.06105 116.002 8.72505 115.797C8.38905 115.61 8.19305 115.293 8.13705 114.845C8.09972 114.565 8.04372 114.22 7.96905 113.809C7.89439 113.398 7.81972 112.988 7.74505 112.577C7.67039 112.166 7.60505 111.821 7.54905 111.541C7.45572 111.13 7.52105 110.776 7.74505 110.477C7.96905 110.178 8.26772 109.992 8.64105 109.917C9.03305 109.824 9.38772 109.861 9.70505 110.029C10.0224 110.197 10.2277 110.496 10.3211 110.925C10.3957 111.205 10.4704 111.56 10.5451 111.989C10.6384 112.4 10.7317 112.82 10.8251 113.249C10.9184 113.66 10.9837 114.005 11.0211 114.285C11.1144 114.733 11.0491 115.106 10.8251 115.405C10.6011 115.704 10.2744 115.9 9.84505 115.993ZM14.4651 114.985C14.0731 115.097 13.6997 115.06 13.3451 114.873C12.9904 114.705 12.7664 114.406 12.6731 113.977C12.5984 113.604 12.4864 113.146 12.3371 112.605C12.1877 112.045 12.0664 111.588 11.9731 111.233C11.8424 110.841 11.8704 110.496 12.0571 110.197C12.2624 109.898 12.5424 109.702 12.8971 109.609C13.2704 109.497 13.6251 109.516 13.9611 109.665C14.2971 109.814 14.5304 110.094 14.6611 110.505C14.7731 110.841 14.9037 111.289 15.0531 111.849C15.2211 112.409 15.3517 112.857 15.4451 113.193C15.5571 113.622 15.5104 113.996 15.3051 114.313C15.1184 114.649 14.8384 114.873 14.4651 114.985ZM8.61305 99.6688H16.6491C17.8064 99.6688 18.4784 99.2768 18.6651 98.4928H8.61305V99.6688ZM8.66905 96.3648H18.6651C18.4784 95.5808 17.8064 95.1888 16.6491 95.1888H10.6851C9.54639 95.1888 8.87439 95.5808 8.66905 96.3648Z" fill="#2B2F3A"/>
<defs>
<clipPath id="clip0_518_11328">
<rect width="228" height="54" fill="white" transform="translate(64)"/>
</clipPath>
</defs>
</svg>
