<svg width="332" height="113" viewBox="0 0 332 113" fill="none" xmlns="http://www.w3.org/2000/svg">
<path d="M327.806 111.464C327.118 111.464 326.486 111.296 325.91 110.96C325.35 110.624 324.902 110.176 324.566 109.616C324.246 109.04 324.086 108.416 324.086 107.744C324.086 107.04 324.254 106.408 324.59 105.848C324.926 105.272 325.374 104.816 325.934 104.48C326.51 104.144 327.134 103.976 327.806 103.976C328.494 103.976 329.118 104.144 329.678 104.48C330.254 104.816 330.71 105.272 331.046 105.848C331.382 106.408 331.55 107.04 331.55 107.744C331.55 108.432 331.382 109.056 331.046 109.616C330.71 110.176 330.262 110.624 329.702 110.96C329.142 111.296 328.51 111.464 327.806 111.464ZM327.806 109.784C328.382 109.784 328.87 109.584 329.27 109.184C329.67 108.768 329.87 108.28 329.87 107.72C329.87 107.16 329.67 106.68 329.27 106.28C328.87 105.88 328.382 105.68 327.806 105.68C327.246 105.68 326.766 105.88 326.366 106.28C325.966 106.68 325.766 107.16 325.766 107.72C325.766 108.264 325.958 108.744 326.342 109.16C326.742 109.576 327.23 109.784 327.806 109.784Z" fill="#2B2F3A"/>
<path d="M306.878 111.128C306.59 110.856 306.43 110.52 306.398 110.12C306.382 109.72 306.518 109.376 306.806 109.088C308.022 107.856 308.974 106.304 309.662 104.432C310.366 102.56 310.718 100.52 310.718 98.3121C310.718 97.0641 310.518 96.1601 310.118 95.6001C309.718 95.0401 309.126 94.7601 308.342 94.7601C307.702 94.7601 307.11 95.0241 306.566 95.5521C306.022 96.0641 305.614 96.8321 305.342 97.8561C305.07 98.8801 304.998 100.168 305.126 101.72C305.158 102.088 305.054 102.424 304.814 102.728C304.59 103.016 304.294 103.176 303.926 103.208C303.542 103.24 303.206 103.144 302.918 102.92C302.646 102.696 302.478 102.4 302.414 102.032C302.302 101.2 302.23 100.288 302.198 99.2961C302.166 98.2881 302.158 97.2881 302.174 96.2961C302.206 95.2881 302.254 94.3601 302.318 93.5121C302.382 92.6481 302.446 91.9361 302.51 91.3761C302.558 90.9921 302.734 90.6801 303.038 90.4401C303.342 90.2001 303.686 90.1041 304.07 90.1521C304.47 90.2001 304.782 90.3681 305.006 90.6561C305.246 90.9441 305.334 91.2961 305.27 91.7121C305.238 92.0001 305.19 92.3681 305.126 92.8161C305.078 93.2641 305.038 93.6881 305.006 94.0881C305.374 93.4641 305.87 92.9441 306.494 92.5281C307.118 92.0961 307.766 91.8801 308.438 91.8801C310.15 91.8801 311.43 92.4401 312.278 93.5601C313.126 94.6641 313.55 96.2481 313.55 98.3121C313.55 99.9601 313.374 101.568 313.022 103.136C312.686 104.688 312.174 106.144 311.486 107.504C310.814 108.848 309.966 110.04 308.942 111.08C308.67 111.368 308.326 111.512 307.91 111.512C307.51 111.528 307.166 111.4 306.878 111.128Z" fill="#2B2F3A"/>
<path d="M287.246 109.328C284.83 109.888 282.67 110.128 280.766 110.048C278.878 109.984 277.302 109.624 276.038 108.968C274.79 108.312 273.918 107.384 273.422 106.184C273.262 105.816 273.262 105.448 273.422 105.08C273.582 104.712 273.846 104.456 274.214 104.312C274.582 104.152 274.942 104.152 275.294 104.312C275.662 104.472 275.918 104.736 276.062 105.104C276.366 105.792 276.99 106.32 277.934 106.688C278.878 107.056 280.086 107.24 281.558 107.24C283.046 107.224 284.726 106.984 286.598 106.52C286.982 106.424 287.342 106.488 287.678 106.712C288.014 106.92 288.23 107.216 288.326 107.6C288.406 107.984 288.342 108.344 288.134 108.68C287.926 109.016 287.63 109.232 287.246 109.328ZM285.038 96.2C284.174 95.976 283.246 95.808 282.254 95.696C281.278 95.568 280.31 95.496 279.35 95.48C278.39 95.464 277.494 95.496 276.662 95.576C276.262 95.624 275.902 95.528 275.582 95.288C275.278 95.048 275.102 94.728 275.054 94.328C275.006 93.928 275.102 93.576 275.342 93.272C275.582 92.952 275.902 92.768 276.302 92.72C277.262 92.624 278.318 92.6 279.47 92.648C280.622 92.68 281.742 92.76 282.83 92.888C283.934 93.016 284.894 93.184 285.71 93.392C286.094 93.504 286.39 93.728 286.598 94.064C286.806 94.384 286.862 94.736 286.766 95.12C286.686 95.504 286.47 95.808 286.118 96.032C285.782 96.24 285.422 96.296 285.038 96.2Z" fill="#2B2F3A"/>
<path d="M253.046 110.48C252.694 110.528 252.374 110.44 252.086 110.216C251.814 110.008 251.654 109.728 251.606 109.376C251.574 109.024 251.662 108.712 251.87 108.44C252.094 108.152 252.382 107.984 252.734 107.936C254.254 107.728 255.454 107.4 256.334 106.952C257.23 106.504 257.854 105.976 258.206 105.368C258.558 104.76 258.686 104.128 258.59 103.472C258.478 102.624 258.166 102.008 257.654 101.624C257.142 101.24 256.414 101.088 255.47 101.168C254.958 101.2 254.358 101.272 253.67 101.384C252.998 101.48 252.302 101.592 251.582 101.72C250.862 101.848 250.174 101.992 249.518 102.152C248.862 102.296 248.294 102.432 247.814 102.56C247.462 102.656 247.134 102.624 246.83 102.464C246.526 102.288 246.326 102.024 246.23 101.672C246.134 101.336 246.166 101.016 246.326 100.712C246.502 100.392 246.766 100.184 247.118 100.088C247.63 99.944 248.23 99.8 248.918 99.656C249.622 99.512 250.35 99.376 251.102 99.248C251.87 99.104 252.614 98.984 253.334 98.888C254.07 98.792 254.718 98.72 255.278 98.672C256.894 98.544 258.214 98.872 259.238 99.656C260.262 100.424 260.878 101.552 261.086 103.04C261.262 104.176 261.086 105.272 260.558 106.328C260.03 107.368 259.142 108.264 257.894 109.016C256.646 109.752 255.03 110.24 253.046 110.48Z" fill="#2B2F3A"/>
<path d="M227.702 110.696C226.422 110.696 225.39 110.384 224.606 109.76C223.838 109.136 223.454 108.224 223.454 107.024C223.454 105.904 223.838 105.016 224.606 104.36C225.39 103.704 226.462 103.376 227.822 103.376C228.254 103.376 228.686 103.4 229.118 103.448C229.102 102.968 229.086 102.464 229.07 101.936C229.054 101.408 229.038 100.872 229.022 100.328C228.27 100.376 227.558 100.408 226.886 100.424C226.214 100.44 225.67 100.44 225.254 100.424C224.87 100.408 224.542 100.256 224.27 99.9678C224.014 99.6798 223.894 99.3438 223.91 98.9598C223.942 98.5598 224.094 98.2318 224.366 97.9758C224.654 97.7198 224.998 97.5998 225.398 97.6158C225.782 97.6318 226.286 97.6318 226.91 97.6158C227.55 97.5838 228.23 97.5438 228.95 97.4958C228.95 97.1278 228.942 96.7678 228.926 96.4158C228.926 96.0638 228.926 95.7278 228.926 95.4078C228.302 95.4398 227.694 95.4718 227.102 95.5038C226.526 95.5198 226.006 95.5278 225.542 95.5278C225.158 95.5278 224.83 95.3838 224.558 95.0958C224.286 94.8078 224.158 94.4638 224.174 94.0638C224.19 93.6798 224.334 93.3598 224.606 93.1038C224.894 92.8318 225.238 92.6958 225.638 92.6958C226.166 92.6958 226.766 92.6798 227.438 92.6478C228.126 92.6158 228.83 92.5758 229.55 92.5278C230.27 92.4798 230.958 92.4238 231.614 92.3598C232.286 92.2798 232.87 92.2078 233.366 92.1438C233.75 92.0798 234.102 92.1598 234.422 92.3838C234.742 92.6078 234.934 92.9118 234.998 93.2958C235.062 93.6798 234.974 94.0318 234.734 94.3518C234.51 94.6718 234.206 94.8638 233.822 94.9278C233.534 94.9758 233.214 95.0238 232.862 95.0718C232.51 95.1038 232.142 95.1358 231.758 95.1678C231.758 95.5198 231.758 95.8718 231.758 96.2238C231.774 96.5598 231.782 96.9118 231.782 97.2798C232.774 97.1998 233.606 97.1118 234.278 97.0158C234.662 96.9518 235.006 97.0318 235.31 97.2558C235.63 97.4798 235.822 97.7838 235.886 98.1678C235.966 98.5518 235.886 98.9038 235.646 99.2238C235.422 99.5278 235.118 99.7118 234.734 99.7758C234.014 99.9038 233.054 100.016 231.854 100.112C231.87 100.832 231.886 101.528 231.902 102.2C231.918 102.872 231.934 103.488 231.95 104.048C232.846 104.336 233.678 104.68 234.446 105.08C235.23 105.48 235.91 105.888 236.486 106.304C236.806 106.544 236.998 106.864 237.062 107.264C237.126 107.664 237.046 108.024 236.822 108.344C236.598 108.648 236.286 108.84 235.886 108.92C235.502 109 235.15 108.92 234.83 108.68C234.014 108.072 233.07 107.52 231.998 107.024C231.854 109.472 230.422 110.696 227.702 110.696ZM219.854 110.936C219.454 111 219.094 110.92 218.774 110.696C218.454 110.488 218.254 110.184 218.174 109.784C218.078 109.256 218.006 108.552 217.958 107.672C217.91 106.776 217.878 105.776 217.862 104.672C217.846 103.552 217.846 102.4 217.862 101.216C217.894 100.016 217.942 98.8558 218.006 97.7358C218.07 96.5998 218.15 95.5678 218.246 94.6398C218.358 93.6958 218.486 92.9278 218.63 92.3358C218.726 91.9518 218.942 91.6558 219.278 91.4478C219.614 91.2398 219.974 91.1838 220.358 91.2798C220.758 91.3598 221.054 91.5758 221.246 91.9278C221.454 92.2638 221.518 92.6238 221.438 93.0078C221.262 93.7278 221.11 94.6478 220.982 95.7678C220.87 96.8718 220.782 98.0718 220.718 99.3678C220.67 100.648 220.646 101.928 220.646 103.208C220.646 104.472 220.678 105.64 220.742 106.712C220.806 107.768 220.894 108.624 221.006 109.28C221.086 109.68 221.006 110.04 220.766 110.36C220.542 110.68 220.238 110.872 219.854 110.936ZM227.702 108.008C228.694 108.008 229.19 107.528 229.19 106.568V106.112C228.694 106.016 228.198 105.968 227.702 105.968C227.206 105.968 226.838 106.072 226.598 106.28C226.374 106.472 226.262 106.72 226.262 107.024C226.262 107.328 226.374 107.568 226.598 107.744C226.822 107.92 227.19 108.008 227.702 108.008Z" fill="#2B2F3A"/>
<path d="M202.022 111.296C200.614 111.296 199.51 111.168 198.71 110.912C197.91 110.656 197.342 110.208 197.006 109.568C196.67 108.912 196.502 108 196.502 106.832V97.664C196.502 97.2 196.646 96.84 196.934 96.584C197.222 96.328 197.566 96.2 197.966 96.2C198.382 96.2 198.726 96.328 198.998 96.584C199.286 96.84 199.43 97.2 199.43 97.664V106.52C199.43 107.064 199.502 107.48 199.646 107.768C199.806 108.04 200.086 108.232 200.486 108.344C200.886 108.44 201.454 108.488 202.19 108.488C202.878 108.488 203.406 108.448 203.774 108.368C204.142 108.272 204.422 108.088 204.614 107.816C204.822 107.528 205.006 107.104 205.166 106.544C205.294 106.16 205.534 105.888 205.886 105.728C206.254 105.568 206.646 105.552 207.062 105.68C207.478 105.808 207.766 106.032 207.926 106.352C208.102 106.672 208.134 107.04 208.022 107.456C207.798 108.416 207.462 109.176 207.014 109.736C206.566 110.296 205.942 110.696 205.142 110.936C204.358 111.176 203.318 111.296 202.022 111.296ZM189.614 106.64C189.246 106.448 189.022 106.16 188.942 105.776C188.862 105.376 188.926 105.008 189.134 104.672C189.486 104.128 189.83 103.536 190.166 102.896C190.518 102.24 190.846 101.584 191.15 100.928C191.454 100.256 191.702 99.632 191.894 99.056C192.038 98.64 192.302 98.376 192.686 98.264C193.086 98.136 193.47 98.152 193.838 98.312C194.238 98.472 194.502 98.728 194.63 99.08C194.758 99.416 194.75 99.776 194.606 100.16C194.382 100.752 194.118 101.408 193.814 102.128C193.51 102.832 193.182 103.528 192.83 104.216C192.478 104.904 192.118 105.528 191.75 106.088C191.51 106.44 191.182 106.672 190.766 106.784C190.366 106.896 189.982 106.848 189.614 106.64ZM210.974 104.936C210.622 105.208 210.23 105.312 209.798 105.248C209.382 105.168 209.062 104.952 208.838 104.6C208.534 104.104 208.15 103.56 207.686 102.968C207.238 102.376 206.766 101.8 206.27 101.24C205.79 100.68 205.334 100.192 204.902 99.776C204.646 99.52 204.526 99.208 204.542 98.84C204.574 98.456 204.726 98.136 204.998 97.88C205.27 97.624 205.598 97.496 205.982 97.496C206.366 97.48 206.71 97.608 207.014 97.88C207.51 98.344 208.022 98.872 208.55 99.464C209.078 100.04 209.582 100.624 210.062 101.216C210.542 101.792 210.942 102.32 211.262 102.8C211.518 103.168 211.622 103.552 211.574 103.952C211.526 104.336 211.326 104.664 210.974 104.936ZM202.094 95.504C201.71 95.232 201.254 94.92 200.726 94.568C200.198 94.216 199.662 93.872 199.118 93.536C198.59 93.2 198.11 92.928 197.678 92.72C197.326 92.544 197.118 92.272 197.054 91.904C196.99 91.52 197.038 91.1839 197.198 90.8959C197.39 90.56 197.662 90.344 198.014 90.248C198.366 90.136 198.718 90.168 199.07 90.3439C199.518 90.5519 200.014 90.816 200.558 91.136C201.118 91.44 201.678 91.768 202.238 92.12C202.798 92.456 203.294 92.776 203.726 93.08C204.062 93.304 204.27 93.6 204.35 93.968C204.43 94.336 204.358 94.704 204.134 95.072C203.926 95.408 203.614 95.624 203.198 95.72C202.782 95.8 202.414 95.728 202.094 95.504Z" fill="#2B2F3A"/>
<path d="M168.782 110.96C168.478 111.216 168.126 111.32 167.726 111.272C167.326 111.24 166.99 111.072 166.718 110.768C166.478 110.48 166.158 110.128 165.758 109.712C165.358 109.28 164.942 108.856 164.51 108.44C164.094 108.008 163.726 107.656 163.406 107.384C163.15 107.144 162.998 106.84 162.95 106.472C162.918 106.088 163.03 105.76 163.286 105.488C163.558 105.216 163.87 105.064 164.222 105.032C164.59 105 164.926 105.096 165.23 105.32C165.582 105.592 165.99 105.944 166.454 106.376C166.934 106.808 167.398 107.256 167.846 107.72C168.31 108.168 168.678 108.56 168.95 108.896C169.222 109.2 169.342 109.552 169.31 109.952C169.278 110.352 169.102 110.688 168.782 110.96Z" fill="#2B2F3A"/>
<path d="M152.726 110.768C150.838 110.496 149.278 109.952 148.046 109.136C146.814 108.304 145.894 107.304 145.286 106.136C144.694 104.968 144.398 103.752 144.398 102.488C144.398 101.208 144.646 100.016 145.142 98.912C145.654 97.792 146.382 96.824 147.326 96.008C146.366 96.152 145.342 96.32 144.254 96.512C143.166 96.688 142.11 96.872 141.086 97.064C140.062 97.24 139.166 97.4 138.398 97.544C138.014 97.608 137.662 97.52 137.342 97.28C137.022 97.04 136.83 96.728 136.766 96.344C136.702 95.944 136.79 95.592 137.03 95.288C137.27 94.968 137.59 94.776 137.99 94.712C138.502 94.632 139.158 94.528 139.958 94.4C140.758 94.256 141.654 94.104 142.646 93.944C143.638 93.784 144.654 93.616 145.694 93.44C146.734 93.264 147.75 93.096 148.742 92.936C149.75 92.76 150.67 92.6 151.502 92.456C152.334 92.312 153.014 92.192 153.542 92.096C153.91 92.032 154.254 92.112 154.574 92.336C154.894 92.56 155.094 92.856 155.174 93.224C155.254 93.608 155.182 93.968 154.958 94.304C154.75 94.64 154.454 94.84 154.07 94.904C152.902 95.064 151.886 95.4 151.022 95.912C150.174 96.408 149.47 97.016 148.91 97.736C148.35 98.44 147.934 99.192 147.662 99.992C147.39 100.792 147.254 101.568 147.254 102.32C147.254 103.872 147.782 105.128 148.838 106.088C149.894 107.032 151.326 107.64 153.134 107.912C153.534 107.976 153.854 108.168 154.094 108.488C154.334 108.808 154.422 109.16 154.358 109.544C154.294 109.944 154.102 110.264 153.782 110.504C153.478 110.744 153.126 110.832 152.726 110.768Z" fill="#2B2F3A"/>
<path d="M125.75 110.768C123.862 110.496 122.302 109.952 121.07 109.136C119.838 108.304 118.918 107.304 118.31 106.136C117.718 104.968 117.422 103.752 117.422 102.488C117.422 101.208 117.67 100.016 118.166 98.912C118.662 97.792 119.382 96.824 120.326 96.008C119.366 96.152 118.342 96.32 117.254 96.512C116.166 96.688 115.11 96.872 114.086 97.064C113.078 97.24 112.19 97.4 111.422 97.544C111.022 97.608 110.662 97.52 110.342 97.28C110.038 97.04 109.854 96.728 109.79 96.344C109.726 95.944 109.806 95.592 110.03 95.288C110.27 94.968 110.59 94.776 110.99 94.712C111.502 94.632 112.158 94.528 112.958 94.4C113.758 94.256 114.654 94.104 115.646 93.944C116.638 93.784 117.654 93.616 118.694 93.44C119.734 93.264 120.75 93.096 121.742 92.936C122.75 92.76 123.67 92.6 124.502 92.456C125.334 92.312 126.014 92.192 126.542 92.096C126.91 92.032 127.254 92.112 127.574 92.336C127.91 92.56 128.11 92.856 128.174 93.224C128.254 93.608 128.19 93.968 127.982 94.304C127.79 94.64 127.502 94.84 127.118 94.904C125.998 95.08 125.014 95.424 124.166 95.936C123.318 96.432 122.598 97.04 122.006 97.76C121.43 98.464 120.99 99.216 120.686 100.016C120.398 100.8 120.254 101.576 120.254 102.344C120.254 103.896 120.782 105.152 121.838 106.112C122.894 107.056 124.334 107.656 126.158 107.912C126.542 107.976 126.854 108.168 127.094 108.488C127.334 108.808 127.422 109.16 127.358 109.544C127.31 109.944 127.126 110.264 126.806 110.504C126.486 110.744 126.134 110.832 125.75 110.768ZM128.798 100.952C128.59 101.128 128.334 101.2 128.03 101.168C127.742 101.136 127.51 101 127.334 100.76C127.158 100.536 126.934 100.256 126.662 99.92C126.39 99.568 126.142 99.264 125.918 99.008C125.774 98.832 125.702 98.624 125.702 98.384C125.718 98.128 125.83 97.912 126.038 97.736C126.23 97.56 126.446 97.48 126.686 97.496C126.942 97.496 127.174 97.584 127.382 97.76C127.622 97.968 127.894 98.24 128.198 98.576C128.518 98.912 128.782 99.216 128.99 99.488C129.166 99.712 129.23 99.968 129.182 100.256C129.15 100.544 129.022 100.776 128.798 100.952ZM131.102 98.888C130.894 99.096 130.638 99.192 130.334 99.176C130.046 99.16 129.806 99.04 129.614 98.816C129.422 98.592 129.174 98.32 128.87 98C128.582 97.68 128.318 97.4 128.078 97.16C127.918 97 127.83 96.792 127.814 96.536C127.814 96.28 127.91 96.056 128.102 95.864C128.278 95.688 128.494 95.6 128.75 95.6C129.006 95.584 129.238 95.656 129.446 95.816C129.702 95.992 129.998 96.24 130.334 96.56C130.67 96.864 130.95 97.152 131.174 97.424C131.366 97.632 131.454 97.88 131.438 98.168C131.422 98.44 131.31 98.68 131.102 98.888Z" fill="#2B2F3A"/>
<path d="M83.4861 112.112C83.1021 112.128 82.7741 112.04 82.5021 111.848C82.2301 111.672 82.0781 111.384 82.0461 110.984C82.0141 110.6 82.1261 110.296 82.3821 110.072C82.6381 109.848 82.9741 109.728 83.3901 109.712C84.6701 109.648 85.9261 109.512 87.1581 109.304C88.4061 109.08 89.5661 108.792 90.6381 108.44C90.2541 108.12 89.8861 107.792 89.5341 107.456C89.1821 107.104 88.8461 106.728 88.5261 106.328C87.3581 107.16 86.1421 107.816 84.8781 108.296C84.5261 108.44 84.1901 108.464 83.8701 108.368C83.5501 108.256 83.3181 108.024 83.1741 107.672C83.0461 107.352 83.0541 107.048 83.1981 106.76C83.3421 106.472 83.5981 106.264 83.9661 106.136C85.0061 105.752 86.0461 105.216 87.0861 104.528C88.1261 103.824 89.0061 103.096 89.7261 102.344C89.1981 102.12 88.8381 101.8 88.6461 101.384C88.4701 100.968 88.3821 100.416 88.3821 99.7279V98.6959C88.3821 98.2959 88.5101 97.9839 88.7661 97.7599C89.0221 97.5199 89.3261 97.3999 89.6781 97.3999C90.0461 97.3999 90.3501 97.5199 90.5901 97.7599C90.8461 97.9839 90.9741 98.2959 90.9741 98.6959V99.5359C90.9741 99.8239 91.0221 100.04 91.1181 100.184C91.2301 100.328 91.4381 100.424 91.7421 100.472C92.0621 100.52 92.5181 100.544 93.1101 100.544C93.6861 100.544 94.1181 100.52 94.4061 100.472C94.6941 100.408 94.9021 100.304 95.0301 100.16C95.1741 100.016 95.2781 99.7999 95.3421 99.5119C95.4381 99.1759 95.6381 98.9359 95.9421 98.7919C96.2621 98.6479 96.5741 98.6159 96.8781 98.6959C97.1501 98.7599 97.3661 98.8799 97.5261 99.0559C97.4941 98.6879 97.6141 98.3839 97.8861 98.1439C98.1261 97.9199 98.3981 97.8079 98.7021 97.8079C99.0221 97.8079 99.2941 97.9199 99.5181 98.1439C99.6621 98.2879 99.8221 98.4559 99.9981 98.6479C100.174 98.8239 100.358 99.0159 100.55 99.2239V98.2879C100.55 97.8399 100.438 97.5359 100.214 97.3759C100.006 97.2159 99.5981 97.1359 98.9901 97.1359H93.6381C93.7821 97.2959 93.9501 97.5039 94.1421 97.7599C94.3501 98.0159 94.5101 98.2079 94.6221 98.3359C94.8141 98.5919 94.8781 98.8719 94.8141 99.1759C94.7501 99.4639 94.5821 99.7039 94.3101 99.8959C94.0541 100.056 93.7741 100.12 93.4701 100.088C93.1661 100.056 92.9181 99.9119 92.7261 99.6559C92.6621 99.5759 92.5501 99.4479 92.3901 99.2719C92.2461 99.0799 92.0941 98.8879 91.9341 98.6959C91.7901 98.5039 91.6781 98.3599 91.5981 98.2639C91.4861 98.0879 91.4221 97.8959 91.4061 97.6879C91.4061 97.4799 91.4541 97.2959 91.5501 97.1359H86.5341C85.9261 97.1359 85.5101 97.2159 85.2861 97.3759C85.0781 97.5359 84.9741 97.8399 84.9741 98.2879V99.0079C84.9741 99.4239 84.8381 99.7599 84.5661 100.016C84.3101 100.256 83.9901 100.376 83.6061 100.376C83.2381 100.376 82.9181 100.256 82.6461 100.016C82.3901 99.7599 82.2621 99.4239 82.2621 99.0079V98.3359C82.2621 97.5199 82.3821 96.8719 82.6221 96.3919C82.8621 95.8959 83.2861 95.5439 83.8941 95.3359C84.5181 95.1119 85.3741 94.9999 86.4621 94.9999H86.6061C86.5261 94.8559 86.4461 94.7119 86.3661 94.5679C86.2861 94.4239 86.2301 94.3119 86.1981 94.2319C86.0861 94.0399 86.0381 93.8399 86.0541 93.6319C86.0701 93.4239 86.1341 93.2399 86.2461 93.0799C86.0381 93.0959 85.8221 93.1039 85.5981 93.1039C85.3741 93.1039 85.1581 93.1039 84.9501 93.1039C84.5181 93.1199 84.1901 93.0239 83.9661 92.8159C83.7421 92.6079 83.6141 92.3279 83.5821 91.9759C83.5661 91.6559 83.6781 91.3759 83.9181 91.1359C84.1741 90.8959 84.5021 90.7759 84.9021 90.7759C86.0381 90.7919 87.2381 90.7759 88.5021 90.7279C89.7821 90.6799 91.0621 90.6079 92.3421 90.5119C93.6221 90.3999 94.8381 90.2719 95.9901 90.1279C97.1581 89.9679 98.1901 89.7839 99.0861 89.5759C99.5341 89.4799 99.9101 89.4959 100.214 89.6239C100.518 89.7519 100.718 89.9919 100.814 90.3439C100.91 90.7439 100.87 91.0719 100.694 91.3279C100.518 91.5679 100.238 91.7279 99.8541 91.8079C99.6781 91.8399 99.4941 91.8799 99.3021 91.9279C99.1101 91.9599 98.9181 91.9919 98.7261 92.0239C98.8701 92.0399 99.0141 92.0879 99.1581 92.1679C99.4781 92.3279 99.6861 92.5679 99.7821 92.8879C99.8941 93.1919 99.8621 93.4959 99.6861 93.7999C99.6221 93.9439 99.5261 94.1279 99.3981 94.3519C99.2701 94.5599 99.1421 94.7759 99.0141 94.9999H99.0381C100.142 94.9999 100.998 95.0959 101.606 95.2879C102.214 95.4799 102.638 95.8079 102.878 96.2719C103.134 96.7359 103.262 97.3759 103.262 98.1919V99.0079C103.262 99.4239 103.126 99.7599 102.854 100.016C102.598 100.256 102.278 100.376 101.894 100.376C101.846 100.376 101.79 100.376 101.726 100.376C101.678 100.36 101.622 100.344 101.558 100.328C101.638 100.408 101.702 100.488 101.75 100.568C101.814 100.632 101.878 100.696 101.942 100.76C102.166 101.016 102.254 101.312 102.206 101.648C102.174 101.984 102.022 102.264 101.75 102.488C101.478 102.696 101.174 102.784 100.838 102.752C100.502 102.72 100.23 102.568 100.022 102.296C99.8461 102.072 99.6221 101.8 99.3501 101.48C99.0781 101.16 98.7981 100.84 98.5101 100.52C98.2381 100.2 98.0061 99.9359 97.8141 99.7279C97.8301 99.7919 97.8221 99.8959 97.7901 100.04C97.7901 100.056 97.7901 100.072 97.7901 100.088C97.6301 101.048 97.2061 101.736 96.5181 102.152C95.8301 102.552 94.6861 102.752 93.0861 102.752H92.3181C92.2061 102.896 92.0861 103.048 91.9581 103.208C91.8461 103.352 91.7261 103.496 91.5981 103.64H95.2221C96.2621 103.64 97.0141 103.856 97.4781 104.288C97.9421 104.704 98.1261 105.224 98.0301 105.848C97.9341 106.456 97.5581 107.048 96.9021 107.624C96.5821 107.912 96.2061 108.2 95.7741 108.488C97.5181 109.08 99.5901 109.4 101.99 109.448C102.502 109.464 102.894 109.6 103.166 109.856C103.454 110.112 103.574 110.448 103.526 110.864C103.462 111.296 103.278 111.592 102.974 111.752C102.67 111.928 102.302 112.008 101.87 111.992C100.142 111.912 98.5421 111.704 97.0701 111.368C95.6141 111.032 94.2861 110.568 93.0861 109.976C91.6781 110.6 90.1501 111.08 88.5021 111.416C86.8701 111.768 85.1981 112 83.4861 112.112ZM83.7741 102.776C83.5341 102.552 83.4061 102.28 83.3901 101.96C83.3901 101.64 83.5021 101.36 83.7261 101.12C83.9181 100.912 84.1421 100.648 84.3981 100.328C84.6701 100.008 84.9261 99.6799 85.1661 99.3439C85.4061 99.0079 85.5981 98.7279 85.7421 98.5039C85.9181 98.2319 86.1741 98.0719 86.5101 98.0239C86.8461 97.9599 87.1501 98.0239 87.4221 98.2159C87.7261 98.4239 87.9021 98.6879 87.9501 99.0079C88.0141 99.3119 87.9581 99.6079 87.7821 99.8959C87.5101 100.312 87.1741 100.784 86.7741 101.312C86.3901 101.84 86.0301 102.288 85.6941 102.656C85.4541 102.912 85.1421 103.064 84.7581 103.112C84.3901 103.144 84.0621 103.032 83.7741 102.776ZM94.0941 94.9999H96.1821C96.2941 94.7919 96.4301 94.5279 96.5901 94.2079C96.7661 93.8719 96.9341 93.5599 97.0941 93.2719C97.2541 92.9679 97.3581 92.7599 97.4061 92.6479C97.5181 92.4399 97.6781 92.2719 97.8861 92.1439C97.1981 92.2559 96.4621 92.3519 95.6781 92.4319C94.9101 92.5119 94.1261 92.5919 93.3261 92.6719C93.3581 92.7199 93.3901 92.7679 93.4221 92.8159C93.4541 92.8639 93.4781 92.9119 93.4941 92.9599C93.5741 93.1199 93.6701 93.3599 93.7821 93.6799C93.8941 93.9839 93.9661 94.1999 93.9981 94.3279C94.0941 94.5519 94.1261 94.7759 94.0941 94.9999ZM89.2461 94.9999H91.6221C91.5581 94.8079 91.4781 94.5999 91.3821 94.3759C91.3021 94.1519 91.2461 93.9839 91.2141 93.8719C91.0701 93.5199 91.0941 93.1759 91.2861 92.8399C90.7901 92.8719 90.2941 92.9039 89.7981 92.9359C89.3021 92.9519 88.8061 92.9759 88.3101 93.0079C88.3581 93.0559 88.3901 93.0959 88.4061 93.1279C88.4861 93.2879 88.6061 93.5119 88.7661 93.7999C88.9261 94.0879 89.0381 94.2879 89.1021 94.3999C89.1981 94.6079 89.2461 94.8079 89.2461 94.9999ZM93.2301 107.36C93.5021 107.216 93.7501 107.064 93.9741 106.904C94.2141 106.744 94.4381 106.584 94.6461 106.424C94.9341 106.2 95.0541 106.008 95.0061 105.848C94.9581 105.688 94.7341 105.608 94.3341 105.608H91.0221C91.3421 105.944 91.6861 106.256 92.0541 106.544C92.4381 106.832 92.8301 107.104 93.2301 107.36Z" fill="#2B2F3A"/>
<path d="M57.1581 110.384C56.8061 110.24 56.5581 109.976 56.4141 109.592C56.2701 109.208 56.2781 108.84 56.4381 108.488C56.7101 107.896 57.0541 107.152 57.4701 106.256C57.9021 105.36 58.3661 104.384 58.8621 103.328C59.3741 102.272 59.8941 101.192 60.4221 100.088C60.9501 98.9841 61.4701 97.9121 61.9821 96.8721C62.4941 95.8321 62.9661 94.8881 63.3981 94.0401C63.8301 93.1761 64.1901 92.4721 64.4781 91.9281C64.6541 91.5761 64.9341 91.3521 65.3181 91.2561C65.7181 91.1441 66.0861 91.1921 66.4221 91.4001C66.7741 91.6081 66.9981 91.9041 67.0941 92.2881C67.2061 92.6561 67.1581 93.0161 66.9501 93.3681C66.7261 93.7681 66.4301 94.3121 66.0621 95.0001C65.7101 95.6881 65.3101 96.4641 64.8621 97.3281C64.4301 98.1921 63.9821 99.0961 63.5181 100.04C64.0781 99.8001 64.6461 99.6801 65.2221 99.6801C66.7421 99.6801 67.7821 100.16 68.3421 101.12C68.9181 102.08 68.9741 103.392 68.5101 105.056C68.2701 105.92 68.2461 106.512 68.4381 106.832C68.6461 107.152 69.0221 107.312 69.5661 107.312C69.9341 107.312 70.2861 107.232 70.6221 107.072C70.9581 106.896 71.3021 106.552 71.6541 106.04C72.0061 105.528 72.3741 104.776 72.7581 103.784C72.9021 103.416 73.1581 103.152 73.5261 102.992C73.8941 102.832 74.2621 102.816 74.6301 102.944C74.9981 103.088 75.2621 103.344 75.4221 103.712C75.5981 104.08 75.6141 104.456 75.4701 104.84C74.8301 106.632 74.0301 107.968 73.0701 108.848C72.1261 109.712 70.9181 110.144 69.4461 110.144C68.4381 110.144 67.5901 109.936 66.9021 109.52C66.2141 109.104 65.7581 108.48 65.5341 107.648C65.3101 106.8 65.3741 105.744 65.7261 104.48C65.9501 103.712 65.9741 103.176 65.7981 102.872C65.6221 102.552 65.2541 102.392 64.6941 102.392C63.9741 102.392 63.3021 102.616 62.6781 103.064C62.0541 103.512 61.4461 104.352 60.8541 105.584C60.7901 105.712 60.6701 105.968 60.4941 106.352C60.3341 106.72 60.1581 107.128 59.9661 107.576C59.7741 108.024 59.5901 108.432 59.4141 108.8C59.2541 109.152 59.1501 109.392 59.1021 109.52C58.9421 109.888 58.6781 110.16 58.3101 110.336C57.9581 110.528 57.5741 110.544 57.1581 110.384Z" fill="#2B2F3A"/>
<path d="M41.6301 111.392C39.5661 111.424 37.8461 111.176 36.4701 110.648C35.1101 110.136 34.1101 109.4 33.4701 108.44C32.8301 107.48 32.5501 106.352 32.6301 105.056C32.7101 103.856 33.1101 102.904 33.8301 102.2C34.5661 101.48 35.5181 101 36.6861 100.76C37.8541 100.504 39.1421 100.48 40.5501 100.688C40.1021 100.224 39.6381 99.6721 39.1581 99.0321C38.6941 98.3921 38.2541 97.7121 37.8381 96.9921C36.8941 97.1361 35.9421 97.2641 34.9821 97.3761C34.0381 97.4721 33.1101 97.5441 32.1981 97.5921C31.7981 97.6081 31.4541 97.4961 31.1661 97.2561C30.8781 97.0001 30.7261 96.6721 30.7101 96.2721C30.6941 95.8721 30.8221 95.5361 31.0941 95.2641C31.3661 94.9761 31.7021 94.8241 32.1021 94.8081C32.8061 94.7761 33.5341 94.7281 34.2861 94.6641C35.0541 94.6001 35.8221 94.5201 36.5901 94.4241C36.4301 94.0401 36.2941 93.6641 36.1821 93.2961C36.0701 92.9121 35.9741 92.5441 35.8941 92.1921C35.8301 91.8081 35.9021 91.4481 36.1101 91.1121C36.3181 90.7761 36.6141 90.5681 36.9981 90.4881C37.3981 90.4081 37.7581 90.4801 38.0781 90.7041C38.4141 90.9281 38.6221 91.2321 38.7021 91.6161C38.8781 92.4001 39.1181 93.1841 39.4221 93.9681C40.2061 93.8081 40.9581 93.6401 41.6781 93.4641C42.4141 93.2881 43.0941 93.0961 43.7181 92.8881C44.0861 92.7601 44.4461 92.7841 44.7981 92.9601C45.1661 93.1361 45.4061 93.4081 45.5181 93.7761C45.6461 94.1601 45.6141 94.5201 45.4221 94.8561C45.2461 95.1921 44.9661 95.4241 44.5821 95.5521C43.9901 95.7121 43.3661 95.8721 42.7101 96.0321C42.0701 96.1921 41.3981 96.3441 40.6941 96.4881C41.2861 97.4641 41.9661 98.3841 42.7341 99.2481C43.5021 100.096 44.3261 100.816 45.2061 101.408C45.5101 101.616 45.7021 101.888 45.7821 102.224C45.8781 102.56 45.8461 102.888 45.6861 103.208C45.5261 103.528 45.2861 103.768 44.9661 103.928C44.6461 104.072 44.3181 104.088 43.9821 103.976C41.3261 103.096 39.2541 102.8 37.7661 103.088C36.2941 103.376 35.5181 104.12 35.4381 105.32C35.2941 107.512 37.3421 108.576 41.5821 108.512C41.9821 108.496 42.3181 108.632 42.5901 108.92C42.8781 109.192 43.0301 109.528 43.0461 109.928C43.0461 110.328 42.9101 110.664 42.6381 110.936C42.3661 111.224 42.0301 111.376 41.6301 111.392Z" fill="#2B2F3A"/>
<path d="M16.934 112.28C16.534 112.28 16.182 112.168 15.878 111.944C15.59 111.72 15.43 111.392 15.398 110.96C15.366 110.496 15.518 110.136 15.854 109.88C15.598 109.912 15.35 109.872 15.11 109.76C14.87 109.632 14.71 109.44 14.63 109.184C14.55 108.912 14.43 108.552 14.27 108.104C14.11 107.64 13.974 107.28 13.862 107.024C13.75 106.704 13.766 106.416 13.91 106.16C14.054 105.904 14.262 105.728 14.534 105.632C14.854 105.52 15.158 105.512 15.446 105.608C15.734 105.704 15.942 105.912 16.07 106.232C16.134 106.376 16.214 106.592 16.31 106.88C16.422 107.152 16.526 107.424 16.622 107.696C16.734 107.968 16.814 108.176 16.862 108.32C17.038 108.832 16.942 109.24 16.574 109.544C16.606 109.544 16.638 109.544 16.67 109.544C16.718 109.528 16.758 109.52 16.79 109.52C17.398 109.488 17.806 109.4 18.014 109.256C18.222 109.096 18.382 108.776 18.494 108.296C18.542 108.104 18.582 107.896 18.614 107.672C18.646 107.432 18.67 107.168 18.686 106.88C18.734 106.336 18.654 105.976 18.446 105.8C18.238 105.608 17.83 105.512 17.222 105.512H9.10999C7.89399 105.512 6.93399 105.408 6.22999 105.2C5.54199 104.992 5.04599 104.624 4.74199 104.096C4.45399 103.568 4.30999 102.832 4.30999 101.888V95.3599C4.30999 94.0319 4.66999 93.0959 5.38999 92.5519C6.10999 91.9919 7.27799 91.7119 8.89399 91.7119H9.13399C9.21399 91.4559 9.30199 91.1999 9.39799 90.9439C9.49399 90.6719 9.55799 90.4799 9.58999 90.3679C9.70199 89.9999 9.93399 89.7119 10.286 89.5039C10.638 89.2799 11.07 89.2079 11.582 89.2879C12.03 89.3679 12.358 89.5759 12.566 89.9119C12.79 90.2319 12.838 90.5759 12.71 90.9439C12.694 91.0079 12.662 91.1119 12.614 91.2559C12.566 91.3999 12.518 91.5519 12.47 91.7119H14.438C16.07 91.7119 17.246 91.9759 17.966 92.5039C18.686 93.0159 19.046 93.9519 19.046 95.3119V95.8399C19.046 97.1999 18.686 98.1439 17.966 98.6719C17.246 99.1839 16.07 99.4399 14.438 99.4399H7.35799V100.424H22.214C22.47 100.424 22.686 100.52 22.862 100.712C23.054 100.904 23.15 101.136 23.15 101.408C23.15 101.68 23.054 101.912 22.862 102.104C22.686 102.296 22.47 102.392 22.214 102.392H7.38199C7.44599 102.808 7.61399 103.088 7.88599 103.232C8.15799 103.376 8.61399 103.448 9.25399 103.448H17.726C19.23 103.448 20.294 103.752 20.918 104.36C21.542 104.952 21.798 105.784 21.686 106.856C21.638 107.288 21.582 107.704 21.518 108.104C21.47 108.488 21.43 108.792 21.398 109.016C21.174 110.264 20.686 111.12 19.934 111.584C19.182 112.048 18.182 112.28 16.934 112.28ZM1.45399 111.464C1.18199 111.288 0.989993 111.032 0.877993 110.696C0.781993 110.376 0.837993 110.064 1.04599 109.76C1.23799 109.488 1.45399 109.144 1.69399 108.728C1.93399 108.312 2.16599 107.896 2.38999 107.48C2.61399 107.048 2.78999 106.688 2.91799 106.4C3.07799 106.032 3.30999 105.792 3.61399 105.68C3.93399 105.568 4.26999 105.584 4.62199 105.728C4.94199 105.856 5.17399 106.088 5.31799 106.424C5.47799 106.744 5.47799 107.088 5.31799 107.456C5.17399 107.776 4.98199 108.16 4.74199 108.608C4.51799 109.04 4.28599 109.472 4.04599 109.904C3.80599 110.336 3.58999 110.704 3.39799 111.008C3.15799 111.36 2.85399 111.568 2.48599 111.632C2.11799 111.712 1.77399 111.656 1.45399 111.464ZM8.41399 111.536C8.06199 111.6 7.74199 111.544 7.45399 111.368C7.16599 111.208 6.99799 110.936 6.94999 110.552C6.91799 110.312 6.86999 110.016 6.80599 109.664C6.74199 109.312 6.67799 108.96 6.61399 108.608C6.54999 108.256 6.49399 107.96 6.44599 107.72C6.36599 107.368 6.42199 107.064 6.61399 106.808C6.80599 106.552 7.06199 106.392 7.38199 106.328C7.71799 106.248 8.02199 106.28 8.29399 106.424C8.56599 106.568 8.74199 106.824 8.82199 107.192C8.88599 107.432 8.94999 107.736 9.01399 108.104C9.09399 108.456 9.17399 108.816 9.25399 109.184C9.33399 109.536 9.38999 109.832 9.42199 110.072C9.50199 110.456 9.44599 110.776 9.25399 111.032C9.06199 111.288 8.78199 111.456 8.41399 111.536ZM12.374 110.672C12.038 110.768 11.718 110.736 11.414 110.576C11.11 110.432 10.918 110.176 10.838 109.808C10.774 109.488 10.678 109.096 10.55 108.632C10.422 108.152 10.318 107.76 10.238 107.456C10.126 107.12 10.15 106.824 10.31 106.568C10.486 106.312 10.726 106.144 11.03 106.064C11.35 105.968 11.654 105.984 11.942 106.112C12.23 106.24 12.43 106.48 12.542 106.832C12.638 107.12 12.75 107.504 12.878 107.984C13.022 108.464 13.134 108.848 13.214 109.136C13.31 109.504 13.27 109.824 13.094 110.096C12.934 110.384 12.694 110.576 12.374 110.672ZM7.35799 97.5439H14.246C15.238 97.5439 15.814 97.2079 15.974 96.5359H7.35799V97.5439ZM7.40599 94.7119H15.974C15.814 94.0399 15.238 93.7039 14.246 93.7039H9.13399C8.15799 93.7039 7.58199 94.0399 7.40599 94.7119Z" fill="#2B2F3A"/>
<g clip-path="url(#clip0_1718_28874)">
<path d="M53 1.56251C53 0.9455 53.5 0.445312 54.1169 0.445312H63.4717C64.0886 0.445312 64.5886 0.945498 64.5886 1.56251V50.4674C64.5886 51.0844 64.0886 51.5846 63.4717 51.5846H54.1169C53.5 51.5846 53 51.0844 53 50.4674V1.56251Z" fill="#4D6296"/>
<path d="M83.7212 34.2914C83.4359 35.492 82.0922 36.0076 80.9609 35.5154C73.0296 32.0648 71.6961 31.4847 59.9968 26.3949C62.7613 20.0368 70.1551 17.1243 76.5112 19.8896C82.1717 22.3523 85.1005 28.4874 83.7212 34.2914Z" fill="#CDAC00"/>
<path d="M201.776 47.2066C202.196 48.261 200.959 49.1972 200.059 48.5063L194.086 43.9214C194.027 43.8765 194.028 43.7881 194.087 43.7436L198.819 40.1623C198.878 40.1178 198.963 40.1415 198.99 40.2101L201.776 47.2066Z" fill="#E67642"/>
<path d="M187.647 33.3237C177.073 44.5973 164.258 49.9488 158.178 45.8724C157.665 45.5289 157.679 44.8265 158.265 44.6342C158.928 44.4165 159.769 44.2433 160.8 43.4089C166.301 37.544 169.985 32.6541 174.223 28.1357C176.23 25.9967 178.225 23.8695 180.333 21.6223C184.707 16.9591 189.107 13.3154 195.554 6.44219C196.267 5.54262 196.575 4.22276 196.983 3.23866C197.22 2.66876 197.916 2.6165 198.291 3.10615C202.745 8.91707 198.222 22.0501 187.647 33.3237Z" fill="#E67642"/>
<path d="M188.87 39.7633L162.354 18.6129C161.592 17.8554 162.036 17.1169 162.354 16.8424C163.661 15.4249 166.546 12.293 167.633 11.1057C168.992 9.62154 169.571 10.4008 170.275 11.1057C172.162 12.9425 192.694 32.1405 194.19 33.3483C195.687 34.556 198.783 35.5625 199.412 35.7134C200.041 35.8644 204.067 38.3554 201.249 42.5322C198.994 45.8736 195.604 44.9216 194.19 44.0279L188.87 39.7633Z" fill="#4D6296"/>
<path d="M131.64 3.40918C129.857 1.40535 127.664 0.224809 126.403 0C124.595 0 124.569 1.82298 124.569 1.92413C124.569 2.02528 124.973 12.4235 125.034 13.8396C125.095 15.2557 125.358 22.7408 125.337 26.8475C125.317 30.9542 124.696 36.3256 124.185 38.8894C123.979 39.9266 123.552 41.6178 123.097 43.1004C122.526 45.1256 121.818 46.8548 121.725 47.0332C121.09 48.2461 121.359 47.7172 120.766 48.7969C120.154 49.9106 120.054 51.3058 120.634 51.6562C120.952 51.8483 121.245 51.9017 121.779 51.8207C122.432 51.7219 122.865 51.6098 123.458 51.4344C130.568 49.04 134.573 39.9741 135.406 37.8761C136.238 35.778 137.404 32.5477 137.803 27.852C138.203 23.1563 137.937 19.593 137.037 15.0971C136.138 10.6013 133.955 6.0106 131.64 3.40918Z" fill="#CDAC00"/>
<path d="M109.861 33.3304C106.59 33.3304 105.319 30.5442 105.253 28.8683C104.956 21.3565 104.375 6.07812 104.356 5.25781C104.337 4.46897 105.082 4.15137 105.391 4.15137H113.903C114.598 4.21875 114.911 4.87863 114.904 5.26327C114.771 12.6799 114.503 27.8138 114.452 28.8683C114.452 30.3317 113.234 33.3304 109.861 33.3304Z" fill="#E67642"/>
<path d="M259.691 4.99414C260.307 4.99414 260.807 5.49433 260.807 6.11134V13.3731C260.807 13.9901 260.307 14.4903 259.691 14.4903L233.308 14.4903C232.691 14.4903 232.191 13.9901 232.191 13.3731L232.191 6.11134C232.191 5.49433 232.691 4.99414 233.308 4.99414L259.691 4.99414Z" fill="#4D6296"/>
<path d="M267.89 19.8286C268.506 19.8286 269.006 20.3288 269.006 20.9458V28.2076C269.006 28.8246 268.506 29.3248 267.89 29.3248L225.108 29.3248C224.491 29.3248 223.991 28.8246 223.991 28.2076L223.991 20.9458C223.991 20.3288 224.491 19.8286 225.108 19.8286L267.89 19.8286Z" fill="#CDAC00"/>
<path d="M234.151 49.6053C233.558 49.4355 233.293 48.7704 233.533 48.2019C238.318 36.866 238.773 35.7887 245.262 20.4155C250.4 22.3958 253.206 24.4077 253.398 28.1715C253.555 31.2534 251.691 35.8872 250.179 39.4698C247.011 46.974 240.03 51.289 234.151 49.6053Z" fill="#CDAC00"/>
<path d="M264.361 1.05453C265.146 0.102654 266.56 0.47359 267.187 1.53653C268.72 4.13707 269.364 5.22896 271.436 8.74395C272.063 9.80688 271.704 11.2266 270.492 11.4533C267.912 11.9354 265.194 10.7938 263.784 8.40245C262.374 6.01106 262.691 3.07895 264.361 1.05453Z" fill="#E67642"/>
<path d="M279.31 13.9561C278.525 14.908 277.11 14.537 276.484 13.4741C274.95 10.8736 274.307 9.78168 272.234 6.26669C271.608 5.20375 271.966 3.78401 273.179 3.55734C275.758 3.07526 278.476 4.2168 279.886 6.60819C281.296 8.99958 280.979 11.9317 279.31 13.9561Z" fill="#E67642"/>
</g>
<defs>
<clipPath id="clip0_1718_28874">
<rect width="228" height="54" fill="white" transform="translate(53)"/>
</clipPath>
</defs>
</svg>
