<svg viewBox="0 0 228 54" fill="none" xmlns="http://www.w3.org/2000/svg">
<g clip-path="url(#clip0_518_11330)">
<path d="M0 1.56227C0 0.945255 0.500039 0.445068 1.11687 0.445068H10.4717C11.0886 0.445068 11.5886 0.945254 11.5886 1.56226V50.4671C11.5886 51.0842 11.0886 51.5843 10.4717 51.5843H1.11687C0.500039 51.5843 0 51.0842 0 50.4671V1.56227Z" fill="#4D6296"/>
<path d="M30.7212 34.2913C30.4359 35.4919 29.0922 36.0075 27.9609 35.5153C20.0296 32.0647 18.6961 31.4846 6.99683 26.3948C9.7613 20.0367 17.1551 17.1242 23.5112 19.8895C29.1717 22.3521 32.1005 28.4873 30.7212 34.2913Z" fill="#CDAC00"/>
<path d="M148.776 47.2066C149.196 48.261 147.959 49.1972 147.059 48.5063L141.086 43.9214C141.027 43.8765 141.028 43.7881 141.087 43.7436L145.819 40.1623C145.878 40.1178 145.963 40.1415 145.99 40.2101L148.776 47.2066Z" fill="#E67642"/>
<path d="M134.647 33.3238C124.073 44.5974 111.258 49.9489 105.178 45.8725C104.665 45.5291 104.679 44.8266 105.265 44.6343C105.928 44.4167 106.769 44.2434 107.8 43.409C113.301 37.5441 116.985 32.6543 121.223 28.1358C123.23 25.9968 125.225 23.8696 127.333 21.6224C131.707 16.9592 136.107 13.3155 142.554 6.44231C143.267 5.54274 143.575 4.22288 143.983 3.23878C144.22 2.66888 144.916 2.61662 145.291 3.10628C149.745 8.91719 145.222 22.0502 134.647 33.3238Z" fill="#E67642"/>
<path d="M135.87 39.7633L109.354 18.6129C108.592 17.8554 109.036 17.1169 109.354 16.8424C110.661 15.4249 113.546 12.293 114.633 11.1057C115.992 9.62154 116.571 10.4008 117.275 11.1057C119.162 12.9425 139.694 32.1405 141.19 33.3483C142.687 34.556 145.783 35.5625 146.412 35.7134C147.041 35.8644 151.067 38.3554 148.249 42.5322C145.994 45.8736 142.604 44.9216 141.19 44.0279L135.87 39.7633Z" fill="#4D6296"/>
<path d="M78.64 3.40918C76.8565 1.40535 74.6637 0.224809 73.4027 0C71.5954 0 71.5685 1.82298 71.5685 1.92413C71.5685 2.02528 71.9731 12.4235 72.0338 13.8396C72.0945 15.2557 72.3575 22.7408 72.3373 26.8475C72.317 30.9542 71.6957 36.3256 71.1851 38.8894C70.9786 39.9266 70.5521 41.6178 70.0965 43.1004C69.526 45.1256 68.8185 46.8548 68.7251 47.0332C68.0899 48.2461 68.3588 47.7172 67.7656 48.7969C67.1537 49.9106 67.0544 51.3058 67.6339 51.6562C67.9517 51.8483 68.2445 51.9017 68.7791 51.8207C69.4317 51.7219 69.865 51.6098 70.4582 51.4344C77.5679 49.04 81.5731 39.9741 82.4057 37.8761C83.2382 35.778 84.4038 32.5477 84.8034 27.852C85.2031 23.1563 84.9367 19.593 84.0375 15.0971C83.1383 10.6013 80.9553 6.0106 78.64 3.40918Z" fill="#CDAC00"/>
<path d="M56.8612 33.3307C53.5902 33.3307 52.3187 30.5445 52.2525 28.8685C51.956 21.3568 51.3751 6.07837 51.3556 5.25806C51.3368 4.46922 52.0821 4.15161 52.3908 4.15161H60.9032C61.5978 4.21899 61.9106 4.87888 61.9037 5.26352C61.7714 12.6801 61.5031 27.814 61.4516 28.8685C61.4516 30.3319 60.2336 33.3307 56.8612 33.3307Z" fill="#E67642"/>
<path d="M206.691 4.99439C207.307 4.99439 207.807 5.49457 207.807 6.11158V13.3734C207.807 13.9904 207.307 14.4906 206.691 14.4906L180.308 14.4906C179.691 14.4906 179.191 13.9904 179.191 13.3734L179.191 6.11158C179.191 5.49457 179.691 4.99438 180.308 4.99438L206.691 4.99439Z" fill="#4D6296"/>
<path d="M214.89 19.829C215.506 19.829 216.006 20.3292 216.006 20.9462V28.208C216.006 28.825 215.506 29.3251 214.89 29.3251L172.108 29.3251C171.491 29.3251 170.991 28.825 170.991 28.208L170.991 20.9462C170.991 20.3292 171.491 19.829 172.108 19.829L214.89 19.829Z" fill="#CDAC00"/>
<path d="M181.151 49.6052C180.558 49.4354 180.293 48.7702 180.533 48.2018C185.318 36.8659 185.773 35.7886 192.262 20.4154C197.4 22.3957 200.206 24.4076 200.398 28.1714C200.555 31.2533 198.691 35.8871 197.179 39.4696C194.011 46.9739 187.03 51.2889 181.151 49.6052Z" fill="#CDAC00"/>
<path d="M211.361 1.05465C212.146 0.102776 213.56 0.473712 214.187 1.53665C215.72 4.13719 216.364 5.22908 218.436 8.74407C219.063 9.807 218.704 11.2268 217.492 11.4534C214.912 11.9355 212.194 10.794 210.784 8.40257C209.374 6.01118 209.691 3.07907 211.361 1.05465Z" fill="#E67642"/>
<path d="M226.31 13.9564C225.525 14.9082 224.11 14.5373 223.484 13.4744C221.95 10.8738 221.307 9.78192 219.234 6.26693C218.608 5.204 218.966 3.78425 220.179 3.55758C222.758 3.07551 225.476 4.21705 226.886 6.60843C228.296 8.99982 227.979 11.9319 226.31 13.9564Z" fill="#E67642"/>
</g>
<defs>
<clipPath id="clip0_518_11330">
<rect width="228" height="54" fill="white"/>
</clipPath>
</defs>
</svg>
