<svg viewBox="0 0 80 80" fill="none" xmlns="http://www.w3.org/2000/svg">
<g filter="url(#filter0_dd_1588_2416)">
<mask id="path-1-inside-1_1588_2416" fill="white">
<path d="M36.6072 50.6163C36.1389 49.6065 35.6807 48.6166 35.2197 47.6281C34.9539 47.058 34.6776 46.4927 34.4193 45.9193C34.35 45.7655 34.2614 45.6618 34.1077 45.5906C31.7798 44.5111 29.4597 43.4146 27.1239 42.3523C26.3548 42.0025 25.6012 41.6206 24.8261 41.2842C24.322 41.0654 24.028 40.694 24.0022 40.1321C23.9735 39.5089 24.2317 39.0349 24.7852 38.7575C25.4705 38.4141 26.1728 38.1045 26.8682 37.7811C28.9362 36.8192 31.0044 35.8578 33.0723 34.8959C33.3486 34.7674 33.6164 34.6159 33.9017 34.5126C34.2127 34.4001 34.3796 34.1955 34.5162 33.8984C35.4899 31.7823 36.4848 29.6761 37.4681 27.5645C37.8658 26.7106 38.2549 25.8527 38.6417 24.9938C39.0367 24.1166 39.9317 23.7569 40.7013 24.1722C40.9648 24.3144 41.1319 24.5386 41.2549 24.8035C41.8179 26.0157 42.3812 27.2277 42.9454 28.4394C43.5966 29.8382 44.2491 31.2364 44.9005 32.6352C45.0996 33.0627 45.3075 33.4866 45.4911 33.9208C45.6087 34.1988 45.786 34.3808 46.0653 34.5087C47.7101 35.2618 49.3472 36.0314 50.988 36.7933C52.3682 37.4342 53.7522 38.067 55.1296 38.7139C55.6831 38.9738 55.9958 39.4146 56 40.0401C56.0039 40.6348 55.7222 41.0458 55.1743 41.2804C54.9666 41.3693 54.7679 41.4789 54.5627 41.5741C52.1024 42.7156 49.6417 43.8563 47.1809 44.9969C46.7617 45.1912 46.3433 45.3871 45.9215 45.5754C45.7494 45.6522 45.64 45.7745 45.5616 45.9436C44.4955 48.244 43.4133 50.537 42.3649 52.8453C42.0195 53.6056 41.6461 54.3523 41.3058 55.1147C41.1126 55.5475 40.8063 55.8689 40.3192 55.9668C39.6369 56.1039 39.0471 55.8127 38.7174 55.154C38.3918 54.5036 38.0634 53.8528 37.781 53.1832C37.418 52.3222 37.0037 51.4859 36.6072 50.6163ZM38.8406 45.5965C39.2246 46.4106 39.6086 47.2247 39.9988 48.052C40.1584 47.9376 40.1967 47.8009 40.2516 47.6799C40.6902 46.7138 41.1235 45.7454 41.559 44.7779C41.8657 44.0966 42.1689 43.4153 42.6939 42.8604C43.2706 42.2507 44.0054 41.9059 44.7554 41.5765C45.7544 41.1377 46.7477 40.6861 47.7422 40.2372C47.8367 40.1945 47.9648 40.1638 47.9628 40.0299C47.9612 39.9252 47.8529 39.9025 47.7746 39.8655C46.4947 39.2612 45.2112 38.6644 43.9353 38.0517C43.0349 37.6192 42.3622 36.9428 41.9416 36.038C41.3784 34.8265 40.8397 33.6038 40.2885 32.3868C40.233 32.2642 40.1976 32.0887 40.0448 32.081C39.8815 32.0728 39.8559 32.2553 39.7993 32.3748C39.2062 33.6267 38.6276 34.8857 38.0194 36.1303C37.5732 37.0433 36.8747 37.7219 35.951 38.1533C34.731 38.7231 33.5052 39.2806 32.283 39.8458C32.1888 39.8893 32.0727 39.915 32.0401 40.0514C32.0891 40.1665 32.2049 40.211 32.309 40.257C33.3691 40.726 34.4211 41.2154 35.4954 41.6494C36.5892 42.0913 37.4474 42.7827 37.9971 43.8273C38.2942 44.3919 38.5467 44.9801 38.8406 45.5965Z"/>
</mask>
<path d="M36.6072 50.6163C36.1389 49.6065 35.6807 48.6166 35.2197 47.6281C34.9539 47.058 34.6776 46.4927 34.4193 45.9193C34.35 45.7655 34.2614 45.6618 34.1077 45.5906C31.7798 44.5111 29.4597 43.4146 27.1239 42.3523C26.3548 42.0025 25.6012 41.6206 24.8261 41.2842C24.322 41.0654 24.028 40.694 24.0022 40.1321C23.9735 39.5089 24.2317 39.0349 24.7852 38.7575C25.4705 38.4141 26.1728 38.1045 26.8682 37.7811C28.9362 36.8192 31.0044 35.8578 33.0723 34.8959C33.3486 34.7674 33.6164 34.6159 33.9017 34.5126C34.2127 34.4001 34.3796 34.1955 34.5162 33.8984C35.4899 31.7823 36.4848 29.6761 37.4681 27.5645C37.8658 26.7106 38.2549 25.8527 38.6417 24.9938C39.0367 24.1166 39.9317 23.7569 40.7013 24.1722C40.9648 24.3144 41.1319 24.5386 41.2549 24.8035C41.8179 26.0157 42.3812 27.2277 42.9454 28.4394C43.5966 29.8382 44.2491 31.2364 44.9005 32.6352C45.0996 33.0627 45.3075 33.4866 45.4911 33.9208C45.6087 34.1988 45.786 34.3808 46.0653 34.5087C47.7101 35.2618 49.3472 36.0314 50.988 36.7933C52.3682 37.4342 53.7522 38.067 55.1296 38.7139C55.6831 38.9738 55.9958 39.4146 56 40.0401C56.0039 40.6348 55.7222 41.0458 55.1743 41.2804C54.9666 41.3693 54.7679 41.4789 54.5627 41.5741C52.1024 42.7156 49.6417 43.8563 47.1809 44.9969C46.7617 45.1912 46.3433 45.3871 45.9215 45.5754C45.7494 45.6522 45.64 45.7745 45.5616 45.9436C44.4955 48.244 43.4133 50.537 42.3649 52.8453C42.0195 53.6056 41.6461 54.3523 41.3058 55.1147C41.1126 55.5475 40.8063 55.8689 40.3192 55.9668C39.6369 56.1039 39.0471 55.8127 38.7174 55.154C38.3918 54.5036 38.0634 53.8528 37.781 53.1832C37.418 52.3222 37.0037 51.4859 36.6072 50.6163ZM38.8406 45.5965C39.2246 46.4106 39.6086 47.2247 39.9988 48.052C40.1584 47.9376 40.1967 47.8009 40.2516 47.6799C40.6902 46.7138 41.1235 45.7454 41.559 44.7779C41.8657 44.0966 42.1689 43.4153 42.6939 42.8604C43.2706 42.2507 44.0054 41.9059 44.7554 41.5765C45.7544 41.1377 46.7477 40.6861 47.7422 40.2372C47.8367 40.1945 47.9648 40.1638 47.9628 40.0299C47.9612 39.9252 47.8529 39.9025 47.7746 39.8655C46.4947 39.2612 45.2112 38.6644 43.9353 38.0517C43.0349 37.6192 42.3622 36.9428 41.9416 36.038C41.3784 34.8265 40.8397 33.6038 40.2885 32.3868C40.233 32.2642 40.1976 32.0887 40.0448 32.081C39.8815 32.0728 39.8559 32.2553 39.7993 32.3748C39.2062 33.6267 38.6276 34.8857 38.0194 36.1303C37.5732 37.0433 36.8747 37.7219 35.951 38.1533C34.731 38.7231 33.5052 39.2806 32.283 39.8458C32.1888 39.8893 32.0727 39.915 32.0401 40.0514C32.0891 40.1665 32.2049 40.211 32.309 40.257C33.3691 40.726 34.4211 41.2154 35.4954 41.6494C36.5892 42.0913 37.4474 42.7827 37.9971 43.8273C38.2942 44.3919 38.5467 44.9801 38.8406 45.5965Z" fill="#FFFF62"/>
<path d="M36.6072 50.6163L37.517 50.2014L37.5144 50.1956L36.6072 50.6163ZM35.2197 47.6281L36.1261 47.2055L36.1261 47.2055L35.2197 47.6281ZM34.4193 45.9193L33.5076 46.33L33.5076 46.33L34.4193 45.9193ZM34.1077 45.5906L33.6871 46.4978L33.6871 46.4978L34.1077 45.5906ZM27.1239 42.3523L27.5379 41.442L27.5379 41.442L27.1239 42.3523ZM24.8261 41.2842L24.428 42.2016L24.428 42.2016L24.8261 41.2842ZM24.0022 40.1321L25.0011 40.0862L25.0011 40.0861L24.0022 40.1321ZM24.7852 38.7575L25.2333 39.6515L25.2333 39.6515L24.7852 38.7575ZM26.8682 37.7811L26.4464 36.8744L26.4464 36.8744L26.8682 37.7811ZM33.0723 34.8959L33.4941 35.8026L33.4941 35.8026L33.0723 34.8959ZM33.9017 34.5126L33.5615 33.5723L33.5615 33.5723L33.9017 34.5126ZM34.5162 33.8984L35.4247 34.3164L35.4247 34.3164L34.5162 33.8984ZM37.4681 27.5645L38.3747 27.9866L38.3747 27.9866L37.4681 27.5645ZM38.6417 24.9938L37.7298 24.5832L37.7298 24.5832L38.6417 24.9938ZM40.7013 24.1722L40.2264 25.0523L40.2264 25.0523L40.7013 24.1722ZM41.2549 24.8035L42.1619 24.3823L42.1619 24.3823L41.2549 24.8035ZM42.9454 28.4394L43.8519 28.0173L43.8519 28.0173L42.9454 28.4394ZM44.9005 32.6352L43.9939 33.0573L43.9939 33.0573L44.9005 32.6352ZM45.4911 33.9208L46.4121 33.5313L46.4121 33.5313L45.4911 33.9208ZM46.0653 34.5087L45.649 35.4179L45.649 35.4179L46.0653 34.5087ZM50.988 36.7933L51.4091 35.8863L51.4091 35.8863L50.988 36.7933ZM55.1296 38.7139L54.7045 39.619L54.7045 39.619L55.1296 38.7139ZM56 40.0401L56.9999 40.0334L56.9999 40.0334L56 40.0401ZM55.1743 41.2804L54.7807 40.3611L54.7807 40.3611L55.1743 41.2804ZM54.5627 41.5741L54.1419 40.6669L54.1419 40.6669L54.5627 41.5741ZM47.1809 44.9969L47.6014 45.9042L47.6014 45.9042L47.1809 44.9969ZM45.9215 45.5754L45.5139 44.6622L45.5139 44.6622L45.9215 45.5754ZM45.5616 45.9436L44.6544 45.5231L44.6544 45.5231L45.5616 45.9436ZM42.3649 52.8453L41.4544 52.4318L41.4544 52.4318L42.3649 52.8453ZM41.3058 55.1147L40.3926 54.7071L40.3926 54.7071L41.3058 55.1147ZM40.3192 55.9668L40.5162 56.9472L40.5162 56.9472L40.3192 55.9668ZM38.7174 55.154L37.8232 55.6016L37.8232 55.6017L38.7174 55.154ZM37.781 53.1832L38.7025 52.7947L38.7025 52.7947L37.781 53.1832ZM38.8406 45.5965L39.7451 45.1699L39.7433 45.1661L38.8406 45.5965ZM39.9988 48.052L39.0943 48.4786L39.6061 49.5636L40.5812 48.8649L39.9988 48.052ZM40.2516 47.6799L39.341 47.2665L39.341 47.2666L40.2516 47.6799ZM41.559 44.7779L42.4709 45.1884L42.4709 45.1884L41.559 44.7779ZM42.6939 42.8604L43.4203 43.5476L43.4203 43.5476L42.6939 42.8604ZM44.7554 41.5765L45.1576 42.492L45.1576 42.492L44.7554 41.5765ZM47.7422 40.2372L47.3308 39.3257L47.3307 39.3258L47.7422 40.2372ZM47.9628 40.0299L46.9629 40.0449L46.9629 40.0449L47.9628 40.0299ZM47.7746 39.8655L48.2016 38.9612L48.2016 38.9612L47.7746 39.8655ZM43.9353 38.0517L43.5024 38.9531L43.5024 38.9531L43.9353 38.0517ZM41.9416 36.038L41.0347 36.4595L41.0347 36.4595L41.9416 36.038ZM40.2885 32.3868L39.3776 32.7994L39.3776 32.7994L40.2885 32.3868ZM40.0448 32.081L40.0949 31.0823L40.0949 31.0823L40.0448 32.081ZM39.7993 32.3748L40.703 32.803L40.703 32.8029L39.7993 32.3748ZM38.0194 36.1303L38.9178 36.5693L38.9178 36.5693L38.0194 36.1303ZM35.951 38.1533L35.5279 37.2472L35.5279 37.2472L35.951 38.1533ZM32.283 39.8458L32.7028 40.7534L32.7028 40.7534L32.283 39.8458ZM32.0401 40.0514L31.0675 39.819L30.9909 40.1397L31.12 40.443L32.0401 40.0514ZM32.309 40.257L31.9044 41.1715L31.9044 41.1715L32.309 40.257ZM35.4954 41.6494L35.1208 42.5766L35.1208 42.5766L35.4954 41.6494ZM37.9971 43.8273L38.882 43.3616L38.882 43.3616L37.9971 43.8273ZM37.5144 50.1956C37.0465 49.1866 36.5876 48.1953 36.1261 47.2055L34.3134 48.0507C34.7738 49.038 35.2313 50.0263 35.6999 51.037L37.5144 50.1956ZM36.1261 47.2055C35.8484 46.6101 35.5873 46.0773 35.3311 45.5086L33.5076 46.33C33.768 46.9082 34.0594 47.5059 34.3134 48.0507L36.1261 47.2055ZM35.3311 45.5086C35.1833 45.1806 34.941 44.8747 34.5284 44.6833L33.6871 46.4978C33.6569 46.4838 33.6078 46.4535 33.5613 46.4032C33.5184 46.357 33.5038 46.3216 33.5076 46.33L35.3311 45.5086ZM34.5284 44.6833C32.2099 43.6083 29.8776 42.5061 27.5379 41.442L26.7099 43.2626C29.0418 44.3231 31.3497 45.414 33.6871 46.4978L34.5284 44.6833ZM27.5379 41.442C26.8398 41.1245 25.99 40.6992 25.2242 40.3669L24.428 42.2016C25.2123 42.5419 25.8699 42.8806 26.7099 43.2626L27.5379 41.442ZM25.2242 40.3669C25.0965 40.3114 25.0538 40.2627 25.041 40.2452C25.0321 40.2331 25.0061 40.1957 25.0011 40.0862L23.0032 40.1781C23.024 40.6304 23.158 41.0597 23.4286 41.4285C23.6953 41.7919 24.0517 42.0382 24.428 42.2016L25.2242 40.3669ZM25.0011 40.0861C24.9937 39.9254 25.025 39.8444 25.0466 39.8059C25.0665 39.7707 25.1102 39.7132 25.2333 39.6515L24.3372 37.8635C23.9067 38.0792 23.5446 38.3974 23.3041 38.8244C23.0654 39.248 22.9819 39.7157 23.0032 40.1781L25.0011 40.0861ZM25.2333 39.6515C25.9015 39.3166 26.5698 39.0227 27.2899 38.6878L26.4464 36.8744C25.7759 37.1863 25.0396 37.5115 24.3372 37.8635L25.2333 39.6515ZM27.2899 38.6878C29.357 37.7263 31.4267 36.7643 33.4941 35.8026L32.6506 33.9892C30.5821 34.9514 28.5153 35.9121 26.4464 36.8744L27.2899 38.6878ZM33.4941 35.8026C33.8722 35.6267 34.0073 35.5379 34.242 35.453L33.5615 33.5723C33.2255 33.6939 32.8251 33.908 32.6506 33.9892L33.4941 35.8026ZM34.242 35.453C34.8865 35.2198 35.2187 34.764 35.4247 34.3164L33.6078 33.4804C33.5658 33.5716 33.5453 33.5902 33.5509 33.5844C33.5546 33.5804 33.561 33.5749 33.5679 33.5705C33.5745 33.5662 33.5741 33.5677 33.5615 33.5723L34.242 35.453ZM35.4247 34.3164C36.3973 32.2024 37.3879 30.1055 38.3747 27.9866L36.5616 27.1423C35.5816 29.2466 34.5824 31.3622 33.6078 33.4804L35.4247 34.3164ZM38.3747 27.9866C38.775 27.127 39.1661 26.2646 39.5535 25.4044L37.7298 24.5832C37.3437 25.4407 36.9566 26.2941 36.5616 27.1423L38.3747 27.9866ZM39.5535 25.4044C39.6558 25.1772 39.7974 25.0688 39.9022 25.0269C39.999 24.9882 40.105 24.9868 40.2264 25.0523L41.1762 23.2922C39.8053 22.5524 38.3188 23.2752 37.7298 24.5832L39.5535 25.4044ZM40.2264 25.0523C40.2385 25.0588 40.25 25.0671 40.2661 25.0862C40.2849 25.1086 40.3132 25.1499 40.348 25.2247L42.1619 24.3823C41.9834 23.9979 41.6919 23.5705 41.1762 23.2922L40.2264 25.0523ZM40.348 25.2247C40.911 26.4371 41.4745 27.6494 42.0388 28.8615L43.8519 28.0173C43.288 26.806 42.7248 25.5943 42.1619 24.3823L40.348 25.2247ZM42.0388 28.8615C42.6893 30.2587 43.3438 31.6612 43.9939 33.0573L45.807 32.213C45.1544 30.8117 44.5039 29.4177 43.8519 28.0173L42.0388 28.8615ZM43.9939 33.0573C44.2044 33.5093 44.3957 33.8981 44.5701 34.3103L46.4121 33.5313C46.2192 33.0752 45.9947 32.6161 45.807 32.213L43.9939 33.0573ZM44.5701 34.3103C44.7865 34.8219 45.1458 35.1875 45.649 35.4179L46.4816 33.5995C46.4571 33.5882 46.4437 33.5799 46.4378 33.5759C46.4324 33.5722 46.4317 33.571 46.4331 33.5725C46.4346 33.574 46.4341 33.5739 46.4314 33.5698C46.4285 33.5653 46.4216 33.5536 46.4121 33.5313L44.5701 34.3103ZM45.649 35.4179C47.2908 36.1696 48.9201 36.9357 50.5668 37.7003L51.4091 35.8863C49.7744 35.1272 48.1294 34.3539 46.4816 33.5995L45.649 35.4179ZM50.5668 37.7003C51.9552 38.345 53.3288 38.9729 54.7045 39.619L55.5547 37.8088C54.1757 37.1611 52.7812 36.5235 51.4091 35.8863L50.5668 37.7003ZM54.7045 39.619C54.8489 39.6869 54.9111 39.7534 54.9398 39.7963C54.9661 39.8355 54.999 39.9057 55 40.0467L56.9999 40.0334C56.9967 39.549 56.8712 39.0861 56.6017 38.6836C56.3347 38.2847 55.9637 38.0009 55.5547 37.8088L54.7045 39.619ZM55 40.0467C55.0009 40.1799 54.9715 40.2264 54.9635 40.2383C54.954 40.2526 54.9158 40.3033 54.7807 40.3611L55.5679 42.1997C55.9807 42.0229 56.3573 41.7508 56.6246 41.3522C56.8935 40.9513 57.003 40.495 56.9999 40.0334L55 40.0467ZM54.7807 40.3611C54.6487 40.4176 54.5254 40.4782 54.422 40.5296C54.3114 40.5847 54.2283 40.6268 54.1419 40.6669L54.9836 42.4812C55.1023 42.4261 55.2211 42.3659 55.3131 42.3201C55.4123 42.2708 55.4922 42.2321 55.5679 42.1997L54.7807 40.3611ZM54.1419 40.6669C51.6817 41.8084 49.2211 42.9491 46.7604 44.0896L47.6014 45.9042C50.0622 44.7636 52.5231 43.6228 54.9836 42.4812L54.1419 40.6669ZM46.7604 44.0896C46.3363 44.2862 45.9273 44.4777 45.5139 44.6622L46.3291 46.4886C46.7593 46.2965 47.1872 46.0962 47.6014 45.9042L46.7604 44.0896ZM45.5139 44.6622C45.0846 44.8539 44.8161 45.174 44.6544 45.5231L46.4689 46.3641C46.472 46.3574 46.4615 46.3822 46.429 46.4161C46.3941 46.4527 46.3561 46.4765 46.3291 46.4886L45.5139 44.6622ZM44.6544 45.5231C43.5923 47.8147 42.5048 50.1192 41.4544 52.4318L43.2753 53.2589C44.3219 50.9548 45.3987 48.6733 46.4689 46.3641L44.6544 45.5231ZM41.4544 52.4318C41.286 52.8024 41.1105 53.1704 40.9302 53.5502C40.7513 53.9269 40.5682 54.3139 40.3926 54.7071L42.219 55.5223C42.3838 55.1531 42.5575 54.7856 42.7367 54.4083C42.9145 54.0341 43.0984 53.6485 43.2753 53.2589L41.4544 52.4318ZM40.3926 54.7071C40.3375 54.8306 40.2857 54.8941 40.2506 54.9259C40.2225 54.9514 40.1882 54.9732 40.1222 54.9864L40.5162 56.9472C41.4069 56.7682 41.9343 56.1601 42.219 55.5223L40.3926 54.7071ZM40.1222 54.9864C39.9754 55.0159 39.8886 54.9922 39.836 54.9658C39.7815 54.9383 39.6948 54.8725 39.6116 54.7064L37.8232 55.6017C38.0698 56.0942 38.4428 56.5033 38.9362 56.7519C39.4315 57.0014 39.9806 57.0549 40.5162 56.9472L40.1222 54.9864ZM39.6116 54.7064C39.2821 54.0481 38.9696 53.4283 38.7025 52.7947L36.8596 53.5718C37.1571 54.2773 37.5016 54.9592 37.8232 55.6016L39.6116 54.7064ZM38.7025 52.7947C38.3333 51.9192 37.8944 51.029 37.517 50.2014L35.6973 51.0312C36.113 51.9428 36.5026 52.7252 36.8596 53.5718L38.7025 52.7947ZM37.9362 46.0231C38.3202 46.8372 38.7041 47.6513 39.0943 48.4786L40.9032 47.6254C40.513 46.7981 40.1291 45.984 39.7451 45.17L37.9362 46.0231ZM40.5812 48.8649C41.0119 48.5563 41.1601 48.0978 41.1622 48.0933L39.341 47.2666C39.329 47.2931 39.3185 47.3176 39.3114 47.3343C39.303 47.354 39.2994 47.3626 39.2949 47.3728C39.2872 47.3906 39.2888 47.3853 39.2965 47.3718C39.3054 47.3562 39.3212 47.3317 39.3447 47.3048C39.3686 47.2775 39.3935 47.2554 39.4163 47.2391L40.5812 48.8649ZM41.1621 48.0933C41.6016 47.1254 42.0366 46.153 42.4709 45.1884L40.6472 44.3674C40.2103 45.3377 39.7788 46.3023 39.341 47.2665L41.1621 48.0933ZM42.4709 45.1884C42.7906 44.4781 43.0312 43.9589 43.4203 43.5476L41.9674 42.1731C41.3066 42.8717 40.9408 43.715 40.6472 44.3674L42.4709 45.1884ZM43.4203 43.5476C43.842 43.1018 44.3999 42.8248 45.1576 42.492L44.3533 40.6609C43.6109 40.987 42.6992 41.3996 41.9674 42.1731L43.4203 43.5476ZM45.1576 42.492C46.1626 42.0506 47.1625 41.596 48.1536 41.1486L47.3307 39.3258C46.3329 39.7762 45.3462 40.2248 44.3533 40.6609L45.1576 42.492ZM48.1536 41.1486C48.1493 41.1506 48.1483 41.1509 48.1608 41.1457C48.169 41.1423 48.1922 41.1328 48.2151 41.1229C48.259 41.1038 48.3522 41.0621 48.4524 40.9937C48.557 40.9223 48.6954 40.8046 48.8037 40.6209C48.9172 40.4285 48.9657 40.2181 48.9626 40.0149L46.9629 40.0449C46.9608 39.9087 46.9941 39.7523 47.0811 39.6047C47.1631 39.4658 47.2639 39.3835 47.3249 39.3418C47.3556 39.3209 47.3808 39.3071 47.3955 39.2995C47.4031 39.2956 47.4091 39.2927 47.4128 39.291C47.4147 39.2901 47.4161 39.2894 47.4171 39.289C47.418 39.2886 47.4186 39.2884 47.4186 39.2884C47.4186 39.2884 47.4182 39.2885 47.4173 39.2889C47.4163 39.2893 47.415 39.2898 47.4132 39.2906C47.4086 39.2925 47.4051 39.294 47.3969 39.2973C47.3843 39.3025 47.3587 39.3131 47.3308 39.3257L48.1536 41.1486ZM48.9626 40.0149C48.9595 39.8041 48.8982 39.5946 48.7763 39.4114C48.6623 39.24 48.5248 39.1358 48.4313 39.0767C48.341 39.0197 48.2581 38.9845 48.2265 38.9711C48.1673 38.9461 48.1973 38.9592 48.2016 38.9612L47.3477 40.7698C47.3783 40.7842 47.4051 40.7956 47.42 40.8018C47.4452 40.8123 47.4365 40.8085 47.4471 40.813C47.4579 40.8176 47.4169 40.8015 47.3636 40.7679C47.3071 40.7322 47.2019 40.6556 47.1111 40.5192C47.0124 40.3708 46.9653 40.2034 46.9629 40.0449L48.9626 40.0149ZM48.2016 38.9612C46.9143 38.3535 45.6404 37.7612 44.3683 37.1502L43.5024 38.9531C44.7819 39.5676 46.0751 40.169 47.3477 40.7698L48.2016 38.9612ZM44.3683 37.1502C43.6741 36.8168 43.1702 36.3088 42.8484 35.6165L41.0347 36.4595C41.5541 37.5768 42.3957 38.4215 43.5024 38.9531L44.3683 37.1502ZM42.8484 35.6165C42.2876 34.4101 41.7567 33.2046 41.1994 31.9742L39.3776 32.7994C39.9227 34.003 40.4693 35.243 41.0347 36.4595L42.8484 35.6165ZM41.1994 31.9742C41.2021 31.98 41.2021 31.9807 41.1976 31.9692C41.1954 31.9636 41.1931 31.9578 41.1894 31.9486C41.1862 31.9402 41.1818 31.929 41.177 31.9172C41.1604 31.8756 41.124 31.7854 41.0681 31.6891C41.0117 31.5917 40.9112 31.4449 40.7434 31.3177C40.5611 31.1796 40.3381 31.0945 40.0949 31.0823L39.9947 33.0798C39.8278 33.0714 39.6666 33.0111 39.5357 32.9119C39.4191 32.8236 39.3597 32.7298 39.3381 32.6926C39.3171 32.6564 39.3095 32.6336 39.3199 32.6596C39.3206 32.6611 39.3514 32.7415 39.3776 32.7994L41.1994 31.9742ZM40.0949 31.0823C39.8504 31.07 39.6007 31.132 39.3838 31.2793C39.1854 31.414 39.0726 31.5806 39.0129 31.6854C38.9547 31.7877 38.918 31.8849 38.9044 31.9204C38.8809 31.9818 38.8882 31.9623 38.8955 31.9467L40.703 32.8029C40.7387 32.7276 40.7703 32.6404 40.7727 32.6343C40.7849 32.6022 40.7755 32.6319 40.7511 32.6747C40.7253 32.7199 40.653 32.835 40.5072 32.934C40.3427 33.0457 40.1575 33.0879 39.9947 33.0798L40.0949 31.0823ZM38.8956 31.9467C38.2954 33.2134 37.726 34.4532 37.1209 35.6912L38.9178 36.5693C39.5292 35.3183 40.1169 34.0401 40.703 32.803L38.8956 31.9467ZM37.1209 35.6912C36.777 36.3949 36.2484 36.9108 35.5279 37.2472L36.3742 39.0594C37.5011 38.5331 38.3693 37.6916 38.9178 36.5693L37.1209 35.6912ZM35.5279 37.2472C34.3084 37.8167 33.0948 38.3686 31.8632 38.9382L32.7028 40.7534C33.9156 40.1925 35.1535 39.6294 36.3742 39.0594L35.5279 37.2472ZM31.8632 38.9382C31.8686 38.9357 31.8702 38.9351 31.8603 38.9393C31.8553 38.9414 31.8321 38.951 31.8128 38.9593C31.7718 38.9771 31.6884 39.0142 31.597 39.073C31.3781 39.214 31.1545 39.4546 31.0675 39.819L33.0128 40.2837C32.9901 40.3788 32.9455 40.48 32.8743 40.5735C32.8054 40.6641 32.7312 40.7215 32.6799 40.7545C32.6334 40.7845 32.5987 40.7985 32.607 40.7949C32.6123 40.7926 32.614 40.792 32.6335 40.7838C32.648 40.7777 32.6738 40.7668 32.7028 40.7534L31.8632 38.9382ZM31.12 40.443C31.245 40.7367 31.4503 40.9154 31.6087 41.0184C31.7417 41.1049 31.8917 41.1659 31.9044 41.1715L32.7136 39.3425C32.6714 39.3239 32.6688 39.323 32.6583 39.318C32.6535 39.3158 32.6715 39.3239 32.6991 39.3418C32.7614 39.3823 32.8842 39.4812 32.9602 39.6597L31.12 40.443ZM31.9044 41.1715C32.9414 41.6303 34.0264 42.1344 35.1208 42.5766L35.87 40.7223C34.8157 40.2963 33.7968 39.8217 32.7136 39.3425L31.9044 41.1715ZM35.1208 42.5766C36.034 42.9456 36.6906 43.4921 37.1121 44.293L38.882 43.3616C38.2041 42.0734 37.1443 41.2371 35.87 40.7223L35.1208 42.5766ZM37.1121 44.293C37.3985 44.8371 37.6202 45.3604 37.938 46.0269L39.7433 45.1661C39.4732 44.5997 39.1899 43.9467 38.882 43.3616L37.1121 44.293Z" fill="#FFF762" mask="url(#path-1-inside-1_1588_2416)"/>
</g>
<defs>
<filter id="filter0_dd_1588_2416" x="0" y="0" width="80" height="80" filterUnits="userSpaceOnUse" color-interpolation-filters="sRGB">
<feFlood flood-opacity="0" result="BackgroundImageFix"/>
<feColorMatrix in="SourceAlpha" type="matrix" values="0 0 0 0 0 0 0 0 0 0 0 0 0 0 0 0 0 0 127 0" result="hardAlpha"/>
<feOffset/>
<feGaussianBlur stdDeviation="12"/>
<feComposite in2="hardAlpha" operator="out"/>
<feColorMatrix type="matrix" values="0 0 0 0 1 0 0 0 0 1 0 0 0 0 1 0 0 0 1 0"/>
<feBlend mode="overlay" in2="BackgroundImageFix" result="effect1_dropShadow_1588_2416"/>
<feColorMatrix in="SourceAlpha" type="matrix" values="0 0 0 0 0 0 0 0 0 0 0 0 0 0 0 0 0 0 127 0" result="hardAlpha"/>
<feOffset dy="4"/>
<feGaussianBlur stdDeviation="8"/>
<feComposite in2="hardAlpha" operator="out"/>
<feColorMatrix type="matrix" values="0 0 0 0 1 0 0 0 0 0.914478 0 0 0 0 0.266958 0 0 0 1 0"/>
<feBlend mode="normal" in2="effect1_dropShadow_1588_2416" result="effect2_dropShadow_1588_2416"/>
<feBlend mode="normal" in="SourceGraphic" in2="effect2_dropShadow_1588_2416" result="shape"/>
</filter>
</defs>
</svg>
