<svg viewBox="0 0 64 63" fill="none" xmlns="http://www.w3.org/2000/svg">
<g filter="url(#filter0_dd_1588_2418)">
<path d="M31.783 38.9875C31.367 38.9269 31.1506 38.6847 31.0211 38.3566C30.5006 37.0382 29.9766 35.7209 29.4671 34.3987C29.3704 34.1479 29.2332 33.9956 28.9523 33.9004C27.6698 33.4659 26.3968 33.0067 25.1212 32.5546C24.93 32.4868 24.7403 32.4144 24.5542 32.3352C24.1625 32.1686 23.9886 31.8643 24.0006 31.4769C24.0123 31.1005 24.1962 30.8095 24.5883 30.669C25.671 30.281 26.7552 29.8964 27.8391 29.5114C28.2491 29.3658 28.6577 29.2161 29.0718 29.0818C29.2563 29.022 29.3494 28.9148 29.4162 28.7465C29.9559 27.3854 30.5018 26.0265 31.0529 24.6694C31.2377 24.2143 31.5604 23.988 32.0112 24.0005C32.4808 24.0135 32.788 24.2463 32.9523 24.6595C33.4764 25.977 34.0153 27.2896 34.5247 28.6121C34.6322 28.8912 34.7952 29.0418 35.0855 29.1393C36.47 29.6046 37.8481 30.0867 39.2294 30.5604C39.7988 30.7557 40.0095 31.0265 39.9997 31.557C39.9913 32.0113 39.725 32.2849 39.2945 32.4348C37.9892 32.8893 36.6896 33.3603 35.3713 33.7791C34.8729 33.9375 34.6023 34.1849 34.4323 34.6569C33.9808 35.9107 33.4681 37.1452 32.9735 38.3852C32.7818 38.8658 32.4077 39.0525 31.783 38.9875Z" fill="#FFFF62"/>
<path d="M25.2882 32.0833L25.2882 32.0833C25.1045 32.0182 24.9246 31.9494 24.7499 31.8751C24.6328 31.8253 24.5782 31.7689 24.5498 31.7236C24.5208 31.6772 24.4968 31.6063 24.5003 31.4924L24.5003 31.4924C24.5038 31.3821 24.5309 31.3147 24.561 31.2718C24.5899 31.2307 24.6436 31.1803 24.7569 31.1397L24.5883 30.669L24.7569 31.1397C25.7363 30.7887 26.7169 30.4405 27.6983 30.092C27.801 30.0555 27.9037 30.019 28.0065 29.9825C28.0941 29.9514 28.181 29.9203 28.2673 29.8895C28.5907 29.7739 28.906 29.6612 29.2261 29.5574C29.3815 29.507 29.524 29.4274 29.6437 29.3064C29.7605 29.1882 29.832 29.0543 29.881 28.9308C30.4202 27.5711 30.9655 26.2134 31.5161 24.8575C31.5815 24.6967 31.6556 24.6135 31.7187 24.5694C31.7785 24.5277 31.8627 24.4966 31.9973 24.5003C32.1502 24.5045 32.2437 24.5426 32.3056 24.5868C32.3685 24.6318 32.4335 24.708 32.4877 24.8443C32.6645 25.2886 32.8421 25.7305 33.0194 26.1713C33.3706 27.045 33.7203 27.9148 34.0581 28.7918C34.1322 28.9841 34.237 29.161 34.3948 29.3088C34.5515 29.4555 34.7339 29.5487 34.9262 29.6133C35.8462 29.9224 36.7616 30.2384 37.6793 30.5553C38.1411 30.7147 38.6034 30.8743 39.0673 31.0334C39.3118 31.1172 39.4001 31.1922 39.4363 31.239C39.465 31.276 39.5034 31.3493 39.4998 31.5478C39.4975 31.6717 39.4634 31.74 39.4232 31.7876C39.3767 31.8428 39.2897 31.907 39.1301 31.9626L39.2945 32.4348L39.1301 31.9626C38.815 32.0723 38.5014 32.1826 38.1886 32.2926C37.1978 32.6409 36.2153 32.9863 35.2199 33.3026C34.9244 33.3965 34.6593 33.5285 34.4381 33.7343C34.215 33.9418 34.0668 34.1961 33.9619 34.4875C33.6165 35.4467 33.2358 36.3922 32.8511 37.3477C32.7372 37.6307 32.6229 37.9146 32.5091 38.1999C32.4488 38.351 32.3809 38.4115 32.3155 38.4445C32.2381 38.4835 32.0985 38.5163 31.8457 38.4913C31.7309 38.4731 31.6685 38.4359 31.6275 38.3993C31.5806 38.3575 31.5321 38.2894 31.4861 38.173C31.3851 37.917 31.2839 37.6612 31.1829 37.4055C30.7628 36.3429 30.3436 35.2827 29.9336 34.2189C29.869 34.0511 29.7779 33.8829 29.6319 33.7373C29.4846 33.5903 29.3084 33.4932 29.1127 33.4269C28.118 33.0898 27.1298 32.7382 26.1374 32.3851C25.8548 32.2845 25.5718 32.1838 25.2882 32.0833Z" stroke="#FFF762"/>
</g>
<defs>
<filter id="filter0_dd_1588_2418" x="0" y="0" width="64" height="63" filterUnits="userSpaceOnUse" color-interpolation-filters="sRGB">
<feFlood flood-opacity="0" result="BackgroundImageFix"/>
<feColorMatrix in="SourceAlpha" type="matrix" values="0 0 0 0 0 0 0 0 0 0 0 0 0 0 0 0 0 0 127 0" result="hardAlpha"/>
<feOffset/>
<feGaussianBlur stdDeviation="12"/>
<feComposite in2="hardAlpha" operator="out"/>
<feColorMatrix type="matrix" values="0 0 0 0 1 0 0 0 0 1 0 0 0 0 1 0 0 0 1 0"/>
<feBlend mode="overlay" in2="BackgroundImageFix" result="effect1_dropShadow_1588_2418"/>
<feColorMatrix in="SourceAlpha" type="matrix" values="0 0 0 0 0 0 0 0 0 0 0 0 0 0 0 0 0 0 127 0" result="hardAlpha"/>
<feOffset dy="4"/>
<feGaussianBlur stdDeviation="8"/>
<feComposite in2="hardAlpha" operator="out"/>
<feColorMatrix type="matrix" values="0 0 0 0 1 0 0 0 0 0.914478 0 0 0 0 0.266958 0 0 0 1 0"/>
<feBlend mode="normal" in2="effect1_dropShadow_1588_2418" result="effect2_dropShadow_1588_2418"/>
<feBlend mode="normal" in="SourceGraphic" in2="effect2_dropShadow_1588_2418" result="shape"/>
</filter>
</defs>
</svg>
