<svg viewBox="0 0 115 50" fill="none" xmlns="http://www.w3.org/2000/svg">
<path fill-rule="evenodd" clip-rule="evenodd" d="M26.7901 35.8503C16.9038 45.0177 5.8756 49.0573 0.369049 45.366C-0.143359 45.0225 -0.129514 44.32 0.456596 44.1277C0.550073 44.0971 0.647079 44.0673 0.747646 44.0364C1.36069 43.8481 2.10606 43.6193 2.99123 42.9025C5.92097 39.779 8.33538 36.9321 10.5926 34.2706L10.5926 34.2706C12.5738 31.9345 14.4338 29.7413 16.4149 27.6292L16.4442 27.5979L4.54482 18.1065C3.78327 17.349 4.22751 16.6105 4.54482 16.3359C5.85181 14.9184 8.73753 11.7866 9.8245 10.5993C11.0988 9.20731 11.687 9.80631 12.3364 10.4676C12.3794 10.5114 12.4227 10.5555 12.4664 10.5993C13.3244 11.4344 18.0364 15.8582 23.0612 20.5485C24.8602 18.6643 26.6775 16.9229 28.6533 15.0297C31.2907 12.5024 34.2105 9.70458 37.7455 5.93576C38.2564 5.29085 38.5595 4.42994 38.8406 3.63158C38.9516 3.31633 39.0591 3.01082 39.1747 2.73223C39.4111 2.16233 40.1075 2.11007 40.4828 2.59972C44.5085 7.85183 41.2003 19.0855 32.7191 29.5214C34.6542 31.3055 36.0333 32.5608 36.3815 32.8419C37.8779 34.0496 40.9742 35.0561 41.6032 35.207C42.2323 35.358 46.2581 37.849 43.44 42.0257C43.1541 42.4495 42.8499 42.8042 42.5338 43.0988L43.9677 46.7002C44.3876 47.7546 43.1503 48.6908 42.2502 47.9998L36.5427 43.6186C36.4865 43.5863 36.4327 43.5539 36.3815 43.5215L31.0609 39.2569L26.7901 35.8503Z" fill="#CDAC00"/>
<path d="M93.6903 4.48731C94.3071 4.48731 94.8072 4.98749 94.8072 5.6045V12.8663C94.8072 13.4833 94.3071 13.9835 93.6903 13.9835L67.3073 13.9835C66.6905 13.9835 66.1904 13.4833 66.1904 12.8663L66.1904 5.6045C66.1904 4.98749 66.6905 4.4873 67.3073 4.4873L93.6903 4.48731Z" fill="#CDAC00"/>
<path fill-rule="evenodd" clip-rule="evenodd" d="M103.006 20.439C103.006 19.822 102.506 19.3218 101.89 19.3218H59.1081C58.4912 19.3218 57.9912 19.822 57.9912 20.439V27.7007C57.9912 28.3178 58.4912 28.8179 59.1081 28.8179L75.5014 28.8179L67.5334 47.6951C67.2935 48.2635 67.558 48.9287 68.151 49.0985C74.0303 50.7822 81.0111 46.4672 84.1786 38.9629C85.5121 35.8037 87.1192 31.827 87.3727 28.8179L101.89 28.8179C102.506 28.8179 103.006 28.3178 103.006 27.7008V20.439Z" fill="#CDAC00"/>
<path d="M98.3608 0.547693C99.1459 -0.404182 100.56 -0.0332456 101.187 1.02969C102.72 3.63023 103.364 4.72213 105.436 8.23711C106.063 9.30005 105.704 10.7198 104.492 10.9465C101.913 11.4285 99.1942 10.287 97.7843 7.89561C96.3744 5.50422 96.6911 2.57211 98.3608 0.547693Z" fill="#CDAC00"/>
<path d="M113.309 13.4493C112.524 14.4011 111.11 14.0302 110.483 12.9673C108.95 10.3667 108.306 9.27484 106.234 5.75985C105.607 4.69692 105.966 3.27717 107.178 3.0505C109.758 2.56843 112.476 3.70997 113.886 6.10135C115.296 8.49274 114.979 11.4249 113.309 13.4493Z" fill="#CDAC00"/>
</svg>
